  0
SECTION
  2
HEADER
  9
$ACADVER
  1
AC1024
  9
$ACADMAINTVER
 70
6
  9
$DWGCODEPAGE
  3
ANSI_1252
  9
$LASTSAVEDBY
  1
ezdxf
  9
$INSBASE
 10
0.0
 20
0.0
 30
0.0
  9
$EXTMIN
 10
1e+20
 20
1e+20
 30
1e+20
  9
$EXTMAX
 10
-1e+20
 20
-1e+20
 30
-1e+20
  9
$LIMMIN
 10
0.0
 20
0.0
  9
$LIMMAX
 10
420.0
 20
297.0
  9
$ORTHOMODE
 70
0
  9
$REGENMODE
 70
1
  9
$FILLMODE
 70
1
  9
$QTEXTMODE
 70
0
  9
$MIRRTEXT
 70
1
  9
$LTSCALE
 40
1.0
  9
$ATTMODE
 70
1
  9
$TEXTSIZE
 40
2.5
  9
$TRACEWID
 40
1.0
  9
$TEXTSTYLE
  7
Standard
  9
$CLAYER
  8
0
  9
$CELTYPE
  6
ByLayer
  9
$CECOLOR
 62
256
  9
$CELTSCALE
 40
1.0
  9
$DISPSILH
 70
0
  9
$DIMSCALE
 40
1.0
  9
$DIMASZ
 40
2.5
  9
$DIMEXO
 40
0.625
  9
$DIMDLI
 40
3.75
  9
$DIMRND
 40
0.0
  9
$DIMDLE
 40
0.0
  9
$DIMEXE
 40
1.25
  9
$DIMTP
 40
0.0
  9
$DIMTM
 40
0.0
  9
$DIMTXT
 40
2.5
  9
$DIMCEN
 40
2.5
  9
$DIMTSZ
 40
0.0
  9
$DIMTOL
 70
0
  9
$DIMLIM
 70
0
  9
$DIMTIH
 70
0
  9
$DIMTOH
 70
0
  9
$DIMSE1
 70
0
  9
$DIMSE2
 70
0
  9
$DIMTAD
 70
1
  9
$DIMZIN
 70
8
  9
$DIMBLK
  1

  9
$DIMASO
 70
1
  9
$DIMSHO
 70
1
  9
$DIMPOST
  1

  9
$DIMAPOST
  1

  9
$DIMALT
 70
0
  9
$DIMALTD
 70
3
  9
$DIMALTF
 40
0.03937007874
  9
$DIMLFAC
 40
1.0
  9
$DIMTOFL
 70
1
  9
$DIMTVP
 40
0.0
  9
$DIMTIX
 70
0
  9
$DIMSOXD
 70
0
  9
$DIMSAH
 70
0
  9
$DIMBLK1
  1

  9
$DIMBLK2
  1

  9
$DIMSTYLE
  2
ISO-25
  9
$DIMCLRD
 70
0
  9
$DIMCLRE
 70
0
  9
$DIMCLRT
 70
0
  9
$DIMTFAC
 40
1.0
  9
$DIMGAP
 40
0.625
  9
$DIMJUST
 70
0
  9
$DIMSD1
 70
0
  9
$DIMSD2
 70
0
  9
$DIMTOLJ
 70
0
  9
$DIMTZIN
 70
8
  9
$DIMALTZ
 70
0
  9
$DIMALTTZ
 70
0
  9
$DIMUPT
 70
0
  9
$DIMDEC
 70
2
  9
$DIMTDEC
 70
2
  9
$DIMALTU
 70
2
  9
$DIMALTTD
 70
3
  9
$DIMTXSTY
  7
Standard
  9
$DIMAUNIT
 70
0
  9
$DIMADEC
 70
0
  9
$DIMALTRND
 40
0.0
  9
$DIMAZIN
 70
0
  9
$DIMDSEP
 70
44
  9
$DIMATFIT
 70
3
  9
$DIMFRAC
 70
0
  9
$DIMLDRBLK
  1

  9
$DIMLUNIT
 70
2
  9
$DIMLWD
 70
-2
  9
$DIMLWE
 70
-2
  9
$DIMTMOVE
 70
0
  9
$DIMFXL
 40
1.0
  9
$DIMFXLON
 70
0
  9
$DIMJOGANG
 40
0.785398163397
  9
$DIMTFILL
 70
0
  9
$DIMTFILLCLR
 70
0
  9
$DIMARCSYM
 70
0
  9
$DIMLTYPE
  6

  9
$DIMLTEX1
  6

  9
$DIMLTEX2
  6

  9
$DIMTXTDIRECTION
 70
0
  9
$LUNITS
 70
2
  9
$LUPREC
 70
4
  9
$SKETCHINC
 40
1.0
  9
$FILLETRAD
 40
10.0
  9
$AUNITS
 70
0
  9
$AUPREC
 70
2
  9
$MENU
  1
.
  9
$ELEVATION
 40
0.0
  9
$PELEVATION
 40
0.0
  9
$THICKNESS
 40
0.0
  9
$LIMCHECK
 70
0
  9
$CHAMFERA
 40
0.0
  9
$CHAMFERB
 40
0.0
  9
$CHAMFERC
 40
0.0
  9
$CHAMFERD
 40
0.0
  9
$SKPOLY
 70
0
  9
$TDCREATE
 40
2461298.417800926
  9
$TDUCREATE
 40
2458532.153996898
  9
$TDUPDATE
 40
2461298.417800926
  9
$TDUUPDATE
 40
2458532.1544311
  9
$TDINDWG
 40
0.0
  9
$TDUSRTIMER
 40
0.0
  9
$USRTIMER
 70
1
  9
$ANGBASE
 50
0.0
  9
$ANGDIR
 70
0
  9
$PDMODE
 70
0
  9
$PDSIZE
 40
0.0
  9
$PLINEWID
 40
0.0
  9
$SPLFRAME
 70
0
  9
$SPLINETYPE
 70
6
  9
$SPLINESEGS
 70
8
  9
$HANDSEED
  5
57
  9
$SURFTAB1
 70
6
  9
$SURFTAB2
 70
6
  9
$SURFTYPE
 70
6
  9
$SURFU
 70
6
  9
$SURFV
 70
6
  9
$UCSBASE
  2

  9
$UCSNAME
  2

  9
$UCSORG
 10
0.0
 20
0.0
 30
0.0
  9
$UCSXDIR
 10
1.0
 20
0.0
 30
0.0
  9
$UCSYDIR
 10
0.0
 20
1.0
 30
0.0
  9
$UCSORTHOREF
  2

  9
$UCSORTHOVIEW
 70
0
  9
$UCSORGTOP
 10
0.0
 20
0.0
 30
0.0
  9
$UCSORGBOTTOM
 10
0.0
 20
0.0
 30
0.0
  9
$UCSORGLEFT
 10
0.0
 20
0.0
 30
0.0
  9
$UCSORGRIGHT
 10
0.0
 20
0.0
 30
0.0
  9
$UCSORGFRONT
 10
0.0
 20
0.0
 30
0.0
  9
$UCSORGBACK
 10
0.0
 20
0.0
 30
0.0
  9
$PUCSBASE
  2

  9
$PUCSNAME
  2

  9
$PUCSORG
 10
0.0
 20
0.0
 30
0.0
  9
$PUCSXDIR
 10
1.0
 20
0.0
 30
0.0
  9
$PUCSYDIR
 10
0.0
 20
1.0
 30
0.0
  9
$PUCSORTHOREF
  2

  9
$PUCSORTHOVIEW
 70
0
  9
$PUCSORGTOP
 10
0.0
 20
0.0
 30
0.0
  9
$PUCSORGBOTTOM
 10
0.0
 20
0.0
 30
0.0
  9
$PUCSORGLEFT
 10
0.0
 20
0.0
 30
0.0
  9
$PUCSORGRIGHT
 10
0.0
 20
0.0
 30
0.0
  9
$PUCSORGFRONT
 10
0.0
 20
0.0
 30
0.0
  9
$PUCSORGBACK
 10
0.0
 20
0.0
 30
0.0
  9
$USERI1
 70
0
  9
$USERI2
 70
0
  9
$USERI3
 70
0
  9
$USERI4
 70
0
  9
$USERI5
 70
0
  9
$USERR1
 40
0.0
  9
$USERR2
 40
0.0
  9
$USERR3
 40
0.0
  9
$USERR4
 40
0.0
  9
$USERR5
 40
0.0
  9
$WORLDVIEW
 70
1
  9
$SHADEDGE
 70
3
  9
$SHADEDIF
 70
70
  9
$TILEMODE
 70
1
  9
$MAXACTVP
 70
64
  9
$PINSBASE
 10
0.0
 20
0.0
 30
0.0
  9
$PLIMCHECK
 70
0
  9
$PEXTMIN
 10
1e+20
 20
1e+20
 30
1e+20
  9
$PEXTMAX
 10
-1e+20
 20
-1e+20
 30
-1e+20
  9
$PLIMMIN
 10
0.0
 20
0.0
  9
$PLIMMAX
 10
420.0
 20
297.0
  9
$UNITMODE
 70
0
  9
$VISRETAIN
 70
1
  9
$PLINEGEN
 70
0
  9
$PSLTSCALE
 70
1
  9
$TREEDEPTH
 70
3020
  9
$CMLSTYLE
  2
Standard
  9
$CMLJUST
 70
0
  9
$CMLSCALE
 40
20.0
  9
$PROXYGRAPHICS
 70
1
  9
$MEASUREMENT
 70
1
  9
$CELWEIGHT
370
-1
  9
$ENDCAPS
280
0
  9
$JOINSTYLE
280
0
  9
$LWDISPLAY
290
0
  9
$INSUNITS
 70
6
  9
$HYPERLINKBASE
  1

  9
$STYLESHEET
  1

  9
$XEDIT
290
1
  9
$CEPSNTYPE
380
0
  9
$PSTYLEMODE
290
1
  9
$FINGERPRINTGUID
  2
{4C74FB89-DE6D-4097-B4A5-92EF3A5F2BCE}
  9
$VERSIONGUID
  2
{56D5E407-A2BD-47A6-8111-8C121E18F6B6}
  9
$EXTNAMES
290
1
  9
$PSVPSCALE
 40
0.0
  9
$OLESTARTUP
290
0
  9
$SORTENTS
280
127
  9
$INDEXCTL
280
0
  9
$HIDETEXT
280
1
  9
$XCLIPFRAME
280
1
  9
$HALOGAP
280
0
  9
$OBSCOLOR
 70
257
  9
$OBSLTYPE
280
0
  9
$INTERSECTIONDISPLAY
280
0
  9
$INTERSECTIONCOLOR
 70
257
  9
$DIMASSOC
280
2
  9
$PROJECTNAME
  1

  9
$CAMERADISPLAY
290
0
  9
$LENSLENGTH
 40
50.0
  9
$CAMERAHEIGHT
 40
0.0
  9
$STEPSPERSEC
 40
24.0
  9
$STEPSIZE
 40
100.0
  9
$3DDWFPREC
 40
2.0
  9
$PSOLWIDTH
 40
0.005
  9
$PSOLHEIGHT
 40
0.08
  9
$LOFTANG1
 40
1.570796326795
  9
$LOFTANG2
 40
1.570796326795
  9
$LOFTMAG1
 40
0.0
  9
$LOFTMAG2
 40
0.0
  9
$LOFTPARAM
 70
7
  9
$LOFTNORMALS
280
1
  9
$LATITUDE
 40
37.795
  9
$LONGITUDE
 40
-122.394
  9
$NORTHDIRECTION
 40
0.0
  9
$TIMEZONE
 70
-8000
  9
$LIGHTGLYPHDISPLAY
280
1
  9
$TILEMODELIGHTSYNCH
280
1
  9
$CMATERIAL
347
20
  9
$SOLIDHIST
280
0
  9
$SHOWHIST
280
1
  9
$DWFFRAME
280
2
  9
$DGNFRAME
280
2
  9
$REALWORLDSCALE
290
1
  9
$INTERFERECOLOR
 62
256
  9
$CSHADOW
280
0
  9
$SHADOWPLANELOCATION
 40
0.0
  0
ENDSEC
  0
SECTION
  2
CLASSES
  0
CLASS
  1
ACDBDICTIONARYWDFLT
  2
AcDbDictionaryWithDefault
  3
ObjectDBX Classes
 90
0
 91
0
280
0
281
0
  0
CLASS
  1
SUN
  2
AcDbSun
  3
SCENEOE
 90
1153
 91
0
280
0
281
0
  0
CLASS
  1
VISUALSTYLE
  2
AcDbVisualStyle
  3
ObjectDBX Classes
 90
4095
 91
0
280
0
281
0
  0
CLASS
  1
MATERIAL
  2
AcDbMaterial
  3
ObjectDBX Classes
 90
1153
 91
0
280
0
281
0
  0
CLASS
  1
SCALE
  2
AcDbScale
  3
ObjectDBX Classes
 90
1153
 91
0
280
0
281
0
  0
CLASS
  1
TABLESTYLE
  2
AcDbTableStyle
  3
ObjectDBX Classes
 90
4095
 91
0
280
0
281
0
  0
CLASS
  1
MLEADERSTYLE
  2
AcDbMLeaderStyle
  3
ACDB_MLEADERSTYLE_CLASS
 90
4095
 91
0
280
0
281
0
  0
CLASS
  1
DICTIONARYVAR
  2
AcDbDictionaryVar
  3
ObjectDBX Classes
 90
0
 91
0
280
0
281
0
  0
CLASS
  1
CELLSTYLEMAP
  2
AcDbCellStyleMap
  3
ObjectDBX Classes
 90
1152
 91
0
280
0
281
0
  0
CLASS
  1
MENTALRAYRENDERSETTINGS
  2
AcDbMentalRayRenderSettings
  3
SCENEOE
 90
1024
 91
0
280
0
281
0
  0
CLASS
  1
ACDBDETAILVIEWSTYLE
  2
AcDbDetailViewStyle
  3
ObjectDBX Classes
 90
1025
 91
0
280
0
281
0
  0
CLASS
  1
ACDBSECTIONVIEWSTYLE
  2
AcDbSectionViewStyle
  3
ObjectDBX Classes
 90
1025
 91
0
280
0
281
0
  0
CLASS
  1
RASTERVARIABLES
  2
AcDbRasterVariables
  3
ISM
 90
0
 91
0
280
0
281
0
  0
CLASS
  1
LAYOUT
  2
AcDbLayout
  3
ObjectDBX Classes
 90
0
 91
0
280
0
281
0
  0
CLASS
  1
ACDBPLACEHOLDER
  2
AcDbPlaceHolder
  3
ObjectDBX Classes
 90
0
 91
0
280
0
281
0
  0
ENDSEC
  0
SECTION
  2
TABLES
  0
TABLE
  2
VPORT
  5
8
330
0
100
AcDbSymbolTable
 70
1
  0
VPORT
  5
23
330
8
100
AcDbSymbolTableRecord
100
AcDbViewportTableRecord
  2
*Active
 70
0
 10
0.0
 20
0.0
 11
1.0
 21
1.0
 12
0.0
 22
0.0
 13
0.0
 23
0.0
 14
0.5
 24
0.5
 15
0.5
 25
0.5
 16
0.0
 26
0.0
 36
1.0
 17
0.0
 27
0.0
 37
0.0
 40
1000.0
 41
1.34
 42
50.0
 43
0.0
 44
0.0
 50
0.0
 51
0.0
 71
0
 72
1000
 73
1
 74
3
 75
0
 76
0
 77
0
 78
0
281
0
 65
0
146
0.0
  0
ENDTAB
  0
TABLE
  2
LTYPE
  5
2
330
0
100
AcDbSymbolTable
 70
3
  0
LTYPE
  5
24
330
2
100
AcDbSymbolTableRecord
100
AcDbLinetypeTableRecord
  2
ByBlock
 70
0
  3

 72
65
 73
0
 40
0.0
  0
LTYPE
  5
25
330
2
100
AcDbSymbolTableRecord
100
AcDbLinetypeTableRecord
  2
ByLayer
 70
0
  3

 72
65
 73
0
 40
0.0
  0
LTYPE
  5
26
330
2
100
AcDbSymbolTableRecord
100
AcDbLinetypeTableRecord
  2
Continuous
 70
0
  3

 72
65
 73
0
 40
0.0
  0
ENDTAB
  0
TABLE
  2
LAYER
  5
1
330
0
100
AcDbSymbolTable
 70
4
  0
LAYER
  5
27
330
1
100
AcDbSymbolTableRecord
100
AcDbLayerTableRecord
  2
0
 70
0
 62
7
  6
Continuous
370
-3
390
13
347
21
  0
LAYER
  5
28
330
1
100
AcDbSymbolTableRecord
100
AcDbLayerTableRecord
  2
Defpoints
 70
0
 62
7
  6
Continuous
290
0
370
-3
390
13
347
21
  0
LAYER
  5
2F
330
1
100
AcDbSymbolTableRecord
100
AcDbLayerTableRecord
  2
FERO_OUTLINE
 70
0
 62
7
  6
Continuous
370
-3
390
13
347
21
  0
LAYER
  5
30
330
1
100
AcDbSymbolTableRecord
100
AcDbLayerTableRecord
  2
FERO_TEXT
 70
0
 62
7
  6
Continuous
370
-3
390
13
347
21
  0
ENDTAB
  0
TABLE
  2
STYLE
  5
5
330
0
100
AcDbSymbolTable
 70
1
  0
STYLE
  5
29
330
5
100
AcDbSymbolTableRecord
100
AcDbTextStyleTableRecord
  2
Standard
 70
0
 40
0.0
 41
1.0
 50
0.0
 71
0
 42
2.5
  3
txt
  4

  0
ENDTAB
  0
TABLE
  2
VIEW
  5
7
330
0
100
AcDbSymbolTable
 70
0
  0
ENDTAB
  0
TABLE
  2
UCS
  5
6
330
0
100
AcDbSymbolTable
 70
0
  0
ENDTAB
  0
TABLE
  2
APPID
  5
3
330
0
100
AcDbSymbolTable
 70
3
  0
APPID
  5
2A
330
3
100
AcDbSymbolTableRecord
100
AcDbRegAppTableRecord
  2
ACAD
 70
0
  0
APPID
  5
54
330
3
100
AcDbSymbolTableRecord
100
AcDbRegAppTableRecord
  2
HATCHBACKGROUNDCOLOR
 70
0
  0
APPID
  5
55
330
3
100
AcDbSymbolTableRecord
100
AcDbRegAppTableRecord
  2
EZDXF
 70
0
  0
ENDTAB
  0
TABLE
  2
DIMSTYLE
  5
4
330
0
100
AcDbSymbolTable
 70
1
100
AcDbDimStyleTable
  0
DIMSTYLE
105
2B
330
4
100
AcDbSymbolTableRecord
100
AcDbDimStyleTableRecord
  2
Standard
 70
0
 40
1.0
 41
2.5
 42
0.625
 43
3.75
 44
1.25
 45
0.0
 46
0.0
 47
0.0
 48
0.0
 49
2.5
140
2.5
141
2.5
142
0.0
143
0.03937007874
144
1.0
145
0.0
146
1.0
147
0.625
148
0.0
 69
0
 70
0
 71
0
 72
0
 73
0
 74
0
 75
0
 76
0
 77
1
 78
8
 79
3
170
0
171
3
172
1
173
0
174
0
175
0
176
0
177
0
178
0
179
2
271
2
272
2
273
2
274
3
275
0
276
0
277
2
278
44
279
0
280
0
281
0
282
0
283
0
284
8
285
0
286
0
288
0
289
3
290
0
371
-2
372
-2
  0
ENDTAB
  0
TABLE
  2
BLOCK_RECORD
  5
9
330
0
100
AcDbSymbolTable
 70
2
  0
BLOCK_RECORD
  5
17
330
9
100
AcDbSymbolTableRecord
100
AcDbBlockTableRecord
  2
*Model_Space
340
1A
 70
0
280
1
281
0
  0
BLOCK_RECORD
  5
1B
330
9
100
AcDbSymbolTableRecord
100
AcDbBlockTableRecord
  2
*Paper_Space
340
1E
 70
0
280
1
281
0
  0
ENDTAB
  0
ENDSEC
  0
SECTION
  2
BLOCKS
  0
BLOCK
  5
18
330
17
100
AcDbEntity
  8
0
100
AcDbBlockBegin
  2
*Model_Space
 70
0
 10
0.0
 20
0.0
 30
0.0
  3
*Model_Space
  1

  0
ENDBLK
  5
19
330
17
100
AcDbEntity
  8
0
100
AcDbBlockEnd
  0
BLOCK
  5
1C
330
1B
100
AcDbEntity
  8
0
100
AcDbBlockBegin
  2
*Paper_Space
 70
0
 10
0.0
 20
0.0
 30
0.0
  3
*Paper_Space
  1

  0
ENDBLK
  5
1D
330
1B
100
AcDbEntity
  8
0
100
AcDbBlockEnd
  0
ENDSEC
  0
SECTION
  2
ENTITIES
  0
LWPOLYLINE
  5
31
330
17
100
AcDbEntity
  8
FERO_OUTLINE
100
AcDbPolyline
 90
31
 70
1
 10
-23.520000000000003
 20
17.0025
 10
-23.520000000000003
 20
15.0
 10
-26.9175
 20
15.0
 10
-26.9175
 20
17.0025
 10
-28.823203125
 20
17.1871875
 10
-31.727578125
 20
18.2034375
 10
-32.72625
 20
19.035
 10
-33.466171875
 20
20.035078125
 10
-34.311796875
 20
22.388203125
 10
-34.417500000000004
 20
23.74125
 10
-34.306875
 20
25.156171875
 10
-33.421875
 20
27.543046875
 10
-32.6475
 20
28.515
 10
-31.625625
 20
29.312109375
 10
-28.760625
 20
30.288984375
 10
-26.9175
 20
30.46875
 10
-26.9175
 20
32.167500000000004
 10
-23.520000000000003
 20
32.167500000000004
 10
-23.520000000000003
 20
30.46875
 10
-21.623671875000003
 20
30.285
 10
-18.726796874999998
 20
29.27625
 10
-17.72625
 20
28.45125
 10
-16.979765625
 20
27.458671875
 10
-16.126640625000004
 20
25.098046875
 10
-16.020000000000003
 20
23.73
 10
-16.126171875000004
 20
22.372734375
 10
-16.975546875000003
 20
20.019609375
 10
-17.71875
 20
19.02375
 10
-18.718359375
 20
18.197109375
 10
-21.618984375
 20
17.186484375
 10
-23.520000000000003
 20
17.0025
  0
LWPOLYLINE
  5
32
330
17
100
AcDbEntity
  8
FERO_OUTLINE
100
AcDbPolyline
 90
13
 70
1
 10
-23.520000000000003
 20
19.8975
 10
-22.254375000000003
 20
20.011875
 10
-21.18
 20
20.355
 10
-20.34375
 20
20.89125
 10
-19.792500000000004
 20
21.585
 10
-19.483125
 20
22.5384375
 10
-19.380000000000003
 20
23.846249999999998
 10
-19.4446875
 20
24.7198828125
 10
-19.962187500000002
 20
26.1176953125
 10
-20.997187500000003
 20
27.0495703125
 10
-22.5496875
 20
27.515507812499997
 10
-23.520000000000003
 20
27.573749999999997
 10
-23.520000000000003
 20
19.8975
  0
LWPOLYLINE
  5
33
330
17
100
AcDbEntity
  8
FERO_OUTLINE
100
AcDbPolyline
 90
13
 70
1
 10
-26.9175
 20
19.8975
 10
-26.9175
 20
27.573749999999997
 10
-27.9365625
 20
27.512578124999997
 10
-29.5190625
 20
27.023203125
 10
-30.082500000000003
 20
26.595
 10
-30.507421875000002
 20
26.043046874999998
 10
-30.993046875
 20
24.563671875
 10
-31.05375
 20
23.63625
 10
-30.98912109375
 20
22.75998046875
 10
-30.472089843750002
 20
21.35794921875
 10
-29.43802734375
 20
20.42326171875
 10
-27.88693359375
 20
19.95591796875
 10
-26.9175
 20
19.8975
  0
LWPOLYLINE
  5
34
330
17
100
AcDbEntity
  8
FERO_OUTLINE
100
AcDbPolyline
 90
13
 70
1
 10
-13.228125000000002
 20
15.0
 10
-13.228125000000002
 20
32.17875
 10
-0.48937500000000256
 20
32.17875
 10
-0.48937500000000256
 20
29.2725
 10
-9.759375000000002
 20
29.2725
 10
-9.759375000000002
 20
25.466250000000002
 10
-1.1343749999999986
 20
25.466250000000002
 10
-1.1343749999999986
 20
22.57125
 10
-9.759375000000002
 20
22.57125
 10
-9.759375000000002
 20
17.895
 10
-0.16312500000000085
 20
17.895
 10
-0.16312500000000085
 20
15.0
 10
-13.228125000000002
 20
15.0
  0
LWPOLYLINE
  5
35
330
17
100
AcDbEntity
  8
FERO_OUTLINE
100
AcDbPolyline
 90
22
 70
1
 10
2.7796874999999943
 20
15.0
 10
2.7796874999999943
 20
32.17875
 10
8.3446875
 20
32.17875
 10
10.958437499999995
 20
32.115
 10
12.4696875
 20
31.92375
 10
13.178203124999996
 20
31.672265624999998
 10
14.413828124999995
 20
30.830390625
 10
14.940937499999997
 20
30.240000000000002
 10
15.377343750000001
 20
29.54578125
 10
15.876093750000003
 20
27.873281249999998
 10
15.9384375
 20
26.895
 10
15.794999999999995
 20
25.438125
 10
15.364687499999995
 20
24.2325
 10
14.713124999999998
 20
23.2715625
 10
13.9059375
 20
22.541249999999998
 10
13.013437500000002
 20
22.0303125
 10
12.105937499999996
 20
21.7275
 10
10.58625
 20
21.541874999999997
 10
8.509687499999998
 20
21.48
 10
6.248437499999994
 20
21.48
 10
6.248437499999994
 20
15.0
 10
2.7796874999999943
 20
15.0
  0
LWPOLYLINE
  5
36
330
17
100
AcDbEntity
  8
FERO_OUTLINE
100
AcDbPolyline
 90
16
 70
1
 10
6.248437499999994
 20
29.2725
 10
6.248437499999994
 20
24.3975
 10
8.145937499999995
 20
24.3975
 10
9.856874999999995
 20
24.465
 10
10.887187499999996
 20
24.6675
 10
11.505000000000003
 20
25.013437500000002
 10
11.970937499999998
 20
25.51125
 10
12.266249999999992
 20
26.131875
 10
12.364687499999995
 20
26.846249999999998
 10
12.226875
 20
27.701249999999998
 10
11.8134375
 20
28.39125
 10
11.189062499999999
 20
28.888125
 10
10.418437499999996
 20
29.15625
 10
9.485624999999999
 20
29.2434375
 10
7.924687499999997
 20
29.2725
 10
6.248437499999994
 20
29.2725
  0
LWPOLYLINE
  5
37
330
17
100
AcDbEntity
  8
FERO_OUTLINE
100
AcDbPolyline
 90
27
 70
1
 10
17.752499999999998
 20
23.48625
 10
17.949374999999996
 20
25.9003125
 10
18.54
 20
27.8925
 10
19.231875000000002
 20
29.1375
 10
20.137499999999996
 20
30.2475
 10
21.198749999999997
 20
31.154999999999998
 10
22.357499999999995
 20
31.7925
 10
24.08625
 20
32.3015625
 10
26.0625
 20
32.47125
 10
27.865312499999995
 20
32.3240625
 10
30.902812500000003
 20
31.146562499999998
 10
32.137499999999996
 20
30.11625
 10
33.135
 20
28.823671875
 10
34.275
 20
25.548046874999997
 10
34.4175
 20
23.564999999999998
 10
34.276171874999996
 20
21.59859375
 10
33.14554687499999
 20
18.34359375
 10
32.15624999999999
 20
17.055
 10
30.930234375000005
 20
16.02796875
 10
27.905859375
 20
14.85421875
 10
26.107499999999995
 20
14.7075
 10
24.289453125
 20
14.853515625
 10
21.242578125
 20
16.021640625
 10
20.013749999999995
 20
17.04375
 10
19.024453125
 20
18.32390625
 10
17.89382812499999
 20
21.545156249999998
 10
17.752499999999998
 20
23.48625
  0
LWPOLYLINE
  5
38
330
17
100
AcDbEntity
  8
FERO_OUTLINE
100
AcDbPolyline
 90
25
 70
1
 10
21.326249999999995
 20
23.6025
 10
21.410390624999998
 20
22.231875
 10
22.083515624999997
 20
20.019375
 10
22.6725
 20
19.177500000000002
 10
23.392734374999996
 20
18.519609375
 10
25.104609375000003
 20
17.767734375
 10
26.096249999999998
 20
17.67375
 10
27.086718749999996
 20
17.76703125
 10
28.789218749999996
 20
18.51328125
 10
29.50124999999999
 20
19.166249999999998
 10
30.083671875
 20
20.006015625
 10
30.749296875000006
 20
22.246640624999998
 10
30.832500000000003
 20
23.6475
 10
30.75140625000001
 20
25.031015625000002
 10
30.102656250000003
 20
27.234140625000002
 10
29.535000000000004
 20
28.05375
 10
28.834921875
 20
28.6903125
 10
27.115546875
 20
29.4178125
 10
26.096249999999998
 20
29.50875
 10
25.07578125
 20
29.416640625
 10
23.347031249999993
 20
28.679765625
 10
22.638749999999995
 20
28.035
 10
22.064531249999995
 20
27.20671875
 10
21.408281249999995
 20
24.990468749999998
 10
21.326249999999995
 20
23.6025
  0
LWPOLYLINE
  5
39
330
17
100
AcDbEntity
  8
FERO_OUTLINE
100
AcDbPolyline
 90
23
 70
1
 10
-34.700649414062504
 20
3.95890625
 10
-34.700649414062504
 20
3.5
 10
-35.4792431640625
 20
3.5
 10
-35.4792431640625
 20
3.95890625
 10
-36.2834033203125
 20
4.09296875
 10
-36.810415039062505
 20
4.4246875
 10
-37.1010986328125
 20
4.910019531250001
 10
-37.1979931640625
 20
5.503203125000001
 10
-37.0965869140625
 20
6.117871093750001
 10
-36.7923681640625
 20
6.5971875
 10
-36.261274414062505
 20
6.91537109375
 10
-35.4792431640625
 20
7.044921875
 10
-35.4792431640625
 20
7.434218749999999
 10
-34.700649414062504
 20
7.434218749999999
 10
-34.700649414062504
 20
7.044921875
 10
-33.8999267578125
 20
6.91171875
 10
-33.372915039062505
 20
6.5825781249999995
 10
-33.0796533203125
 20
6.09896484375
 10
-32.981899414062504
 20
5.500624999999999
 10
-33.0792236328125
 20
4.90615234375
 10
-33.3711962890625
 20
4.422109375
 10
-33.8982080078125
 20
4.09232421875
 10
-34.700649414062504
 20
3.95890625
  0
LWPOLYLINE
  5
3A
330
17
100
AcDbEntity
  8
FERO_OUTLINE
100
AcDbPolyline
 90
11
 70
1
 10
-34.700649414062504
 20
4.62234375
 10
-34.410610351562504
 20
4.6485546875
 10
-34.1643994140625
 20
4.7271875
 10
-33.9727587890625
 20
4.850078125
 10
-33.8464306640625
 20
5.0090625
 10
-33.775532226562504
 20
5.22755859375
 10
-33.7518994140625
 20
5.527265625
 10
-33.8111962890625
 20
5.900986328125
 10
-34.2855712890625
 20
6.328095703125
 10
-34.700649414062504
 20
6.381484374999999
 10
-34.700649414062504
 20
4.62234375
  0
LWPOLYLINE
  5
3B
330
17
100
AcDbEntity
  8
FERO_OUTLINE
100
AcDbPolyline
 90
9
 70
1
 10
-35.4792431640625
 20
4.62234375
 10
-35.4792431640625
 20
6.381484374999999
 10
-35.9115087890625
 20
6.32541015625
 10
-36.204555664062504
 20
6.1571875
 10
-36.3714892578125
 20
5.87552734375
 10
-36.4271337890625
 20
5.479140625
 10
-36.367890625
 20
5.1042919921875
 10
-35.8939453125
 20
4.6758935546875
 10
-35.4792431640625
 20
4.62234375
  0
LWPOLYLINE
  5
3C
330
17
100
AcDbEntity
  8
FERO_OUTLINE
100
AcDbPolyline
 90
9
 70
1
 10
-28.929516601562504
 20
3.5
 10
-29.794047851562503
 20
3.5
 10
-30.137797851562503
 20
4.394609375
 10
-31.712172851562503
 20
4.394609375
 10
-32.0370166015625
 20
3.5
 10
-32.880063476562505
 20
3.5
 10
-31.346938476562503
 20
7.436796875000001
 10
-30.505610351562503
 20
7.436796875000001
 10
-28.929516601562504
 20
3.5
  0
LWPOLYLINE
  5
3D
330
17
100
AcDbEntity
  8
FERO_OUTLINE
100
AcDbPolyline
 90
4
 70
1
 10
-30.393032226562504
 20
5.0580468750000005
 10
-30.935297851562503
 20
6.5189843750000005
 10
-31.467250976562504
 20
5.0580468750000005
 10
-30.393032226562504
 20
5.0580468750000005
  0
LWPOLYLINE
  5
3E
330
17
100
AcDbEntity
  8
FERO_OUTLINE
100
AcDbPolyline
 90
35
 70
1
 10
-26.1263427734375
 20
4.9471875
 10
-25.3554833984375
 20
4.703125
 10
-25.591381835937504
 20
4.1415234375
 10
-25.9450146484375
 20
3.74578125
 10
-26.412729492187502
 20
3.511171875
 10
-26.990874023437502
 20
3.43296875
 10
-27.7056591796875
 20
3.56681640625
 10
-28.280795898437503
 20
3.968359375
 10
-28.6591357421875
 20
4.60279296875
 10
-28.7852490234375
 20
5.43359375
 10
-28.658491210937502
 20
6.30671875
 10
-28.278217773437504
 20
6.95984375
 10
-27.690405273437502
 20
7.36783203125
 10
-26.9427490234375
 20
7.503828125
 10
-26.287905273437502
 20
7.397265625
 10
-25.768842773437502
 20
7.0775781250000005
 10
-25.5342333984375
 20
6.769921875
 10
-25.3666552734375
 20
6.352265624999999
 10
-26.152983398437502
 20
6.1640625
 10
-26.261264648437503
 20
6.437773437500001
 10
-26.445170898437503
 20
6.6470312499999995
 10
-26.690092773437502
 20
6.78044921875
 10
-26.9831396484375
 20
6.824921874999999
 10
-27.379526367187502
 20
6.7462890625
 10
-27.693842773437503
 20
6.510390624999999
 10
-27.898159179687504
 20
6.0991796874999995
 10
-27.9662646484375
 20
5.492890625
 10
-27.899233398437502
 20
4.853515625
 10
-27.698139648437504
 20
4.428984375
 10
-27.388979492187502
 20
4.191796875
 10
-26.9994677734375
 20
4.1127343750000005
 10
-26.7047021484375
 20
4.1630078125
 10
-26.454624023437503
 20
4.313828125
 10
-26.2582568359375
 20
4.57271484375
 10
-26.1263427734375
 20
4.9471875
  0
LWPOLYLINE
  5
3F
330
17
100
AcDbEntity
  8
FERO_OUTLINE
100
AcDbPolyline
 90
9
 70
1
 10
-21.260668945312503
 20
3.5
 10
-22.1252001953125
 20
3.5
 10
-22.4689501953125
 20
4.394609375
 10
-24.0433251953125
 20
4.394609375
 10
-24.368168945312505
 20
3.5
 10
-25.211215820312503
 20
3.5
 10
-23.6780908203125
 20
7.436796875000001
 10
-22.8367626953125
 20
7.436796875000001
 10
-21.260668945312503
 20
3.5
  0
LWPOLYLINE
  5
40
330
17
100
AcDbEntity
  8
FERO_OUTLINE
100
AcDbPolyline
 90
4
 70
1
 10
-22.724184570312502
 20
5.0580468750000005
 10
-23.2664501953125
 20
6.5189843750000005
 10
-23.798403320312502
 20
5.0580468750000005
 10
-22.724184570312502
 20
5.0580468750000005
  0
LWPOLYLINE
  5
41
330
17
100
AcDbEntity
  8
FERO_OUTLINE
100
AcDbPolyline
 90
17
 70
1
 10
-20.3163232421875
 20
7.436796875000001
 10
-17.595541992187503
 20
7.436796875000001
 10
-17.595541992187503
 20
4.160859375
 10
-17.249213867187503
 20
4.160859375
 10
-17.249213867187503
 20
2.640625
 10
-17.9100732421875
 20
2.640625
 10
-17.9100732421875
 20
3.5
 10
-20.388510742187503
 20
3.5
 10
-20.388510742187503
 20
2.640625
 10
-21.0493701171875
 20
2.640625
 10
-21.0493701171875
 20
4.160859375
 10
-20.7159326171875
 20
4.160859375
 10
-20.5135498046875
 20
4.705917968750001
 10
-20.394526367187503
 20
5.3321875
 10
-20.3358740234375
 20
6.08822265625
 10
-20.3163232421875
 20
7.020859375000001
 10
-20.3163232421875
 20
7.436796875000001
  0
LWPOLYLINE
  5
42
330
17
100
AcDbEntity
  8
FERO_OUTLINE
100
AcDbPolyline
 90
6
 70
1
 10
-19.5583544921875
 20
6.7767968750000005
 10
-19.6395654296875
 20
5.225625
 10
-19.8831982421875
 20
4.160859375
 10
-18.387885742187503
 20
4.160859375
 10
-18.387885742187503
 20
6.7767968750000005
 10
-19.5583544921875
 20
6.7767968750000005
  0
LWPOLYLINE
  5
43
330
17
100
AcDbEntity
  8
FERO_OUTLINE
100
AcDbPolyline
 90
13
 70
1
 10
-16.7117822265625
 20
3.5
 10
-16.7117822265625
 20
7.436796875000001
 10
-15.916860351562502
 20
7.436796875000001
 10
-15.916860351562502
 20
5.887343749999999
 10
-14.3596728515625
 20
5.887343749999999
 10
-14.3596728515625
 20
7.436796875000001
 10
-13.5647509765625
 20
7.436796875000001
 10
-13.5647509765625
 20
3.5
 10
-14.3596728515625
 20
3.5
 10
-14.3596728515625
 20
5.221328125
 10
-15.916860351562502
 20
5.221328125
 10
-15.916860351562502
 20
3.5
 10
-16.7117822265625
 20
3.5
  0
LWPOLYLINE
  5
44
330
17
100
AcDbEntity
  8
FERO_OUTLINE
100
AcDbPolyline
 90
18
 70
1
 10
-12.720952148437501
 20
7.436796875000001
 10
-11.926030273437501
 20
7.436796875000001
 10
-11.926030273437501
 20
5.86328125
 10
-10.862983398437503
 20
5.86328125
 10
-10.473041992187504
 20
5.83470703125
 10
-10.141967773437504
 20
5.748984375
 10
-9.864819335937504
 20
5.5897851562500005
 10
-9.638374023437503
 20
5.34078125
 10
-9.486909179687501
 20
5.0249609374999995
 10
-9.4364208984375
 20
4.6653125
 10
-9.4888427734375
 20
4.29341796875
 10
-9.646108398437502
 20
3.976953125
 10
-9.867612304687505
 20
3.7367578125
 10
-10.112749023437502
 20
3.593671875
 10
-10.428354492187502
 20
3.52341796875
 10
-10.862983398437503
 20
3.5
 10
-12.720952148437501
 20
3.5
 10
-12.720952148437501
 20
7.436796875000001
  0
LWPOLYLINE
  5
45
330
17
100
AcDbEntity
  8
FERO_OUTLINE
100
AcDbPolyline
 90
14
 70
1
 10
-11.926030273437501
 20
4.160859375
 10
-11.150014648437502
 20
4.160859375
 10
-10.835698242187505
 20
4.1698828125
 10
-10.6335302734375
 20
4.196953125
 10
-10.494956054687503
 20
4.25625
 10
-10.373139648437501
 20
4.361953125
 10
-10.287416992187502
 20
4.5050390625
 10
-10.2588427734375
 20
4.676484375
 10
-10.305463867187502
 20
4.90658203125
 10
-10.445327148437503
 20
5.0709375
 10
-10.706791992187501
 20
5.16955078125
 10
-11.1182177734375
 20
5.202421875
 10
-11.926030273437501
 20
5.202421875
 10
-11.926030273437501
 20
4.160859375
  0
LWPOLYLINE
  5
46
330
17
100
AcDbEntity
  8
FERO_OUTLINE
100
AcDbPolyline
 90
5
 70
1
 10
-8.977514648437502
 20
7.436796875000001
 10
-8.182592773437502
 20
7.436796875000001
 10
-8.182592773437502
 20
3.5
 10
-8.977514648437502
 20
3.5
 10
-8.977514648437502
 20
7.436796875000001
  0
LWPOLYLINE
  5
47
330
17
100
AcDbEntity
  8
FERO_OUTLINE
100
AcDbPolyline
 90
11
 70
1
 10
-7.347602539062503
 20
7.436796875000001
 10
-6.603383789062502
 20
7.436796875000001
 10
-6.603383789062502
 20
4.815703125
 10
-5.008383789062499
 20
7.436796875000001
 10
-4.216040039062499
 20
7.436796875000001
 10
-4.216040039062499
 20
3.5
 10
-4.9602587890625
 20
3.5
 10
-4.9602587890625
 20
6.070390625
 10
-6.552680664062503
 20
3.5
 10
-7.347602539062503
 20
3.5
 10
-7.347602539062503
 20
7.436796875000001
  0
LWPOLYLINE
  5
48
330
17
100
AcDbEntity
  8
FERO_OUTLINE
100
AcDbPolyline
 90
19
 70
1
 10
-5.308305664062502
 20
8.438828125
 10
-4.940493164062502
 20
8.438828125
 10
-5.020415039062506
 20
8.112910156249999
 10
-5.1965869140625
 20
7.865625
 10
-5.454184570312499
 20
7.7096484375
 10
-5.778383789062502
 20
7.65765625
 10
-6.101938476562502
 20
7.7096484375
 10
-6.359321289062503
 20
7.865625
 10
-6.535708007812502
 20
8.112910156249999
 10
-6.616274414062502
 20
8.438828125
 10
-6.248461914062503
 20
8.438828125
 10
-6.205493164062503
 20
8.2716796875
 10
-6.1143994140625
 20
8.150078125
 10
-5.972387695312502
 20
8.0766015625
 10
-5.778383789062502
 20
8.052109375
 10
-5.5839501953125
 20
8.0766015625
 10
-5.442368164062501
 20
8.150078125
 10
-5.351274414062502
 20
8.2716796875
 10
-5.308305664062502
 20
8.438828125
  0
LWPOLYLINE
  5
49
330
17
100
AcDbEntity
  8
FERO_OUTLINE
100
AcDbPolyline
 90
11
 70
1
 10
-1.8664013671874997
 20
7.436796875000001
 10
-1.1221826171875051
 20
7.436796875000001
 10
-1.1221826171875051
 20
4.815703125
 10
0.47281738281250085
 20
7.436796875000001
 10
1.2651611328125014
 20
7.436796875000001
 10
1.2651611328125014
 20
3.5
 10
0.5209423828124997
 20
3.5
 10
0.5209423828124997
 20
6.070390625
 10
-1.0714794921874997
 20
3.5
 10
-1.8664013671874997
 20
3.5
 10
-1.8664013671874997
 20
7.436796875000001
  0
LWPOLYLINE
  5
4A
330
17
100
AcDbEntity
  8
FERO_OUTLINE
100
AcDbPolyline
 90
13
 70
1
 10
2.078989257812495
 20
3.5
 10
2.078989257812495
 20
7.436796875000001
 10
2.873911132812495
 20
7.436796875000001
 10
2.873911132812495
 20
5.887343749999999
 10
4.4310986328125
 20
5.887343749999999
 10
4.4310986328125
 20
7.436796875000001
 10
5.2260205078125
 20
7.436796875000001
 10
5.2260205078125
 20
3.5
 10
4.4310986328125
 20
3.5
 10
4.4310986328125
 20
5.221328125
 10
2.873911132812495
 20
5.221328125
 10
2.873911132812495
 20
3.5
 10
2.078989257812495
 20
3.5
  0
LWPOLYLINE
  5
4B
330
17
100
AcDbEntity
  8
FERO_OUTLINE
100
AcDbPolyline
 90
82
 70
1
 10
8.521616210937495
 20
7.436796875000001
 10
8.521616210937495
 20
5.761015625000001
 10
8.696069335937501
 20
5.8061328125
 10
8.822397460937495
 20
5.908828124999999
 10
8.943999023437492
 20
6.1249609375
 10
9.104272460937501
 20
6.510390624999999
 10
9.3431787109375
 20
7.01419921875
 10
9.5872412109375
 20
7.295
 10
9.913159179687497
 20
7.41939453125
 10
10.4010693359375
 20
7.460859375
 10
10.443823242187499
 20
7.46171875
 10
10.517084960937495
 20
7.4642968750000005
 10
10.517084960937495
 20
6.875624999999999
 10
10.4010693359375
 20
6.878203125000001
 10
10.1918115234375
 20
6.8631640625
 10
10.047006835937495
 20
6.818046875
 10
9.944956054687502
 20
6.7419921875
 10
9.8639599609375
 20
6.634140625000001
 10
9.777592773437497
 20
6.44529296875
 10
9.657709960937495
 20
6.126250000000001
 10
9.581655273437498
 20
5.93912109375
 10
9.499584960937497
 20
5.785078125
 10
9.382709960937497
 20
5.6523046875
 10
9.2005224609375
 20
5.527265625
 10
9.443510742187492
 20
5.4125390625000005
 10
9.6396630859375
 20
5.223046875
 10
9.821635742187496
 20
4.94869140625
 10
10.020366210937496
 20
4.579375
 10
10.557475585937496
 20
3.5
 10
9.6224755859375
 20
3.5
 10
9.1498193359375
 20
4.5175
 10
9.134565429687498
 20
4.54908203125
 10
9.104272460937501
 20
4.600859375
 10
9.0692529296875
 20
4.6674609375
 10
9.0071630859375
 20
4.786484375
 10
8.870092773437499
 20
5.017226562499999
 10
8.759663085937497
 20
5.145703125
 10
8.652026367187496
 20
5.20435546875
 10
8.521616210937495
 20
5.22390625
 10
8.521616210937495
 20
3.5
 10
7.7456005859374955
 20
3.5
 10
7.7456005859374955
 20
5.22390625
 10
7.617553710937493
 20
5.205
 10
7.508413085937498
 20
5.14828125
 10
7.3973388671875
 20
5.0204492187500005
 10
7.2617724609375
 20
4.786484375
 10
7.195385742187504
 20
4.659296875
 10
7.162944335937496
 20
4.600859375
 10
7.138881835937497
 20
4.55982421875
 10
7.116538085937499
 20
4.5175
 10
6.643881835937499
 20
3.5
 10
5.709741210937501
 20
3.5
 10
6.246850585937501
 20
4.579375
 10
6.439780273437499
 20
4.93837890625
 10
6.621538085937502
 20
5.214453125
 10
6.8213427734375
 20
5.410390625
 10
7.0684130859375
 20
5.527265625
 10
6.886010742187501
 20
5.65208984375
 10
6.768491210937498
 20
5.78421875
 10
6.686635742187498
 20
5.9376171875
 10
6.609506835937495
 20
6.126250000000001
 10
6.491772460937497
 20
6.44013671875
 10
6.406694335937502
 20
6.628984375
 10
6.326557617187497
 20
6.738984375
 10
6.223647460937499
 20
6.816328125
 10
6.074116210937497
 20
6.8627343750000005
 10
5.852397460937496
 20
6.878203125000001
 10
5.810502929687502
 20
6.87755859375
 10
5.750131835937495
 20
6.875624999999999
 10
5.750131835937495
 20
7.4642968750000005
 10
5.823178710937498
 20
7.46171875
 10
5.8652880859375
 20
7.460859375
 10
6.3594287109375
 20
7.41875
 10
6.686850585937499
 20
7.2924218750000005
 10
6.927045898437498
 20
7.0109765625
 10
7.162944335937496
 20
6.510390624999999
 10
7.324721679687499
 20
6.1232421875
 10
7.4456787109375
 20
5.907109375
 10
7.570932617187502
 20
5.805703125
 10
7.7456005859374955
 20
5.761015625000001
 10
7.7456005859374955
 20
7.436796875000001
 10
8.521616210937495
 20
7.436796875000001
  0
LWPOLYLINE
  5
4C
330
17
100
AcDbEntity
  8
FERO_OUTLINE
100
AcDbPolyline
 90
11
 70
1
 10
11.0295947265625
 20
7.436796875000001
 10
11.773813476562495
 20
7.436796875000001
 10
11.773813476562495
 20
4.815703125
 10
13.3688134765625
 20
7.436796875000001
 10
14.161157226562501
 20
7.436796875000001
 10
14.161157226562501
 20
3.5
 10
13.4169384765625
 20
3.5
 10
13.4169384765625
 20
6.070390625
 10
11.8245166015625
 20
3.5
 10
11.0295947265625
 20
3.5
 10
11.0295947265625
 20
7.436796875000001
  0
LWPOLYLINE
  5
4D
330
17
100
AcDbEntity
  8
FERO_OUTLINE
100
AcDbPolyline
 90
13
 70
1
 10
14.974985351562495
 20
3.5
 10
14.974985351562495
 20
7.436796875000001
 10
15.769907226562495
 20
7.436796875000001
 10
15.769907226562495
 20
5.887343749999999
 10
17.3270947265625
 20
5.887343749999999
 10
17.3270947265625
 20
7.436796875000001
 10
18.1220166015625
 20
7.436796875000001
 10
18.1220166015625
 20
3.5
 10
17.3270947265625
 20
3.5
 10
17.3270947265625
 20
5.221328125
 10
15.769907226562495
 20
5.221328125
 10
15.769907226562495
 20
3.5
 10
14.974985351562495
 20
3.5
  0
LWPOLYLINE
  5
4E
330
17
100
AcDbEntity
  8
FERO_OUTLINE
100
AcDbPolyline
 90
11
 70
1
 10
18.9546435546875
 20
7.436796875000001
 10
19.698862304687495
 20
7.436796875000001
 10
19.698862304687495
 20
4.815703125
 10
21.2938623046875
 20
7.436796875000001
 10
22.0862060546875
 20
7.436796875000001
 10
22.0862060546875
 20
3.5
 10
21.3419873046875
 20
3.5
 10
21.3419873046875
 20
6.070390625
 10
19.7495654296875
 20
3.5
 10
18.9546435546875
 20
3.5
 10
18.9546435546875
 20
7.436796875000001
  0
LWPOLYLINE
  5
4F
330
17
100
AcDbEntity
  8
FERO_OUTLINE
100
AcDbPolyline
 90
20
 70
1
 10
22.897456054687495
 20
3.5
 10
22.897456054687495
 20
7.436796875000001
 10
24.1727685546875
 20
7.436796875000001
 10
24.7717529296875
 20
7.4221875
 10
25.1180810546875
 20
7.3783593750000005
 10
25.428959960937497
 20
7.23720703125
 10
25.6844091796875
 20
6.9925
 10
25.855854492187497
 20
6.6526171875
 10
25.9130029296875
 20
6.225937500000001
 10
25.880131835937497
 20
5.8920703125
 10
25.7815185546875
 20
5.6157812499999995
 10
25.632202148437493
 20
5.3955664062499995
 10
25.4472216796875
 20
5.228203125
 10
25.2426904296875
 20
5.11111328125
 10
25.0347216796875
 20
5.04171875
 10
24.686459960937498
 20
4.9991796875
 10
24.210581054687495
 20
4.985
 10
23.692377929687495
 20
4.985
 10
23.692377929687495
 20
3.5
 10
22.897456054687495
 20
3.5
  0
LWPOLYLINE
  5
50
330
17
100
AcDbEntity
  8
FERO_OUTLINE
100
AcDbPolyline
 90
16
 70
1
 10
23.692377929687495
 20
6.770781250000001
 10
23.692377929687495
 20
5.653593750000001
 10
24.1272216796875
 20
5.653593750000001
 10
24.519311523437494
 20
5.6690625
 10
24.7554248046875
 20
5.715468749999999
 10
24.897006835937496
 20
5.79474609375
 10
25.0037841796875
 20
5.908828124999999
 10
25.071459960937503
 20
6.051054687500001
 10
25.0940185546875
 20
6.214765625
 10
25.062436523437505
 20
6.4107031249999995
 10
24.9676904296875
 20
6.568828125
 10
24.824604492187497
 20
6.6826953125
 10
24.6480029296875
 20
6.744140625
 10
24.43423339843749
 20
6.76412109375
 10
24.076518554687496
 20
6.770781250000001
 10
23.692377929687495
 20
6.770781250000001
  0
LWPOLYLINE
  5
51
330
17
100
AcDbEntity
  8
FERO_OUTLINE
100
AcDbPolyline
 90
11
 70
1
 10
26.5762255859375
 20
7.436796875000001
 10
27.320444335937502
 20
7.436796875000001
 10
27.320444335937502
 20
4.815703125
 10
28.9154443359375
 20
7.436796875000001
 10
29.7077880859375
 20
7.436796875000001
 10
29.7077880859375
 20
3.5
 10
28.9635693359375
 20
3.5
 10
28.9635693359375
 20
6.070390625
 10
27.3711474609375
 20
3.5
 10
26.5762255859375
 20
3.5
 10
26.5762255859375
 20
7.436796875000001
  0
LWPOLYLINE
  5
52
330
17
100
AcDbEntity
  8
FERO_OUTLINE
100
AcDbPolyline
 90
13
 70
1
 10
30.521616210937502
 20
3.5
 10
30.521616210937502
 20
7.436796875000001
 10
31.316538085937502
 20
7.436796875000001
 10
31.316538085937502
 20
5.887343749999999
 10
32.8737255859375
 20
5.887343749999999
 10
32.8737255859375
 20
7.436796875000001
 10
33.6686474609375
 20
7.436796875000001
 10
33.6686474609375
 20
3.5
 10
32.8737255859375
 20
3.5
 10
32.8737255859375
 20
5.221328125
 10
31.316538085937502
 20
5.221328125
 10
31.316538085937502
 20
3.5
 10
30.521616210937502
 20
3.5
  0
LWPOLYLINE
  5
53
330
17
100
AcDbEntity
  8
FERO_OUTLINE
100
AcDbPolyline
 90
7
 70
1
 10
34.5313525390625
 20
7.436796875000001
 10
37.1979931640625
 20
7.436796875000001
 10
37.1979931640625
 20
6.7767968750000005
 10
35.3262744140625
 20
6.7767968750000005
 10
35.3262744140625
 20
3.5
 10
34.5313525390625
 20
3.5
 10
34.5313525390625
 20
7.436796875000001
  0
ENDSEC
  0
SECTION
  2
OBJECTS
  0
DICTIONARY
  5
A
330
0
100
AcDbDictionary
281
1
  3
ACAD_COLOR
350
B
  3
ACAD_GROUP
350
C
  3
ACAD_LAYOUT
350
D
  3
ACAD_MATERIAL
350
E
  3
ACAD_MLEADERSTYLE
350
F
  3
ACAD_MLINESTYLE
350
10
  3
ACAD_PLOTSETTINGS
350
11
  3
ACAD_PLOTSTYLENAME
350
12
  3
ACAD_SCALELIST
350
14
  3
ACAD_TABLESTYLE
350
15
  3
ACAD_VISUALSTYLE
350
16
  3
EZDXF_META
350
2D
  0
DICTIONARY
  5
B
330
A
100
AcDbDictionary
281
1
  0
DICTIONARY
  5
C
330
A
100
AcDbDictionary
281
1
  0
DICTIONARY
  5
D
330
A
100
AcDbDictionary
281
1
  3
Model
350
1A
  3
Layout1
350
1E
  0
DICTIONARY
  5
E
330
A
100
AcDbDictionary
281
1
  3
ByBlock
350
1F
  3
ByLayer
350
20
  3
Global
350
21
  0
DICTIONARY
  5
F
330
A
100
AcDbDictionary
281
1
  3
Standard
350
2C
  0
DICTIONARY
  5
10
330
A
100
AcDbDictionary
281
1
  3
Standard
350
22
  0
DICTIONARY
  5
11
330
A
100
AcDbDictionary
281
1
  0
ACDBDICTIONARYWDFLT
  5
12
330
A
100
AcDbDictionary
281
1
  3
Normal
350
13
100
AcDbDictionaryWithDefault
340
13
  0
ACDBPLACEHOLDER
  5
13
330
12
  0
DICTIONARY
  5
14
330
A
100
AcDbDictionary
281
1
  0
DICTIONARY
  5
15
330
A
100
AcDbDictionary
281
1
  0
DICTIONARY
  5
16
330
A
100
AcDbDictionary
281
1
  0
LAYOUT
  5
1A
330
D
100
AcDbPlotSettings
  1

  4
A3
  6

 40
7.5
 41
20.0
 42
7.5
 43
20.0
 44
420.0
 45
297.0
 46
0.0
 47
0.0
 48
0.0
 49
0.0
140
0.0
141
0.0
142
1.0
143
1.0
 70
1024
 72
1
 73
0
 74
5
  7

 75
16
 76
0
 77
2
 78
300
147
1.0
148
0.0
149
0.0
100
AcDbLayout
  1
Model
 70
1
 71
0
 10
0.0
 20
0.0
 11
420.0
 21
297.0
 12
0.0
 22
0.0
 32
0.0
 14
1e+20
 24
1e+20
 34
1e+20
 15
-1e+20
 25
-1e+20
 35
-1e+20
146
0.0
 13
0.0
 23
0.0
 33
0.0
 16
1.0
 26
0.0
 36
0.0
 17
0.0
 27
1.0
 37
0.0
 76
1
330
17
  0
LAYOUT
  5
1E
330
D
100
AcDbPlotSettings
  1

  4
A3
  6

 40
7.5
 41
20.0
 42
7.5
 43
20.0
 44
420.0
 45
297.0
 46
0.0
 47
0.0
 48
0.0
 49
0.0
140
0.0
141
0.0
142
1.0
143
1.0
 70
0
 72
1
 73
0
 74
5
  7

 75
16
 76
0
 77
2
 78
300
147
1.0
148
0.0
149
0.0
100
AcDbLayout
  1
Layout1
 70
1
 71
1
 10
0.0
 20
0.0
 11
420.0
 21
297.0
 12
0.0
 22
0.0
 32
0.0
 14
1e+20
 24
1e+20
 34
1e+20
 15
-1e+20
 25
-1e+20
 35
-1e+20
146
0.0
 13
0.0
 23
0.0
 33
0.0
 16
1.0
 26
0.0
 36
0.0
 17
0.0
 27
1.0
 37
0.0
 76
1
330
1B
  0
MATERIAL
  5
1F
102
{ACAD_REACTORS
330
E
102
}
330
E
100
AcDbMaterial
  1
ByBlock
  2

 70
0
 40
1.0
 71
1
 41
1.0
 91
-1023410177
 42
1.0
 72
1
  3

 73
1
 74
1
 75
1
 44
0.5
 73
0
 45
1.0
 46
1.0
 77
1
  4

 78
1
 79
1
170
1
 48
1.0
171
1
  6

172
1
173
1
174
1
140
1.0
141
1.0
175
1
  7

176
1
177
1
178
1
143
1.0
179
1
  8

270
1
271
1
272
1
145
1.0
146
1.0
273
1
  9

274
1
275
1
276
1
 42
1.0
 72
1
  3

 73
1
 74
1
 75
1
 94
63
  0
MATERIAL
  5
20
102
{ACAD_REACTORS
330
E
102
}
330
E
100
AcDbMaterial
  1
ByLayer
  2

 70
0
 40
1.0
 71
1
 41
1.0
 91
-1023410177
 42
1.0
 72
1
  3

 73
1
 74
1
 75
1
 44
0.5
 73
0
 45
1.0
 46
1.0
 77
1
  4

 78
1
 79
1
170
1
 48
1.0
171
1
  6

172
1
173
1
174
1
140
1.0
141
1.0
175
1
  7

176
1
177
1
178
1
143
1.0
179
1
  8

270
1
271
1
272
1
145
1.0
146
1.0
273
1
  9

274
1
275
1
276
1
 42
1.0
 72
1
  3

 73
1
 74
1
 75
1
 94
63
  0
MATERIAL
  5
21
102
{ACAD_REACTORS
330
E
102
}
330
E
100
AcDbMaterial
  1
Global
  2

 70
0
 40
1.0
 71
1
 41
1.0
 91
-1023410177
 42
1.0
 72
1
  3

 73
1
 74
1
 75
1
 44
0.5
 73
0
 45
1.0
 46
1.0
 77
1
  4

 78
1
 79
1
170
1
 48
1.0
171
1
  6

172
1
173
1
174
1
140
1.0
141
1.0
175
1
  7

176
1
177
1
178
1
143
1.0
179
1
  8

270
1
271
1
272
1
145
1.0
146
1.0
273
1
  9

274
1
275
1
276
1
 42
1.0
 72
1
  3

 73
1
 74
1
 75
1
 94
63
  0
MLINESTYLE
  5
22
102
{ACAD_REACTORS
330
10
102
}
330
10
100
AcDbMlineStyle
  2
Standard
 70
0
  3

 62
256
 51
90.0
 52
90.0
 71
2
 49
0.5
 62
256
  6
BYLAYER
 49
-0.5
 62
256
  6
BYLAYER
  0
MLEADERSTYLE
  5
2C
102
{ACAD_REACTORS
330
F
102
}
330
F
100
AcDbMLeaderStyle
179
2
170
2
171
1
172
0
 90
2
 40
0.0
 41
0.0
173
1
 91
-1056964608
 92
-2
290
1
 42
2.0
291
1
 43
8.0
  3
Standard
 44
4.0
300

342
29
174
1
175
1
176
0
178
1
 93
-1056964608
 45
4.0
292
0
297
0
 46
4.0
 94
-1056964608
 47
1.0
 49
1.0
140
1.0
294
1
141
0.0
177
0
142
1.0
295
0
296
0
143
3.75
271
0
272
9
273
9
  0
DICTIONARY
  5
2D
330
A
100
AcDbDictionary
280
1
281
1
  3
CREATED_BY_EZDXF
350
2E
  3
WRITTEN_BY_EZDXF
350
56
  0
DICTIONARYVAR
  5
2E
330
2D
100
DictionaryVariables
280
0
  1
1.4.4 @ 2026-09-14T07:01:38.343136+00:00
  0
DICTIONARYVAR
  5
56
330
2D
100
DictionaryVariables
280
0
  1
1.4.4 @ 2026-09-14T07:01:38.363248+00:00
  0
ENDSEC
  0
EOF
