  0
SECTION
  2
HEADER
  9
$ACADVER
  1
AC1024
  9
$ACADMAINTVER
 70
6
  9
$DWGCODEPAGE
  3
ANSI_1252
  9
$LASTSAVEDBY
  1
ezdxf
  9
$INSBASE
 10
0.0
 20
0.0
 30
0.0
  9
$EXTMIN
 10
1e+20
 20
1e+20
 30
1e+20
  9
$EXTMAX
 10
-1e+20
 20
-1e+20
 30
-1e+20
  9
$LIMMIN
 10
0.0
 20
0.0
  9
$LIMMAX
 10
420.0
 20
297.0
  9
$ORTHOMODE
 70
0
  9
$REGENMODE
 70
1
  9
$FILLMODE
 70
1
  9
$QTEXTMODE
 70
0
  9
$MIRRTEXT
 70
1
  9
$LTSCALE
 40
1.0
  9
$ATTMODE
 70
1
  9
$TEXTSIZE
 40
2.5
  9
$TRACEWID
 40
1.0
  9
$TEXTSTYLE
  7
Standard
  9
$CLAYER
  8
0
  9
$CELTYPE
  6
ByLayer
  9
$CECOLOR
 62
256
  9
$CELTSCALE
 40
1.0
  9
$DISPSILH
 70
0
  9
$DIMSCALE
 40
1.0
  9
$DIMASZ
 40
2.5
  9
$DIMEXO
 40
0.625
  9
$DIMDLI
 40
3.75
  9
$DIMRND
 40
0.0
  9
$DIMDLE
 40
0.0
  9
$DIMEXE
 40
1.25
  9
$DIMTP
 40
0.0
  9
$DIMTM
 40
0.0
  9
$DIMTXT
 40
2.5
  9
$DIMCEN
 40
2.5
  9
$DIMTSZ
 40
0.0
  9
$DIMTOL
 70
0
  9
$DIMLIM
 70
0
  9
$DIMTIH
 70
0
  9
$DIMTOH
 70
0
  9
$DIMSE1
 70
0
  9
$DIMSE2
 70
0
  9
$DIMTAD
 70
1
  9
$DIMZIN
 70
8
  9
$DIMBLK
  1

  9
$DIMASO
 70
1
  9
$DIMSHO
 70
1
  9
$DIMPOST
  1

  9
$DIMAPOST
  1

  9
$DIMALT
 70
0
  9
$DIMALTD
 70
3
  9
$DIMALTF
 40
0.03937007874
  9
$DIMLFAC
 40
1.0
  9
$DIMTOFL
 70
1
  9
$DIMTVP
 40
0.0
  9
$DIMTIX
 70
0
  9
$DIMSOXD
 70
0
  9
$DIMSAH
 70
0
  9
$DIMBLK1
  1

  9
$DIMBLK2
  1

  9
$DIMSTYLE
  2
ISO-25
  9
$DIMCLRD
 70
0
  9
$DIMCLRE
 70
0
  9
$DIMCLRT
 70
0
  9
$DIMTFAC
 40
1.0
  9
$DIMGAP
 40
0.625
  9
$DIMJUST
 70
0
  9
$DIMSD1
 70
0
  9
$DIMSD2
 70
0
  9
$DIMTOLJ
 70
0
  9
$DIMTZIN
 70
8
  9
$DIMALTZ
 70
0
  9
$DIMALTTZ
 70
0
  9
$DIMUPT
 70
0
  9
$DIMDEC
 70
2
  9
$DIMTDEC
 70
2
  9
$DIMALTU
 70
2
  9
$DIMALTTD
 70
3
  9
$DIMTXSTY
  7
Standard
  9
$DIMAUNIT
 70
0
  9
$DIMADEC
 70
0
  9
$DIMALTRND
 40
0.0
  9
$DIMAZIN
 70
0
  9
$DIMDSEP
 70
44
  9
$DIMATFIT
 70
3
  9
$DIMFRAC
 70
0
  9
$DIMLDRBLK
  1

  9
$DIMLUNIT
 70
2
  9
$DIMLWD
 70
-2
  9
$DIMLWE
 70
-2
  9
$DIMTMOVE
 70
0
  9
$DIMFXL
 40
1.0
  9
$DIMFXLON
 70
0
  9
$DIMJOGANG
 40
0.785398163397
  9
$DIMTFILL
 70
0
  9
$DIMTFILLCLR
 70
0
  9
$DIMARCSYM
 70
0
  9
$DIMLTYPE
  6

  9
$DIMLTEX1
  6

  9
$DIMLTEX2
  6

  9
$DIMTXTDIRECTION
 70
0
  9
$LUNITS
 70
2
  9
$LUPREC
 70
4
  9
$SKETCHINC
 40
1.0
  9
$FILLETRAD
 40
10.0
  9
$AUNITS
 70
0
  9
$AUPREC
 70
2
  9
$MENU
  1
.
  9
$ELEVATION
 40
0.0
  9
$PELEVATION
 40
0.0
  9
$THICKNESS
 40
0.0
  9
$LIMCHECK
 70
0
  9
$CHAMFERA
 40
0.0
  9
$CHAMFERB
 40
0.0
  9
$CHAMFERC
 40
0.0
  9
$CHAMFERD
 40
0.0
  9
$SKPOLY
 70
0
  9
$TDCREATE
 40
2461298.417800926
  9
$TDUCREATE
 40
2458532.153996898
  9
$TDUPDATE
 40
2461298.417800926
  9
$TDUUPDATE
 40
2458532.1544311
  9
$TDINDWG
 40
0.0
  9
$TDUSRTIMER
 40
0.0
  9
$USRTIMER
 70
1
  9
$ANGBASE
 50
0.0
  9
$ANGDIR
 70
0
  9
$PDMODE
 70
0
  9
$PDSIZE
 40
0.0
  9
$PLINEWID
 40
0.0
  9
$SPLFRAME
 70
0
  9
$SPLINETYPE
 70
6
  9
$SPLINESEGS
 70
8
  9
$HANDSEED
  5
5E
  9
$SURFTAB1
 70
6
  9
$SURFTAB2
 70
6
  9
$SURFTYPE
 70
6
  9
$SURFU
 70
6
  9
$SURFV
 70
6
  9
$UCSBASE
  2

  9
$UCSNAME
  2

  9
$UCSORG
 10
0.0
 20
0.0
 30
0.0
  9
$UCSXDIR
 10
1.0
 20
0.0
 30
0.0
  9
$UCSYDIR
 10
0.0
 20
1.0
 30
0.0
  9
$UCSORTHOREF
  2

  9
$UCSORTHOVIEW
 70
0
  9
$UCSORGTOP
 10
0.0
 20
0.0
 30
0.0
  9
$UCSORGBOTTOM
 10
0.0
 20
0.0
 30
0.0
  9
$UCSORGLEFT
 10
0.0
 20
0.0
 30
0.0
  9
$UCSORGRIGHT
 10
0.0
 20
0.0
 30
0.0
  9
$UCSORGFRONT
 10
0.0
 20
0.0
 30
0.0
  9
$UCSORGBACK
 10
0.0
 20
0.0
 30
0.0
  9
$PUCSBASE
  2

  9
$PUCSNAME
  2

  9
$PUCSORG
 10
0.0
 20
0.0
 30
0.0
  9
$PUCSXDIR
 10
1.0
 20
0.0
 30
0.0
  9
$PUCSYDIR
 10
0.0
 20
1.0
 30
0.0
  9
$PUCSORTHOREF
  2

  9
$PUCSORTHOVIEW
 70
0
  9
$PUCSORGTOP
 10
0.0
 20
0.0
 30
0.0
  9
$PUCSORGBOTTOM
 10
0.0
 20
0.0
 30
0.0
  9
$PUCSORGLEFT
 10
0.0
 20
0.0
 30
0.0
  9
$PUCSORGRIGHT
 10
0.0
 20
0.0
 30
0.0
  9
$PUCSORGFRONT
 10
0.0
 20
0.0
 30
0.0
  9
$PUCSORGBACK
 10
0.0
 20
0.0
 30
0.0
  9
$USERI1
 70
0
  9
$USERI2
 70
0
  9
$USERI3
 70
0
  9
$USERI4
 70
0
  9
$USERI5
 70
0
  9
$USERR1
 40
0.0
  9
$USERR2
 40
0.0
  9
$USERR3
 40
0.0
  9
$USERR4
 40
0.0
  9
$USERR5
 40
0.0
  9
$WORLDVIEW
 70
1
  9
$SHADEDGE
 70
3
  9
$SHADEDIF
 70
70
  9
$TILEMODE
 70
1
  9
$MAXACTVP
 70
64
  9
$PINSBASE
 10
0.0
 20
0.0
 30
0.0
  9
$PLIMCHECK
 70
0
  9
$PEXTMIN
 10
1e+20
 20
1e+20
 30
1e+20
  9
$PEXTMAX
 10
-1e+20
 20
-1e+20
 30
-1e+20
  9
$PLIMMIN
 10
0.0
 20
0.0
  9
$PLIMMAX
 10
420.0
 20
297.0
  9
$UNITMODE
 70
0
  9
$VISRETAIN
 70
1
  9
$PLINEGEN
 70
0
  9
$PSLTSCALE
 70
1
  9
$TREEDEPTH
 70
3020
  9
$CMLSTYLE
  2
Standard
  9
$CMLJUST
 70
0
  9
$CMLSCALE
 40
20.0
  9
$PROXYGRAPHICS
 70
1
  9
$MEASUREMENT
 70
1
  9
$CELWEIGHT
370
-1
  9
$ENDCAPS
280
0
  9
$JOINSTYLE
280
0
  9
$LWDISPLAY
290
0
  9
$INSUNITS
 70
6
  9
$HYPERLINKBASE
  1

  9
$STYLESHEET
  1

  9
$XEDIT
290
1
  9
$CEPSNTYPE
380
0
  9
$PSTYLEMODE
290
1
  9
$FINGERPRINTGUID
  2
{4EEF5A5F-6090-4D7E-925E-4131D452755D}
  9
$VERSIONGUID
  2
{3AADF3B9-588B-45ED-9198-AED4A6B1C614}
  9
$EXTNAMES
290
1
  9
$PSVPSCALE
 40
0.0
  9
$OLESTARTUP
290
0
  9
$SORTENTS
280
127
  9
$INDEXCTL
280
0
  9
$HIDETEXT
280
1
  9
$XCLIPFRAME
280
1
  9
$HALOGAP
280
0
  9
$OBSCOLOR
 70
257
  9
$OBSLTYPE
280
0
  9
$INTERSECTIONDISPLAY
280
0
  9
$INTERSECTIONCOLOR
 70
257
  9
$DIMASSOC
280
2
  9
$PROJECTNAME
  1

  9
$CAMERADISPLAY
290
0
  9
$LENSLENGTH
 40
50.0
  9
$CAMERAHEIGHT
 40
0.0
  9
$STEPSPERSEC
 40
24.0
  9
$STEPSIZE
 40
100.0
  9
$3DDWFPREC
 40
2.0
  9
$PSOLWIDTH
 40
0.005
  9
$PSOLHEIGHT
 40
0.08
  9
$LOFTANG1
 40
1.570796326795
  9
$LOFTANG2
 40
1.570796326795
  9
$LOFTMAG1
 40
0.0
  9
$LOFTMAG2
 40
0.0
  9
$LOFTPARAM
 70
7
  9
$LOFTNORMALS
280
1
  9
$LATITUDE
 40
37.795
  9
$LONGITUDE
 40
-122.394
  9
$NORTHDIRECTION
 40
0.0
  9
$TIMEZONE
 70
-8000
  9
$LIGHTGLYPHDISPLAY
280
1
  9
$TILEMODELIGHTSYNCH
280
1
  9
$CMATERIAL
347
20
  9
$SOLIDHIST
280
0
  9
$SHOWHIST
280
1
  9
$DWFFRAME
280
2
  9
$DGNFRAME
280
2
  9
$REALWORLDSCALE
290
1
  9
$INTERFERECOLOR
 62
256
  9
$CSHADOW
280
0
  9
$SHADOWPLANELOCATION
 40
0.0
  0
ENDSEC
  0
SECTION
  2
CLASSES
  0
CLASS
  1
ACDBDICTIONARYWDFLT
  2
AcDbDictionaryWithDefault
  3
ObjectDBX Classes
 90
0
 91
0
280
0
281
0
  0
CLASS
  1
SUN
  2
AcDbSun
  3
SCENEOE
 90
1153
 91
0
280
0
281
0
  0
CLASS
  1
VISUALSTYLE
  2
AcDbVisualStyle
  3
ObjectDBX Classes
 90
4095
 91
0
280
0
281
0
  0
CLASS
  1
MATERIAL
  2
AcDbMaterial
  3
ObjectDBX Classes
 90
1153
 91
0
280
0
281
0
  0
CLASS
  1
SCALE
  2
AcDbScale
  3
ObjectDBX Classes
 90
1153
 91
0
280
0
281
0
  0
CLASS
  1
TABLESTYLE
  2
AcDbTableStyle
  3
ObjectDBX Classes
 90
4095
 91
0
280
0
281
0
  0
CLASS
  1
MLEADERSTYLE
  2
AcDbMLeaderStyle
  3
ACDB_MLEADERSTYLE_CLASS
 90
4095
 91
0
280
0
281
0
  0
CLASS
  1
DICTIONARYVAR
  2
AcDbDictionaryVar
  3
ObjectDBX Classes
 90
0
 91
0
280
0
281
0
  0
CLASS
  1
CELLSTYLEMAP
  2
AcDbCellStyleMap
  3
ObjectDBX Classes
 90
1152
 91
0
280
0
281
0
  0
CLASS
  1
MENTALRAYRENDERSETTINGS
  2
AcDbMentalRayRenderSettings
  3
SCENEOE
 90
1024
 91
0
280
0
281
0
  0
CLASS
  1
ACDBDETAILVIEWSTYLE
  2
AcDbDetailViewStyle
  3
ObjectDBX Classes
 90
1025
 91
0
280
0
281
0
  0
CLASS
  1
ACDBSECTIONVIEWSTYLE
  2
AcDbSectionViewStyle
  3
ObjectDBX Classes
 90
1025
 91
0
280
0
281
0
  0
CLASS
  1
RASTERVARIABLES
  2
AcDbRasterVariables
  3
ISM
 90
0
 91
0
280
0
281
0
  0
CLASS
  1
LAYOUT
  2
AcDbLayout
  3
ObjectDBX Classes
 90
0
 91
0
280
0
281
0
  0
CLASS
  1
ACDBPLACEHOLDER
  2
AcDbPlaceHolder
  3
ObjectDBX Classes
 90
0
 91
0
280
0
281
0
  0
ENDSEC
  0
SECTION
  2
TABLES
  0
TABLE
  2
VPORT
  5
8
330
0
100
AcDbSymbolTable
 70
1
  0
VPORT
  5
23
330
8
100
AcDbSymbolTableRecord
100
AcDbViewportTableRecord
  2
*Active
 70
0
 10
0.0
 20
0.0
 11
1.0
 21
1.0
 12
0.0
 22
0.0
 13
0.0
 23
0.0
 14
0.5
 24
0.5
 15
0.5
 25
0.5
 16
0.0
 26
0.0
 36
1.0
 17
0.0
 27
0.0
 37
0.0
 40
1000.0
 41
1.34
 42
50.0
 43
0.0
 44
0.0
 50
0.0
 51
0.0
 71
0
 72
1000
 73
1
 74
3
 75
0
 76
0
 77
0
 78
0
281
0
 65
0
146
0.0
  0
ENDTAB
  0
TABLE
  2
LTYPE
  5
2
330
0
100
AcDbSymbolTable
 70
3
  0
LTYPE
  5
24
330
2
100
AcDbSymbolTableRecord
100
AcDbLinetypeTableRecord
  2
ByBlock
 70
0
  3

 72
65
 73
0
 40
0.0
  0
LTYPE
  5
25
330
2
100
AcDbSymbolTableRecord
100
AcDbLinetypeTableRecord
  2
ByLayer
 70
0
  3

 72
65
 73
0
 40
0.0
  0
LTYPE
  5
26
330
2
100
AcDbSymbolTableRecord
100
AcDbLinetypeTableRecord
  2
Continuous
 70
0
  3

 72
65
 73
0
 40
0.0
  0
ENDTAB
  0
TABLE
  2
LAYER
  5
1
330
0
100
AcDbSymbolTable
 70
5
  0
LAYER
  5
27
330
1
100
AcDbSymbolTableRecord
100
AcDbLayerTableRecord
  2
0
 70
0
 62
7
  6
Continuous
370
-3
390
13
347
21
  0
LAYER
  5
28
330
1
100
AcDbSymbolTableRecord
100
AcDbLayerTableRecord
  2
Defpoints
 70
0
 62
7
  6
Continuous
290
0
370
-3
390
13
347
21
  0
LAYER
  5
2F
330
1
100
AcDbSymbolTableRecord
100
AcDbLayerTableRecord
  2
FERO_OUTLINE
 70
0
 62
7
  6
Continuous
370
-3
390
13
347
21
  0
LAYER
  5
30
330
1
100
AcDbSymbolTableRecord
100
AcDbLayerTableRecord
  2
FERO_SUN
 70
0
 62
7
  6
Continuous
370
-3
390
13
347
21
  0
LAYER
  5
31
330
1
100
AcDbSymbolTableRecord
100
AcDbLayerTableRecord
  2
GOST_FRAME
 70
0
 62
8
  6
Continuous
370
-3
390
13
347
21
  0
ENDTAB
  0
TABLE
  2
STYLE
  5
5
330
0
100
AcDbSymbolTable
 70
1
  0
STYLE
  5
29
330
5
100
AcDbSymbolTableRecord
100
AcDbTextStyleTableRecord
  2
Standard
 70
0
 40
0.0
 41
1.0
 50
0.0
 71
0
 42
2.5
  3
txt
  4

  0
ENDTAB
  0
TABLE
  2
VIEW
  5
7
330
0
100
AcDbSymbolTable
 70
0
  0
ENDTAB
  0
TABLE
  2
UCS
  5
6
330
0
100
AcDbSymbolTable
 70
0
  0
ENDTAB
  0
TABLE
  2
APPID
  5
3
330
0
100
AcDbSymbolTable
 70
3
  0
APPID
  5
2A
330
3
100
AcDbSymbolTableRecord
100
AcDbRegAppTableRecord
  2
ACAD
 70
0
  0
APPID
  5
5B
330
3
100
AcDbSymbolTableRecord
100
AcDbRegAppTableRecord
  2
HATCHBACKGROUNDCOLOR
 70
0
  0
APPID
  5
5C
330
3
100
AcDbSymbolTableRecord
100
AcDbRegAppTableRecord
  2
EZDXF
 70
0
  0
ENDTAB
  0
TABLE
  2
DIMSTYLE
  5
4
330
0
100
AcDbSymbolTable
 70
1
100
AcDbDimStyleTable
  0
DIMSTYLE
105
2B
330
4
100
AcDbSymbolTableRecord
100
AcDbDimStyleTableRecord
  2
Standard
 70
0
 40
1.0
 41
2.5
 42
0.625
 43
3.75
 44
1.25
 45
0.0
 46
0.0
 47
0.0
 48
0.0
 49
2.5
140
2.5
141
2.5
142
0.0
143
0.03937007874
144
1.0
145
0.0
146
1.0
147
0.625
148
0.0
 69
0
 70
0
 71
0
 72
0
 73
0
 74
0
 75
0
 76
0
 77
1
 78
8
 79
3
170
0
171
3
172
1
173
0
174
0
175
0
176
0
177
0
178
0
179
2
271
2
272
2
273
2
274
3
275
0
276
0
277
2
278
44
279
0
280
0
281
0
282
0
283
0
284
8
285
0
286
0
288
0
289
3
290
0
371
-2
372
-2
  0
ENDTAB
  0
TABLE
  2
BLOCK_RECORD
  5
9
330
0
100
AcDbSymbolTable
 70
2
  0
BLOCK_RECORD
  5
17
330
9
100
AcDbSymbolTableRecord
100
AcDbBlockTableRecord
  2
*Model_Space
340
1A
 70
0
280
1
281
0
  0
BLOCK_RECORD
  5
1B
330
9
100
AcDbSymbolTableRecord
100
AcDbBlockTableRecord
  2
*Paper_Space
340
1E
 70
0
280
1
281
0
  0
ENDTAB
  0
ENDSEC
  0
SECTION
  2
BLOCKS
  0
BLOCK
  5
18
330
17
100
AcDbEntity
  8
0
100
AcDbBlockBegin
  2
*Model_Space
 70
0
 10
0.0
 20
0.0
 30
0.0
  3
*Model_Space
  1

  0
ENDBLK
  5
19
330
17
100
AcDbEntity
  8
0
100
AcDbBlockEnd
  0
BLOCK
  5
1C
330
1B
100
AcDbEntity
  8
0
100
AcDbBlockBegin
  2
*Paper_Space
 70
0
 10
0.0
 20
0.0
 30
0.0
  3
*Paper_Space
  1

  0
ENDBLK
  5
1D
330
1B
100
AcDbEntity
  8
0
100
AcDbBlockEnd
  0
ENDSEC
  0
SECTION
  2
ENTITIES
  0
LWPOLYLINE
  5
32
330
17
100
AcDbEntity
  8
GOST_FRAME
100
AcDbPolyline
 90
5
 70
0
 10
0.0
 20
0.0
 10
70.0
 20
0.0
 10
70.0
 20
15.0
 10
0.0
 20
15.0
 10
0.0
 20
0.0
  0
LWPOLYLINE
  5
33
330
17
100
AcDbEntity
  8
FERO_OUTLINE
100
AcDbPolyline
 90
23
 70
1
 10
8.0845
 20
6.5173125
 10
8.0845
 20
6.0
 10
7.2068125
 20
6.0
 10
7.2068125
 20
6.5173125
 10
6.3003046875
 20
6.6684375
 10
5.70621875
 20
7.042375
 10
5.3785390625
 20
7.5894765625
 10
5.2693125
 20
8.258156249999999
 10
5.383625
 20
8.951054687500001
 10
5.7265625
 20
9.491375
 10
6.3252500000000005
 20
9.8500546875
 10
7.2068125
 20
9.99609375
 10
7.2068125
 20
10.4349375
 10
8.0845
 20
10.4349375
 10
8.0845
 20
9.99609375
 10
8.9871328125
 20
9.8459375
 10
9.58121875
 20
9.47490625
 10
9.9118046875
 20
8.9297421875
 10
10.022
 20
8.25525
 10
9.912289062500001
 20
7.5851171875
 10
9.58315625
 20
7.03946875
 10
8.9890703125
 20
6.6677109375
 10
8.0845
 20
6.5173125
  0
LWPOLYLINE
  5
34
330
17
100
AcDbEntity
  8
FERO_OUTLINE
100
AcDbPolyline
 90
11
 70
1
 10
8.0845
 20
7.2651875
 10
8.411453125
 20
7.294734375
 10
8.689
 20
7.383375
 10
8.90503125
 20
7.52190625
 10
9.047437500000001
 20
7.701125
 10
9.127359375000001
 20
7.9474296875
 10
9.154
 20
8.28528125
 10
9.08715625
 20
8.706566406250001
 10
8.55240625
 20
9.188035156249999
 10
8.0845
 20
9.24821875
 10
8.0845
 20
7.2651875
  0
LWPOLYLINE
  5
35
330
17
100
AcDbEntity
  8
FERO_OUTLINE
100
AcDbPolyline
 90
9
 70
1
 10
7.2068125
 20
7.2651875
 10
7.2068125
 20
9.24821875
 10
6.71953125
 20
9.1850078125
 10
6.3891875
 20
8.995375
 10
6.2010078125
 20
8.6778671875
 10
6.13828125
 20
8.231031250000001
 10
6.205064453125
 20
7.808474609375
 10
6.739330078125
 20
7.325552734375
 10
7.2068125
 20
7.2651875
  0
LWPOLYLINE
  5
36
330
17
100
AcDbEntity
  8
FERO_OUTLINE
100
AcDbPolyline
 90
13
 70
1
 10
10.743234375
 20
6.0
 10
10.743234375
 20
10.437843749999999
 10
14.034078125
 20
10.437843749999999
 10
14.034078125
 20
9.6870625
 10
11.639328124999999
 20
9.6870625
 10
11.639328124999999
 20
8.70378125
 10
13.867453125
 20
8.70378125
 10
13.867453125
 20
7.95590625
 10
11.639328124999999
 20
7.95590625
 10
11.639328124999999
 20
6.747875
 10
14.118359375
 20
6.747875
 10
14.118359375
 20
6.0
 10
10.743234375
 20
6.0
  0
LWPOLYLINE
  5
37
330
17
100
AcDbEntity
  8
FERO_OUTLINE
100
AcDbPolyline
 90
20
 70
1
 10
14.8785859375
 20
6.0
 10
14.8785859375
 20
10.437843749999999
 10
16.3162109375
 20
10.437843749999999
 10
16.991429687500002
 20
10.421375
 10
17.3818359375
 20
10.37196875
 10
17.73228125
 20
10.2128515625
 10
18.0202421875
 20
9.937
 10
18.2135078125
 20
9.553859375
 10
18.2779296875
 20
9.072875
 10
18.240875
 20
8.696515625
 10
18.1297109375
 20
8.3850625
 10
17.961390625
 20
8.1368203125
 10
17.7528671875
 20
7.94815625
 10
17.5223046875
 20
7.8161640625
 10
17.287867187499998
 20
7.7379375
 10
16.89528125
 20
7.689984375
 10
16.3588359375
 20
7.6739999999999995
 10
15.774679687499999
 20
7.6739999999999995
 10
15.774679687499999
 20
6.0
 10
14.8785859375
 20
6.0
  0
LWPOLYLINE
  5
38
330
17
100
AcDbEntity
  8
FERO_OUTLINE
100
AcDbPolyline
 90
16
 70
1
 10
15.774679687499999
 20
9.6870625
 10
15.774679687499999
 20
8.4276875
 10
16.264867187500002
 20
8.4276875
 10
16.706859375
 20
8.445125
 10
16.9730234375
 20
8.4974375
 10
17.132625
 20
8.586804687499999
 10
17.2529921875
 20
8.715406250000001
 10
17.32928125
 20
8.875734375
 10
17.354710937500002
 20
9.06028125
 10
17.319109375
 20
9.28115625
 10
17.2123046875
 20
9.45940625
 10
17.0510078125
 20
9.587765625
 10
16.8519296875
 20
9.65703125
 10
16.610953125
 20
9.679554687500001
 10
16.2077109375
 20
9.6870625
 10
15.774679687499999
 20
9.6870625
  0
LWPOLYLINE
  5
39
330
17
100
AcDbEntity
  8
FERO_OUTLINE
100
AcDbPolyline
 90
21
 70
1
 10
18.7465625
 20
8.19228125
 10
18.797421874999998
 20
8.8159140625
 10
18.95
 20
9.3305625
 10
19.128734375
 20
9.6521875
 10
19.3626875
 20
9.9389375
 10
19.63684375
 20
10.173375
 10
19.9361875
 20
10.3380625
 10
20.38278125
 20
10.4695703125
 10
20.8933125
 20
10.51340625
 10
21.77584375
 20
10.3613125
 10
22.4626875
 20
9.90503125
 10
22.9044375
 20
9.1777421875
 10
23.0516875
 20
8.212625
 10
22.9056484375
 20
7.255015625
 10
22.46753125
 20
6.530875
 10
21.7848046875
 20
6.076046875
 10
20.9049375
 20
5.9244375
 10
20.0163515625
 20
6.0753203125
 10
19.33071875
 20
6.52796875
 10
18.892601562499998
 20
7.2462968750000005
 10
18.7465625
 20
8.19228125
  0
LWPOLYLINE
  5
3A
330
17
100
AcDbEntity
  8
FERO_OUTLINE
100
AcDbPolyline
 90
17
 70
1
 10
19.66978125
 20
8.222312500000001
 10
19.7567265625
 20
7.5596875
 10
20.0175625
 20
7.0791875
 10
20.4130546875
 20
6.7878359375
 10
20.90203125
 20
6.69071875
 10
21.389796875000002
 20
6.787109375
 10
21.78165625
 20
7.07628125
 10
22.0395859375
 20
7.5584765625
 10
22.1255625
 20
8.2339375
 10
22.041765625
 20
8.9001953125
 10
21.790375
 20
9.37221875
 10
21.4011796875
 20
9.654125
 10
20.90203125
 20
9.748093749999999
 10
20.401671874999998
 20
9.652914062499999
 10
20.00884375
 20
9.367375
 10
19.754546875
 20
8.891234375
 10
19.66978125
 20
8.222312500000001
  0
LWPOLYLINE
  5
3B
330
17
100
AcDbEntity
  8
FERO_OUTLINE
100
AcDbPolyline
 90
23
 70
1
 10
5.796
 20
2.3335000000000004
 10
5.796
 20
2.2
 10
5.5695
 20
2.2
 10
5.5695
 20
2.3335000000000004
 10
5.3355625
 20
2.3725
 10
5.18225
 20
2.4690000000000003
 10
5.0976875
 20
2.6101875000000003
 10
5.0695
 20
2.78275
 10
5.099
 20
2.9615625000000003
 10
5.1875
 20
3.101
 10
5.342
 20
3.1935625
 10
5.5695
 20
3.23125
 10
5.5695
 20
3.3445
 10
5.796
 20
3.3445
 10
5.796
 20
3.23125
 10
6.0289375
 20
3.1925000000000003
 10
6.18225
 20
3.09675
 10
6.2675625
 20
2.9560625000000003
 10
6.296
 20
2.782
 10
6.2676875
 20
2.6090625000000003
 10
6.18275
 20
2.4682500000000003
 10
6.0294375
 20
2.3723125
 10
5.796
 20
2.3335000000000004
  0
LWPOLYLINE
  5
3C
330
17
100
AcDbEntity
  8
FERO_OUTLINE
100
AcDbPolyline
 90
10
 70
1
 10
5.796
 20
2.5265000000000004
 10
5.880375
 20
2.5341250000000004
 10
5.952
 20
2.5570000000000004
 10
6.00775
 20
2.59275
 10
6.0445
 20
2.6390000000000002
 10
6.065125
 20
2.7025625
 10
6.072
 20
2.78975
 10
6.003
 20
2.976125
 10
5.796
 20
3.03825
 10
5.796
 20
2.5265000000000004
  0
LWPOLYLINE
  5
3D
330
17
100
AcDbEntity
  8
FERO_OUTLINE
100
AcDbPolyline
 90
8
 70
1
 10
5.5695
 20
2.5265000000000004
 10
5.5695
 20
3.03825
 10
5.44375
 20
3.0219375
 10
5.3585
 20
2.9730000000000003
 10
5.3099375
 20
2.8910625000000003
 10
5.29375
 20
2.7757500000000004
 10
5.3626875
 20
2.5888125000000004
 10
5.5695
 20
2.5265000000000004
  0
LWPOLYLINE
  5
3E
330
17
100
AcDbEntity
  8
FERO_OUTLINE
100
AcDbPolyline
 90
9
 70
1
 10
7.474875
 20
2.2
 10
7.223375
 20
2.2
 10
7.123375
 20
2.4602500000000003
 10
6.665375
 20
2.4602500000000003
 10
6.570875
 20
2.2
 10
6.3256250000000005
 20
2.2
 10
6.771625
 20
3.34525
 10
7.016375
 20
3.34525
 10
7.474875
 20
2.2
  0
LWPOLYLINE
  5
3F
330
17
100
AcDbEntity
  8
FERO_OUTLINE
100
AcDbPolyline
 90
4
 70
1
 10
7.049125
 20
2.6532500000000003
 10
6.891375
 20
3.07825
 10
6.736625
 20
2.6532500000000003
 10
7.049125
 20
2.6532500000000003
  0
LWPOLYLINE
  5
40
330
17
100
AcDbEntity
  8
FERO_OUTLINE
100
AcDbPolyline
 90
35
 70
1
 10
8.29034375
 20
2.621
 10
8.51459375
 20
2.5500000000000003
 10
8.44596875
 20
2.386625
 10
8.34309375
 20
2.2715
 10
8.20703125
 20
2.20325
 10
8.03884375
 20
2.1805000000000003
 10
7.83090625
 20
2.2194375
 10
7.66359375
 20
2.33625
 10
7.55353125
 20
2.5208125000000003
 10
7.51684375
 20
2.7625
 10
7.55371875
 20
3.0165
 10
7.6643437500000005
 20
3.2065
 10
7.83534375
 20
3.3251875
 10
8.052843750000001
 20
3.36475
 10
8.243343750000001
 20
3.33375
 10
8.39434375
 20
3.2407500000000002
 10
8.46259375
 20
3.15125
 10
8.51134375
 20
3.02975
 10
8.28259375
 20
2.975
 10
8.251093749999999
 20
3.054625
 10
8.19759375
 20
3.1155
 10
8.12634375
 20
3.1543125000000005
 10
8.04109375
 20
3.16725
 10
7.92578125
 20
3.144375
 10
7.83434375
 20
3.07575
 10
7.77490625
 20
2.956125
 10
7.75509375
 20
2.77975
 10
7.77459375
 20
2.59375
 10
7.83309375
 20
2.47025
 10
7.92303125
 20
2.40125
 10
8.03634375
 20
2.37825
 10
8.122093750000001
 20
2.392875
 10
8.19484375
 20
2.43675
 10
8.25196875
 20
2.5120625000000003
 10
8.29034375
 20
2.621
  0
LWPOLYLINE
  5
41
330
17
100
AcDbEntity
  8
FERO_OUTLINE
100
AcDbPolyline
 90
9
 70
1
 10
9.7058125
 20
2.2
 10
9.4543125
 20
2.2
 10
9.354312499999999
 20
2.4602500000000003
 10
8.8963125
 20
2.4602500000000003
 10
8.8018125
 20
2.2
 10
8.5565625
 20
2.2
 10
9.0025625
 20
3.34525
 10
9.2473125
 20
3.34525
 10
9.7058125
 20
2.2
  0
LWPOLYLINE
  5
42
330
17
100
AcDbEntity
  8
FERO_OUTLINE
100
AcDbPolyline
 90
4
 70
1
 10
9.2800625
 20
2.6532500000000003
 10
9.1223125
 20
3.07825
 10
8.9675625
 20
2.6532500000000003
 10
9.2800625
 20
2.6532500000000003
  0
LWPOLYLINE
  5
43
330
17
100
AcDbEntity
  8
FERO_OUTLINE
100
AcDbPolyline
 90
17
 70
1
 10
9.98053125
 20
3.34525
 10
10.772031250000001
 20
3.34525
 10
10.772031250000001
 20
2.39225
 10
10.87278125
 20
2.39225
 10
10.87278125
 20
1.9500000000000002
 10
10.680531250000001
 20
1.9500000000000002
 10
10.680531250000001
 20
2.2
 10
9.959531250000001
 20
2.2
 10
9.959531250000001
 20
1.9500000000000002
 10
9.76728125
 20
1.9500000000000002
 10
9.76728125
 20
2.39225
 10
9.864281250000001
 20
2.39225
 10
9.92315625
 20
2.5508125
 10
9.95778125
 20
2.733
 10
9.97484375
 20
2.9529375
 10
9.98053125
 20
3.2242500000000005
 10
9.98053125
 20
3.34525
  0
LWPOLYLINE
  5
44
330
17
100
AcDbEntity
  8
FERO_OUTLINE
100
AcDbPolyline
 90
6
 70
1
 10
10.20103125
 20
3.1532500000000003
 10
10.17740625
 20
2.702
 10
10.10653125
 20
2.39225
 10
10.54153125
 20
2.39225
 10
10.54153125
 20
3.1532500000000003
 10
10.20103125
 20
3.1532500000000003
  0
LWPOLYLINE
  5
45
330
17
100
AcDbEntity
  8
FERO_OUTLINE
100
AcDbPolyline
 90
13
 70
1
 10
11.029125
 20
2.2
 10
11.029125
 20
3.34525
 10
11.260375
 20
3.34525
 10
11.260375
 20
2.8945000000000003
 10
11.713375
 20
2.8945000000000003
 10
11.713375
 20
3.34525
 10
11.944625
 20
3.34525
 10
11.944625
 20
2.2
 10
11.713375
 20
2.2
 10
11.713375
 20
2.70075
 10
11.260375
 20
2.70075
 10
11.260375
 20
2.2
 10
11.029125
 20
2.2
  0
LWPOLYLINE
  5
46
330
17
100
AcDbEntity
  8
FERO_OUTLINE
100
AcDbPolyline
 90
18
 70
1
 10
12.190093749999999
 20
3.34525
 10
12.42134375
 20
3.34525
 10
12.42134375
 20
2.8875
 10
12.73059375
 20
2.8875
 10
12.84403125
 20
2.8791875000000005
 10
12.94034375
 20
2.8542500000000004
 10
13.02096875
 20
2.8079375000000004
 10
13.08684375
 20
2.7355
 10
13.130906249999999
 20
2.643625
 10
13.14559375
 20
2.539
 10
13.13034375
 20
2.4308125
 10
13.08459375
 20
2.33875
 10
13.02015625
 20
2.268875
 10
12.94884375
 20
2.22725
 10
12.85703125
 20
2.2068125000000003
 10
12.73059375
 20
2.2
 10
12.190093749999999
 20
2.2
 10
12.190093749999999
 20
3.34525
  0
LWPOLYLINE
  5
47
330
17
100
AcDbEntity
  8
FERO_OUTLINE
100
AcDbPolyline
 90
14
 70
1
 10
12.42134375
 20
2.39225
 10
12.64709375
 20
2.39225
 10
12.73853125
 20
2.3948750000000003
 10
12.79734375
 20
2.40275
 10
12.83765625
 20
2.4200000000000004
 10
12.873093749999999
 20
2.45075
 10
12.89803125
 20
2.492375
 10
12.906343750000001
 20
2.54225
 10
12.89278125
 20
2.6091875
 10
12.85209375
 20
2.657
 10
12.776031249999999
 20
2.6856875000000002
 10
12.656343750000001
 20
2.69525
 10
12.42134375
 20
2.69525
 10
12.42134375
 20
2.39225
  0
LWPOLYLINE
  5
48
330
17
100
AcDbEntity
  8
FERO_OUTLINE
100
AcDbPolyline
 90
5
 70
1
 10
13.27909375
 20
3.34525
 10
13.51034375
 20
3.34525
 10
13.51034375
 20
2.2
 10
13.27909375
 20
2.2
 10
13.27909375
 20
3.34525
  0
LWPOLYLINE
  5
49
330
17
100
AcDbEntity
  8
FERO_OUTLINE
100
AcDbPolyline
 90
11
 70
1
 10
13.75325
 20
3.34525
 10
13.96975
 20
3.34525
 10
13.96975
 20
2.5827500000000003
 10
14.43375
 20
3.34525
 10
14.664250000000001
 20
3.34525
 10
14.664250000000001
 20
2.2
 10
14.447750000000001
 20
2.2
 10
14.447750000000001
 20
2.94775
 10
13.9845
 20
2.2
 10
13.75325
 20
2.2
 10
13.75325
 20
3.34525
  0
LWPOLYLINE
  5
4A
330
17
100
AcDbEntity
  8
FERO_OUTLINE
100
AcDbPolyline
 90
19
 70
1
 10
14.3465
 20
3.63675
 10
14.4535
 20
3.63675
 10
14.430250000000001
 20
3.5419375000000004
 10
14.379
 20
3.47
 10
14.3040625
 20
3.4246250000000003
 10
14.20975
 20
3.4095000000000004
 10
14.115625000000001
 20
3.4246250000000003
 10
14.040750000000001
 20
3.47
 10
13.9894375
 20
3.5419375000000004
 10
13.966
 20
3.63675
 10
14.073
 20
3.63675
 10
14.0855
 20
3.5881250000000002
 10
14.112
 20
3.5527500000000005
 10
14.1533125
 20
3.531375
 10
14.20975
 20
3.5242500000000003
 10
14.266312500000002
 20
3.531375
 10
14.307500000000001
 20
3.5527500000000005
 10
14.334
 20
3.5881250000000002
 10
14.3465
 20
3.63675
  0
LWPOLYLINE
  5
4B
330
17
100
AcDbEntity
  8
FERO_OUTLINE
100
AcDbPolyline
 90
11
 70
1
 10
15.34778125
 20
3.34525
 10
15.56428125
 20
3.34525
 10
15.56428125
 20
2.5827500000000003
 10
16.02828125
 20
3.34525
 10
16.25878125
 20
3.34525
 10
16.25878125
 20
2.2
 10
16.042281250000002
 20
2.2
 10
16.042281250000002
 20
2.94775
 10
15.57903125
 20
2.2
 10
15.34778125
 20
2.2
 10
15.34778125
 20
3.34525
  0
LWPOLYLINE
  5
4C
330
17
100
AcDbEntity
  8
FERO_OUTLINE
100
AcDbPolyline
 90
13
 70
1
 10
16.49553125
 20
2.2
 10
16.49553125
 20
3.34525
 10
16.726781250000002
 20
3.34525
 10
16.726781250000002
 20
2.8945000000000003
 10
17.179781249999998
 20
2.8945000000000003
 10
17.179781249999998
 20
3.34525
 10
17.41103125
 20
3.34525
 10
17.41103125
 20
2.2
 10
17.179781249999998
 20
2.2
 10
17.179781249999998
 20
2.70075
 10
16.726781250000002
 20
2.70075
 10
16.726781250000002
 20
2.2
 10
16.49553125
 20
2.2
  0
LWPOLYLINE
  5
4D
330
17
100
AcDbEntity
  8
FERO_OUTLINE
100
AcDbPolyline
 90
82
 70
1
 10
18.36975
 20
3.34525
 10
18.36975
 20
2.8577500000000002
 10
18.4205
 20
2.8708750000000003
 10
18.457250000000002
 20
2.9007500000000004
 10
18.492625
 20
2.9636250000000004
 10
18.539250000000003
 20
3.07575
 10
18.60875
 20
3.2223125
 10
18.67975
 20
3.3040000000000003
 10
18.774562500000002
 20
3.3401875000000003
 10
18.9165
 20
3.35225
 10
18.9289375
 20
3.3525
 10
18.95025
 20
3.35325
 10
18.95025
 20
3.1820000000000004
 10
18.9165
 20
3.1827500000000004
 10
18.855625
 20
3.178375
 10
18.813499999999998
 20
3.1652500000000003
 10
18.783812500000003
 20
3.1431250000000004
 10
18.76025
 20
3.1117500000000002
 10
18.735125
 20
3.0568125000000004
 10
18.70025
 20
2.9640000000000004
 10
18.678125
 20
2.9095625000000003
 10
18.65425
 20
2.8647500000000004
 10
18.62025
 20
2.826125
 10
18.56725
 20
2.78975
 10
18.6379375
 20
2.7563750000000002
 10
18.695
 20
2.70125
 10
18.7479375
 20
2.6214375000000003
 10
18.80575
 20
2.5140000000000002
 10
18.962
 20
2.2
 10
18.689999999999998
 20
2.2
 10
18.552500000000002
 20
2.496
 10
18.5480625
 20
2.5051875000000003
 10
18.539250000000003
 20
2.5202500000000003
 10
18.529062500000002
 20
2.539625
 10
18.511000000000003
 20
2.57425
 10
18.471125
 20
2.641375
 10
18.439
 20
2.67875
 10
18.4076875
 20
2.6958125
 10
18.36975
 20
2.7015000000000002
 10
18.36975
 20
2.2
 10
18.144
 20
2.2
 10
18.144
 20
2.7015000000000002
 10
18.10675
 20
2.696
 10
18.075000000000003
 20
2.6795
 10
18.0426875
 20
2.6423125
 10
18.00325
 20
2.57425
 10
17.9839375
 20
2.5372500000000002
 10
17.9745
 20
2.5202500000000003
 10
17.9675
 20
2.5083125
 10
17.961
 20
2.496
 10
17.823500000000003
 20
2.2
 10
17.55175
 20
2.2
 10
17.708
 20
2.5140000000000002
 10
17.764125
 20
2.6184375
 10
17.817
 20
2.6987500000000004
 10
17.875125
 20
2.75575
 10
17.947000000000003
 20
2.78975
 10
17.8939375
 20
2.8260625
 10
17.85975
 20
2.8645
 10
17.8359375
 20
2.9091250000000004
 10
17.813499999999998
 20
2.9640000000000004
 10
17.77925
 20
3.0553125000000003
 10
17.7545
 20
3.11025
 10
17.7311875
 20
3.14225
 10
17.70125
 20
3.16475
 10
17.65775
 20
3.1782500000000002
 10
17.593249999999998
 20
3.1827500000000004
 10
17.5810625
 20
3.1825625000000004
 10
17.563499999999998
 20
3.1820000000000004
 10
17.563499999999998
 20
3.35325
 10
17.58475
 20
3.3525
 10
17.597
 20
3.35225
 10
17.74075
 20
3.3400000000000003
 10
17.836
 20
3.3032500000000002
 10
17.905875
 20
3.221375
 10
17.9745
 20
3.07575
 10
18.0215625
 20
2.9631250000000002
 10
18.05675
 20
2.90025
 10
18.0931875
 20
2.87075
 10
18.144
 20
2.8577500000000002
 10
18.144
 20
3.34525
 10
18.36975
 20
3.34525
  0
LWPOLYLINE
  5
4E
330
17
100
AcDbEntity
  8
FERO_OUTLINE
100
AcDbPolyline
 90
11
 70
1
 10
19.099343750000003
 20
3.34525
 10
19.31584375
 20
3.34525
 10
19.31584375
 20
2.5827500000000003
 10
19.779843749999998
 20
3.34525
 10
20.01034375
 20
3.34525
 10
20.01034375
 20
2.2
 10
19.79384375
 20
2.2
 10
19.79384375
 20
2.94775
 10
19.33059375
 20
2.2
 10
19.099343750000003
 20
2.2
 10
19.099343750000003
 20
3.34525
  0
LWPOLYLINE
  5
4F
330
17
100
AcDbEntity
  8
FERO_OUTLINE
100
AcDbPolyline
 90
13
 70
1
 10
20.247093749999998
 20
2.2
 10
20.247093749999998
 20
3.34525
 10
20.47834375
 20
3.34525
 10
20.47834375
 20
2.8945000000000003
 10
20.93134375
 20
2.8945000000000003
 10
20.93134375
 20
3.34525
 10
21.16259375
 20
3.34525
 10
21.16259375
 20
2.2
 10
20.93134375
 20
2.2
 10
20.93134375
 20
2.70075
 10
20.47834375
 20
2.70075
 10
20.47834375
 20
2.2
 10
20.247093749999998
 20
2.2
  0
LWPOLYLINE
  5
50
330
17
100
AcDbEntity
  8
FERO_OUTLINE
100
AcDbPolyline
 90
11
 70
1
 10
21.404812500000002
 20
3.34525
 10
21.621312500000002
 20
3.34525
 10
21.621312500000002
 20
2.5827500000000003
 10
22.0853125
 20
3.34525
 10
22.3158125
 20
3.34525
 10
22.3158125
 20
2.2
 10
22.0993125
 20
2.2
 10
22.0993125
 20
2.94775
 10
21.6360625
 20
2.2
 10
21.404812500000002
 20
2.2
 10
21.404812500000002
 20
3.34525
  0
LWPOLYLINE
  5
51
330
17
100
AcDbEntity
  8
FERO_OUTLINE
100
AcDbPolyline
 90
20
 70
1
 10
22.5518125
 20
2.2
 10
22.5518125
 20
3.34525
 10
22.9228125
 20
3.34525
 10
23.0970625
 20
3.341
 10
23.1978125
 20
3.32825
 10
23.288249999999998
 20
3.2871875
 10
23.3625625
 20
3.216
 10
23.4124375
 20
3.117125
 10
23.4290625
 20
2.9930000000000003
 10
23.4195
 20
2.895875
 10
23.3908125
 20
2.8155
 10
23.347375
 20
2.7514375
 10
23.2935625
 20
2.70275
 10
23.2340625
 20
2.6686875000000003
 10
23.1735625
 20
2.6485000000000003
 10
23.07225
 20
2.6361250000000003
 10
22.933812500000002
 20
2.632
 10
22.7830625
 20
2.632
 10
22.7830625
 20
2.2
 10
22.5518125
 20
2.2
  0
LWPOLYLINE
  5
52
330
17
100
AcDbEntity
  8
FERO_OUTLINE
100
AcDbPolyline
 90
16
 70
1
 10
22.7830625
 20
3.1515000000000004
 10
22.7830625
 20
2.8265000000000002
 10
22.9095625
 20
2.8265000000000002
 10
23.023625000000003
 20
2.8310000000000004
 10
23.092312500000002
 20
2.8445
 10
23.133499999999998
 20
2.8675625
 10
23.1645625
 20
2.9007500000000004
 10
23.18425
 20
2.9421250000000003
 10
23.1908125
 20
2.9897500000000004
 10
23.181625
 20
3.0467500000000003
 10
23.154062500000002
 20
3.09275
 10
23.112437500000002
 20
3.125875
 10
23.061062500000002
 20
3.1437500000000003
 10
22.998875
 20
3.1495625
 10
22.8948125
 20
3.1515000000000004
 10
22.7830625
 20
3.1515000000000004
  0
LWPOLYLINE
  5
53
330
17
100
AcDbEntity
  8
FERO_OUTLINE
100
AcDbPolyline
 90
11
 70
1
 10
23.622
 20
3.34525
 10
23.8385
 20
3.34525
 10
23.8385
 20
2.5827500000000003
 10
24.302500000000002
 20
3.34525
 10
24.533
 20
3.34525
 10
24.533
 20
2.2
 10
24.3165
 20
2.2
 10
24.3165
 20
2.94775
 10
23.85325
 20
2.2
 10
23.622
 20
2.2
 10
23.622
 20
3.34525
  0
LWPOLYLINE
  5
54
330
17
100
AcDbEntity
  8
FERO_OUTLINE
100
AcDbPolyline
 90
13
 70
1
 10
24.769750000000002
 20
2.2
 10
24.769750000000002
 20
3.34525
 10
25.001
 20
3.34525
 10
25.001
 20
2.8945000000000003
 10
25.454
 20
2.8945000000000003
 10
25.454
 20
3.34525
 10
25.68525
 20
3.34525
 10
25.68525
 20
2.2
 10
25.454
 20
2.2
 10
25.454
 20
2.70075
 10
25.001
 20
2.70075
 10
25.001
 20
2.2
 10
24.769750000000002
 20
2.2
  0
LWPOLYLINE
  5
55
330
17
100
AcDbEntity
  8
FERO_OUTLINE
100
AcDbPolyline
 90
7
 70
1
 10
25.936218750000002
 20
3.34525
 10
26.71196875
 20
3.34525
 10
26.71196875
 20
3.1532500000000003
 10
26.16746875
 20
3.1532500000000003
 10
26.16746875
 20
2.2
 10
25.936218750000002
 20
2.2
 10
25.936218750000002
 20
3.34525
  0
CIRCLE
  5
56
330
17
100
AcDbEntity
  8
FERO_SUN
100
AcDbCircle
 10
58.0
 20
9.5
 30
0.0
 40
2.5
  0
LINE
  5
57
330
17
100
AcDbEntity
  8
FERO_SUN
100
AcDbLine
 10
54.0
 20
9.5
 30
0.0
 11
62.0
 21
9.5
 31
0.0
  0
LINE
  5
58
330
17
100
AcDbEntity
  8
FERO_SUN
100
AcDbLine
 10
58.0
 20
5.5
 30
0.0
 11
58.0
 21
13.5
 31
0.0
  0
LINE
  5
59
330
17
100
AcDbEntity
  8
FERO_SUN
100
AcDbLine
 10
55.0
 20
6.5
 30
0.0
 11
61.0
 21
12.5
 31
0.0
  0
LINE
  5
5A
330
17
100
AcDbEntity
  8
FERO_SUN
100
AcDbLine
 10
55.0
 20
12.5
 30
0.0
 11
61.0
 21
6.5
 31
0.0
  0
ENDSEC
  0
SECTION
  2
OBJECTS
  0
DICTIONARY
  5
A
330
0
100
AcDbDictionary
281
1
  3
ACAD_COLOR
350
B
  3
ACAD_GROUP
350
C
  3
ACAD_LAYOUT
350
D
  3
ACAD_MATERIAL
350
E
  3
ACAD_MLEADERSTYLE
350
F
  3
ACAD_MLINESTYLE
350
10
  3
ACAD_PLOTSETTINGS
350
11
  3
ACAD_PLOTSTYLENAME
350
12
  3
ACAD_SCALELIST
350
14
  3
ACAD_TABLESTYLE
350
15
  3
ACAD_VISUALSTYLE
350
16
  3
EZDXF_META
350
2D
  0
DICTIONARY
  5
B
330
A
100
AcDbDictionary
281
1
  0
DICTIONARY
  5
C
330
A
100
AcDbDictionary
281
1
  0
DICTIONARY
  5
D
330
A
100
AcDbDictionary
281
1
  3
Model
350
1A
  3
Layout1
350
1E
  0
DICTIONARY
  5
E
330
A
100
AcDbDictionary
281
1
  3
ByBlock
350
1F
  3
ByLayer
350
20
  3
Global
350
21
  0
DICTIONARY
  5
F
330
A
100
AcDbDictionary
281
1
  3
Standard
350
2C
  0
DICTIONARY
  5
10
330
A
100
AcDbDictionary
281
1
  3
Standard
350
22
  0
DICTIONARY
  5
11
330
A
100
AcDbDictionary
281
1
  0
ACDBDICTIONARYWDFLT
  5
12
330
A
100
AcDbDictionary
281
1
  3
Normal
350
13
100
AcDbDictionaryWithDefault
340
13
  0
ACDBPLACEHOLDER
  5
13
330
12
  0
DICTIONARY
  5
14
330
A
100
AcDbDictionary
281
1
  0
DICTIONARY
  5
15
330
A
100
AcDbDictionary
281
1
  0
DICTIONARY
  5
16
330
A
100
AcDbDictionary
281
1
  0
LAYOUT
  5
1A
330
D
100
AcDbPlotSettings
  1

  4
A3
  6

 40
7.5
 41
20.0
 42
7.5
 43
20.0
 44
420.0
 45
297.0
 46
0.0
 47
0.0
 48
0.0
 49
0.0
140
0.0
141
0.0
142
1.0
143
1.0
 70
1024
 72
1
 73
0
 74
5
  7

 75
16
 76
0
 77
2
 78
300
147
1.0
148
0.0
149
0.0
100
AcDbLayout
  1
Model
 70
1
 71
0
 10
0.0
 20
0.0
 11
420.0
 21
297.0
 12
0.0
 22
0.0
 32
0.0
 14
1e+20
 24
1e+20
 34
1e+20
 15
-1e+20
 25
-1e+20
 35
-1e+20
146
0.0
 13
0.0
 23
0.0
 33
0.0
 16
1.0
 26
0.0
 36
0.0
 17
0.0
 27
1.0
 37
0.0
 76
1
330
17
  0
LAYOUT
  5
1E
330
D
100
AcDbPlotSettings
  1

  4
A3
  6

 40
7.5
 41
20.0
 42
7.5
 43
20.0
 44
420.0
 45
297.0
 46
0.0
 47
0.0
 48
0.0
 49
0.0
140
0.0
141
0.0
142
1.0
143
1.0
 70
0
 72
1
 73
0
 74
5
  7

 75
16
 76
0
 77
2
 78
300
147
1.0
148
0.0
149
0.0
100
AcDbLayout
  1
Layout1
 70
1
 71
1
 10
0.0
 20
0.0
 11
420.0
 21
297.0
 12
0.0
 22
0.0
 32
0.0
 14
1e+20
 24
1e+20
 34
1e+20
 15
-1e+20
 25
-1e+20
 35
-1e+20
146
0.0
 13
0.0
 23
0.0
 33
0.0
 16
1.0
 26
0.0
 36
0.0
 17
0.0
 27
1.0
 37
0.0
 76
1
330
1B
  0
MATERIAL
  5
1F
102
{ACAD_REACTORS
330
E
102
}
330
E
100
AcDbMaterial
  1
ByBlock
  2

 70
0
 40
1.0
 71
1
 41
1.0
 91
-1023410177
 42
1.0
 72
1
  3

 73
1
 74
1
 75
1
 44
0.5
 73
0
 45
1.0
 46
1.0
 77
1
  4

 78
1
 79
1
170
1
 48
1.0
171
1
  6

172
1
173
1
174
1
140
1.0
141
1.0
175
1
  7

176
1
177
1
178
1
143
1.0
179
1
  8

270
1
271
1
272
1
145
1.0
146
1.0
273
1
  9

274
1
275
1
276
1
 42
1.0
 72
1
  3

 73
1
 74
1
 75
1
 94
63
  0
MATERIAL
  5
20
102
{ACAD_REACTORS
330
E
102
}
330
E
100
AcDbMaterial
  1
ByLayer
  2

 70
0
 40
1.0
 71
1
 41
1.0
 91
-1023410177
 42
1.0
 72
1
  3

 73
1
 74
1
 75
1
 44
0.5
 73
0
 45
1.0
 46
1.0
 77
1
  4

 78
1
 79
1
170
1
 48
1.0
171
1
  6

172
1
173
1
174
1
140
1.0
141
1.0
175
1
  7

176
1
177
1
178
1
143
1.0
179
1
  8

270
1
271
1
272
1
145
1.0
146
1.0
273
1
  9

274
1
275
1
276
1
 42
1.0
 72
1
  3

 73
1
 74
1
 75
1
 94
63
  0
MATERIAL
  5
21
102
{ACAD_REACTORS
330
E
102
}
330
E
100
AcDbMaterial
  1
Global
  2

 70
0
 40
1.0
 71
1
 41
1.0
 91
-1023410177
 42
1.0
 72
1
  3

 73
1
 74
1
 75
1
 44
0.5
 73
0
 45
1.0
 46
1.0
 77
1
  4

 78
1
 79
1
170
1
 48
1.0
171
1
  6

172
1
173
1
174
1
140
1.0
141
1.0
175
1
  7

176
1
177
1
178
1
143
1.0
179
1
  8

270
1
271
1
272
1
145
1.0
146
1.0
273
1
  9

274
1
275
1
276
1
 42
1.0
 72
1
  3

 73
1
 74
1
 75
1
 94
63
  0
MLINESTYLE
  5
22
102
{ACAD_REACTORS
330
10
102
}
330
10
100
AcDbMlineStyle
  2
Standard
 70
0
  3

 62
256
 51
90.0
 52
90.0
 71
2
 49
0.5
 62
256
  6
BYLAYER
 49
-0.5
 62
256
  6
BYLAYER
  0
MLEADERSTYLE
  5
2C
102
{ACAD_REACTORS
330
F
102
}
330
F
100
AcDbMLeaderStyle
179
2
170
2
171
1
172
0
 90
2
 40
0.0
 41
0.0
173
1
 91
-1056964608
 92
-2
290
1
 42
2.0
291
1
 43
8.0
  3
Standard
 44
4.0
300

342
29
174
1
175
1
176
0
178
1
 93
-1056964608
 45
4.0
292
0
297
0
 46
4.0
 94
-1056964608
 47
1.0
 49
1.0
140
1.0
294
1
141
0.0
177
0
142
1.0
295
0
296
0
143
3.75
271
0
272
9
273
9
  0
DICTIONARY
  5
2D
330
A
100
AcDbDictionary
280
1
281
1
  3
CREATED_BY_EZDXF
350
2E
  3
WRITTEN_BY_EZDXF
350
5D
  0
DICTIONARYVAR
  5
2E
330
2D
100
DictionaryVariables
280
0
  1
1.4.4 @ 2026-09-14T07:01:38.427555+00:00
  0
DICTIONARYVAR
  5
5D
330
2D
100
DictionaryVariables
280
0
  1
1.4.4 @ 2026-09-14T07:01:38.445244+00:00
  0
ENDSEC
  0
EOF
