  0
SECTION
  2
HEADER
  9
$ACADVER
  1
AC1024
  9
$ACADMAINTVER
 70
6
  9
$DWGCODEPAGE
  3
ANSI_1252
  9
$LASTSAVEDBY
  1
ezdxf
  9
$INSBASE
 10
0.0
 20
0.0
 30
0.0
  9
$EXTMIN
 10
1e+20
 20
1e+20
 30
1e+20
  9
$EXTMAX
 10
-1e+20
 20
-1e+20
 30
-1e+20
  9
$LIMMIN
 10
0.0
 20
0.0
  9
$LIMMAX
 10
420.0
 20
297.0
  9
$ORTHOMODE
 70
0
  9
$REGENMODE
 70
1
  9
$FILLMODE
 70
1
  9
$QTEXTMODE
 70
0
  9
$MIRRTEXT
 70
1
  9
$LTSCALE
 40
1.0
  9
$ATTMODE
 70
1
  9
$TEXTSIZE
 40
2.5
  9
$TRACEWID
 40
1.0
  9
$TEXTSTYLE
  7
Standard
  9
$CLAYER
  8
0
  9
$CELTYPE
  6
ByLayer
  9
$CECOLOR
 62
256
  9
$CELTSCALE
 40
1.0
  9
$DISPSILH
 70
0
  9
$DIMSCALE
 40
1.0
  9
$DIMASZ
 40
2.5
  9
$DIMEXO
 40
0.625
  9
$DIMDLI
 40
3.75
  9
$DIMRND
 40
0.0
  9
$DIMDLE
 40
0.0
  9
$DIMEXE
 40
1.25
  9
$DIMTP
 40
0.0
  9
$DIMTM
 40
0.0
  9
$DIMTXT
 40
2.5
  9
$DIMCEN
 40
2.5
  9
$DIMTSZ
 40
0.0
  9
$DIMTOL
 70
0
  9
$DIMLIM
 70
0
  9
$DIMTIH
 70
0
  9
$DIMTOH
 70
0
  9
$DIMSE1
 70
0
  9
$DIMSE2
 70
0
  9
$DIMTAD
 70
1
  9
$DIMZIN
 70
8
  9
$DIMBLK
  1

  9
$DIMASO
 70
1
  9
$DIMSHO
 70
1
  9
$DIMPOST
  1

  9
$DIMAPOST
  1

  9
$DIMALT
 70
0
  9
$DIMALTD
 70
3
  9
$DIMALTF
 40
0.03937007874
  9
$DIMLFAC
 40
1.0
  9
$DIMTOFL
 70
1
  9
$DIMTVP
 40
0.0
  9
$DIMTIX
 70
0
  9
$DIMSOXD
 70
0
  9
$DIMSAH
 70
0
  9
$DIMBLK1
  1

  9
$DIMBLK2
  1

  9
$DIMSTYLE
  2
ISO-25
  9
$DIMCLRD
 70
0
  9
$DIMCLRE
 70
0
  9
$DIMCLRT
 70
0
  9
$DIMTFAC
 40
1.0
  9
$DIMGAP
 40
0.625
  9
$DIMJUST
 70
0
  9
$DIMSD1
 70
0
  9
$DIMSD2
 70
0
  9
$DIMTOLJ
 70
0
  9
$DIMTZIN
 70
8
  9
$DIMALTZ
 70
0
  9
$DIMALTTZ
 70
0
  9
$DIMUPT
 70
0
  9
$DIMDEC
 70
2
  9
$DIMTDEC
 70
2
  9
$DIMALTU
 70
2
  9
$DIMALTTD
 70
3
  9
$DIMTXSTY
  7
Standard
  9
$DIMAUNIT
 70
0
  9
$DIMADEC
 70
0
  9
$DIMALTRND
 40
0.0
  9
$DIMAZIN
 70
0
  9
$DIMDSEP
 70
44
  9
$DIMATFIT
 70
3
  9
$DIMFRAC
 70
0
  9
$DIMLDRBLK
  1

  9
$DIMLUNIT
 70
2
  9
$DIMLWD
 70
-2
  9
$DIMLWE
 70
-2
  9
$DIMTMOVE
 70
0
  9
$DIMFXL
 40
1.0
  9
$DIMFXLON
 70
0
  9
$DIMJOGANG
 40
0.785398163397
  9
$DIMTFILL
 70
0
  9
$DIMTFILLCLR
 70
0
  9
$DIMARCSYM
 70
0
  9
$DIMLTYPE
  6

  9
$DIMLTEX1
  6

  9
$DIMLTEX2
  6

  9
$DIMTXTDIRECTION
 70
0
  9
$LUNITS
 70
2
  9
$LUPREC
 70
4
  9
$SKETCHINC
 40
1.0
  9
$FILLETRAD
 40
10.0
  9
$AUNITS
 70
0
  9
$AUPREC
 70
2
  9
$MENU
  1
.
  9
$ELEVATION
 40
0.0
  9
$PELEVATION
 40
0.0
  9
$THICKNESS
 40
0.0
  9
$LIMCHECK
 70
0
  9
$CHAMFERA
 40
0.0
  9
$CHAMFERB
 40
0.0
  9
$CHAMFERC
 40
0.0
  9
$CHAMFERD
 40
0.0
  9
$SKPOLY
 70
0
  9
$TDCREATE
 40
2461298.4810532406
  9
$TDUCREATE
 40
2458532.153996898
  9
$TDUPDATE
 40
2461298.4810532406
  9
$TDUUPDATE
 40
2458532.1544311
  9
$TDINDWG
 40
0.0
  9
$TDUSRTIMER
 40
0.0
  9
$USRTIMER
 70
1
  9
$ANGBASE
 50
0.0
  9
$ANGDIR
 70
0
  9
$PDMODE
 70
0
  9
$PDSIZE
 40
0.0
  9
$PLINEWID
 40
0.0
  9
$SPLFRAME
 70
0
  9
$SPLINETYPE
 70
6
  9
$SPLINESEGS
 70
8
  9
$HANDSEED
  5
5D
  9
$SURFTAB1
 70
6
  9
$SURFTAB2
 70
6
  9
$SURFTYPE
 70
6
  9
$SURFU
 70
6
  9
$SURFV
 70
6
  9
$UCSBASE
  2

  9
$UCSNAME
  2

  9
$UCSORG
 10
0.0
 20
0.0
 30
0.0
  9
$UCSXDIR
 10
1.0
 20
0.0
 30
0.0
  9
$UCSYDIR
 10
0.0
 20
1.0
 30
0.0
  9
$UCSORTHOREF
  2

  9
$UCSORTHOVIEW
 70
0
  9
$UCSORGTOP
 10
0.0
 20
0.0
 30
0.0
  9
$UCSORGBOTTOM
 10
0.0
 20
0.0
 30
0.0
  9
$UCSORGLEFT
 10
0.0
 20
0.0
 30
0.0
  9
$UCSORGRIGHT
 10
0.0
 20
0.0
 30
0.0
  9
$UCSORGFRONT
 10
0.0
 20
0.0
 30
0.0
  9
$UCSORGBACK
 10
0.0
 20
0.0
 30
0.0
  9
$PUCSBASE
  2

  9
$PUCSNAME
  2

  9
$PUCSORG
 10
0.0
 20
0.0
 30
0.0
  9
$PUCSXDIR
 10
1.0
 20
0.0
 30
0.0
  9
$PUCSYDIR
 10
0.0
 20
1.0
 30
0.0
  9
$PUCSORTHOREF
  2

  9
$PUCSORTHOVIEW
 70
0
  9
$PUCSORGTOP
 10
0.0
 20
0.0
 30
0.0
  9
$PUCSORGBOTTOM
 10
0.0
 20
0.0
 30
0.0
  9
$PUCSORGLEFT
 10
0.0
 20
0.0
 30
0.0
  9
$PUCSORGRIGHT
 10
0.0
 20
0.0
 30
0.0
  9
$PUCSORGFRONT
 10
0.0
 20
0.0
 30
0.0
  9
$PUCSORGBACK
 10
0.0
 20
0.0
 30
0.0
  9
$USERI1
 70
0
  9
$USERI2
 70
0
  9
$USERI3
 70
0
  9
$USERI4
 70
0
  9
$USERI5
 70
0
  9
$USERR1
 40
0.0
  9
$USERR2
 40
0.0
  9
$USERR3
 40
0.0
  9
$USERR4
 40
0.0
  9
$USERR5
 40
0.0
  9
$WORLDVIEW
 70
1
  9
$SHADEDGE
 70
3
  9
$SHADEDIF
 70
70
  9
$TILEMODE
 70
1
  9
$MAXACTVP
 70
64
  9
$PINSBASE
 10
0.0
 20
0.0
 30
0.0
  9
$PLIMCHECK
 70
0
  9
$PEXTMIN
 10
1e+20
 20
1e+20
 30
1e+20
  9
$PEXTMAX
 10
-1e+20
 20
-1e+20
 30
-1e+20
  9
$PLIMMIN
 10
0.0
 20
0.0
  9
$PLIMMAX
 10
420.0
 20
297.0
  9
$UNITMODE
 70
0
  9
$VISRETAIN
 70
1
  9
$PLINEGEN
 70
0
  9
$PSLTSCALE
 70
1
  9
$TREEDEPTH
 70
3020
  9
$CMLSTYLE
  2
Standard
  9
$CMLJUST
 70
0
  9
$CMLSCALE
 40
20.0
  9
$PROXYGRAPHICS
 70
1
  9
$MEASUREMENT
 70
1
  9
$CELWEIGHT
370
-1
  9
$ENDCAPS
280
0
  9
$JOINSTYLE
280
0
  9
$LWDISPLAY
290
0
  9
$INSUNITS
 70
6
  9
$HYPERLINKBASE
  1

  9
$STYLESHEET
  1

  9
$XEDIT
290
1
  9
$CEPSNTYPE
380
0
  9
$PSTYLEMODE
290
1
  9
$FINGERPRINTGUID
  2
{C61BF9F3-503E-4120-AB13-837F46B5D465}
  9
$VERSIONGUID
  2
{B76C36D5-5C91-4ED3-8660-A6F93C5616DD}
  9
$EXTNAMES
290
1
  9
$PSVPSCALE
 40
0.0
  9
$OLESTARTUP
290
0
  9
$SORTENTS
280
127
  9
$INDEXCTL
280
0
  9
$HIDETEXT
280
1
  9
$XCLIPFRAME
280
1
  9
$HALOGAP
280
0
  9
$OBSCOLOR
 70
257
  9
$OBSLTYPE
280
0
  9
$INTERSECTIONDISPLAY
280
0
  9
$INTERSECTIONCOLOR
 70
257
  9
$DIMASSOC
280
2
  9
$PROJECTNAME
  1

  9
$CAMERADISPLAY
290
0
  9
$LENSLENGTH
 40
50.0
  9
$CAMERAHEIGHT
 40
0.0
  9
$STEPSPERSEC
 40
24.0
  9
$STEPSIZE
 40
100.0
  9
$3DDWFPREC
 40
2.0
  9
$PSOLWIDTH
 40
0.005
  9
$PSOLHEIGHT
 40
0.08
  9
$LOFTANG1
 40
1.570796326795
  9
$LOFTANG2
 40
1.570796326795
  9
$LOFTMAG1
 40
0.0
  9
$LOFTMAG2
 40
0.0
  9
$LOFTPARAM
 70
7
  9
$LOFTNORMALS
280
1
  9
$LATITUDE
 40
37.795
  9
$LONGITUDE
 40
-122.394
  9
$NORTHDIRECTION
 40
0.0
  9
$TIMEZONE
 70
-8000
  9
$LIGHTGLYPHDISPLAY
280
1
  9
$TILEMODELIGHTSYNCH
280
1
  9
$CMATERIAL
347
20
  9
$SOLIDHIST
280
0
  9
$SHOWHIST
280
1
  9
$DWFFRAME
280
2
  9
$DGNFRAME
280
2
  9
$REALWORLDSCALE
290
1
  9
$INTERFERECOLOR
 62
256
  9
$CSHADOW
280
0
  9
$SHADOWPLANELOCATION
 40
0.0
  0
ENDSEC
  0
SECTION
  2
CLASSES
  0
CLASS
  1
ACDBDICTIONARYWDFLT
  2
AcDbDictionaryWithDefault
  3
ObjectDBX Classes
 90
0
 91
0
280
0
281
0
  0
CLASS
  1
SUN
  2
AcDbSun
  3
SCENEOE
 90
1153
 91
0
280
0
281
0
  0
CLASS
  1
VISUALSTYLE
  2
AcDbVisualStyle
  3
ObjectDBX Classes
 90
4095
 91
0
280
0
281
0
  0
CLASS
  1
MATERIAL
  2
AcDbMaterial
  3
ObjectDBX Classes
 90
1153
 91
0
280
0
281
0
  0
CLASS
  1
SCALE
  2
AcDbScale
  3
ObjectDBX Classes
 90
1153
 91
0
280
0
281
0
  0
CLASS
  1
TABLESTYLE
  2
AcDbTableStyle
  3
ObjectDBX Classes
 90
4095
 91
0
280
0
281
0
  0
CLASS
  1
MLEADERSTYLE
  2
AcDbMLeaderStyle
  3
ACDB_MLEADERSTYLE_CLASS
 90
4095
 91
0
280
0
281
0
  0
CLASS
  1
DICTIONARYVAR
  2
AcDbDictionaryVar
  3
ObjectDBX Classes
 90
0
 91
0
280
0
281
0
  0
CLASS
  1
CELLSTYLEMAP
  2
AcDbCellStyleMap
  3
ObjectDBX Classes
 90
1152
 91
0
280
0
281
0
  0
CLASS
  1
MENTALRAYRENDERSETTINGS
  2
AcDbMentalRayRenderSettings
  3
SCENEOE
 90
1024
 91
0
280
0
281
0
  0
CLASS
  1
ACDBDETAILVIEWSTYLE
  2
AcDbDetailViewStyle
  3
ObjectDBX Classes
 90
1025
 91
0
280
0
281
0
  0
CLASS
  1
ACDBSECTIONVIEWSTYLE
  2
AcDbSectionViewStyle
  3
ObjectDBX Classes
 90
1025
 91
0
280
0
281
0
  0
CLASS
  1
RASTERVARIABLES
  2
AcDbRasterVariables
  3
ISM
 90
0
 91
0
280
0
281
0
  0
CLASS
  1
LAYOUT
  2
AcDbLayout
  3
ObjectDBX Classes
 90
0
 91
0
280
0
281
0
  0
CLASS
  1
ACDBPLACEHOLDER
  2
AcDbPlaceHolder
  3
ObjectDBX Classes
 90
0
 91
0
280
0
281
0
  0
ENDSEC
  0
SECTION
  2
TABLES
  0
TABLE
  2
VPORT
  5
8
330
0
100
AcDbSymbolTable
 70
1
  0
VPORT
  5
23
330
8
100
AcDbSymbolTableRecord
100
AcDbViewportTableRecord
  2
*Active
 70
0
 10
0.0
 20
0.0
 11
1.0
 21
1.0
 12
0.0
 22
0.0
 13
0.0
 23
0.0
 14
0.5
 24
0.5
 15
0.5
 25
0.5
 16
0.0
 26
0.0
 36
1.0
 17
0.0
 27
0.0
 37
0.0
 40
1000.0
 41
1.34
 42
50.0
 43
0.0
 44
0.0
 50
0.0
 51
0.0
 71
0
 72
1000
 73
1
 74
3
 75
0
 76
0
 77
0
 78
0
281
0
 65
0
146
0.0
  0
ENDTAB
  0
TABLE
  2
LTYPE
  5
2
330
0
100
AcDbSymbolTable
 70
3
  0
LTYPE
  5
24
330
2
100
AcDbSymbolTableRecord
100
AcDbLinetypeTableRecord
  2
ByBlock
 70
0
  3

 72
65
 73
0
 40
0.0
  0
LTYPE
  5
25
330
2
100
AcDbSymbolTableRecord
100
AcDbLinetypeTableRecord
  2
ByLayer
 70
0
  3

 72
65
 73
0
 40
0.0
  0
LTYPE
  5
26
330
2
100
AcDbSymbolTableRecord
100
AcDbLinetypeTableRecord
  2
Continuous
 70
0
  3

 72
65
 73
0
 40
0.0
  0
ENDTAB
  0
TABLE
  2
LAYER
  5
1
330
0
100
AcDbSymbolTable
 70
4
  0
LAYER
  5
27
330
1
100
AcDbSymbolTableRecord
100
AcDbLayerTableRecord
  2
0
 70
0
 62
7
  6
Continuous
370
-3
390
13
347
21
  0
LAYER
  5
28
330
1
100
AcDbSymbolTableRecord
100
AcDbLayerTableRecord
  2
Defpoints
 70
0
 62
7
  6
Continuous
290
0
370
-3
390
13
347
21
  0
LAYER
  5
2F
330
1
100
AcDbSymbolTableRecord
100
AcDbLayerTableRecord
  2
FERO_OUTLINE
 70
0
 62
7
  6
Continuous
370
-3
390
13
347
21
  0
LAYER
  5
30
330
1
100
AcDbSymbolTableRecord
100
AcDbLayerTableRecord
  2
FERO_SUN
 70
0
 62
7
  6
Continuous
370
-3
390
13
347
21
  0
ENDTAB
  0
TABLE
  2
STYLE
  5
5
330
0
100
AcDbSymbolTable
 70
1
  0
STYLE
  5
29
330
5
100
AcDbSymbolTableRecord
100
AcDbTextStyleTableRecord
  2
Standard
 70
0
 40
0.0
 41
1.0
 50
0.0
 71
0
 42
2.5
  3
txt
  4

  0
ENDTAB
  0
TABLE
  2
VIEW
  5
7
330
0
100
AcDbSymbolTable
 70
0
  0
ENDTAB
  0
TABLE
  2
UCS
  5
6
330
0
100
AcDbSymbolTable
 70
0
  0
ENDTAB
  0
TABLE
  2
APPID
  5
3
330
0
100
AcDbSymbolTable
 70
3
  0
APPID
  5
2A
330
3
100
AcDbSymbolTableRecord
100
AcDbRegAppTableRecord
  2
ACAD
 70
0
  0
APPID
  5
5A
330
3
100
AcDbSymbolTableRecord
100
AcDbRegAppTableRecord
  2
HATCHBACKGROUNDCOLOR
 70
0
  0
APPID
  5
5B
330
3
100
AcDbSymbolTableRecord
100
AcDbRegAppTableRecord
  2
EZDXF
 70
0
  0
ENDTAB
  0
TABLE
  2
DIMSTYLE
  5
4
330
0
100
AcDbSymbolTable
 70
1
100
AcDbDimStyleTable
  0
DIMSTYLE
105
2B
330
4
100
AcDbSymbolTableRecord
100
AcDbDimStyleTableRecord
  2
Standard
 70
0
 40
1.0
 41
2.5
 42
0.625
 43
3.75
 44
1.25
 45
0.0
 46
0.0
 47
0.0
 48
0.0
 49
2.5
140
2.5
141
2.5
142
0.0
143
0.03937007874
144
1.0
145
0.0
146
1.0
147
0.625
148
0.0
 69
0
 70
0
 71
0
 72
0
 73
0
 74
0
 75
0
 76
0
 77
1
 78
8
 79
3
170
0
171
3
172
1
173
0
174
0
175
0
176
0
177
0
178
0
179
2
271
2
272
2
273
2
274
3
275
0
276
0
277
2
278
44
279
0
280
0
281
0
282
0
283
0
284
8
285
0
286
0
288
0
289
3
290
0
371
-2
372
-2
  0
ENDTAB
  0
TABLE
  2
BLOCK_RECORD
  5
9
330
0
100
AcDbSymbolTable
 70
2
  0
BLOCK_RECORD
  5
17
330
9
100
AcDbSymbolTableRecord
100
AcDbBlockTableRecord
  2
*Model_Space
340
1A
 70
0
280
1
281
0
  0
BLOCK_RECORD
  5
1B
330
9
100
AcDbSymbolTableRecord
100
AcDbBlockTableRecord
  2
*Paper_Space
340
1E
 70
0
280
1
281
0
  0
ENDTAB
  0
ENDSEC
  0
SECTION
  2
BLOCKS
  0
BLOCK
  5
18
330
17
100
AcDbEntity
  8
0
100
AcDbBlockBegin
  2
*Model_Space
 70
0
 10
0.0
 20
0.0
 30
0.0
  3
*Model_Space
  1

  0
ENDBLK
  5
19
330
17
100
AcDbEntity
  8
0
100
AcDbBlockEnd
  0
BLOCK
  5
1C
330
1B
100
AcDbEntity
  8
0
100
AcDbBlockBegin
  2
*Paper_Space
 70
0
 10
0.0
 20
0.0
 30
0.0
  3
*Paper_Space
  1

  0
ENDBLK
  5
1D
330
1B
100
AcDbEntity
  8
0
100
AcDbBlockEnd
  0
ENDSEC
  0
SECTION
  2
ENTITIES
  0
LWPOLYLINE
  5
31
330
17
100
AcDbEntity
  8
DEFPOINTS
100
AcDbPolyline
 90
5
 70
0
 10
0.0
 20
0.0
 10
70.0
 20
0.0
 10
70.0
 20
15.0
 10
0.0
 20
15.0
 10
0.0
 20
0.0
  0
LWPOLYLINE
  5
32
330
17
100
AcDbEntity
  8
FERO_OUTLINE
100
AcDbPolyline
 90
23
 70
1
 10
28.924
 20
7.0173125
 10
28.924
 20
6.5
 10
28.0463125
 20
6.5
 10
28.0463125
 20
7.0173125
 10
27.1398046875
 20
7.1684375
 10
26.545718750000002
 20
7.542375
 10
26.2180390625
 20
8.0894765625
 10
26.108812500000003
 20
8.758156249999999
 10
26.223125
 20
9.451054687500001
 10
26.5660625
 20
9.991375
 10
27.16475
 20
10.3500546875
 10
28.0463125
 20
10.49609375
 10
28.0463125
 20
10.9349375
 10
28.924
 20
10.9349375
 10
28.924
 20
10.49609375
 10
29.8266328125
 20
10.3459375
 10
30.42071875
 20
9.97490625
 10
30.751304687500003
 20
9.4297421875
 10
30.8615
 20
8.75525
 10
30.751789062500002
 20
8.0851171875
 10
30.422656250000003
 20
7.53946875
 10
29.828570312500002
 20
7.1677109375
 10
28.924
 20
7.0173125
  0
LWPOLYLINE
  5
33
330
17
100
AcDbEntity
  8
FERO_OUTLINE
100
AcDbPolyline
 90
11
 70
1
 10
28.924
 20
7.7651875
 10
29.250953125000002
 20
7.794734375
 10
29.5285
 20
7.883375
 10
29.74453125
 20
8.02190625
 10
29.886937500000002
 20
8.201125
 10
29.966859375000002
 20
8.4474296875
 10
29.9935
 20
8.78528125
 10
29.92665625
 20
9.206566406250001
 10
29.39190625
 20
9.688035156249999
 10
28.924
 20
9.74821875
 10
28.924
 20
7.7651875
  0
LWPOLYLINE
  5
34
330
17
100
AcDbEntity
  8
FERO_OUTLINE
100
AcDbPolyline
 90
9
 70
1
 10
28.0463125
 20
7.7651875
 10
28.0463125
 20
9.74821875
 10
27.55903125
 20
9.6850078125
 10
27.2286875
 20
9.495375
 10
27.0405078125
 20
9.1778671875
 10
26.97778125
 20
8.731031250000001
 10
27.044564453125002
 20
8.308474609375
 10
27.578830078125
 20
7.825552734375
 10
28.0463125
 20
7.7651875
  0
LWPOLYLINE
  5
35
330
17
100
AcDbEntity
  8
FERO_OUTLINE
100
AcDbPolyline
 90
13
 70
1
 10
31.582734375
 20
6.5
 10
31.582734375
 20
10.937843749999999
 10
34.873578125
 20
10.937843749999999
 10
34.873578125
 20
10.1870625
 10
32.478828125
 20
10.1870625
 10
32.478828125
 20
9.20378125
 10
34.706953125
 20
9.20378125
 10
34.706953125
 20
8.45590625
 10
32.478828125
 20
8.45590625
 10
32.478828125
 20
7.247875
 10
34.957859375
 20
7.247875
 10
34.957859375
 20
6.5
 10
31.582734375
 20
6.5
  0
LWPOLYLINE
  5
36
330
17
100
AcDbEntity
  8
FERO_OUTLINE
100
AcDbPolyline
 90
20
 70
1
 10
35.7180859375
 20
6.5
 10
35.7180859375
 20
10.937843749999999
 10
37.155710937500004
 20
10.937843749999999
 10
37.8309296875
 20
10.921375
 10
38.2213359375
 20
10.87196875
 10
38.57178125
 20
10.7128515625
 10
38.859742187500004
 20
10.437
 10
39.0530078125
 20
10.053859375
 10
39.1174296875
 20
9.572875
 10
39.080375000000004
 20
9.196515625
 10
38.9692109375
 20
8.8850625
 10
38.800890625
 20
8.6368203125
 10
38.5923671875
 20
8.44815625
 10
38.3618046875
 20
8.3161640625
 10
38.1273671875
 20
8.2379375
 10
37.73478125
 20
8.189984375
 10
37.198335937500005
 20
8.174
 10
36.6141796875
 20
8.174
 10
36.6141796875
 20
6.5
 10
35.7180859375
 20
6.5
  0
LWPOLYLINE
  5
37
330
17
100
AcDbEntity
  8
FERO_OUTLINE
100
AcDbPolyline
 90
16
 70
1
 10
36.6141796875
 20
10.1870625
 10
36.6141796875
 20
8.9276875
 10
37.1043671875
 20
8.9276875
 10
37.546359375
 20
8.945125
 10
37.812523437500005
 20
8.9974375
 10
37.972125000000005
 20
9.086804687499999
 10
38.0924921875
 20
9.215406250000001
 10
38.16878125
 20
9.375734375
 10
38.1942109375
 20
9.56028125
 10
38.158609375
 20
9.78115625
 10
38.0518046875
 20
9.95940625
 10
37.890507812500005
 20
10.087765625
 10
37.691429687500005
 20
10.15703125
 10
37.450453125
 20
10.179554687500001
 10
37.0472109375
 20
10.1870625
 10
36.6141796875
 20
10.1870625
  0
LWPOLYLINE
  5
38
330
17
100
AcDbEntity
  8
FERO_OUTLINE
100
AcDbPolyline
 90
21
 70
1
 10
39.5860625
 20
8.69228125
 10
39.636921875
 20
9.3159140625
 10
39.789500000000004
 20
9.8305625
 10
39.968234375
 20
10.1521875
 10
40.2021875
 20
10.4389375
 10
40.47634375
 20
10.673375
 10
40.775687500000004
 20
10.8380625
 10
41.22228125
 20
10.9695703125
 10
41.7328125
 20
11.01340625
 10
42.61534375
 20
10.8613125
 10
43.3021875
 20
10.40503125
 10
43.7439375
 20
9.6777421875
 10
43.8911875
 20
8.712625
 10
43.7451484375
 20
7.755015625
 10
43.30703125
 20
7.030875
 10
42.6243046875
 20
6.576046875
 10
41.744437500000004
 20
6.4244375
 10
40.8558515625
 20
6.5753203125
 10
40.170218750000004
 20
7.02796875
 10
39.7321015625
 20
7.7462968750000005
 10
39.5860625
 20
8.69228125
  0
LWPOLYLINE
  5
39
330
17
100
AcDbEntity
  8
FERO_OUTLINE
100
AcDbPolyline
 90
17
 70
1
 10
40.50928125
 20
8.722312500000001
 10
40.5962265625
 20
8.0596875
 10
40.8570625
 20
7.5791875
 10
41.2525546875
 20
7.2878359375
 10
41.74153125
 20
7.19071875
 10
42.229296875
 20
7.287109375
 10
42.62115625
 20
7.57628125
 10
42.8790859375
 20
8.058476562500001
 10
42.9650625
 20
8.7339375
 10
42.881265625
 20
9.4001953125
 10
42.629875
 20
9.87221875
 10
42.240679687500005
 20
10.154125
 10
41.74153125
 20
10.248093749999999
 10
41.241171875
 20
10.152914062499999
 10
40.84834375
 20
9.867375
 10
40.594046875000004
 20
9.391234375
 10
40.50928125
 20
8.722312500000001
  0
LWPOLYLINE
  5
3A
330
17
100
AcDbEntity
  8
FERO_OUTLINE
100
AcDbPolyline
 90
23
 70
1
 10
26.167107421875002
 20
2.5168125
 10
26.167107421875002
 20
2.4
 10
25.968919921875003
 20
2.4
 10
25.968919921875003
 20
2.5168125
 10
25.764224609375002
 20
2.5509375
 10
25.630076171875
 20
2.635375
 10
25.556083984375
 20
2.7589140624999997
 10
25.531419921875003
 20
2.9099062499999997
 10
25.557232421875003
 20
3.0663671875
 10
25.634669921875002
 20
3.1883749999999997
 10
25.769857421875003
 20
3.2693671875
 10
25.968919921875003
 20
3.30234375
 10
25.968919921875003
 20
3.4014375
 10
26.167107421875002
 20
3.4014375
 10
26.167107421875002
 20
3.30234375
 10
26.370927734375
 20
3.2684375
 10
26.505076171875
 20
3.1846562499999997
 10
26.579724609375003
 20
3.0615546874999997
 10
26.604607421875002
 20
2.90925
 10
26.579833984375
 20
2.7579296875
 10
26.505513671875
 20
2.6347187499999998
 10
26.371365234375002
 20
2.5507734374999997
 10
26.167107421875002
 20
2.5168125
  0
LWPOLYLINE
  5
3B
330
17
100
AcDbEntity
  8
FERO_OUTLINE
100
AcDbPolyline
 90
10
 70
1
 10
26.167107421875002
 20
2.6856875
 10
26.240935546875
 20
2.6923593749999997
 10
26.303607421875
 20
2.7123749999999998
 10
26.352388671875
 20
2.74365625
 10
26.384544921875
 20
2.784125
 10
26.402591796875
 20
2.8397421874999997
 10
26.408607421875
 20
2.9160312499999996
 10
26.348232421875
 20
3.079109375
 10
26.167107421875002
 20
3.1334687499999996
 10
26.167107421875002
 20
2.6856875
  0
LWPOLYLINE
  5
3C
330
17
100
AcDbEntity
  8
FERO_OUTLINE
100
AcDbPolyline
 90
8
 70
1
 10
25.968919921875003
 20
2.6856875
 10
25.968919921875003
 20
3.1334687499999996
 10
25.858888671875
 20
3.1191953124999996
 10
25.784294921875002
 20
3.0763749999999996
 10
25.741802734375003
 20
3.0046796875
 10
25.727638671875003
 20
2.9037812499999998
 10
25.787958984375003
 20
2.7402109374999997
 10
25.968919921875003
 20
2.6856875
  0
LWPOLYLINE
  5
3D
330
17
100
AcDbEntity
  8
FERO_OUTLINE
100
AcDbPolyline
 90
9
 70
1
 10
27.636123046875003
 20
2.4
 10
27.416060546875002
 20
2.4
 10
27.328560546875003
 20
2.6277187499999997
 10
26.927810546875
 20
2.6277187499999997
 10
26.845123046875003
 20
2.4
 10
26.630529296875
 20
2.4
 10
27.020779296875002
 20
3.4020937499999997
 10
27.234935546875
 20
3.4020937499999997
 10
27.636123046875003
 20
2.4
  0
LWPOLYLINE
  5
3E
330
17
100
AcDbEntity
  8
FERO_OUTLINE
100
AcDbPolyline
 90
4
 70
1
 10
27.263591796875
 20
2.79659375
 10
27.125560546875
 20
3.1684687499999997
 10
26.990154296875
 20
2.79659375
 10
27.263591796875
 20
2.79659375
  0
LWPOLYLINE
  5
3F
330
17
100
AcDbEntity
  8
FERO_OUTLINE
100
AcDbPolyline
 90
35
 70
1
 10
28.349658203125003
 20
2.768375
 10
28.545876953125003
 20
2.70625
 10
28.485830078125
 20
2.563296875
 10
28.395814453125002
 20
2.4625624999999998
 10
28.276759765625002
 20
2.4028437499999997
 10
28.129595703125002
 20
2.3829374999999997
 10
27.947650390625
 20
2.4170078125
 10
27.801251953125004
 20
2.51921875
 10
27.704947265625
 20
2.6807109375
 10
27.672845703125002
 20
2.8921875
 10
27.705111328125
 20
3.1144374999999997
 10
27.801908203125002
 20
3.2806875
 10
27.951533203125003
 20
3.3845390625
 10
28.141845703125
 20
3.41915625
 10
28.308533203125002
 20
3.3920312499999996
 10
28.440658203125
 20
3.31065625
 10
28.500376953125002
 20
3.23234375
 10
28.543033203125002
 20
3.1260312499999996
 10
28.342876953125
 20
3.078125
 10
28.315314453125
 20
3.147796875
 10
28.268501953125003
 20
3.2010625
 10
28.206158203125
 20
3.2350234374999998
 10
28.131564453125
 20
3.24634375
 10
28.030666015625002
 20
3.2263281249999998
 10
27.950658203125002
 20
3.16628125
 10
27.898650390625
 20
3.0616093749999997
 10
27.881314453125
 20
2.9072812499999996
 10
27.898376953125002
 20
2.7445312499999996
 10
27.949564453125003
 20
2.6364687499999997
 10
28.028259765625002
 20
2.57609375
 10
28.127408203125
 20
2.55596875
 10
28.202439453125002
 20
2.5687656249999997
 10
28.266095703125004
 20
2.60715625
 10
28.316080078125
 20
2.6730546875
 10
28.349658203125003
 20
2.768375
  0
LWPOLYLINE
  5
40
330
17
100
AcDbEntity
  8
FERO_OUTLINE
100
AcDbPolyline
 90
9
 70
1
 10
29.588193359375
 20
2.4
 10
29.368130859375
 20
2.4
 10
29.280630859375
 20
2.6277187499999997
 10
28.879880859375
 20
2.6277187499999997
 10
28.797193359375
 20
2.4
 10
28.582599609375002
 20
2.4
 10
28.972849609375
 20
3.4020937499999997
 10
29.187005859375002
 20
3.4020937499999997
 10
29.588193359375
 20
2.4
  0
LWPOLYLINE
  5
41
330
17
100
AcDbEntity
  8
FERO_OUTLINE
100
AcDbPolyline
 90
4
 70
1
 10
29.215662109375003
 20
2.79659375
 10
29.077630859375002
 20
3.1684687499999997
 10
28.942224609375003
 20
2.79659375
 10
29.215662109375003
 20
2.79659375
  0
LWPOLYLINE
  5
42
330
17
100
AcDbEntity
  8
FERO_OUTLINE
100
AcDbPolyline
 90
17
 70
1
 10
29.828572265625002
 20
3.4020937499999997
 10
30.521134765625
 20
3.4020937499999997
 10
30.521134765625
 20
2.5682187499999998
 10
30.609291015625
 20
2.5682187499999998
 10
30.609291015625
 20
2.18125
 10
30.441072265625003
 20
2.18125
 10
30.441072265625003
 20
2.4
 10
29.810197265625
 20
2.4
 10
29.810197265625
 20
2.18125
 10
29.641978515625002
 20
2.18125
 10
29.641978515625002
 20
2.5682187499999998
 10
29.726853515625002
 20
2.5682187499999998
 10
29.778369140625003
 20
2.7069609375
 10
29.808666015625
 20
2.8663749999999997
 10
29.823595703125
 20
3.0588203125
 10
29.828572265625002
 20
3.29621875
 10
29.828572265625002
 20
3.4020937499999997
  0
LWPOLYLINE
  5
43
330
17
100
AcDbEntity
  8
FERO_OUTLINE
100
AcDbPolyline
 90
6
 70
1
 10
30.021509765625
 20
3.23409375
 10
30.000837890625
 20
2.83925
 10
29.938822265625
 20
2.5682187499999998
 10
30.319447265625
 20
2.5682187499999998
 10
30.319447265625
 20
3.23409375
 10
30.021509765625
 20
3.23409375
  0
LWPOLYLINE
  5
44
330
17
100
AcDbEntity
  8
FERO_OUTLINE
100
AcDbPolyline
 90
13
 70
1
 10
30.746091796875
 20
2.4
 10
30.746091796875
 20
3.4020937499999997
 10
30.948435546875
 20
3.4020937499999997
 10
30.948435546875
 20
3.0076875
 10
31.344810546875003
 20
3.0076875
 10
31.344810546875003
 20
3.4020937499999997
 10
31.547154296875
 20
3.4020937499999997
 10
31.547154296875
 20
2.4
 10
31.344810546875003
 20
2.4
 10
31.344810546875003
 20
2.83815625
 10
30.948435546875
 20
2.83815625
 10
30.948435546875
 20
2.4
 10
30.746091796875
 20
2.4
  0
LWPOLYLINE
  5
45
330
17
100
AcDbEntity
  8
FERO_OUTLINE
100
AcDbPolyline
 90
18
 70
1
 10
31.761939453125002
 20
3.4020937499999997
 10
31.964283203125
 20
3.4020937499999997
 10
31.964283203125
 20
3.0015625
 10
32.234876953125
 20
3.0015625
 10
32.334134765625
 20
2.9942890625
 10
32.418408203125
 20
2.97246875
 10
32.488955078125
 20
2.9319453125
 10
32.546595703125
 20
2.8685625
 10
32.585150390625
 20
2.7881718749999997
 10
32.598001953125
 20
2.696625
 10
32.584658203125
 20
2.6019609375
 10
32.544626953125004
 20
2.52140625
 10
32.488244140625
 20
2.460265625
 10
32.425845703125
 20
2.42384375
 10
32.345509765625
 20
2.4059609374999997
 10
32.234876953125
 20
2.4
 10
31.761939453125002
 20
2.4
 10
31.761939453125002
 20
3.4020937499999997
  0
LWPOLYLINE
  5
46
330
17
100
AcDbEntity
  8
FERO_OUTLINE
100
AcDbPolyline
 90
14
 70
1
 10
31.964283203125
 20
2.5682187499999998
 10
32.161814453125004
 20
2.5682187499999998
 10
32.241822265625004
 20
2.570515625
 10
32.293283203125
 20
2.57740625
 10
32.328556640625
 20
2.5925
 10
32.359564453125
 20
2.61940625
 10
32.381384765625
 20
2.6558281249999998
 10
32.388658203125004
 20
2.69946875
 10
32.376791015625
 20
2.7580390625
 10
32.341189453125004
 20
2.799875
 10
32.274634765625
 20
2.8249765625
 10
32.169908203125004
 20
2.83334375
 10
31.964283203125
 20
2.83334375
 10
31.964283203125
 20
2.5682187499999998
  0
LWPOLYLINE
  5
47
330
17
100
AcDbEntity
  8
FERO_OUTLINE
100
AcDbPolyline
 90
5
 70
1
 10
32.714814453125
 20
3.4020937499999997
 10
32.917158203125
 20
3.4020937499999997
 10
32.917158203125
 20
2.4
 10
32.714814453125
 20
2.4
 10
32.714814453125
 20
3.4020937499999997
  0
LWPOLYLINE
  5
48
330
17
100
AcDbEntity
  8
FERO_OUTLINE
100
AcDbPolyline
 90
11
 70
1
 10
33.129701171875
 20
3.4020937499999997
 10
33.319138671875
 20
3.4020937499999997
 10
33.319138671875
 20
2.73490625
 10
33.725138671875
 20
3.4020937499999997
 10
33.926826171875
 20
3.4020937499999997
 10
33.926826171875
 20
2.4
 10
33.737388671875
 20
2.4
 10
33.737388671875
 20
3.05428125
 10
33.332044921875
 20
2.4
 10
33.129701171875
 20
2.4
 10
33.129701171875
 20
3.4020937499999997
  0
LWPOLYLINE
  5
49
330
17
100
AcDbEntity
  8
FERO_OUTLINE
100
AcDbPolyline
 90
19
 70
1
 10
33.648794921875
 20
3.65715625
 10
33.742419921875
 20
3.65715625
 10
33.722076171875
 20
3.5741953124999997
 10
33.677232421875004
 20
3.5112499999999995
 10
33.611662109375004
 20
3.4715468749999996
 10
33.529138671875
 20
3.4583125
 10
33.446779296875
 20
3.4715468749999996
 10
33.381263671875004
 20
3.5112499999999995
 10
33.336365234375
 20
3.5741953124999997
 10
33.315857421875
 20
3.65715625
 10
33.409482421875
 20
3.65715625
 10
33.420419921875
 20
3.6146093749999997
 10
33.443607421875
 20
3.5836562499999998
 10
33.479755859375004
 20
3.5649531249999997
 10
33.529138671875
 20
3.5587187499999997
 10
33.578630859375
 20
3.5649531249999997
 10
33.614669921875
 20
3.5836562499999998
 10
33.637857421875
 20
3.6146093749999997
 10
33.648794921875
 20
3.65715625
  0
LWPOLYLINE
  5
4A
330
17
100
AcDbEntity
  8
FERO_OUTLINE
100
AcDbPolyline
 90
11
 70
1
 10
34.524916015625
 20
3.4020937499999997
 10
34.714353515625
 20
3.4020937499999997
 10
34.714353515625
 20
2.73490625
 10
35.120353515625
 20
3.4020937499999997
 10
35.322041015625004
 20
3.4020937499999997
 10
35.322041015625004
 20
2.4
 10
35.132603515625
 20
2.4
 10
35.132603515625
 20
3.05428125
 10
34.727259765625
 20
2.4
 10
34.524916015625
 20
2.4
 10
34.524916015625
 20
3.4020937499999997
  0
LWPOLYLINE
  5
4B
330
17
100
AcDbEntity
  8
FERO_OUTLINE
100
AcDbPolyline
 90
13
 70
1
 10
35.529197265625
 20
2.4
 10
35.529197265625
 20
3.4020937499999997
 10
35.731541015625
 20
3.4020937499999997
 10
35.731541015625
 20
3.0076875
 10
36.127916015625004
 20
3.0076875
 10
36.127916015625004
 20
3.4020937499999997
 10
36.330259765625
 20
3.4020937499999997
 10
36.330259765625
 20
2.4
 10
36.127916015625004
 20
2.4
 10
36.127916015625004
 20
2.83815625
 10
35.731541015625
 20
2.83815625
 10
35.731541015625
 20
2.4
 10
35.529197265625
 20
2.4
  0
LWPOLYLINE
  5
4C
330
17
100
AcDbEntity
  8
FERO_OUTLINE
100
AcDbPolyline
 90
82
 70
1
 10
37.169138671875004
 20
3.4020937499999997
 10
37.169138671875004
 20
2.97553125
 10
37.213544921875
 20
2.9870156249999997
 10
37.245701171875
 20
3.0131562499999998
 10
37.276654296875
 20
3.068171875
 10
37.317451171875
 20
3.16628125
 10
37.378263671875004
 20
3.2945234374999997
 10
37.440388671875
 20
3.3659999999999997
 10
37.523349609375
 20
3.3976640624999996
 10
37.647544921875
 20
3.4082187499999996
 10
37.658427734375
 20
3.4084375
 10
37.677076171875
 20
3.40909375
 10
37.677076171875
 20
3.2592499999999998
 10
37.647544921875
 20
3.25990625
 10
37.594279296875
 20
3.2560781249999997
 10
37.557419921875
 20
3.24459375
 10
37.531443359375004
 20
3.225234375
 10
37.510826171875
 20
3.19778125
 10
37.488841796875
 20
3.1497109375
 10
37.458326171875
 20
3.0685
 10
37.438966796875
 20
3.0208671875
 10
37.418076171875
 20
2.98165625
 10
37.388326171875
 20
2.9478593749999997
 10
37.341951171875
 20
2.9160312499999996
 10
37.403802734375
 20
2.886828125
 10
37.453732421875
 20
2.83859375
 10
37.500052734375004
 20
2.7687578124999996
 10
37.550638671875
 20
2.67475
 10
37.687357421875
 20
2.4
 10
37.449357421875
 20
2.4
 10
37.329044921875
 20
2.659
 10
37.325162109375
 20
2.6670390625
 10
37.317451171875
 20
2.68021875
 10
37.308537109375
 20
2.697171875
 10
37.292732421875
 20
2.72746875
 10
37.257841796875
 20
2.786203125
 10
37.229732421875
 20
2.81890625
 10
37.202333984375
 20
2.8338359375
 10
37.169138671875004
 20
2.8388125
 10
37.169138671875004
 20
2.4
 10
36.971607421875
 20
2.4
 10
36.971607421875
 20
2.8388125
 10
36.939013671875
 20
2.8339999999999996
 10
36.911232421875
 20
2.8195625
 10
36.882958984375
 20
2.7870234375
 10
36.848451171875
 20
2.72746875
 10
36.831552734375
 20
2.69509375
 10
36.823294921875004
 20
2.68021875
 10
36.817169921875
 20
2.6697734375
 10
36.811482421875
 20
2.659
 10
36.691169921875
 20
2.4
 10
36.453388671875004
 20
2.4
 10
36.590107421875004
 20
2.67475
 10
36.639216796875004
 20
2.7661328125
 10
36.685482421875
 20
2.83640625
 10
36.736341796875
 20
2.8862812499999997
 10
36.799232421875004
 20
2.9160312499999996
 10
36.752802734375
 20
2.9478046874999997
 10
36.722888671875
 20
2.9814374999999997
 10
36.702052734375
 20
3.0204843749999997
 10
36.682419921875
 20
3.0685
 10
36.652451171875
 20
3.1483984375
 10
36.630794921875
 20
3.1964687499999997
 10
36.610396484375
 20
3.2244687499999998
 10
36.584201171875
 20
3.2441562499999996
 10
36.546138671875
 20
3.25596875
 10
36.489701171875
 20
3.25990625
 10
36.479037109375
 20
3.2597421874999997
 10
36.463669921875
 20
3.2592499999999998
 10
36.463669921875
 20
3.40909375
 10
36.482263671875
 20
3.4084375
 10
36.492982421875
 20
3.4082187499999996
 10
36.618763671875
 20
3.3975
 10
36.702107421875
 20
3.36534375
 10
36.763248046875
 20
3.2937031249999995
 10
36.823294921875004
 20
3.16628125
 10
36.864474609375
 20
3.0677343749999997
 10
36.895263671875
 20
3.01271875
 10
36.927146484375
 20
2.9869062499999997
 10
36.971607421875
 20
2.97553125
 10
36.971607421875
 20
3.4020937499999997
 10
37.169138671875004
 20
3.4020937499999997
  0
LWPOLYLINE
  5
4D
330
17
100
AcDbEntity
  8
FERO_OUTLINE
100
AcDbPolyline
 90
11
 70
1
 10
37.807533203125004
 20
3.4020937499999997
 10
37.996970703125
 20
3.4020937499999997
 10
37.996970703125
 20
2.73490625
 10
38.402970703125
 20
3.4020937499999997
 10
38.604658203125
 20
3.4020937499999997
 10
38.604658203125
 20
2.4
 10
38.415220703125
 20
2.4
 10
38.415220703125
 20
3.05428125
 10
38.009876953125
 20
2.4
 10
37.807533203125004
 20
2.4
 10
37.807533203125004
 20
3.4020937499999997
  0
LWPOLYLINE
  5
4E
330
17
100
AcDbEntity
  8
FERO_OUTLINE
100
AcDbPolyline
 90
13
 70
1
 10
38.811814453125
 20
2.4
 10
38.811814453125
 20
3.4020937499999997
 10
39.014158203125
 20
3.4020937499999997
 10
39.014158203125
 20
3.0076875
 10
39.410533203125
 20
3.0076875
 10
39.410533203125
 20
3.4020937499999997
 10
39.612876953125
 20
3.4020937499999997
 10
39.612876953125
 20
2.4
 10
39.410533203125
 20
2.4
 10
39.410533203125
 20
2.83815625
 10
39.014158203125
 20
2.83815625
 10
39.014158203125
 20
2.4
 10
38.811814453125
 20
2.4
  0
LWPOLYLINE
  5
4F
330
17
100
AcDbEntity
  8
FERO_OUTLINE
100
AcDbPolyline
 90
11
 70
1
 10
39.824818359375
 20
3.4020937499999997
 10
40.014255859375
 20
3.4020937499999997
 10
40.014255859375
 20
2.73490625
 10
40.420255859375004
 20
3.4020937499999997
 10
40.621943359375
 20
3.4020937499999997
 10
40.621943359375
 20
2.4
 10
40.432505859375
 20
2.4
 10
40.432505859375
 20
3.05428125
 10
40.027162109375
 20
2.4
 10
39.824818359375
 20
2.4
 10
39.824818359375
 20
3.4020937499999997
  0
LWPOLYLINE
  5
50
330
17
100
AcDbEntity
  8
FERO_OUTLINE
100
AcDbPolyline
 90
20
 70
1
 10
40.828443359375
 20
2.4
 10
40.828443359375
 20
3.4020937499999997
 10
41.153068359375
 20
3.4020937499999997
 10
41.305537109375
 20
3.3983749999999997
 10
41.393693359375
 20
3.3872187499999997
 10
41.472826171875
 20
3.3512890625
 10
41.537849609375
 20
3.2889999999999997
 10
41.581490234375
 20
3.202484375
 10
41.596037109375004
 20
3.0938749999999997
 10
41.587669921875
 20
3.008890625
 10
41.562568359375
 20
2.9385624999999997
 10
41.524560546875
 20
2.8825078125
 10
41.477474609375
 20
2.83990625
 10
41.425412109375
 20
2.8101015625
 10
41.372474609375004
 20
2.7924374999999997
 10
41.283826171875
 20
2.781609375
 10
41.162693359375
 20
2.778
 10
41.030787109375
 20
2.778
 10
41.030787109375
 20
2.4
 10
40.828443359375
 20
2.4
  0
LWPOLYLINE
  5
51
330
17
100
AcDbEntity
  8
FERO_OUTLINE
100
AcDbPolyline
 90
16
 70
1
 10
41.030787109375
 20
3.2325625
 10
41.030787109375
 20
2.9481875
 10
41.141474609375
 20
2.9481875
 10
41.241279296875
 20
2.9521249999999997
 10
41.301380859375
 20
2.9639375
 10
41.337419921875
 20
2.9841171875
 10
41.364599609375
 20
3.0131562499999998
 10
41.381826171875005
 20
3.049359375
 10
41.387568359375
 20
3.09103125
 10
41.379529296875
 20
3.1409062499999996
 10
41.355412109375
 20
3.18115625
 10
41.318990234375
 20
3.2101406249999997
 10
41.274037109375
 20
3.22578125
 10
41.219623046875
 20
3.2308671875
 10
41.128568359375
 20
3.2325625
 10
41.030787109375
 20
3.2325625
  0
LWPOLYLINE
  5
52
330
17
100
AcDbEntity
  8
FERO_OUTLINE
100
AcDbPolyline
 90
11
 70
1
 10
41.764857421875
 20
3.4020937499999997
 10
41.954294921875004
 20
3.4020937499999997
 10
41.954294921875004
 20
2.73490625
 10
42.360294921874996
 20
3.4020937499999997
 10
42.561982421875
 20
3.4020937499999997
 10
42.561982421875
 20
2.4
 10
42.372544921875004
 20
2.4
 10
42.372544921875004
 20
3.05428125
 10
41.967201171875004
 20
2.4
 10
41.764857421875
 20
2.4
 10
41.764857421875
 20
3.4020937499999997
  0
LWPOLYLINE
  5
53
330
17
100
AcDbEntity
  8
FERO_OUTLINE
100
AcDbPolyline
 90
13
 70
1
 10
42.769138671875
 20
2.4
 10
42.769138671875
 20
3.4020937499999997
 10
42.971482421874995
 20
3.4020937499999997
 10
42.971482421874995
 20
3.0076875
 10
43.367857421875
 20
3.0076875
 10
43.367857421875
 20
3.4020937499999997
 10
43.570201171875
 20
3.4020937499999997
 10
43.570201171875
 20
2.4
 10
43.367857421875
 20
2.4
 10
43.367857421875
 20
2.83815625
 10
42.971482421874995
 20
2.83815625
 10
42.971482421874995
 20
2.4
 10
42.769138671875
 20
2.4
  0
LWPOLYLINE
  5
54
330
17
100
AcDbEntity
  8
FERO_OUTLINE
100
AcDbPolyline
 90
7
 70
1
 10
43.789798828125
 20
3.4020937499999997
 10
44.468580078125
 20
3.4020937499999997
 10
44.468580078125
 20
3.23409375
 10
43.992142578125
 20
3.23409375
 10
43.992142578125
 20
2.4
 10
43.789798828125
 20
2.4
 10
43.789798828125
 20
3.4020937499999997
  0
CIRCLE
  5
55
330
17
100
AcDbEntity
  8
FERO_SUN
100
AcDbCircle
 10
44.61
 20
11.15
 30
0.0
 40
0.9920000000000001
  0
LINE
  5
56
330
17
100
AcDbEntity
  8
FERO_SUN
100
AcDbLine
 10
42.8244
 20
11.15
 30
0.0
 11
46.3956
 21
11.15
 31
0.0
  0
LINE
  5
57
330
17
100
AcDbEntity
  8
FERO_SUN
100
AcDbLine
 10
44.61
 20
9.3644
 30
0.0
 11
44.61
 21
12.9356
 31
0.0
  0
LINE
  5
58
330
17
100
AcDbEntity
  8
FERO_SUN
100
AcDbLine
 10
43.360079999999996
 20
9.90008
 30
0.0
 11
45.85992
 21
12.39992
 31
0.0
  0
LINE
  5
59
330
17
100
AcDbEntity
  8
FERO_SUN
100
AcDbLine
 10
43.360079999999996
 20
12.39992
 30
0.0
 11
45.85992
 21
9.90008
 31
0.0
  0
ENDSEC
  0
SECTION
  2
OBJECTS
  0
DICTIONARY
  5
A
330
0
100
AcDbDictionary
281
1
  3
ACAD_COLOR
350
B
  3
ACAD_GROUP
350
C
  3
ACAD_LAYOUT
350
D
  3
ACAD_MATERIAL
350
E
  3
ACAD_MLEADERSTYLE
350
F
  3
ACAD_MLINESTYLE
350
10
  3
ACAD_PLOTSETTINGS
350
11
  3
ACAD_PLOTSTYLENAME
350
12
  3
ACAD_SCALELIST
350
14
  3
ACAD_TABLESTYLE
350
15
  3
ACAD_VISUALSTYLE
350
16
  3
EZDXF_META
350
2D
  0
DICTIONARY
  5
B
330
A
100
AcDbDictionary
281
1
  0
DICTIONARY
  5
C
330
A
100
AcDbDictionary
281
1
  0
DICTIONARY
  5
D
330
A
100
AcDbDictionary
281
1
  3
Model
350
1A
  3
Layout1
350
1E
  0
DICTIONARY
  5
E
330
A
100
AcDbDictionary
281
1
  3
ByBlock
350
1F
  3
ByLayer
350
20
  3
Global
350
21
  0
DICTIONARY
  5
F
330
A
100
AcDbDictionary
281
1
  3
Standard
350
2C
  0
DICTIONARY
  5
10
330
A
100
AcDbDictionary
281
1
  3
Standard
350
22
  0
DICTIONARY
  5
11
330
A
100
AcDbDictionary
281
1
  0
ACDBDICTIONARYWDFLT
  5
12
330
A
100
AcDbDictionary
281
1
  3
Normal
350
13
100
AcDbDictionaryWithDefault
340
13
  0
ACDBPLACEHOLDER
  5
13
330
12
  0
DICTIONARY
  5
14
330
A
100
AcDbDictionary
281
1
  0
DICTIONARY
  5
15
330
A
100
AcDbDictionary
281
1
  0
DICTIONARY
  5
16
330
A
100
AcDbDictionary
281
1
  0
LAYOUT
  5
1A
330
D
100
AcDbPlotSettings
  1

  4
A3
  6

 40
7.5
 41
20.0
 42
7.5
 43
20.0
 44
420.0
 45
297.0
 46
0.0
 47
0.0
 48
0.0
 49
0.0
140
0.0
141
0.0
142
1.0
143
1.0
 70
1024
 72
1
 73
0
 74
5
  7

 75
16
 76
0
 77
2
 78
300
147
1.0
148
0.0
149
0.0
100
AcDbLayout
  1
Model
 70
1
 71
0
 10
0.0
 20
0.0
 11
420.0
 21
297.0
 12
0.0
 22
0.0
 32
0.0
 14
1e+20
 24
1e+20
 34
1e+20
 15
-1e+20
 25
-1e+20
 35
-1e+20
146
0.0
 13
0.0
 23
0.0
 33
0.0
 16
1.0
 26
0.0
 36
0.0
 17
0.0
 27
1.0
 37
0.0
 76
1
330
17
  0
LAYOUT
  5
1E
330
D
100
AcDbPlotSettings
  1

  4
A3
  6

 40
7.5
 41
20.0
 42
7.5
 43
20.0
 44
420.0
 45
297.0
 46
0.0
 47
0.0
 48
0.0
 49
0.0
140
0.0
141
0.0
142
1.0
143
1.0
 70
0
 72
1
 73
0
 74
5
  7

 75
16
 76
0
 77
2
 78
300
147
1.0
148
0.0
149
0.0
100
AcDbLayout
  1
Layout1
 70
1
 71
1
 10
0.0
 20
0.0
 11
420.0
 21
297.0
 12
0.0
 22
0.0
 32
0.0
 14
1e+20
 24
1e+20
 34
1e+20
 15
-1e+20
 25
-1e+20
 35
-1e+20
146
0.0
 13
0.0
 23
0.0
 33
0.0
 16
1.0
 26
0.0
 36
0.0
 17
0.0
 27
1.0
 37
0.0
 76
1
330
1B
  0
MATERIAL
  5
1F
102
{ACAD_REACTORS
330
E
102
}
330
E
100
AcDbMaterial
  1
ByBlock
  2

 70
0
 40
1.0
 71
1
 41
1.0
 91
-1023410177
 42
1.0
 72
1
  3

 73
1
 74
1
 75
1
 44
0.5
 73
0
 45
1.0
 46
1.0
 77
1
  4

 78
1
 79
1
170
1
 48
1.0
171
1
  6

172
1
173
1
174
1
140
1.0
141
1.0
175
1
  7

176
1
177
1
178
1
143
1.0
179
1
  8

270
1
271
1
272
1
145
1.0
146
1.0
273
1
  9

274
1
275
1
276
1
 42
1.0
 72
1
  3

 73
1
 74
1
 75
1
 94
63
  0
MATERIAL
  5
20
102
{ACAD_REACTORS
330
E
102
}
330
E
100
AcDbMaterial
  1
ByLayer
  2

 70
0
 40
1.0
 71
1
 41
1.0
 91
-1023410177
 42
1.0
 72
1
  3

 73
1
 74
1
 75
1
 44
0.5
 73
0
 45
1.0
 46
1.0
 77
1
  4

 78
1
 79
1
170
1
 48
1.0
171
1
  6

172
1
173
1
174
1
140
1.0
141
1.0
175
1
  7

176
1
177
1
178
1
143
1.0
179
1
  8

270
1
271
1
272
1
145
1.0
146
1.0
273
1
  9

274
1
275
1
276
1
 42
1.0
 72
1
  3

 73
1
 74
1
 75
1
 94
63
  0
MATERIAL
  5
21
102
{ACAD_REACTORS
330
E
102
}
330
E
100
AcDbMaterial
  1
Global
  2

 70
0
 40
1.0
 71
1
 41
1.0
 91
-1023410177
 42
1.0
 72
1
  3

 73
1
 74
1
 75
1
 44
0.5
 73
0
 45
1.0
 46
1.0
 77
1
  4

 78
1
 79
1
170
1
 48
1.0
171
1
  6

172
1
173
1
174
1
140
1.0
141
1.0
175
1
  7

176
1
177
1
178
1
143
1.0
179
1
  8

270
1
271
1
272
1
145
1.0
146
1.0
273
1
  9

274
1
275
1
276
1
 42
1.0
 72
1
  3

 73
1
 74
1
 75
1
 94
63
  0
MLINESTYLE
  5
22
102
{ACAD_REACTORS
330
10
102
}
330
10
100
AcDbMlineStyle
  2
Standard
 70
0
  3

 62
256
 51
90.0
 52
90.0
 71
2
 49
0.5
 62
256
  6
BYLAYER
 49
-0.5
 62
256
  6
BYLAYER
  0
MLEADERSTYLE
  5
2C
102
{ACAD_REACTORS
330
F
102
}
330
F
100
AcDbMLeaderStyle
179
2
170
2
171
1
172
0
 90
2
 40
0.0
 41
0.0
173
1
 91
-1056964608
 92
-2
290
1
 42
2.0
291
1
 43
8.0
  3
Standard
 44
4.0
300

342
29
174
1
175
1
176
0
178
1
 93
-1056964608
 45
4.0
292
0
297
0
 46
4.0
 94
-1056964608
 47
1.0
 49
1.0
140
1.0
294
1
141
0.0
177
0
142
1.0
295
0
296
0
143
3.75
271
0
272
9
273
9
  0
DICTIONARY
  5
2D
330
A
100
AcDbDictionary
280
1
281
1
  3
CREATED_BY_EZDXF
350
2E
  3
WRITTEN_BY_EZDXF
350
5C
  0
DICTIONARYVAR
  5
2E
330
2D
100
DictionaryVariables
280
0
  1
1.4.4 @ 2026-09-14T08:32:43.347286+00:00
  0
DICTIONARYVAR
  5
5C
330
2D
100
DictionaryVariables
280
0
  1
1.4.4 @ 2026-09-14T08:32:43.375307+00:00
  0
ENDSEC
  0
EOF
