  0
SECTION
  2
HEADER
  9
$ACADVER
  1
AC1024
  9
$ACADMAINTVER
 70
6
  9
$DWGCODEPAGE
  3
ANSI_1252
  9
$LASTSAVEDBY
  1
ezdxf
  9
$INSBASE
 10
0.0
 20
0.0
 30
0.0
  9
$EXTMIN
 10
1e+20
 20
1e+20
 30
1e+20
  9
$EXTMAX
 10
-1e+20
 20
-1e+20
 30
-1e+20
  9
$LIMMIN
 10
0.0
 20
0.0
  9
$LIMMAX
 10
420.0
 20
297.0
  9
$ORTHOMODE
 70
0
  9
$REGENMODE
 70
1
  9
$FILLMODE
 70
1
  9
$QTEXTMODE
 70
0
  9
$MIRRTEXT
 70
1
  9
$LTSCALE
 40
1.0
  9
$ATTMODE
 70
1
  9
$TEXTSIZE
 40
2.5
  9
$TRACEWID
 40
1.0
  9
$TEXTSTYLE
  7
Standard
  9
$CLAYER
  8
0
  9
$CELTYPE
  6
ByLayer
  9
$CECOLOR
 62
256
  9
$CELTSCALE
 40
1.0
  9
$DISPSILH
 70
0
  9
$DIMSCALE
 40
1.0
  9
$DIMASZ
 40
2.5
  9
$DIMEXO
 40
0.625
  9
$DIMDLI
 40
3.75
  9
$DIMRND
 40
0.0
  9
$DIMDLE
 40
0.0
  9
$DIMEXE
 40
1.25
  9
$DIMTP
 40
0.0
  9
$DIMTM
 40
0.0
  9
$DIMTXT
 40
2.5
  9
$DIMCEN
 40
2.5
  9
$DIMTSZ
 40
0.0
  9
$DIMTOL
 70
0
  9
$DIMLIM
 70
0
  9
$DIMTIH
 70
0
  9
$DIMTOH
 70
0
  9
$DIMSE1
 70
0
  9
$DIMSE2
 70
0
  9
$DIMTAD
 70
1
  9
$DIMZIN
 70
8
  9
$DIMBLK
  1

  9
$DIMASO
 70
1
  9
$DIMSHO
 70
1
  9
$DIMPOST
  1

  9
$DIMAPOST
  1

  9
$DIMALT
 70
0
  9
$DIMALTD
 70
3
  9
$DIMALTF
 40
0.03937007874
  9
$DIMLFAC
 40
1.0
  9
$DIMTOFL
 70
1
  9
$DIMTVP
 40
0.0
  9
$DIMTIX
 70
0
  9
$DIMSOXD
 70
0
  9
$DIMSAH
 70
0
  9
$DIMBLK1
  1

  9
$DIMBLK2
  1

  9
$DIMSTYLE
  2
ISO-25
  9
$DIMCLRD
 70
0
  9
$DIMCLRE
 70
0
  9
$DIMCLRT
 70
0
  9
$DIMTFAC
 40
1.0
  9
$DIMGAP
 40
0.625
  9
$DIMJUST
 70
0
  9
$DIMSD1
 70
0
  9
$DIMSD2
 70
0
  9
$DIMTOLJ
 70
0
  9
$DIMTZIN
 70
8
  9
$DIMALTZ
 70
0
  9
$DIMALTTZ
 70
0
  9
$DIMUPT
 70
0
  9
$DIMDEC
 70
2
  9
$DIMTDEC
 70
2
  9
$DIMALTU
 70
2
  9
$DIMALTTD
 70
3
  9
$DIMTXSTY
  7
Standard
  9
$DIMAUNIT
 70
0
  9
$DIMADEC
 70
0
  9
$DIMALTRND
 40
0.0
  9
$DIMAZIN
 70
0
  9
$DIMDSEP
 70
44
  9
$DIMATFIT
 70
3
  9
$DIMFRAC
 70
0
  9
$DIMLDRBLK
  1

  9
$DIMLUNIT
 70
2
  9
$DIMLWD
 70
-2
  9
$DIMLWE
 70
-2
  9
$DIMTMOVE
 70
0
  9
$DIMFXL
 40
1.0
  9
$DIMFXLON
 70
0
  9
$DIMJOGANG
 40
0.785398163397
  9
$DIMTFILL
 70
0
  9
$DIMTFILLCLR
 70
0
  9
$DIMARCSYM
 70
0
  9
$DIMLTYPE
  6

  9
$DIMLTEX1
  6

  9
$DIMLTEX2
  6

  9
$DIMTXTDIRECTION
 70
0
  9
$LUNITS
 70
2
  9
$LUPREC
 70
4
  9
$SKETCHINC
 40
1.0
  9
$FILLETRAD
 40
10.0
  9
$AUNITS
 70
0
  9
$AUPREC
 70
2
  9
$MENU
  1
.
  9
$ELEVATION
 40
0.0
  9
$PELEVATION
 40
0.0
  9
$THICKNESS
 40
0.0
  9
$LIMCHECK
 70
0
  9
$CHAMFERA
 40
0.0
  9
$CHAMFERB
 40
0.0
  9
$CHAMFERC
 40
0.0
  9
$CHAMFERD
 40
0.0
  9
$SKPOLY
 70
0
  9
$TDCREATE
 40
2461298.4810416666
  9
$TDUCREATE
 40
2458532.153996898
  9
$TDUPDATE
 40
2461298.4810532406
  9
$TDUUPDATE
 40
2458532.1544311
  9
$TDINDWG
 40
0.0
  9
$TDUSRTIMER
 40
0.0
  9
$USRTIMER
 70
1
  9
$ANGBASE
 50
0.0
  9
$ANGDIR
 70
0
  9
$PDMODE
 70
0
  9
$PDSIZE
 40
0.0
  9
$PLINEWID
 40
0.0
  9
$SPLFRAME
 70
0
  9
$SPLINETYPE
 70
6
  9
$SPLINESEGS
 70
8
  9
$HANDSEED
  5
5C
  9
$SURFTAB1
 70
6
  9
$SURFTAB2
 70
6
  9
$SURFTYPE
 70
6
  9
$SURFU
 70
6
  9
$SURFV
 70
6
  9
$UCSBASE
  2

  9
$UCSNAME
  2

  9
$UCSORG
 10
0.0
 20
0.0
 30
0.0
  9
$UCSXDIR
 10
1.0
 20
0.0
 30
0.0
  9
$UCSYDIR
 10
0.0
 20
1.0
 30
0.0
  9
$UCSORTHOREF
  2

  9
$UCSORTHOVIEW
 70
0
  9
$UCSORGTOP
 10
0.0
 20
0.0
 30
0.0
  9
$UCSORGBOTTOM
 10
0.0
 20
0.0
 30
0.0
  9
$UCSORGLEFT
 10
0.0
 20
0.0
 30
0.0
  9
$UCSORGRIGHT
 10
0.0
 20
0.0
 30
0.0
  9
$UCSORGFRONT
 10
0.0
 20
0.0
 30
0.0
  9
$UCSORGBACK
 10
0.0
 20
0.0
 30
0.0
  9
$PUCSBASE
  2

  9
$PUCSNAME
  2

  9
$PUCSORG
 10
0.0
 20
0.0
 30
0.0
  9
$PUCSXDIR
 10
1.0
 20
0.0
 30
0.0
  9
$PUCSYDIR
 10
0.0
 20
1.0
 30
0.0
  9
$PUCSORTHOREF
  2

  9
$PUCSORTHOVIEW
 70
0
  9
$PUCSORGTOP
 10
0.0
 20
0.0
 30
0.0
  9
$PUCSORGBOTTOM
 10
0.0
 20
0.0
 30
0.0
  9
$PUCSORGLEFT
 10
0.0
 20
0.0
 30
0.0
  9
$PUCSORGRIGHT
 10
0.0
 20
0.0
 30
0.0
  9
$PUCSORGFRONT
 10
0.0
 20
0.0
 30
0.0
  9
$PUCSORGBACK
 10
0.0
 20
0.0
 30
0.0
  9
$USERI1
 70
0
  9
$USERI2
 70
0
  9
$USERI3
 70
0
  9
$USERI4
 70
0
  9
$USERI5
 70
0
  9
$USERR1
 40
0.0
  9
$USERR2
 40
0.0
  9
$USERR3
 40
0.0
  9
$USERR4
 40
0.0
  9
$USERR5
 40
0.0
  9
$WORLDVIEW
 70
1
  9
$SHADEDGE
 70
3
  9
$SHADEDIF
 70
70
  9
$TILEMODE
 70
1
  9
$MAXACTVP
 70
64
  9
$PINSBASE
 10
0.0
 20
0.0
 30
0.0
  9
$PLIMCHECK
 70
0
  9
$PEXTMIN
 10
1e+20
 20
1e+20
 30
1e+20
  9
$PEXTMAX
 10
-1e+20
 20
-1e+20
 30
-1e+20
  9
$PLIMMIN
 10
0.0
 20
0.0
  9
$PLIMMAX
 10
420.0
 20
297.0
  9
$UNITMODE
 70
0
  9
$VISRETAIN
 70
1
  9
$PLINEGEN
 70
0
  9
$PSLTSCALE
 70
1
  9
$TREEDEPTH
 70
3020
  9
$CMLSTYLE
  2
Standard
  9
$CMLJUST
 70
0
  9
$CMLSCALE
 40
20.0
  9
$PROXYGRAPHICS
 70
1
  9
$MEASUREMENT
 70
1
  9
$CELWEIGHT
370
-1
  9
$ENDCAPS
280
0
  9
$JOINSTYLE
280
0
  9
$LWDISPLAY
290
0
  9
$INSUNITS
 70
6
  9
$HYPERLINKBASE
  1

  9
$STYLESHEET
  1

  9
$XEDIT
290
1
  9
$CEPSNTYPE
380
0
  9
$PSTYLEMODE
290
1
  9
$FINGERPRINTGUID
  2
{7A5B38CF-7935-400E-A174-336973F4CBDC}
  9
$VERSIONGUID
  2
{9F9E490A-6A94-4D9E-B506-9A76D13AFEBB}
  9
$EXTNAMES
290
1
  9
$PSVPSCALE
 40
0.0
  9
$OLESTARTUP
290
0
  9
$SORTENTS
280
127
  9
$INDEXCTL
280
0
  9
$HIDETEXT
280
1
  9
$XCLIPFRAME
280
1
  9
$HALOGAP
280
0
  9
$OBSCOLOR
 70
257
  9
$OBSLTYPE
280
0
  9
$INTERSECTIONDISPLAY
280
0
  9
$INTERSECTIONCOLOR
 70
257
  9
$DIMASSOC
280
2
  9
$PROJECTNAME
  1

  9
$CAMERADISPLAY
290
0
  9
$LENSLENGTH
 40
50.0
  9
$CAMERAHEIGHT
 40
0.0
  9
$STEPSPERSEC
 40
24.0
  9
$STEPSIZE
 40
100.0
  9
$3DDWFPREC
 40
2.0
  9
$PSOLWIDTH
 40
0.005
  9
$PSOLHEIGHT
 40
0.08
  9
$LOFTANG1
 40
1.570796326795
  9
$LOFTANG2
 40
1.570796326795
  9
$LOFTMAG1
 40
0.0
  9
$LOFTMAG2
 40
0.0
  9
$LOFTPARAM
 70
7
  9
$LOFTNORMALS
280
1
  9
$LATITUDE
 40
37.795
  9
$LONGITUDE
 40
-122.394
  9
$NORTHDIRECTION
 40
0.0
  9
$TIMEZONE
 70
-8000
  9
$LIGHTGLYPHDISPLAY
280
1
  9
$TILEMODELIGHTSYNCH
280
1
  9
$CMATERIAL
347
20
  9
$SOLIDHIST
280
0
  9
$SHOWHIST
280
1
  9
$DWFFRAME
280
2
  9
$DGNFRAME
280
2
  9
$REALWORLDSCALE
290
1
  9
$INTERFERECOLOR
 62
256
  9
$CSHADOW
280
0
  9
$SHADOWPLANELOCATION
 40
0.0
  0
ENDSEC
  0
SECTION
  2
CLASSES
  0
CLASS
  1
ACDBDICTIONARYWDFLT
  2
AcDbDictionaryWithDefault
  3
ObjectDBX Classes
 90
0
 91
0
280
0
281
0
  0
CLASS
  1
SUN
  2
AcDbSun
  3
SCENEOE
 90
1153
 91
0
280
0
281
0
  0
CLASS
  1
VISUALSTYLE
  2
AcDbVisualStyle
  3
ObjectDBX Classes
 90
4095
 91
0
280
0
281
0
  0
CLASS
  1
MATERIAL
  2
AcDbMaterial
  3
ObjectDBX Classes
 90
1153
 91
0
280
0
281
0
  0
CLASS
  1
SCALE
  2
AcDbScale
  3
ObjectDBX Classes
 90
1153
 91
0
280
0
281
0
  0
CLASS
  1
TABLESTYLE
  2
AcDbTableStyle
  3
ObjectDBX Classes
 90
4095
 91
0
280
0
281
0
  0
CLASS
  1
MLEADERSTYLE
  2
AcDbMLeaderStyle
  3
ACDB_MLEADERSTYLE_CLASS
 90
4095
 91
0
280
0
281
0
  0
CLASS
  1
DICTIONARYVAR
  2
AcDbDictionaryVar
  3
ObjectDBX Classes
 90
0
 91
0
280
0
281
0
  0
CLASS
  1
CELLSTYLEMAP
  2
AcDbCellStyleMap
  3
ObjectDBX Classes
 90
1152
 91
0
280
0
281
0
  0
CLASS
  1
MENTALRAYRENDERSETTINGS
  2
AcDbMentalRayRenderSettings
  3
SCENEOE
 90
1024
 91
0
280
0
281
0
  0
CLASS
  1
ACDBDETAILVIEWSTYLE
  2
AcDbDetailViewStyle
  3
ObjectDBX Classes
 90
1025
 91
0
280
0
281
0
  0
CLASS
  1
ACDBSECTIONVIEWSTYLE
  2
AcDbSectionViewStyle
  3
ObjectDBX Classes
 90
1025
 91
0
280
0
281
0
  0
CLASS
  1
RASTERVARIABLES
  2
AcDbRasterVariables
  3
ISM
 90
0
 91
0
280
0
281
0
  0
CLASS
  1
LAYOUT
  2
AcDbLayout
  3
ObjectDBX Classes
 90
0
 91
0
280
0
281
0
  0
CLASS
  1
ACDBPLACEHOLDER
  2
AcDbPlaceHolder
  3
ObjectDBX Classes
 90
0
 91
0
280
0
281
0
  0
ENDSEC
  0
SECTION
  2
TABLES
  0
TABLE
  2
VPORT
  5
8
330
0
100
AcDbSymbolTable
 70
1
  0
VPORT
  5
23
330
8
100
AcDbSymbolTableRecord
100
AcDbViewportTableRecord
  2
*Active
 70
0
 10
0.0
 20
0.0
 11
1.0
 21
1.0
 12
0.0
 22
0.0
 13
0.0
 23
0.0
 14
0.5
 24
0.5
 15
0.5
 25
0.5
 16
0.0
 26
0.0
 36
1.0
 17
0.0
 27
0.0
 37
0.0
 40
1000.0
 41
1.34
 42
50.0
 43
0.0
 44
0.0
 50
0.0
 51
0.0
 71
0
 72
1000
 73
1
 74
3
 75
0
 76
0
 77
0
 78
0
281
0
 65
0
146
0.0
  0
ENDTAB
  0
TABLE
  2
LTYPE
  5
2
330
0
100
AcDbSymbolTable
 70
3
  0
LTYPE
  5
24
330
2
100
AcDbSymbolTableRecord
100
AcDbLinetypeTableRecord
  2
ByBlock
 70
0
  3

 72
65
 73
0
 40
0.0
  0
LTYPE
  5
25
330
2
100
AcDbSymbolTableRecord
100
AcDbLinetypeTableRecord
  2
ByLayer
 70
0
  3

 72
65
 73
0
 40
0.0
  0
LTYPE
  5
26
330
2
100
AcDbSymbolTableRecord
100
AcDbLinetypeTableRecord
  2
Continuous
 70
0
  3

 72
65
 73
0
 40
0.0
  0
ENDTAB
  0
TABLE
  2
LAYER
  5
1
330
0
100
AcDbSymbolTable
 70
4
  0
LAYER
  5
27
330
1
100
AcDbSymbolTableRecord
100
AcDbLayerTableRecord
  2
0
 70
0
 62
7
  6
Continuous
370
-3
390
13
347
21
  0
LAYER
  5
28
330
1
100
AcDbSymbolTableRecord
100
AcDbLayerTableRecord
  2
Defpoints
 70
0
 62
7
  6
Continuous
290
0
370
-3
390
13
347
21
  0
LAYER
  5
2F
330
1
100
AcDbSymbolTableRecord
100
AcDbLayerTableRecord
  2
FERO_OUTLINE
 70
0
 62
7
  6
Continuous
370
-3
390
13
347
21
  0
LAYER
  5
30
330
1
100
AcDbSymbolTableRecord
100
AcDbLayerTableRecord
  2
FERO_SUN
 70
0
 62
7
  6
Continuous
370
-3
390
13
347
21
  0
ENDTAB
  0
TABLE
  2
STYLE
  5
5
330
0
100
AcDbSymbolTable
 70
1
  0
STYLE
  5
29
330
5
100
AcDbSymbolTableRecord
100
AcDbTextStyleTableRecord
  2
Standard
 70
0
 40
0.0
 41
1.0
 50
0.0
 71
0
 42
2.5
  3
txt
  4

  0
ENDTAB
  0
TABLE
  2
VIEW
  5
7
330
0
100
AcDbSymbolTable
 70
0
  0
ENDTAB
  0
TABLE
  2
UCS
  5
6
330
0
100
AcDbSymbolTable
 70
0
  0
ENDTAB
  0
TABLE
  2
APPID
  5
3
330
0
100
AcDbSymbolTable
 70
3
  0
APPID
  5
2A
330
3
100
AcDbSymbolTableRecord
100
AcDbRegAppTableRecord
  2
ACAD
 70
0
  0
APPID
  5
59
330
3
100
AcDbSymbolTableRecord
100
AcDbRegAppTableRecord
  2
HATCHBACKGROUNDCOLOR
 70
0
  0
APPID
  5
5A
330
3
100
AcDbSymbolTableRecord
100
AcDbRegAppTableRecord
  2
EZDXF
 70
0
  0
ENDTAB
  0
TABLE
  2
DIMSTYLE
  5
4
330
0
100
AcDbSymbolTable
 70
1
100
AcDbDimStyleTable
  0
DIMSTYLE
105
2B
330
4
100
AcDbSymbolTableRecord
100
AcDbDimStyleTableRecord
  2
Standard
 70
0
 40
1.0
 41
2.5
 42
0.625
 43
3.75
 44
1.25
 45
0.0
 46
0.0
 47
0.0
 48
0.0
 49
2.5
140
2.5
141
2.5
142
0.0
143
0.03937007874
144
1.0
145
0.0
146
1.0
147
0.625
148
0.0
 69
0
 70
0
 71
0
 72
0
 73
0
 74
0
 75
0
 76
0
 77
1
 78
8
 79
3
170
0
171
3
172
1
173
0
174
0
175
0
176
0
177
0
178
0
179
2
271
2
272
2
273
2
274
3
275
0
276
0
277
2
278
44
279
0
280
0
281
0
282
0
283
0
284
8
285
0
286
0
288
0
289
3
290
0
371
-2
372
-2
  0
ENDTAB
  0
TABLE
  2
BLOCK_RECORD
  5
9
330
0
100
AcDbSymbolTable
 70
2
  0
BLOCK_RECORD
  5
17
330
9
100
AcDbSymbolTableRecord
100
AcDbBlockTableRecord
  2
*Model_Space
340
1A
 70
0
280
1
281
0
  0
BLOCK_RECORD
  5
1B
330
9
100
AcDbSymbolTableRecord
100
AcDbBlockTableRecord
  2
*Paper_Space
340
1E
 70
0
280
1
281
0
  0
ENDTAB
  0
ENDSEC
  0
SECTION
  2
BLOCKS
  0
BLOCK
  5
18
330
17
100
AcDbEntity
  8
0
100
AcDbBlockBegin
  2
*Model_Space
 70
0
 10
0.0
 20
0.0
 30
0.0
  3
*Model_Space
  1

  0
ENDBLK
  5
19
330
17
100
AcDbEntity
  8
0
100
AcDbBlockEnd
  0
BLOCK
  5
1C
330
1B
100
AcDbEntity
  8
0
100
AcDbBlockBegin
  2
*Paper_Space
 70
0
 10
0.0
 20
0.0
 30
0.0
  3
*Paper_Space
  1

  0
ENDBLK
  5
1D
330
1B
100
AcDbEntity
  8
0
100
AcDbBlockEnd
  0
ENDSEC
  0
SECTION
  2
ENTITIES
  0
LWPOLYLINE
  5
31
330
17
100
AcDbEntity
  8
FERO_OUTLINE
100
AcDbPolyline
 90
31
 70
1
 10
-23.520000000000003
 20
14.0025
 10
-23.520000000000003
 20
12.0
 10
-26.9175
 20
12.0
 10
-26.9175
 20
14.0025
 10
-28.823203125
 20
14.1871875
 10
-31.727578125
 20
15.2034375
 10
-32.72625
 20
16.035
 10
-33.466171875
 20
17.035078125
 10
-34.311796875
 20
19.388203125
 10
-34.417500000000004
 20
20.74125
 10
-34.306875
 20
22.156171875
 10
-33.421875
 20
24.543046875
 10
-32.6475
 20
25.515
 10
-31.625625
 20
26.312109375
 10
-28.760625
 20
27.288984375
 10
-26.9175
 20
27.46875
 10
-26.9175
 20
29.1675
 10
-23.520000000000003
 20
29.1675
 10
-23.520000000000003
 20
27.46875
 10
-21.623671875000003
 20
27.285
 10
-18.726796874999998
 20
26.27625
 10
-17.72625
 20
25.45125
 10
-16.979765625
 20
24.458671875
 10
-16.126640625000004
 20
22.098046875
 10
-16.020000000000003
 20
20.73
 10
-16.126171875000004
 20
19.372734375
 10
-16.975546875000003
 20
17.019609375
 10
-17.71875
 20
16.02375
 10
-18.718359375
 20
15.197109375
 10
-21.618984375
 20
14.186484375
 10
-23.520000000000003
 20
14.0025
  0
LWPOLYLINE
  5
32
330
17
100
AcDbEntity
  8
FERO_OUTLINE
100
AcDbPolyline
 90
13
 70
1
 10
-23.520000000000003
 20
16.8975
 10
-22.254375000000003
 20
17.011875
 10
-21.18
 20
17.355
 10
-20.34375
 20
17.89125
 10
-19.792500000000004
 20
18.585
 10
-19.483125
 20
19.5384375
 10
-19.380000000000003
 20
20.846249999999998
 10
-19.4446875
 20
21.7198828125
 10
-19.962187500000002
 20
23.1176953125
 10
-20.997187500000003
 20
24.0495703125
 10
-22.5496875
 20
24.515507812499997
 10
-23.520000000000003
 20
24.573749999999997
 10
-23.520000000000003
 20
16.8975
  0
LWPOLYLINE
  5
33
330
17
100
AcDbEntity
  8
FERO_OUTLINE
100
AcDbPolyline
 90
13
 70
1
 10
-26.9175
 20
16.8975
 10
-26.9175
 20
24.573749999999997
 10
-27.9365625
 20
24.512578124999997
 10
-29.5190625
 20
24.023203125
 10
-30.082500000000003
 20
23.595
 10
-30.507421875000002
 20
23.043046874999998
 10
-30.993046875
 20
21.563671875
 10
-31.05375
 20
20.63625
 10
-30.98912109375
 20
19.75998046875
 10
-30.472089843750002
 20
18.35794921875
 10
-29.43802734375
 20
17.42326171875
 10
-27.88693359375
 20
16.95591796875
 10
-26.9175
 20
16.8975
  0
LWPOLYLINE
  5
34
330
17
100
AcDbEntity
  8
FERO_OUTLINE
100
AcDbPolyline
 90
13
 70
1
 10
-13.228125000000002
 20
12.0
 10
-13.228125000000002
 20
29.17875
 10
-0.48937500000000256
 20
29.17875
 10
-0.48937500000000256
 20
26.2725
 10
-9.759375000000002
 20
26.2725
 10
-9.759375000000002
 20
22.466250000000002
 10
-1.1343749999999986
 20
22.466250000000002
 10
-1.1343749999999986
 20
19.57125
 10
-9.759375000000002
 20
19.57125
 10
-9.759375000000002
 20
14.895
 10
-0.16312500000000085
 20
14.895
 10
-0.16312500000000085
 20
12.0
 10
-13.228125000000002
 20
12.0
  0
LWPOLYLINE
  5
35
330
17
100
AcDbEntity
  8
FERO_OUTLINE
100
AcDbPolyline
 90
22
 70
1
 10
2.7796874999999943
 20
12.0
 10
2.7796874999999943
 20
29.17875
 10
8.3446875
 20
29.17875
 10
10.958437499999995
 20
29.115000000000002
 10
12.4696875
 20
28.92375
 10
13.178203124999996
 20
28.672265624999998
 10
14.413828124999995
 20
27.830390625
 10
14.940937499999997
 20
27.240000000000002
 10
15.377343750000001
 20
26.54578125
 10
15.876093750000003
 20
24.873281249999998
 10
15.9384375
 20
23.895
 10
15.794999999999995
 20
22.438125
 10
15.364687499999995
 20
21.2325
 10
14.713124999999998
 20
20.2715625
 10
13.9059375
 20
19.541249999999998
 10
13.013437500000002
 20
19.0303125
 10
12.105937499999996
 20
18.7275
 10
10.58625
 20
18.541874999999997
 10
8.509687499999998
 20
18.48
 10
6.248437499999994
 20
18.48
 10
6.248437499999994
 20
12.0
 10
2.7796874999999943
 20
12.0
  0
LWPOLYLINE
  5
36
330
17
100
AcDbEntity
  8
FERO_OUTLINE
100
AcDbPolyline
 90
16
 70
1
 10
6.248437499999994
 20
26.2725
 10
6.248437499999994
 20
21.3975
 10
8.145937499999995
 20
21.3975
 10
9.856874999999995
 20
21.465
 10
10.887187499999996
 20
21.6675
 10
11.505000000000003
 20
22.013437500000002
 10
11.970937499999998
 20
22.51125
 10
12.266249999999992
 20
23.131875
 10
12.364687499999995
 20
23.846249999999998
 10
12.226875
 20
24.701249999999998
 10
11.8134375
 20
25.39125
 10
11.189062499999999
 20
25.888125
 10
10.418437499999996
 20
26.15625
 10
9.485624999999999
 20
26.2434375
 10
7.924687499999997
 20
26.2725
 10
6.248437499999994
 20
26.2725
  0
LWPOLYLINE
  5
37
330
17
100
AcDbEntity
  8
FERO_OUTLINE
100
AcDbPolyline
 90
27
 70
1
 10
17.752499999999998
 20
20.48625
 10
17.949374999999996
 20
22.9003125
 10
18.54
 20
24.8925
 10
19.231875000000002
 20
26.1375
 10
20.137499999999996
 20
27.2475
 10
21.198749999999997
 20
28.154999999999998
 10
22.357499999999995
 20
28.7925
 10
24.08625
 20
29.3015625
 10
26.0625
 20
29.471249999999998
 10
27.865312499999995
 20
29.324062499999997
 10
30.902812500000003
 20
28.146562499999998
 10
32.137499999999996
 20
27.11625
 10
33.135
 20
25.823671875
 10
34.275
 20
22.548046874999997
 10
34.4175
 20
20.564999999999998
 10
34.276171874999996
 20
18.59859375
 10
33.14554687499999
 20
15.34359375
 10
32.15624999999999
 20
14.055
 10
30.930234375000005
 20
13.02796875
 10
27.905859375
 20
11.85421875
 10
26.107499999999995
 20
11.7075
 10
24.289453125
 20
11.853515625
 10
21.242578125
 20
13.021640625
 10
20.013749999999995
 20
14.04375
 10
19.024453125
 20
15.32390625
 10
17.89382812499999
 20
18.545156249999998
 10
17.752499999999998
 20
20.48625
  0
LWPOLYLINE
  5
38
330
17
100
AcDbEntity
  8
FERO_OUTLINE
100
AcDbPolyline
 90
25
 70
1
 10
21.326249999999995
 20
20.6025
 10
21.410390624999998
 20
19.231875
 10
22.083515624999997
 20
17.019375
 10
22.6725
 20
16.177500000000002
 10
23.392734374999996
 20
15.519609375
 10
25.104609375000003
 20
14.767734375
 10
26.096249999999998
 20
14.67375
 10
27.086718749999996
 20
14.76703125
 10
28.789218749999996
 20
15.51328125
 10
29.50124999999999
 20
16.166249999999998
 10
30.083671875
 20
17.006015625
 10
30.749296875000006
 20
19.246640624999998
 10
30.832500000000003
 20
20.6475
 10
30.75140625000001
 20
22.031015625000002
 10
30.102656250000003
 20
24.234140625000002
 10
29.535000000000004
 20
25.05375
 10
28.834921875
 20
25.6903125
 10
27.115546875
 20
26.4178125
 10
26.096249999999998
 20
26.50875
 10
25.07578125
 20
26.416640625
 10
23.347031249999993
 20
25.679765625
 10
22.638749999999995
 20
25.035
 10
22.064531249999995
 20
24.20671875
 10
21.408281249999995
 20
21.990468749999998
 10
21.326249999999995
 20
20.6025
  0
LWPOLYLINE
  5
39
330
17
100
AcDbEntity
  8
FERO_OUTLINE
100
AcDbPolyline
 90
23
 70
1
 10
-31.546044921874998
 20
2.9171875
 10
-31.546044921874998
 20
2.5
 10
-32.253857421875
 20
2.5
 10
-32.253857421875
 20
2.9171875
 10
-32.984912109374996
 20
3.0390625
 10
-33.464013671875
 20
3.340625
 10
-33.728271484375
 20
3.7818359375000004
 10
-33.816357421875
 20
4.32109375
 10
-33.724169921874996
 20
4.8798828125
 10
-33.447607421875
 20
5.315625000000001
 10
-32.964794921875
 20
5.6048828125000005
 10
-32.253857421875
 20
5.72265625
 10
-32.253857421875
 20
6.0765625
 10
-31.546044921874998
 20
6.0765625
 10
-31.546044921874998
 20
5.72265625
 10
-30.818115234375
 20
5.6015625
 10
-30.339013671874998
 20
5.30234375
 10
-30.072412109374998
 20
4.8626953125000005
 10
-29.983544921874998
 20
4.31875
 10
-30.072021484375
 20
3.7783203125
 10
-30.337451171875
 20
3.33828125
 10
-30.816552734374998
 20
3.0384765625
 10
-31.546044921874998
 20
2.9171875
  0
LWPOLYLINE
  5
3A
330
17
100
AcDbEntity
  8
FERO_OUTLINE
100
AcDbPolyline
 90
11
 70
1
 10
-31.546044921874998
 20
3.5203125
 10
-31.282373046874998
 20
3.544140625
 10
-31.058544921874997
 20
3.615625
 10
-30.884326171875
 20
3.72734375
 10
-30.769482421874997
 20
3.871875
 10
-30.705029296874997
 20
4.070507812500001
 10
-30.683544921874997
 20
4.34296875
 10
-30.737451171874998
 20
4.68271484375
 10
-31.168701171875
 20
5.07099609375
 10
-31.546044921874998
 20
5.11953125
 10
-31.546044921874998
 20
3.5203125
  0
LWPOLYLINE
  5
3B
330
17
100
AcDbEntity
  8
FERO_OUTLINE
100
AcDbPolyline
 90
9
 70
1
 10
-32.253857421875
 20
3.5203125
 10
-32.253857421875
 20
5.11953125
 10
-32.646826171875
 20
5.0685546875
 10
-32.913232421875
 20
4.915625
 10
-33.064990234374996
 20
4.6595703125000005
 10
-33.115576171875
 20
4.29921875
 10
-33.06171875
 20
3.958447265625
 10
-32.630859375
 20
3.568994140625
 10
-32.253857421875
 20
3.5203125
  0
LWPOLYLINE
  5
3C
330
17
100
AcDbEntity
  8
FERO_OUTLINE
100
AcDbPolyline
 90
9
 70
1
 10
-26.299560546875
 20
2.5
 10
-27.085498046875
 20
2.5
 10
-27.397998046875
 20
3.31328125
 10
-28.829248046874998
 20
3.31328125
 10
-29.124560546875
 20
2.5
 10
-29.890966796875
 20
2.5
 10
-28.497216796874998
 20
6.07890625
 10
-27.732373046874997
 20
6.07890625
 10
-26.299560546875
 20
2.5
  0
LWPOLYLINE
  5
3D
330
17
100
AcDbEntity
  8
FERO_OUTLINE
100
AcDbPolyline
 90
4
 70
1
 10
-27.630029296874998
 20
3.91640625
 10
-28.122998046874997
 20
5.24453125
 10
-28.606591796874998
 20
3.91640625
 10
-27.630029296874998
 20
3.91640625
  0
LWPOLYLINE
  5
3E
330
17
100
AcDbEntity
  8
FERO_OUTLINE
100
AcDbPolyline
 90
35
 70
1
 10
-23.751220703125
 20
3.815625
 10
-23.050439453124998
 20
3.59375
 10
-23.264892578124996
 20
3.083203125
 10
-23.586376953124997
 20
2.7234375
 10
-24.011572265625
 20
2.51015625
 10
-24.537158203124996
 20
2.4390625
 10
-25.186962890624997
 20
2.5607421875
 10
-25.709814453125
 20
2.92578125
 10
-26.053759765624996
 20
3.5025390625
 10
-26.168408203124997
 20
4.2578125
 10
-26.053173828124997
 20
5.0515625
 10
-25.707470703124997
 20
5.6453125
 10
-25.173095703125
 20
6.0162109375
 10
-24.493408203125
 20
6.139843750000001
 10
-23.898095703124998
 20
6.04296875
 10
-23.426220703124997
 20
5.75234375
 10
-23.212939453124996
 20
5.47265625
 10
-23.060595703124996
 20
5.092968750000001
 10
-23.775439453124996
 20
4.921875
 10
-23.873876953125
 20
5.170703125
 10
-24.041064453124996
 20
5.3609375
 10
-24.263720703125
 20
5.4822265625
 10
-24.530126953125
 20
5.522656250000001
 10
-24.890478515625
 20
5.451171875
 10
-25.176220703124997
 20
5.23671875
 10
-25.361962890624998
 20
4.862890625
 10
-25.423876953124996
 20
4.31171875
 10
-25.362939453124998
 20
3.73046875
 10
-25.180126953124997
 20
3.34453125
 10
-24.899072265624998
 20
3.12890625
 10
-24.544970703124996
 20
3.05703125
 10
-24.277001953124998
 20
3.102734375
 10
-24.049658203125
 20
3.23984375
 10
-23.871142578124996
 20
3.4751953125
 10
-23.751220703125
 20
3.815625
  0
LWPOLYLINE
  5
3F
330
17
100
AcDbEntity
  8
FERO_OUTLINE
100
AcDbPolyline
 90
9
 70
1
 10
-19.327880859375
 20
2.5
 10
-20.113818359374996
 20
2.5
 10
-20.426318359374996
 20
3.31328125
 10
-21.857568359374998
 20
3.31328125
 10
-22.152880859374996
 20
2.5
 10
-22.919287109375
 20
2.5
 10
-21.525537109374998
 20
6.07890625
 10
-20.760693359374997
 20
6.07890625
 10
-19.327880859375
 20
2.5
  0
LWPOLYLINE
  5
40
330
17
100
AcDbEntity
  8
FERO_OUTLINE
100
AcDbPolyline
 90
4
 70
1
 10
-20.658349609374998
 20
3.91640625
 10
-21.151318359374997
 20
5.24453125
 10
-21.634912109374998
 20
3.91640625
 10
-20.658349609374998
 20
3.91640625
  0
LWPOLYLINE
  5
41
330
17
100
AcDbEntity
  8
FERO_OUTLINE
100
AcDbPolyline
 90
17
 70
1
 10
-18.469384765624998
 20
6.07890625
 10
-15.995947265624999
 20
6.07890625
 10
-15.995947265624999
 20
3.10078125
 10
-15.681103515624997
 20
3.10078125
 10
-15.681103515624997
 20
1.71875
 10
-16.281884765624998
 20
1.71875
 10
-16.281884765624998
 20
2.5
 10
-18.535009765625
 20
2.5
 10
-18.535009765625
 20
1.71875
 10
-19.135791015624996
 20
1.71875
 10
-19.135791015624996
 20
3.10078125
 10
-18.832666015624998
 20
3.10078125
 10
-18.648681640624996
 20
3.5962890625
 10
-18.540478515624997
 20
4.165625
 10
-18.487158203125
 20
4.8529296875000005
 10
-18.469384765624998
 20
5.70078125
 10
-18.469384765624998
 20
6.07890625
  0
LWPOLYLINE
  5
42
330
17
100
AcDbEntity
  8
FERO_OUTLINE
100
AcDbPolyline
 90
6
 70
1
 10
-17.780322265625
 20
5.47890625
 10
-17.854150390625
 20
4.06875
 10
-18.075634765624997
 20
3.10078125
 10
-16.716259765624997
 20
3.10078125
 10
-16.716259765624997
 20
5.47890625
 10
-17.780322265625
 20
5.47890625
  0
LWPOLYLINE
  5
43
330
17
100
AcDbEntity
  8
FERO_OUTLINE
100
AcDbPolyline
 90
13
 70
1
 10
-15.192529296874998
 20
2.5
 10
-15.192529296874998
 20
6.07890625
 10
-14.469873046874998
 20
6.07890625
 10
-14.469873046874998
 20
4.6703125
 10
-13.054248046874996
 20
4.6703125
 10
-13.054248046874996
 20
6.07890625
 10
-12.331591796874996
 20
6.07890625
 10
-12.331591796874996
 20
2.5
 10
-13.054248046874996
 20
2.5
 10
-13.054248046874996
 20
4.06484375
 10
-14.469873046874998
 20
4.06484375
 10
-14.469873046874998
 20
2.5
 10
-15.192529296874998
 20
2.5
  0
LWPOLYLINE
  5
44
330
17
100
AcDbEntity
  8
FERO_OUTLINE
100
AcDbPolyline
 90
18
 70
1
 10
-11.564501953124996
 20
6.07890625
 10
-10.841845703124996
 20
6.07890625
 10
-10.841845703124996
 20
4.6484375
 10
-9.875439453124997
 20
4.6484375
 10
-9.520947265624997
 20
4.6224609375
 10
-9.219970703124996
 20
4.54453125
 10
-8.968017578124996
 20
4.3998046875
 10
-8.762158203124997
 20
4.1734375
 10
-8.624462890624997
 20
3.8863281250000004
 10
-8.578564453124997
 20
3.559375
 10
-8.626220703124996
 20
3.2212890625
 10
-8.769189453124998
 20
2.93359375
 10
-8.970556640624999
 20
2.715234375
 10
-9.193408203124996
 20
2.58515625
 10
-9.480322265624999
 20
2.5212890625
 10
-9.875439453124997
 20
2.5
 10
-11.564501953124996
 20
2.5
 10
-11.564501953124996
 20
6.07890625
  0
LWPOLYLINE
  5
45
330
17
100
AcDbEntity
  8
FERO_OUTLINE
100
AcDbPolyline
 90
14
 70
1
 10
-10.841845703124996
 20
3.10078125
 10
-10.136376953124998
 20
3.10078125
 10
-9.850634765625
 20
3.108984375
 10
-9.666845703124999
 20
3.13359375
 10
-9.540869140624999
 20
3.1875
 10
-9.430126953124997
 20
3.28359375
 10
-9.352197265624994
 20
3.4136718750000004
 10
-9.326220703124996
 20
3.56953125
 10
-9.368603515624997
 20
3.7787109375
 10
-9.495751953124998
 20
3.928125
 10
-9.733447265624996
 20
4.017773437500001
 10
-10.107470703124996
 20
4.04765625
 10
-10.841845703124996
 20
4.04765625
 10
-10.841845703124996
 20
3.10078125
  0
LWPOLYLINE
  5
46
330
17
100
AcDbEntity
  8
FERO_OUTLINE
100
AcDbPolyline
 90
5
 70
1
 10
-8.161376953124996
 20
6.07890625
 10
-7.4387207031249964
 20
6.07890625
 10
-7.4387207031249964
 20
2.5
 10
-8.161376953124996
 20
2.5
 10
-8.161376953124996
 20
6.07890625
  0
LWPOLYLINE
  5
47
330
17
100
AcDbEntity
  8
FERO_OUTLINE
100
AcDbPolyline
 90
11
 70
1
 10
-6.679638671874997
 20
6.07890625
 10
-6.003076171874998
 20
6.07890625
 10
-6.003076171874998
 20
3.69609375
 10
-4.553076171874999
 20
6.07890625
 10
-3.8327636718749964
 20
6.07890625
 10
-3.8327636718749964
 20
2.5
 10
-4.509326171874996
 20
2.5
 10
-4.509326171874996
 20
4.83671875
 10
-5.956982421874997
 20
2.5
 10
-6.679638671874997
 20
2.5
 10
-6.679638671874997
 20
6.07890625
  0
LWPOLYLINE
  5
48
330
17
100
AcDbEntity
  8
FERO_OUTLINE
100
AcDbPolyline
 90
19
 70
1
 10
-4.825732421874996
 20
6.98984375
 10
-4.491357421874998
 20
6.98984375
 10
-4.564013671874996
 20
6.693554687500001
 10
-4.724169921874996
 20
6.46875
 10
-4.958349609374999
 20
6.326953125
 10
-5.253076171874998
 20
6.2796875
 10
-5.547216796874999
 20
6.326953125
 10
-5.781201171874997
 20
6.46875
 10
-5.941552734374998
 20
6.693554687500001
 10
-6.014794921874998
 20
6.98984375
 10
-5.6804199218749964
 20
6.98984375
 10
-5.6413574218749964
 20
6.837890625
 10
-5.558544921874997
 20
6.72734375
 10
-5.4294433593749964
 20
6.6605468750000005
 10
-5.253076171874998
 20
6.63828125
 10
-5.076318359374998
 20
6.6605468750000005
 10
-4.947607421874999
 20
6.72734375
 10
-4.864794921874999
 20
6.837890625
 10
-4.825732421874996
 20
6.98984375
  0
LWPOLYLINE
  5
49
330
17
100
AcDbEntity
  8
FERO_OUTLINE
100
AcDbPolyline
 90
11
 70
1
 10
-1.6967285156249972
 20
6.07890625
 10
-1.0201660156249943
 20
6.07890625
 10
-1.0201660156249943
 20
3.69609375
 10
0.4298339843750014
 20
6.07890625
 10
1.150146484375
 20
6.07890625
 10
1.150146484375
 20
2.5
 10
0.47358398437500426
 20
2.5
 10
0.47358398437500426
 20
4.83671875
 10
-0.9740722656249972
 20
2.5
 10
-1.6967285156249972
 20
2.5
 10
-1.6967285156249972
 20
6.07890625
  0
LWPOLYLINE
  5
4A
330
17
100
AcDbEntity
  8
FERO_OUTLINE
100
AcDbPolyline
 90
13
 70
1
 10
1.8899902343750057
 20
2.5
 10
1.8899902343750057
 20
6.07890625
 10
2.6126464843750057
 20
6.07890625
 10
2.6126464843750057
 20
4.6703125
 10
4.028271484375004
 20
4.6703125
 10
4.028271484375004
 20
6.07890625
 10
4.750927734375004
 20
6.07890625
 10
4.750927734375004
 20
2.5
 10
4.028271484375004
 20
2.5
 10
4.028271484375004
 20
4.06484375
 10
2.6126464843750057
 20
4.06484375
 10
2.6126464843750057
 20
2.5
 10
1.8899902343750057
 20
2.5
  0
LWPOLYLINE
  5
4B
330
17
100
AcDbEntity
  8
FERO_OUTLINE
100
AcDbPolyline
 90
82
 70
1
 10
7.746923828125006
 20
6.07890625
 10
7.746923828125006
 20
4.55546875
 10
7.905517578125007
 20
4.596484375
 10
8.020361328125006
 20
4.68984375
 10
8.130908203125003
 20
4.886328125
 10
8.276611328125007
 20
5.23671875
 10
8.493798828125009
 20
5.6947265625
 10
8.715673828125006
 20
5.95
 10
9.011962890625007
 20
6.0630859375
 10
9.455517578125004
 20
6.100781250000001
 10
9.494384765625007
 20
6.1015625
 10
9.560986328125004
 20
6.10390625
 10
9.560986328125004
 20
5.56875
 10
9.455517578125004
 20
5.57109375
 10
9.265283203125001
 20
5.557421875
 10
9.133642578125006
 20
5.51640625
 10
9.040869140625006
 20
5.447265625
 10
8.967236328125004
 20
5.34921875
 10
8.888720703125003
 20
5.1775390625
 10
8.779736328125004
 20
4.8875
 10
8.710595703125001
 20
4.7173828125
 10
8.635986328125007
 20
4.577343750000001
 10
8.529736328125004
 20
4.456640625
 10
8.364111328125006
 20
4.34296875
 10
8.58500976562501
 20
4.238671875
 10
8.763330078125001
 20
4.06640625
 10
8.928759765625003
 20
3.8169921875000004
 10
9.109423828125003
 20
3.48125
 10
9.597705078125003
 20
2.5
 10
8.747705078125001
 20
2.5
 10
8.318017578125001
 20
3.425
 10
8.304150390625004
 20
3.4537109375
 10
8.276611328125007
 20
3.50078125
 10
8.244775390625009
 20
3.561328125
 10
8.188330078125006
 20
3.6695312500000004
 10
8.063720703125007
 20
3.879296875
 10
7.963330078125004
 20
3.99609375
 10
7.865478515625007
 20
4.0494140625
 10
7.746923828125006
 20
4.0671875
 10
7.746923828125006
 20
2.5
 10
7.041455078125004
 20
2.5
 10
7.041455078125004
 20
4.0671875
 10
6.925048828125007
 20
4.050000000000001
 10
6.825830078125001
 20
3.9984375
 10
6.724853515625
 20
3.8822265625
 10
6.601611328125003
 20
3.6695312500000004
 10
6.541259765625007
 20
3.55390625
 10
6.511767578125003
 20
3.50078125
 10
6.489892578125001
 20
3.4634765625
 10
6.469580078125006
 20
3.425
 10
6.039892578125006
 20
2.5
 10
5.190673828125007
 20
2.5
 10
5.678955078125007
 20
3.48125
 10
5.854345703124999
 20
3.8076171875
 10
6.019580078125003
 20
4.05859375
 10
6.201220703125003
 20
4.23671875
 10
6.425830078125003
 20
4.34296875
 10
6.260009765625007
 20
4.4564453125
 10
6.153173828125006
 20
4.5765625
 10
6.078759765625001
 20
4.716015625000001
 10
6.008642578125006
 20
4.8875
 10
5.901611328125007
 20
5.1728515625
 10
5.824267578125003
 20
5.34453125
 10
5.751416015625004
 20
5.444531250000001
 10
5.657861328125001
 20
5.514843750000001
 10
5.521923828125004
 20
5.55703125
 10
5.320361328125003
 20
5.57109375
 10
5.282275390625003
 20
5.570507812500001
 10
5.227392578125006
 20
5.56875
 10
5.227392578125006
 20
6.10390625
 10
5.293798828125006
 20
6.1015625
 10
5.332080078125003
 20
6.100781250000001
 10
5.781298828125003
 20
6.0625
 10
6.078955078125006
 20
5.94765625
 10
6.297314453125004
 20
5.691796875
 10
6.511767578125003
 20
5.23671875
 10
6.658837890625001
 20
4.884765625
 10
6.768798828125007
 20
4.68828125
 10
6.882666015625006
 20
4.59609375
 10
7.041455078125004
 20
4.55546875
 10
7.041455078125004
 20
6.07890625
 10
7.746923828125006
 20
6.07890625
  0
LWPOLYLINE
  5
4C
330
17
100
AcDbEntity
  8
FERO_OUTLINE
100
AcDbPolyline
 90
11
 70
1
 10
10.026904296875003
 20
6.07890625
 10
10.703466796875006
 20
6.07890625
 10
10.703466796875006
 20
3.69609375
 10
12.153466796875001
 20
6.07890625
 10
12.873779296875007
 20
6.07890625
 10
12.873779296875007
 20
2.5
 10
12.197216796875004
 20
2.5
 10
12.197216796875004
 20
4.83671875
 10
10.749560546875003
 20
2.5
 10
10.026904296875003
 20
2.5
 10
10.026904296875003
 20
6.07890625
  0
LWPOLYLINE
  5
4D
330
17
100
AcDbEntity
  8
FERO_OUTLINE
100
AcDbPolyline
 90
13
 70
1
 10
13.613623046875006
 20
2.5
 10
13.613623046875006
 20
6.07890625
 10
14.336279296875006
 20
6.07890625
 10
14.336279296875006
 20
4.6703125
 10
15.751904296875004
 20
4.6703125
 10
15.751904296875004
 20
6.07890625
 10
16.474560546875004
 20
6.07890625
 10
16.474560546875004
 20
2.5
 10
15.751904296875004
 20
2.5
 10
15.751904296875004
 20
4.06484375
 10
14.336279296875006
 20
4.06484375
 10
14.336279296875006
 20
2.5
 10
13.613623046875006
 20
2.5
  0
LWPOLYLINE
  5
4E
330
17
100
AcDbEntity
  8
FERO_OUTLINE
100
AcDbPolyline
 90
11
 70
1
 10
17.231494140625003
 20
6.07890625
 10
17.908056640625006
 20
6.07890625
 10
17.908056640625006
 20
3.69609375
 10
19.358056640625
 20
6.07890625
 10
20.078369140625007
 20
6.07890625
 10
20.078369140625007
 20
2.5
 10
19.401806640625004
 20
2.5
 10
19.401806640625004
 20
4.83671875
 10
17.954150390625003
 20
2.5
 10
17.231494140625003
 20
2.5
 10
17.231494140625003
 20
6.07890625
  0
LWPOLYLINE
  5
4F
330
17
100
AcDbEntity
  8
FERO_OUTLINE
100
AcDbPolyline
 90
20
 70
1
 10
20.815869140625004
 20
2.5
 10
20.815869140625004
 20
6.07890625
 10
21.975244140625
 20
6.07890625
 10
22.519775390625007
 20
6.065625000000001
 10
22.834619140625
 20
6.02578125
 10
23.11723632812501
 20
5.8974609375
 10
23.349462890625006
 20
5.675000000000001
 10
23.505322265625004
 20
5.366015625
 10
23.557275390625
 20
4.978125
 10
23.527392578125003
 20
4.674609375
 10
23.437744140625007
 20
4.4234375
 10
23.302001953125007
 20
4.2232421875
 10
23.133837890625003
 20
4.07109375
 10
22.947900390625
 20
3.9646484375
 10
22.758837890625003
 20
3.9015625
 10
22.442236328125006
 20
3.8628906250000004
 10
22.009619140625006
 20
3.85
 10
21.538525390625004
 20
3.85
 10
21.538525390625004
 20
2.5
 10
20.815869140625004
 20
2.5
  0
LWPOLYLINE
  5
50
330
17
100
AcDbEntity
  8
FERO_OUTLINE
100
AcDbPolyline
 90
16
 70
1
 10
21.538525390625004
 20
5.4734375
 10
21.538525390625004
 20
4.4578125
 10
21.933837890625007
 20
4.4578125
 10
22.290283203125007
 20
4.471875000000001
 10
22.504931640625003
 20
4.5140625
 10
22.633642578125
 20
4.5861328125
 10
22.730712890625007
 20
4.68984375
 10
22.792236328125007
 20
4.819140625
 10
22.812744140625007
 20
4.967968750000001
 10
22.784033203125006
 20
5.14609375
 10
22.697900390625
 20
5.28984375
 10
22.567822265625004
 20
5.393359375
 10
22.407275390625003
 20
5.44921875
 10
22.212939453125003
 20
5.4673828125
 10
21.887744140625003
 20
5.4734375
 10
21.538525390625004
 20
5.4734375
  0
LWPOLYLINE
  5
51
330
17
100
AcDbEntity
  8
FERO_OUTLINE
100
AcDbPolyline
 90
11
 70
1
 10
24.160205078125003
 20
6.07890625
 10
24.836767578125006
 20
6.07890625
 10
24.836767578125006
 20
3.69609375
 10
26.286767578125
 20
6.07890625
 10
27.007080078125007
 20
6.07890625
 10
27.007080078125007
 20
2.5
 10
26.330517578125004
 20
2.5
 10
26.330517578125004
 20
4.83671875
 10
24.882861328125003
 20
2.5
 10
24.160205078125003
 20
2.5
 10
24.160205078125003
 20
6.07890625
  0
LWPOLYLINE
  5
52
330
17
100
AcDbEntity
  8
FERO_OUTLINE
100
AcDbPolyline
 90
13
 70
1
 10
27.746923828125006
 20
2.5
 10
27.746923828125006
 20
6.07890625
 10
28.469580078125006
 20
6.07890625
 10
28.469580078125006
 20
4.6703125
 10
29.885205078125004
 20
4.6703125
 10
29.885205078125004
 20
6.07890625
 10
30.607861328125004
 20
6.07890625
 10
30.607861328125004
 20
2.5
 10
29.885205078125004
 20
2.5
 10
29.885205078125004
 20
4.06484375
 10
28.469580078125006
 20
4.06484375
 10
28.469580078125006
 20
2.5
 10
27.746923828125006
 20
2.5
  0
LWPOLYLINE
  5
53
330
17
100
AcDbEntity
  8
FERO_OUTLINE
100
AcDbPolyline
 90
7
 70
1
 10
31.39213867187501
 20
6.07890625
 10
33.816357421875004
 20
6.07890625
 10
33.816357421875004
 20
5.47890625
 10
32.11479492187501
 20
5.47890625
 10
32.11479492187501
 20
2.5
 10
31.39213867187501
 20
2.5
 10
31.39213867187501
 20
6.07890625
  0
CIRCLE
  5
54
330
17
100
AcDbEntity
  8
FERO_SUN
100
AcDbCircle
 10
37.2
 20
30.0
 30
0.0
 40
3.84
  0
LINE
  5
55
330
17
100
AcDbEntity
  8
FERO_SUN
100
AcDbLine
 10
30.288000000000004
 20
30.0
 30
0.0
 11
44.112
 21
30.0
 31
0.0
  0
LINE
  5
56
330
17
100
AcDbEntity
  8
FERO_SUN
100
AcDbLine
 10
37.2
 20
23.088
 30
0.0
 11
37.2
 21
36.912
 31
0.0
  0
LINE
  5
57
330
17
100
AcDbEntity
  8
FERO_SUN
100
AcDbLine
 10
32.3616
 20
25.1616
 30
0.0
 11
42.0384
 21
34.8384
 31
0.0
  0
LINE
  5
58
330
17
100
AcDbEntity
  8
FERO_SUN
100
AcDbLine
 10
32.3616
 20
34.8384
 30
0.0
 11
42.0384
 21
25.1616
 31
0.0
  0
ENDSEC
  0
SECTION
  2
OBJECTS
  0
DICTIONARY
  5
A
330
0
100
AcDbDictionary
281
1
  3
ACAD_COLOR
350
B
  3
ACAD_GROUP
350
C
  3
ACAD_LAYOUT
350
D
  3
ACAD_MATERIAL
350
E
  3
ACAD_MLEADERSTYLE
350
F
  3
ACAD_MLINESTYLE
350
10
  3
ACAD_PLOTSETTINGS
350
11
  3
ACAD_PLOTSTYLENAME
350
12
  3
ACAD_SCALELIST
350
14
  3
ACAD_TABLESTYLE
350
15
  3
ACAD_VISUALSTYLE
350
16
  3
EZDXF_META
350
2D
  0
DICTIONARY
  5
B
330
A
100
AcDbDictionary
281
1
  0
DICTIONARY
  5
C
330
A
100
AcDbDictionary
281
1
  0
DICTIONARY
  5
D
330
A
100
AcDbDictionary
281
1
  3
Model
350
1A
  3
Layout1
350
1E
  0
DICTIONARY
  5
E
330
A
100
AcDbDictionary
281
1
  3
ByBlock
350
1F
  3
ByLayer
350
20
  3
Global
350
21
  0
DICTIONARY
  5
F
330
A
100
AcDbDictionary
281
1
  3
Standard
350
2C
  0
DICTIONARY
  5
10
330
A
100
AcDbDictionary
281
1
  3
Standard
350
22
  0
DICTIONARY
  5
11
330
A
100
AcDbDictionary
281
1
  0
ACDBDICTIONARYWDFLT
  5
12
330
A
100
AcDbDictionary
281
1
  3
Normal
350
13
100
AcDbDictionaryWithDefault
340
13
  0
ACDBPLACEHOLDER
  5
13
330
12
  0
DICTIONARY
  5
14
330
A
100
AcDbDictionary
281
1
  0
DICTIONARY
  5
15
330
A
100
AcDbDictionary
281
1
  0
DICTIONARY
  5
16
330
A
100
AcDbDictionary
281
1
  0
LAYOUT
  5
1A
330
D
100
AcDbPlotSettings
  1

  4
A3
  6

 40
7.5
 41
20.0
 42
7.5
 43
20.0
 44
420.0
 45
297.0
 46
0.0
 47
0.0
 48
0.0
 49
0.0
140
0.0
141
0.0
142
1.0
143
1.0
 70
1024
 72
1
 73
0
 74
5
  7

 75
16
 76
0
 77
2
 78
300
147
1.0
148
0.0
149
0.0
100
AcDbLayout
  1
Model
 70
1
 71
0
 10
0.0
 20
0.0
 11
420.0
 21
297.0
 12
0.0
 22
0.0
 32
0.0
 14
1e+20
 24
1e+20
 34
1e+20
 15
-1e+20
 25
-1e+20
 35
-1e+20
146
0.0
 13
0.0
 23
0.0
 33
0.0
 16
1.0
 26
0.0
 36
0.0
 17
0.0
 27
1.0
 37
0.0
 76
1
330
17
  0
LAYOUT
  5
1E
330
D
100
AcDbPlotSettings
  1

  4
A3
  6

 40
7.5
 41
20.0
 42
7.5
 43
20.0
 44
420.0
 45
297.0
 46
0.0
 47
0.0
 48
0.0
 49
0.0
140
0.0
141
0.0
142
1.0
143
1.0
 70
0
 72
1
 73
0
 74
5
  7

 75
16
 76
0
 77
2
 78
300
147
1.0
148
0.0
149
0.0
100
AcDbLayout
  1
Layout1
 70
1
 71
1
 10
0.0
 20
0.0
 11
420.0
 21
297.0
 12
0.0
 22
0.0
 32
0.0
 14
1e+20
 24
1e+20
 34
1e+20
 15
-1e+20
 25
-1e+20
 35
-1e+20
146
0.0
 13
0.0
 23
0.0
 33
0.0
 16
1.0
 26
0.0
 36
0.0
 17
0.0
 27
1.0
 37
0.0
 76
1
330
1B
  0
MATERIAL
  5
1F
102
{ACAD_REACTORS
330
E
102
}
330
E
100
AcDbMaterial
  1
ByBlock
  2

 70
0
 40
1.0
 71
1
 41
1.0
 91
-1023410177
 42
1.0
 72
1
  3

 73
1
 74
1
 75
1
 44
0.5
 73
0
 45
1.0
 46
1.0
 77
1
  4

 78
1
 79
1
170
1
 48
1.0
171
1
  6

172
1
173
1
174
1
140
1.0
141
1.0
175
1
  7

176
1
177
1
178
1
143
1.0
179
1
  8

270
1
271
1
272
1
145
1.0
146
1.0
273
1
  9

274
1
275
1
276
1
 42
1.0
 72
1
  3

 73
1
 74
1
 75
1
 94
63
  0
MATERIAL
  5
20
102
{ACAD_REACTORS
330
E
102
}
330
E
100
AcDbMaterial
  1
ByLayer
  2

 70
0
 40
1.0
 71
1
 41
1.0
 91
-1023410177
 42
1.0
 72
1
  3

 73
1
 74
1
 75
1
 44
0.5
 73
0
 45
1.0
 46
1.0
 77
1
  4

 78
1
 79
1
170
1
 48
1.0
171
1
  6

172
1
173
1
174
1
140
1.0
141
1.0
175
1
  7

176
1
177
1
178
1
143
1.0
179
1
  8

270
1
271
1
272
1
145
1.0
146
1.0
273
1
  9

274
1
275
1
276
1
 42
1.0
 72
1
  3

 73
1
 74
1
 75
1
 94
63
  0
MATERIAL
  5
21
102
{ACAD_REACTORS
330
E
102
}
330
E
100
AcDbMaterial
  1
Global
  2

 70
0
 40
1.0
 71
1
 41
1.0
 91
-1023410177
 42
1.0
 72
1
  3

 73
1
 74
1
 75
1
 44
0.5
 73
0
 45
1.0
 46
1.0
 77
1
  4

 78
1
 79
1
170
1
 48
1.0
171
1
  6

172
1
173
1
174
1
140
1.0
141
1.0
175
1
  7

176
1
177
1
178
1
143
1.0
179
1
  8

270
1
271
1
272
1
145
1.0
146
1.0
273
1
  9

274
1
275
1
276
1
 42
1.0
 72
1
  3

 73
1
 74
1
 75
1
 94
63
  0
MLINESTYLE
  5
22
102
{ACAD_REACTORS
330
10
102
}
330
10
100
AcDbMlineStyle
  2
Standard
 70
0
  3

 62
256
 51
90.0
 52
90.0
 71
2
 49
0.5
 62
256
  6
BYLAYER
 49
-0.5
 62
256
  6
BYLAYER
  0
MLEADERSTYLE
  5
2C
102
{ACAD_REACTORS
330
F
102
}
330
F
100
AcDbMLeaderStyle
179
2
170
2
171
1
172
0
 90
2
 40
0.0
 41
0.0
173
1
 91
-1056964608
 92
-2
290
1
 42
2.0
291
1
 43
8.0
  3
Standard
 44
4.0
300

342
29
174
1
175
1
176
0
178
1
 93
-1056964608
 45
4.0
292
0
297
0
 46
4.0
 94
-1056964608
 47
1.0
 49
1.0
140
1.0
294
1
141
0.0
177
0
142
1.0
295
0
296
0
143
3.75
271
0
272
9
273
9
  0
DICTIONARY
  5
2D
330
A
100
AcDbDictionary
280
1
281
1
  3
CREATED_BY_EZDXF
350
2E
  3
WRITTEN_BY_EZDXF
350
5B
  0
DICTIONARYVAR
  5
2E
330
2D
100
DictionaryVariables
280
0
  1
1.4.4 @ 2026-09-14T08:32:42.891074+00:00
  0
DICTIONARYVAR
  5
5B
330
2D
100
DictionaryVariables
280
0
  1
1.4.4 @ 2026-09-14T08:32:43.035694+00:00
  0
ENDSEC
  0
EOF
