  0
SECTION
  2
HEADER
  9
$ACADVER
  1
AC1024
  9
$ACADMAINTVER
 70
6
  9
$DWGCODEPAGE
  3
ANSI_1252
  9
$LASTSAVEDBY
  1
ezdxf
  9
$INSBASE
 10
0.0
 20
0.0
 30
0.0
  9
$EXTMIN
 10
1e+20
 20
1e+20
 30
1e+20
  9
$EXTMAX
 10
-1e+20
 20
-1e+20
 30
-1e+20
  9
$LIMMIN
 10
0.0
 20
0.0
  9
$LIMMAX
 10
420.0
 20
297.0
  9
$ORTHOMODE
 70
0
  9
$REGENMODE
 70
1
  9
$FILLMODE
 70
1
  9
$QTEXTMODE
 70
0
  9
$MIRRTEXT
 70
1
  9
$LTSCALE
 40
1.0
  9
$ATTMODE
 70
1
  9
$TEXTSIZE
 40
2.5
  9
$TRACEWID
 40
1.0
  9
$TEXTSTYLE
  7
Standard
  9
$CLAYER
  8
0
  9
$CELTYPE
  6
ByLayer
  9
$CECOLOR
 62
256
  9
$CELTSCALE
 40
1.0
  9
$DISPSILH
 70
0
  9
$DIMSCALE
 40
1.0
  9
$DIMASZ
 40
2.5
  9
$DIMEXO
 40
0.625
  9
$DIMDLI
 40
3.75
  9
$DIMRND
 40
0.0
  9
$DIMDLE
 40
0.0
  9
$DIMEXE
 40
1.25
  9
$DIMTP
 40
0.0
  9
$DIMTM
 40
0.0
  9
$DIMTXT
 40
2.5
  9
$DIMCEN
 40
2.5
  9
$DIMTSZ
 40
0.0
  9
$DIMTOL
 70
0
  9
$DIMLIM
 70
0
  9
$DIMTIH
 70
0
  9
$DIMTOH
 70
0
  9
$DIMSE1
 70
0
  9
$DIMSE2
 70
0
  9
$DIMTAD
 70
1
  9
$DIMZIN
 70
8
  9
$DIMBLK
  1

  9
$DIMASO
 70
1
  9
$DIMSHO
 70
1
  9
$DIMPOST
  1

  9
$DIMAPOST
  1

  9
$DIMALT
 70
0
  9
$DIMALTD
 70
3
  9
$DIMALTF
 40
0.03937007874
  9
$DIMLFAC
 40
1.0
  9
$DIMTOFL
 70
1
  9
$DIMTVP
 40
0.0
  9
$DIMTIX
 70
0
  9
$DIMSOXD
 70
0
  9
$DIMSAH
 70
0
  9
$DIMBLK1
  1

  9
$DIMBLK2
  1

  9
$DIMSTYLE
  2
ISO-25
  9
$DIMCLRD
 70
0
  9
$DIMCLRE
 70
0
  9
$DIMCLRT
 70
0
  9
$DIMTFAC
 40
1.0
  9
$DIMGAP
 40
0.625
  9
$DIMJUST
 70
0
  9
$DIMSD1
 70
0
  9
$DIMSD2
 70
0
  9
$DIMTOLJ
 70
0
  9
$DIMTZIN
 70
8
  9
$DIMALTZ
 70
0
  9
$DIMALTTZ
 70
0
  9
$DIMUPT
 70
0
  9
$DIMDEC
 70
2
  9
$DIMTDEC
 70
2
  9
$DIMALTU
 70
2
  9
$DIMALTTD
 70
3
  9
$DIMTXSTY
  7
Standard
  9
$DIMAUNIT
 70
0
  9
$DIMADEC
 70
0
  9
$DIMALTRND
 40
0.0
  9
$DIMAZIN
 70
0
  9
$DIMDSEP
 70
44
  9
$DIMATFIT
 70
3
  9
$DIMFRAC
 70
0
  9
$DIMLDRBLK
  1

  9
$DIMLUNIT
 70
2
  9
$DIMLWD
 70
-2
  9
$DIMLWE
 70
-2
  9
$DIMTMOVE
 70
0
  9
$DIMFXL
 40
1.0
  9
$DIMFXLON
 70
0
  9
$DIMJOGANG
 40
0.785398163397
  9
$DIMTFILL
 70
0
  9
$DIMTFILLCLR
 70
0
  9
$DIMARCSYM
 70
0
  9
$DIMLTYPE
  6

  9
$DIMLTEX1
  6

  9
$DIMLTEX2
  6

  9
$DIMTXTDIRECTION
 70
0
  9
$LUNITS
 70
2
  9
$LUPREC
 70
4
  9
$SKETCHINC
 40
1.0
  9
$FILLETRAD
 40
10.0
  9
$AUNITS
 70
0
  9
$AUPREC
 70
2
  9
$MENU
  1
.
  9
$ELEVATION
 40
0.0
  9
$PELEVATION
 40
0.0
  9
$THICKNESS
 40
0.0
  9
$LIMCHECK
 70
0
  9
$CHAMFERA
 40
0.0
  9
$CHAMFERB
 40
0.0
  9
$CHAMFERC
 40
0.0
  9
$CHAMFERD
 40
0.0
  9
$SKPOLY
 70
0
  9
$TDCREATE
 40
2461298.4810532406
  9
$TDUCREATE
 40
2458532.153996898
  9
$TDUPDATE
 40
2461298.4810532406
  9
$TDUUPDATE
 40
2458532.1544311
  9
$TDINDWG
 40
0.0
  9
$TDUSRTIMER
 40
0.0
  9
$USRTIMER
 70
1
  9
$ANGBASE
 50
0.0
  9
$ANGDIR
 70
0
  9
$PDMODE
 70
0
  9
$PDSIZE
 40
0.0
  9
$PLINEWID
 40
0.0
  9
$SPLFRAME
 70
0
  9
$SPLINETYPE
 70
6
  9
$SPLINESEGS
 70
8
  9
$HANDSEED
  5
5D
  9
$SURFTAB1
 70
6
  9
$SURFTAB2
 70
6
  9
$SURFTYPE
 70
6
  9
$SURFU
 70
6
  9
$SURFV
 70
6
  9
$UCSBASE
  2

  9
$UCSNAME
  2

  9
$UCSORG
 10
0.0
 20
0.0
 30
0.0
  9
$UCSXDIR
 10
1.0
 20
0.0
 30
0.0
  9
$UCSYDIR
 10
0.0
 20
1.0
 30
0.0
  9
$UCSORTHOREF
  2

  9
$UCSORTHOVIEW
 70
0
  9
$UCSORGTOP
 10
0.0
 20
0.0
 30
0.0
  9
$UCSORGBOTTOM
 10
0.0
 20
0.0
 30
0.0
  9
$UCSORGLEFT
 10
0.0
 20
0.0
 30
0.0
  9
$UCSORGRIGHT
 10
0.0
 20
0.0
 30
0.0
  9
$UCSORGFRONT
 10
0.0
 20
0.0
 30
0.0
  9
$UCSORGBACK
 10
0.0
 20
0.0
 30
0.0
  9
$PUCSBASE
  2

  9
$PUCSNAME
  2

  9
$PUCSORG
 10
0.0
 20
0.0
 30
0.0
  9
$PUCSXDIR
 10
1.0
 20
0.0
 30
0.0
  9
$PUCSYDIR
 10
0.0
 20
1.0
 30
0.0
  9
$PUCSORTHOREF
  2

  9
$PUCSORTHOVIEW
 70
0
  9
$PUCSORGTOP
 10
0.0
 20
0.0
 30
0.0
  9
$PUCSORGBOTTOM
 10
0.0
 20
0.0
 30
0.0
  9
$PUCSORGLEFT
 10
0.0
 20
0.0
 30
0.0
  9
$PUCSORGRIGHT
 10
0.0
 20
0.0
 30
0.0
  9
$PUCSORGFRONT
 10
0.0
 20
0.0
 30
0.0
  9
$PUCSORGBACK
 10
0.0
 20
0.0
 30
0.0
  9
$USERI1
 70
0
  9
$USERI2
 70
0
  9
$USERI3
 70
0
  9
$USERI4
 70
0
  9
$USERI5
 70
0
  9
$USERR1
 40
0.0
  9
$USERR2
 40
0.0
  9
$USERR3
 40
0.0
  9
$USERR4
 40
0.0
  9
$USERR5
 40
0.0
  9
$WORLDVIEW
 70
1
  9
$SHADEDGE
 70
3
  9
$SHADEDIF
 70
70
  9
$TILEMODE
 70
1
  9
$MAXACTVP
 70
64
  9
$PINSBASE
 10
0.0
 20
0.0
 30
0.0
  9
$PLIMCHECK
 70
0
  9
$PEXTMIN
 10
1e+20
 20
1e+20
 30
1e+20
  9
$PEXTMAX
 10
-1e+20
 20
-1e+20
 30
-1e+20
  9
$PLIMMIN
 10
0.0
 20
0.0
  9
$PLIMMAX
 10
420.0
 20
297.0
  9
$UNITMODE
 70
0
  9
$VISRETAIN
 70
1
  9
$PLINEGEN
 70
0
  9
$PSLTSCALE
 70
1
  9
$TREEDEPTH
 70
3020
  9
$CMLSTYLE
  2
Standard
  9
$CMLJUST
 70
0
  9
$CMLSCALE
 40
20.0
  9
$PROXYGRAPHICS
 70
1
  9
$MEASUREMENT
 70
1
  9
$CELWEIGHT
370
-1
  9
$ENDCAPS
280
0
  9
$JOINSTYLE
280
0
  9
$LWDISPLAY
290
0
  9
$INSUNITS
 70
6
  9
$HYPERLINKBASE
  1

  9
$STYLESHEET
  1

  9
$XEDIT
290
1
  9
$CEPSNTYPE
380
0
  9
$PSTYLEMODE
290
1
  9
$FINGERPRINTGUID
  2
{94217908-5685-4331-96AB-A89667FFD496}
  9
$VERSIONGUID
  2
{4E2F72C1-0995-4CB5-9165-6E0A09BED921}
  9
$EXTNAMES
290
1
  9
$PSVPSCALE
 40
0.0
  9
$OLESTARTUP
290
0
  9
$SORTENTS
280
127
  9
$INDEXCTL
280
0
  9
$HIDETEXT
280
1
  9
$XCLIPFRAME
280
1
  9
$HALOGAP
280
0
  9
$OBSCOLOR
 70
257
  9
$OBSLTYPE
280
0
  9
$INTERSECTIONDISPLAY
280
0
  9
$INTERSECTIONCOLOR
 70
257
  9
$DIMASSOC
280
2
  9
$PROJECTNAME
  1

  9
$CAMERADISPLAY
290
0
  9
$LENSLENGTH
 40
50.0
  9
$CAMERAHEIGHT
 40
0.0
  9
$STEPSPERSEC
 40
24.0
  9
$STEPSIZE
 40
100.0
  9
$3DDWFPREC
 40
2.0
  9
$PSOLWIDTH
 40
0.005
  9
$PSOLHEIGHT
 40
0.08
  9
$LOFTANG1
 40
1.570796326795
  9
$LOFTANG2
 40
1.570796326795
  9
$LOFTMAG1
 40
0.0
  9
$LOFTMAG2
 40
0.0
  9
$LOFTPARAM
 70
7
  9
$LOFTNORMALS
280
1
  9
$LATITUDE
 40
37.795
  9
$LONGITUDE
 40
-122.394
  9
$NORTHDIRECTION
 40
0.0
  9
$TIMEZONE
 70
-8000
  9
$LIGHTGLYPHDISPLAY
280
1
  9
$TILEMODELIGHTSYNCH
280
1
  9
$CMATERIAL
347
20
  9
$SOLIDHIST
280
0
  9
$SHOWHIST
280
1
  9
$DWFFRAME
280
2
  9
$DGNFRAME
280
2
  9
$REALWORLDSCALE
290
1
  9
$INTERFERECOLOR
 62
256
  9
$CSHADOW
280
0
  9
$SHADOWPLANELOCATION
 40
0.0
  0
ENDSEC
  0
SECTION
  2
CLASSES
  0
CLASS
  1
ACDBDICTIONARYWDFLT
  2
AcDbDictionaryWithDefault
  3
ObjectDBX Classes
 90
0
 91
0
280
0
281
0
  0
CLASS
  1
SUN
  2
AcDbSun
  3
SCENEOE
 90
1153
 91
0
280
0
281
0
  0
CLASS
  1
VISUALSTYLE
  2
AcDbVisualStyle
  3
ObjectDBX Classes
 90
4095
 91
0
280
0
281
0
  0
CLASS
  1
MATERIAL
  2
AcDbMaterial
  3
ObjectDBX Classes
 90
1153
 91
0
280
0
281
0
  0
CLASS
  1
SCALE
  2
AcDbScale
  3
ObjectDBX Classes
 90
1153
 91
0
280
0
281
0
  0
CLASS
  1
TABLESTYLE
  2
AcDbTableStyle
  3
ObjectDBX Classes
 90
4095
 91
0
280
0
281
0
  0
CLASS
  1
MLEADERSTYLE
  2
AcDbMLeaderStyle
  3
ACDB_MLEADERSTYLE_CLASS
 90
4095
 91
0
280
0
281
0
  0
CLASS
  1
DICTIONARYVAR
  2
AcDbDictionaryVar
  3
ObjectDBX Classes
 90
0
 91
0
280
0
281
0
  0
CLASS
  1
CELLSTYLEMAP
  2
AcDbCellStyleMap
  3
ObjectDBX Classes
 90
1152
 91
0
280
0
281
0
  0
CLASS
  1
MENTALRAYRENDERSETTINGS
  2
AcDbMentalRayRenderSettings
  3
SCENEOE
 90
1024
 91
0
280
0
281
0
  0
CLASS
  1
ACDBDETAILVIEWSTYLE
  2
AcDbDetailViewStyle
  3
ObjectDBX Classes
 90
1025
 91
0
280
0
281
0
  0
CLASS
  1
ACDBSECTIONVIEWSTYLE
  2
AcDbSectionViewStyle
  3
ObjectDBX Classes
 90
1025
 91
0
280
0
281
0
  0
CLASS
  1
RASTERVARIABLES
  2
AcDbRasterVariables
  3
ISM
 90
0
 91
0
280
0
281
0
  0
CLASS
  1
LAYOUT
  2
AcDbLayout
  3
ObjectDBX Classes
 90
0
 91
0
280
0
281
0
  0
CLASS
  1
ACDBPLACEHOLDER
  2
AcDbPlaceHolder
  3
ObjectDBX Classes
 90
0
 91
0
280
0
281
0
  0
ENDSEC
  0
SECTION
  2
TABLES
  0
TABLE
  2
VPORT
  5
8
330
0
100
AcDbSymbolTable
 70
1
  0
VPORT
  5
23
330
8
100
AcDbSymbolTableRecord
100
AcDbViewportTableRecord
  2
*Active
 70
0
 10
0.0
 20
0.0
 11
1.0
 21
1.0
 12
0.0
 22
0.0
 13
0.0
 23
0.0
 14
0.5
 24
0.5
 15
0.5
 25
0.5
 16
0.0
 26
0.0
 36
1.0
 17
0.0
 27
0.0
 37
0.0
 40
1000.0
 41
1.34
 42
50.0
 43
0.0
 44
0.0
 50
0.0
 51
0.0
 71
0
 72
1000
 73
1
 74
3
 75
0
 76
0
 77
0
 78
0
281
0
 65
0
146
0.0
  0
ENDTAB
  0
TABLE
  2
LTYPE
  5
2
330
0
100
AcDbSymbolTable
 70
3
  0
LTYPE
  5
24
330
2
100
AcDbSymbolTableRecord
100
AcDbLinetypeTableRecord
  2
ByBlock
 70
0
  3

 72
65
 73
0
 40
0.0
  0
LTYPE
  5
25
330
2
100
AcDbSymbolTableRecord
100
AcDbLinetypeTableRecord
  2
ByLayer
 70
0
  3

 72
65
 73
0
 40
0.0
  0
LTYPE
  5
26
330
2
100
AcDbSymbolTableRecord
100
AcDbLinetypeTableRecord
  2
Continuous
 70
0
  3

 72
65
 73
0
 40
0.0
  0
ENDTAB
  0
TABLE
  2
LAYER
  5
1
330
0
100
AcDbSymbolTable
 70
5
  0
LAYER
  5
27
330
1
100
AcDbSymbolTableRecord
100
AcDbLayerTableRecord
  2
0
 70
0
 62
7
  6
Continuous
370
-3
390
13
347
21
  0
LAYER
  5
28
330
1
100
AcDbSymbolTableRecord
100
AcDbLayerTableRecord
  2
Defpoints
 70
0
 62
7
  6
Continuous
290
0
370
-3
390
13
347
21
  0
LAYER
  5
2F
330
1
100
AcDbSymbolTableRecord
100
AcDbLayerTableRecord
  2
FERO_BORDER
 70
0
 62
7
  6
Continuous
370
-3
390
13
347
21
  0
LAYER
  5
30
330
1
100
AcDbSymbolTableRecord
100
AcDbLayerTableRecord
  2
FERO_LOGO
 70
0
 62
7
  6
Continuous
370
-3
390
13
347
21
  0
LAYER
  5
31
330
1
100
AcDbSymbolTableRecord
100
AcDbLayerTableRecord
  2
FERO_TEXT
 70
0
 62
7
  6
Continuous
370
-3
390
13
347
21
  0
ENDTAB
  0
TABLE
  2
STYLE
  5
5
330
0
100
AcDbSymbolTable
 70
1
  0
STYLE
  5
29
330
5
100
AcDbSymbolTableRecord
100
AcDbTextStyleTableRecord
  2
Standard
 70
0
 40
0.0
 41
1.0
 50
0.0
 71
0
 42
2.5
  3
txt
  4

  0
ENDTAB
  0
TABLE
  2
VIEW
  5
7
330
0
100
AcDbSymbolTable
 70
0
  0
ENDTAB
  0
TABLE
  2
UCS
  5
6
330
0
100
AcDbSymbolTable
 70
0
  0
ENDTAB
  0
TABLE
  2
APPID
  5
3
330
0
100
AcDbSymbolTable
 70
3
  0
APPID
  5
2A
330
3
100
AcDbSymbolTableRecord
100
AcDbRegAppTableRecord
  2
ACAD
 70
0
  0
APPID
  5
5A
330
3
100
AcDbSymbolTableRecord
100
AcDbRegAppTableRecord
  2
HATCHBACKGROUNDCOLOR
 70
0
  0
APPID
  5
5B
330
3
100
AcDbSymbolTableRecord
100
AcDbRegAppTableRecord
  2
EZDXF
 70
0
  0
ENDTAB
  0
TABLE
  2
DIMSTYLE
  5
4
330
0
100
AcDbSymbolTable
 70
1
100
AcDbDimStyleTable
  0
DIMSTYLE
105
2B
330
4
100
AcDbSymbolTableRecord
100
AcDbDimStyleTableRecord
  2
Standard
 70
0
 40
1.0
 41
2.5
 42
0.625
 43
3.75
 44
1.25
 45
0.0
 46
0.0
 47
0.0
 48
0.0
 49
2.5
140
2.5
141
2.5
142
0.0
143
0.03937007874
144
1.0
145
0.0
146
1.0
147
0.625
148
0.0
 69
0
 70
0
 71
0
 72
0
 73
0
 74
0
 75
0
 76
0
 77
1
 78
8
 79
3
170
0
171
3
172
1
173
0
174
0
175
0
176
0
177
0
178
0
179
2
271
2
272
2
273
2
274
3
275
0
276
0
277
2
278
44
279
0
280
0
281
0
282
0
283
0
284
8
285
0
286
0
288
0
289
3
290
0
371
-2
372
-2
  0
ENDTAB
  0
TABLE
  2
BLOCK_RECORD
  5
9
330
0
100
AcDbSymbolTable
 70
2
  0
BLOCK_RECORD
  5
17
330
9
100
AcDbSymbolTableRecord
100
AcDbBlockTableRecord
  2
*Model_Space
340
1A
 70
0
280
1
281
0
  0
BLOCK_RECORD
  5
1B
330
9
100
AcDbSymbolTableRecord
100
AcDbBlockTableRecord
  2
*Paper_Space
340
1E
 70
0
280
1
281
0
  0
ENDTAB
  0
ENDSEC
  0
SECTION
  2
BLOCKS
  0
BLOCK
  5
18
330
17
100
AcDbEntity
  8
0
100
AcDbBlockBegin
  2
*Model_Space
 70
0
 10
0.0
 20
0.0
 30
0.0
  3
*Model_Space
  1

  0
ENDBLK
  5
19
330
17
100
AcDbEntity
  8
0
100
AcDbBlockEnd
  0
BLOCK
  5
1C
330
1B
100
AcDbEntity
  8
0
100
AcDbBlockBegin
  2
*Paper_Space
 70
0
 10
0.0
 20
0.0
 30
0.0
  3
*Paper_Space
  1

  0
ENDBLK
  5
1D
330
1B
100
AcDbEntity
  8
0
100
AcDbBlockEnd
  0
ENDSEC
  0
SECTION
  2
ENTITIES
  0
LWPOLYLINE
  5
32
330
17
100
AcDbEntity
  8
FERO_BORDER
100
AcDbPolyline
 90
5
 70
0
 10
0.0
 20
0.0
 10
75.0
 20
0.0
 10
75.0
 20
40.0
 10
0.0
 20
40.0
 10
0.0
 20
0.0
  0
LWPOLYLINE
  5
33
330
17
100
AcDbEntity
  8
FERO_LOGO
100
AcDbPolyline
 90
23
 70
1
 10
29.72875
 20
23.70921875
 10
29.72875
 20
23.0
 10
28.52546875
 20
23.0
 10
28.52546875
 20
23.70921875
 10
27.28267578125
 20
23.91640625
 10
26.468203125
 20
24.4290625
 10
26.01896484375
 20
25.17912109375
 10
25.86921875
 20
26.095859375
 10
26.0259375
 20
27.04580078125
 10
26.49609375
 20
27.786562500000002
 10
27.316875
 20
28.27830078125
 10
28.52546875
 20
28.478515625
 10
28.52546875
 20
29.08015625
 10
29.72875
 20
29.08015625
 10
29.72875
 20
28.478515625
 10
30.96623046875
 20
28.27265625
 10
31.780703125000002
 20
27.763984375
 10
32.23392578125
 20
27.01658203125
 10
32.385
 20
26.091875
 10
32.23458984375
 20
25.17314453125
 10
31.783359375
 20
24.425078125
 10
30.96888671875
 20
23.91541015625
 10
29.72875
 20
23.70921875
  0
LWPOLYLINE
  5
34
330
17
100
AcDbEntity
  8
FERO_LOGO
100
AcDbPolyline
 90
11
 70
1
 10
29.72875
 20
24.73453125
 10
30.176992187499998
 20
24.7750390625
 10
30.5575
 20
24.8965625
 10
30.853671875
 20
25.086484375
 10
31.04890625
 20
25.3321875
 10
31.1584765625
 20
25.66986328125
 10
31.195
 20
26.133046875
 10
31.103359375
 20
26.710615234375
 10
30.370234375000003
 20
27.370693359375
 10
29.72875
 20
27.453203125
 10
29.72875
 20
24.73453125
  0
LWPOLYLINE
  5
35
330
17
100
AcDbEntity
  8
FERO_LOGO
100
AcDbPolyline
 90
9
 70
1
 10
28.52546875
 20
24.73453125
 10
28.52546875
 20
27.453203125
 10
27.857421875
 20
27.36654296875
 10
27.40453125
 20
27.1065625
 10
27.14654296875
 20
26.67126953125
 10
27.060546875
 20
26.058671875
 10
27.1521044921875
 20
25.4793603515625
 10
27.884565429687502
 20
24.8172900390625
 10
28.52546875
 20
24.73453125
  0
LWPOLYLINE
  5
36
330
17
100
AcDbEntity
  8
FERO_LOGO
100
AcDbPolyline
 90
13
 70
1
 10
33.3737890625
 20
23.0
 10
33.3737890625
 20
29.084140625
 10
37.8854296875
 20
29.084140625
 10
37.8854296875
 20
28.05484375
 10
34.6023046875
 20
28.05484375
 10
34.6023046875
 20
26.706796875000002
 10
37.6569921875
 20
26.706796875000002
 10
37.6569921875
 20
25.681484375
 10
34.6023046875
 20
25.681484375
 10
34.6023046875
 20
24.0253125
 10
38.0009765625
 20
24.0253125
 10
38.0009765625
 20
23.0
 10
33.3737890625
 20
23.0
  0
LWPOLYLINE
  5
37
330
17
100
AcDbEntity
  8
FERO_LOGO
100
AcDbPolyline
 90
20
 70
1
 10
39.04322265625
 20
23.0
 10
39.04322265625
 20
29.084140625
 10
41.01416015625
 20
29.084140625
 10
41.93986328125
 20
29.0615625
 10
42.47509765625
 20
28.993828125
 10
42.955546874999996
 20
28.775683593750003
 10
43.350332031250005
 20
28.3975
 10
43.61529296875
 20
27.8722265625
 10
43.70361328125
 20
27.2128125
 10
43.652812499999996
 20
26.6968359375
 10
43.50041015625
 20
26.26984375
 10
43.2696484375
 20
25.92951171875
 10
42.983769531250005
 20
25.670859375
 10
42.66767578125
 20
25.48990234375
 10
42.34626953125
 20
25.38265625
 10
41.808046875
 20
25.3169140625
 10
41.072597656250004
 20
25.295
 10
40.27173828125
 20
25.295
 10
40.27173828125
 20
23.0
 10
39.04322265625
 20
23.0
  0
LWPOLYLINE
  5
38
330
17
100
AcDbEntity
  8
FERO_LOGO
100
AcDbPolyline
 90
16
 70
1
 10
40.27173828125
 20
28.05484375
 10
40.27173828125
 20
26.32828125
 10
40.94376953125
 20
26.32828125
 10
41.5497265625
 20
26.3521875
 10
41.91462890625
 20
26.42390625
 10
42.1334375
 20
26.54642578125
 10
42.29845703125
 20
26.722734375
 10
42.403046875
 20
26.9425390625
 10
42.43791015625
 20
27.195546875
 10
42.3891015625
 20
27.498359375
 10
42.24267578125
 20
27.742734375
 10
42.02154296875
 20
27.918710937500002
 10
41.74861328125
 20
28.013671875
 10
41.4182421875
 20
28.044550781250003
 10
40.86541015625
 20
28.05484375
 10
40.27173828125
 20
28.05484375
  0
LWPOLYLINE
  5
39
330
17
100
AcDbEntity
  8
FERO_LOGO
100
AcDbPolyline
 90
21
 70
1
 10
44.34609375
 20
26.005546875
 10
44.4158203125
 20
26.86052734375
 10
44.625
 20
27.56609375
 10
44.8700390625
 20
28.00703125
 10
45.19078125
 20
28.400156250000002
 10
45.566640625000005
 20
28.7215625
 10
45.97703125
 20
28.94734375
 10
46.589296875
 20
29.12763671875
 10
47.28921875
 20
29.187734375
 10
48.499140625
 20
28.97921875
 10
49.44078125
 20
28.353671875
 10
50.046406250000004
 20
27.35658203125
 10
50.248281250000005
 20
26.0334375
 10
50.04806640625
 20
24.7205859375
 10
49.447421875
 20
23.7278125
 10
48.511425781250004
 20
23.1042578125
 10
47.30515625
 20
22.89640625
 10
46.086933593750004
 20
23.10326171875
 10
45.146953125
 20
23.723828125
 10
44.54630859375
 20
24.7086328125
 10
44.34609375
 20
26.005546875
  0
LWPOLYLINE
  5
3A
330
17
100
AcDbEntity
  8
FERO_LOGO
100
AcDbPolyline
 90
17
 70
1
 10
45.611796875
 20
26.04671875
 10
45.73099609375
 20
25.13828125
 10
46.08859375
 20
24.47953125
 10
46.63080078125
 20
24.08009765625
 10
47.301171875
 20
23.946953125
 10
47.9698828125
 20
24.0791015625
 10
48.507109375
 20
24.475546875
 10
48.860722656250005
 20
25.13662109375
 10
48.97859375
 20
26.06265625
 10
48.8637109375
 20
26.97607421875
 10
48.519062500000004
 20
27.623203125
 10
47.98548828125
 20
28.0096875
 10
47.301171875
 20
28.138515625
 10
46.615195312500006
 20
28.00802734375
 10
46.076640625
 20
27.6165625
 10
45.7280078125
 20
26.963789062500002
 10
45.611796875
 20
26.04671875
  0
LWPOLYLINE
  5
3B
330
17
100
AcDbEntity
  8
FERO_LOGO
100
AcDbPolyline
 90
23
 70
1
 10
22.84575
 20
18.64184375
 10
22.84575
 20
18.5
 10
22.60509375
 20
18.5
 10
22.60509375
 20
18.64184375
 10
22.35653515625
 20
18.68328125
 10
22.193640625
 20
18.7858125
 10
22.10379296875
 20
18.93582421875
 10
22.07384375
 20
19.119171875
 10
22.1051875
 20
19.30916015625
 10
22.19921875
 20
19.4573125
 10
22.363375
 20
19.55566015625
 10
22.60509375
 20
19.595703125
 10
22.60509375
 20
19.71603125
 10
22.84575
 20
19.71603125
 10
22.84575
 20
19.595703125
 10
23.09324609375
 20
19.55453125
 10
23.256140625
 20
19.452796875
 10
23.34678515625
 20
19.30331640625
 10
23.377
 20
19.118375
 10
23.34691796875
 20
18.93462890625
 10
23.256671875
 20
18.785015625
 10
23.09377734375
 20
18.68308203125
 10
22.84575
 20
18.64184375
  0
LWPOLYLINE
  5
3C
330
17
100
AcDbEntity
  8
FERO_LOGO
100
AcDbPolyline
 90
10
 70
1
 10
22.84575
 20
18.84690625
 10
22.9353984375
 20
18.8550078125
 10
23.0115
 20
18.8793125
 10
23.070734375
 20
18.917296875
 10
23.10978125
 20
18.9664375
 10
23.1316953125
 20
19.03397265625
 10
23.139
 20
19.126609375
 10
23.0656875
 20
19.3246328125
 10
22.84575
 20
19.390640625
 10
22.84575
 20
18.84690625
  0
LWPOLYLINE
  5
3D
330
17
100
AcDbEntity
  8
FERO_LOGO
100
AcDbPolyline
 90
8
 70
1
 10
22.60509375
 20
18.84690625
 10
22.60509375
 20
19.390640625
 10
22.471484375
 20
19.37330859375
 10
22.38090625
 20
19.3213125
 10
22.32930859375
 20
19.23425390625
 10
22.312109375
 20
19.111734375
 10
22.38535546875
 20
18.91311328125
 10
22.60509375
 20
18.84690625
  0
LWPOLYLINE
  5
3E
330
17
100
AcDbEntity
  8
FERO_LOGO
100
AcDbPolyline
 90
9
 70
1
 10
24.6295546875
 20
18.5
 10
24.3623359375
 20
18.5
 10
24.2560859375
 20
18.776515625000002
 10
23.7694609375
 20
18.776515625000002
 10
23.6690546875
 20
18.5
 10
23.4084765625
 20
18.5
 10
23.8823515625
 20
19.716828125
 10
24.1423984375
 20
19.716828125
 10
24.6295546875
 20
18.5
  0
LWPOLYLINE
  5
3F
330
17
100
AcDbEntity
  8
FERO_LOGO
100
AcDbPolyline
 90
4
 70
1
 10
24.1771953125
 20
18.981578125
 10
24.0095859375
 20
19.433140625
 10
23.8451640625
 20
18.981578125
 10
24.1771953125
 20
18.981578125
  0
LWPOLYLINE
  5
40
330
17
100
AcDbEntity
  8
FERO_LOGO
100
AcDbPolyline
 90
35
 70
1
 10
25.495990234375
 20
18.9473125
 10
25.734255859375
 20
18.871875
 10
25.661341796875
 20
18.6982890625
 10
25.552037109375
 20
18.57596875
 10
25.407470703125
 20
18.503453125
 10
25.228771484375
 20
18.47928125
 10
25.007837890625
 20
18.52065234375
 10
24.830068359375
 20
18.644765625
 10
24.713126953125
 20
18.84086328125
 10
24.674146484375
 20
19.09765625
 10
24.713326171875
 20
19.36753125
 10
24.830865234375
 20
19.56940625
 10
25.012552734375
 20
19.69551171875
 10
25.243646484375
 20
19.737546875
 10
25.446052734375
 20
19.704609375
 10
25.606490234375002
 20
19.605796875
 10
25.679005859375
 20
19.510703125
 10
25.730802734375
 20
19.381609375
 10
25.487755859375
 20
19.3234375
 10
25.454287109375002
 20
19.4080390625
 10
25.397443359375
 20
19.47271875
 10
25.321740234375
 20
19.51395703125
 10
25.231162109375
 20
19.527703125
 10
25.108642578125
 20
19.5033984375
 10
25.011490234375
 20
19.430484375
 10
24.948337890625
 20
19.3033828125
 10
24.927287109375
 20
19.115984375
 10
24.948005859375
 20
18.918359375
 10
25.010162109375
 20
18.787140625
 10
25.105720703125
 20
18.713828125
 10
25.226115234375
 20
18.689390625
 10
25.317224609375
 20
18.7049296875
 10
25.394521484375
 20
18.751546875
 10
25.455216796875
 20
18.83156640625
 10
25.495990234375
 20
18.9473125
  0
LWPOLYLINE
  5
41
330
17
100
AcDbEntity
  8
FERO_LOGO
100
AcDbPolyline
 90
9
 70
1
 10
26.99992578125
 20
18.5
 10
26.73270703125
 20
18.5
 10
26.62645703125
 20
18.776515625000002
 10
26.139832031250002
 20
18.776515625000002
 10
26.03942578125
 20
18.5
 10
25.77884765625
 20
18.5
 10
26.25272265625
 20
19.716828125
 10
26.51276953125
 20
19.716828125
 10
26.99992578125
 20
18.5
  0
LWPOLYLINE
  5
42
330
17
100
AcDbEntity
  8
FERO_LOGO
100
AcDbPolyline
 90
4
 70
1
 10
26.54756640625
 20
18.981578125
 10
26.37995703125
 20
19.433140625
 10
26.21553515625
 20
18.981578125
 10
26.54756640625
 20
18.981578125
  0
LWPOLYLINE
  5
43
330
17
100
AcDbEntity
  8
FERO_LOGO
100
AcDbPolyline
 90
17
 70
1
 10
27.291814453125
 20
19.716828125
 10
28.132783203125
 20
19.716828125
 10
28.132783203125
 20
18.704265625
 10
28.239830078125
 20
18.704265625
 10
28.239830078125
 20
18.234375
 10
28.035564453125
 20
18.234375
 10
28.035564453125
 20
18.5
 10
27.269501953125
 20
18.5
 10
27.269501953125
 20
18.234375
 10
27.065236328125
 20
18.234375
 10
27.065236328125
 20
18.704265625
 10
27.168298828125
 20
18.704265625
 10
27.230853515625
 20
18.87273828125
 10
27.267642578125
 20
19.0663125
 10
27.285771484375
 20
19.29999609375
 10
27.291814453125
 20
19.588265625
 10
27.291814453125
 20
19.716828125
  0
LWPOLYLINE
  5
44
330
17
100
AcDbEntity
  8
FERO_LOGO
100
AcDbPolyline
 90
6
 70
1
 10
27.526095703125
 20
19.512828125
 10
27.500994140625
 20
19.033375
 10
27.425689453125
 20
18.704265625
 10
27.887876953125
 20
18.704265625
 10
27.887876953125
 20
19.512828125
 10
27.526095703125
 20
19.512828125
  0
LWPOLYLINE
  5
45
330
17
100
AcDbEntity
  8
FERO_LOGO
100
AcDbPolyline
 90
13
 70
1
 10
28.405945312500002
 20
18.5
 10
28.405945312500002
 20
19.716828125
 10
28.6516484375
 20
19.716828125
 10
28.6516484375
 20
19.23790625
 10
29.132960937500002
 20
19.23790625
 10
29.132960937500002
 20
19.716828125
 10
29.3786640625
 20
19.716828125
 10
29.3786640625
 20
18.5
 10
29.132960937500002
 20
18.5
 10
29.132960937500002
 20
19.032046875
 10
28.6516484375
 20
19.032046875
 10
28.6516484375
 20
18.5
 10
28.405945312500002
 20
18.5
  0
LWPOLYLINE
  5
46
330
17
100
AcDbEntity
  8
FERO_LOGO
100
AcDbPolyline
 90
18
 70
1
 10
29.639474609375
 20
19.716828125
 10
29.885177734375
 20
19.716828125
 10
29.885177734375
 20
19.23046875
 10
30.213755859375
 20
19.23046875
 10
30.334283203125
 20
19.22163671875
 10
30.436615234375
 20
19.195140625
 10
30.522279296875
 20
19.14593359375
 10
30.592271484375
 20
19.06896875
 10
30.639087890625
 20
18.9713515625
 10
30.654693359375003
 20
18.8601875
 10
30.638490234375002
 20
18.74523828125
 10
30.589880859375
 20
18.647421875
 10
30.521416015625
 20
18.5731796875
 10
30.445646484375
 20
18.528953125
 10
30.348095703125
 20
18.50723828125
 10
30.213755859375
 20
18.5
 10
29.639474609375
 20
18.5
 10
29.639474609375
 20
19.716828125
  0
LWPOLYLINE
  5
47
330
17
100
AcDbEntity
  8
FERO_LOGO
100
AcDbPolyline
 90
14
 70
1
 10
29.885177734375
 20
18.704265625
 10
30.125037109375
 20
18.704265625
 10
30.222189453125
 20
18.7070546875
 10
30.284677734375002
 20
18.715421875
 10
30.327509765625003
 20
18.73375
 10
30.365162109375
 20
18.766421875
 10
30.391658203125
 20
18.8106484375
 10
30.400490234375
 20
18.863640625
 10
30.386080078125
 20
18.93476171875
 10
30.342849609375
 20
18.9855625
 10
30.262033203125
 20
19.01604296875
 10
30.134865234375
 20
19.026203125
 10
29.885177734375
 20
19.026203125
 10
29.885177734375
 20
18.704265625
  0
LWPOLYLINE
  5
48
330
17
100
AcDbEntity
  8
FERO_LOGO
100
AcDbPolyline
 90
5
 70
1
 10
30.796537109375002
 20
19.716828125
 10
31.042240234375
 20
19.716828125
 10
31.042240234375
 20
18.5
 10
30.796537109375002
 20
18.5
 10
30.796537109375002
 20
19.716828125
  0
LWPOLYLINE
  5
49
330
17
100
AcDbEntity
  8
FERO_LOGO
100
AcDbPolyline
 90
11
 70
1
 10
31.300328125
 20
19.716828125
 10
31.530359375000003
 20
19.716828125
 10
31.530359375000003
 20
18.906671875
 10
32.023359375
 20
19.716828125
 10
32.268265625
 20
19.716828125
 10
32.268265625
 20
18.5
 10
32.038234375
 20
18.5
 10
32.038234375
 20
19.294484375
 10
31.54603125
 20
18.5
 10
31.300328125
 20
18.5
 10
31.300328125
 20
19.716828125
  0
LWPOLYLINE
  5
4A
330
17
100
AcDbEntity
  8
FERO_LOGO
100
AcDbPolyline
 90
19
 70
1
 10
31.93065625
 20
20.026546875
 10
32.04434375
 20
20.026546875
 10
32.019640625
 20
19.92580859375
 10
31.9651875
 20
19.849375
 10
31.88556640625
 20
19.8011640625
 10
31.785359375
 20
19.78509375
 10
31.685351562500003
 20
19.8011640625
 10
31.605796875000003
 20
19.849375
 10
31.55127734375
 20
19.92580859375
 10
31.526375
 20
20.026546875
 10
31.6400625
 20
20.026546875
 10
31.65334375
 20
19.9748828125
 10
31.6815
 20
19.937296875
 10
31.72539453125
 20
19.9145859375
 10
31.785359375
 20
19.907015625
 10
31.84545703125
 20
19.9145859375
 10
31.88921875
 20
19.937296875
 10
31.917375
 20
19.9748828125
 10
31.93065625
 20
20.026546875
  0
LWPOLYLINE
  5
4B
330
17
100
AcDbEntity
  8
FERO_LOGO
100
AcDbPolyline
 90
11
 70
1
 10
32.994517578125
 20
19.716828125
 10
33.224548828125
 20
19.716828125
 10
33.224548828125
 20
18.906671875
 10
33.717548828125004
 20
19.716828125
 10
33.962455078125004
 20
19.716828125
 10
33.962455078125004
 20
18.5
 10
33.732423828125
 20
18.5
 10
33.732423828125
 20
19.294484375
 10
33.240220703125004
 20
18.5
 10
32.994517578125
 20
18.5
 10
32.994517578125
 20
19.716828125
  0
LWPOLYLINE
  5
4C
330
17
100
AcDbEntity
  8
FERO_LOGO
100
AcDbPolyline
 90
13
 70
1
 10
34.214001953125
 20
18.5
 10
34.214001953125
 20
19.716828125
 10
34.459705078125
 20
19.716828125
 10
34.459705078125
 20
19.23790625
 10
34.941017578125
 20
19.23790625
 10
34.941017578125
 20
19.716828125
 10
35.186720703125005
 20
19.716828125
 10
35.186720703125005
 20
18.5
 10
34.941017578125
 20
18.5
 10
34.941017578125
 20
19.032046875
 10
34.459705078125
 20
19.032046875
 10
34.459705078125
 20
18.5
 10
34.214001953125
 20
18.5
  0
LWPOLYLINE
  5
4D
330
17
100
AcDbEntity
  8
FERO_LOGO
100
AcDbPolyline
 90
82
 70
1
 10
36.205359375
 20
19.716828125
 10
36.205359375
 20
19.198859375
 10
36.25928125
 20
19.2128046875
 10
36.298328125
 20
19.244546875
 10
36.3359140625
 20
19.3113515625
 10
36.385453125
 20
19.430484375
 10
36.459296875
 20
19.58620703125
 10
36.534734375
 20
19.673000000000002
 10
36.63547265625
 20
19.71144921875
 10
36.78628125
 20
19.724265625
 10
36.79949609375
 20
19.72453125
 10
36.822140625
 20
19.725328125
 10
36.822140625
 20
19.543375
 10
36.78628125
 20
19.544171875
 10
36.7216015625
 20
19.5395234375
 10
36.67684375
 20
19.525578125
 10
36.64530078125
 20
19.5020703125
 10
36.620265625
 20
19.468734375
 10
36.593570312500006
 20
19.41036328125
 10
36.556515625
 20
19.31175
 10
36.5330078125
 20
19.25391015625
 10
36.507640625
 20
19.206296875
 10
36.471515625
 20
19.1652578125
 10
36.415203125000005
 20
19.126609375
 10
36.49030859375
 20
19.0911484375
 10
36.5509375
 20
19.032578125
 10
36.60718359375
 20
18.94777734375
 10
36.668609375
 20
18.833625
 10
36.834625
 20
18.5
 10
36.545625
 20
18.5
 10
36.39953125
 20
18.8145
 10
36.39481640625
 20
18.82426171875
 10
36.385453125
 20
18.840265625
 10
36.37462890625
 20
18.8608515625
 10
36.3554375
 20
18.897640625
 10
36.3130703125
 20
18.9689609375
 10
36.2789375
 20
19.008671875
 10
36.24566796875
 20
19.02680078125
 10
36.205359375
 20
19.03284375
 10
36.205359375
 20
18.5
 10
35.9655
 20
18.5
 10
35.9655
 20
19.03284375
 10
35.925921875
 20
19.027
 10
35.8921875
 20
19.00946875
 10
35.85785546875
 20
18.96995703125
 10
35.815953125
 20
18.897640625
 10
35.795433593750005
 20
18.858328125
 10
35.78540625
 20
18.840265625
 10
35.77796875
 20
18.82758203125
 10
35.7710625
 20
18.8145
 10
35.62496875
 20
18.5
 10
35.336234375000004
 20
18.5
 10
35.502250000000004
 20
18.833625
 10
35.5618828125
 20
18.94458984375
 10
35.6180625
 20
19.029921875
 10
35.6798203125
 20
19.090484375
 10
35.7561875
 20
19.126609375
 10
35.69980859375
 20
19.16519140625
 10
35.663484375
 20
19.20603125
 10
35.63818359375
 20
19.2534453125
 10
35.61434375
 20
19.31175
 10
35.577953125
 20
19.40876953125
 10
35.55165625
 20
19.467140625
 10
35.52688671875
 20
19.501140625
 10
35.495078125
 20
19.525046875
 10
35.448859375
 20
19.539390625
 10
35.380328125
 20
19.544171875
 10
35.367378906249996
 20
19.54397265625
 10
35.34871875
 20
19.543375
 10
35.34871875
 20
19.725328125
 10
35.371296875
 20
19.72453125
 10
35.3843125
 20
19.724265625
 10
35.537046875
 20
19.71125
 10
35.63825
 20
19.672203125
 10
35.712492187500004
 20
19.5852109375
 10
35.78540625
 20
19.430484375
 10
35.835410156250006
 20
19.3108203125
 10
35.872796875
 20
19.244015625
 10
35.91151171875
 20
19.212671875
 10
35.9655
 20
19.198859375
 10
35.9655
 20
19.716828125
 10
36.205359375
 20
19.716828125
  0
LWPOLYLINE
  5
4E
330
17
100
AcDbEntity
  8
FERO_LOGO
100
AcDbPolyline
 90
11
 70
1
 10
36.980552734375
 20
19.716828125
 10
37.210583984375
 20
19.716828125
 10
37.210583984375
 20
18.906671875
 10
37.703583984375
 20
19.716828125
 10
37.948490234375
 20
19.716828125
 10
37.948490234375
 20
18.5
 10
37.718458984375005
 20
18.5
 10
37.718458984375005
 20
19.294484375
 10
37.226255859375
 20
18.5
 10
36.980552734375
 20
18.5
 10
36.980552734375
 20
19.716828125
  0
LWPOLYLINE
  5
4F
330
17
100
AcDbEntity
  8
FERO_LOGO
100
AcDbPolyline
 90
13
 70
1
 10
38.200037109375
 20
18.5
 10
38.200037109375
 20
19.716828125
 10
38.445740234375
 20
19.716828125
 10
38.445740234375
 20
19.23790625
 10
38.927052734374996
 20
19.23790625
 10
38.927052734374996
 20
19.716828125
 10
39.172755859375
 20
19.716828125
 10
39.172755859375
 20
18.5
 10
38.927052734374996
 20
18.5
 10
38.927052734374996
 20
19.032046875
 10
38.445740234375
 20
19.032046875
 10
38.445740234375
 20
18.5
 10
38.200037109375
 20
18.5
  0
LWPOLYLINE
  5
50
330
17
100
AcDbEntity
  8
FERO_LOGO
100
AcDbPolyline
 90
11
 70
1
 10
39.43011328125
 20
19.716828125
 10
39.66014453125
 20
19.716828125
 10
39.66014453125
 20
18.906671875
 10
40.15314453125
 20
19.716828125
 10
40.39805078125001
 20
19.716828125
 10
40.39805078125001
 20
18.5
 10
40.168019531249996
 20
18.5
 10
40.168019531249996
 20
19.294484375
 10
39.67581640625
 20
18.5
 10
39.43011328125
 20
18.5
 10
39.43011328125
 20
19.716828125
  0
LWPOLYLINE
  5
51
330
17
100
AcDbEntity
  8
FERO_LOGO
100
AcDbPolyline
 90
20
 70
1
 10
40.64880078125
 20
18.5
 10
40.64880078125
 20
19.716828125
 10
41.042988281250004
 20
19.716828125
 10
41.22812890625
 20
19.7123125
 10
41.33517578125
 20
19.698765625
 10
41.431265625
 20
19.65513671875
 10
41.51022265625
 20
19.5795
 10
41.56321484375
 20
19.4744453125
 10
41.58087890625
 20
19.3425625
 10
41.57071875
 20
19.2393671875
 10
41.54023828125
 20
19.15396875
 10
41.4940859375
 20
19.08590234375
 10
41.43691015625
 20
19.034171875
 10
41.37369140625
 20
18.99798046875
 10
41.30941015625
 20
18.97653125
 10
41.201765625
 20
18.9633828125
 10
41.05467578125
 20
18.959
 10
40.89450390625
 20
18.959
 10
40.89450390625
 20
18.5
 10
40.64880078125
 20
18.5
  0
LWPOLYLINE
  5
52
330
17
100
AcDbEntity
  8
FERO_LOGO
100
AcDbPolyline
 90
16
 70
1
 10
40.89450390625
 20
19.51096875
 10
40.89450390625
 20
19.16565625
 10
41.02891015625001
 20
19.16565625
 10
41.150101562500005
 20
19.1704375
 10
41.22308203125
 20
19.18478125
 10
41.26684375
 20
19.20928515625
 10
41.29984765625
 20
19.244546875
 10
41.320765625
 20
19.2885078125
 10
41.32773828125001
 20
19.339109375
 10
41.3179765625
 20
19.399671875
 10
41.28869140625
 20
19.448546875
 10
41.24446484375
 20
19.4837421875
 10
41.18987890625
 20
19.502734375
 10
41.1238046875
 20
19.50891015625
 10
41.01323828125
 20
19.51096875
 10
40.89450390625
 20
19.51096875
  0
LWPOLYLINE
  5
53
330
17
100
AcDbEntity
  8
FERO_LOGO
100
AcDbPolyline
 90
11
 70
1
 10
41.785875000000004
 20
19.716828125
 10
42.01590625
 20
19.716828125
 10
42.01590625
 20
18.906671875
 10
42.50890625
 20
19.716828125
 10
42.7538125
 20
19.716828125
 10
42.7538125
 20
18.5
 10
42.52378125
 20
18.5
 10
42.52378125
 20
19.294484375
 10
42.031578125
 20
18.5
 10
41.785875000000004
 20
18.5
 10
41.785875000000004
 20
19.716828125
  0
LWPOLYLINE
  5
54
330
17
100
AcDbEntity
  8
FERO_LOGO
100
AcDbPolyline
 90
13
 70
1
 10
43.005359375
 20
18.5
 10
43.005359375
 20
19.716828125
 10
43.2510625
 20
19.716828125
 10
43.2510625
 20
19.23790625
 10
43.732375000000005
 20
19.23790625
 10
43.732375000000005
 20
19.716828125
 10
43.978078125
 20
19.716828125
 10
43.978078125
 20
18.5
 10
43.732375000000005
 20
18.5
 10
43.732375000000005
 20
19.032046875
 10
43.2510625
 20
19.032046875
 10
43.2510625
 20
18.5
 10
43.005359375
 20
18.5
  0
LWPOLYLINE
  5
55
330
17
100
AcDbEntity
  8
FERO_LOGO
100
AcDbPolyline
 90
7
 70
1
 10
44.244732421875
 20
19.716828125
 10
45.068966796875
 20
19.716828125
 10
45.068966796875
 20
19.512828125
 10
44.490435546875005
 20
19.512828125
 10
44.490435546875005
 20
18.5
 10
44.244732421875
 20
18.5
 10
44.244732421875
 20
19.716828125
  0
TEXT
  5
56
330
17
100
AcDbEntity
  8
FERO_TEXT
100
AcDbText
 10
37.5
 20
11.5
 30
0.0
 40
2.2
  1
В ПРОИЗВОДСТВО РАБОТ
 72
1
 11
37.5
 21
11.5
 31
0.0
100
AcDbText
  0
LINE
  5
57
330
17
100
AcDbEntity
  8
FERO_BORDER
100
AcDbLine
 10
3.0
 20
7.0
 30
0.0
 11
72.0
 21
7.0
 31
0.0
  0
TEXT
  5
58
330
17
100
AcDbEntity
  8
FERO_TEXT
100
AcDbText
 10
4.0
 20
2.5
 30
0.0
 40
1.6
  1
Инженер ОТО: _________
 11
4.0
 21
2.5
 31
0.0
100
AcDbText
  0
TEXT
  5
59
330
17
100
AcDbEntity
  8
FERO_TEXT
100
AcDbText
 10
50.0
 20
2.5
 30
0.0
 40
1.6
  1
«___» _______ 2026 г.
 11
50.0
 21
2.5
 31
0.0
100
AcDbText
  0
ENDSEC
  0
SECTION
  2
OBJECTS
  0
DICTIONARY
  5
A
330
0
100
AcDbDictionary
281
1
  3
ACAD_COLOR
350
B
  3
ACAD_GROUP
350
C
  3
ACAD_LAYOUT
350
D
  3
ACAD_MATERIAL
350
E
  3
ACAD_MLEADERSTYLE
350
F
  3
ACAD_MLINESTYLE
350
10
  3
ACAD_PLOTSETTINGS
350
11
  3
ACAD_PLOTSTYLENAME
350
12
  3
ACAD_SCALELIST
350
14
  3
ACAD_TABLESTYLE
350
15
  3
ACAD_VISUALSTYLE
350
16
  3
EZDXF_META
350
2D
  0
DICTIONARY
  5
B
330
A
100
AcDbDictionary
281
1
  0
DICTIONARY
  5
C
330
A
100
AcDbDictionary
281
1
  0
DICTIONARY
  5
D
330
A
100
AcDbDictionary
281
1
  3
Model
350
1A
  3
Layout1
350
1E
  0
DICTIONARY
  5
E
330
A
100
AcDbDictionary
281
1
  3
ByBlock
350
1F
  3
ByLayer
350
20
  3
Global
350
21
  0
DICTIONARY
  5
F
330
A
100
AcDbDictionary
281
1
  3
Standard
350
2C
  0
DICTIONARY
  5
10
330
A
100
AcDbDictionary
281
1
  3
Standard
350
22
  0
DICTIONARY
  5
11
330
A
100
AcDbDictionary
281
1
  0
ACDBDICTIONARYWDFLT
  5
12
330
A
100
AcDbDictionary
281
1
  3
Normal
350
13
100
AcDbDictionaryWithDefault
340
13
  0
ACDBPLACEHOLDER
  5
13
330
12
  0
DICTIONARY
  5
14
330
A
100
AcDbDictionary
281
1
  0
DICTIONARY
  5
15
330
A
100
AcDbDictionary
281
1
  0
DICTIONARY
  5
16
330
A
100
AcDbDictionary
281
1
  0
LAYOUT
  5
1A
330
D
100
AcDbPlotSettings
  1

  4
A3
  6

 40
7.5
 41
20.0
 42
7.5
 43
20.0
 44
420.0
 45
297.0
 46
0.0
 47
0.0
 48
0.0
 49
0.0
140
0.0
141
0.0
142
1.0
143
1.0
 70
1024
 72
1
 73
0
 74
5
  7

 75
16
 76
0
 77
2
 78
300
147
1.0
148
0.0
149
0.0
100
AcDbLayout
  1
Model
 70
1
 71
0
 10
0.0
 20
0.0
 11
420.0
 21
297.0
 12
0.0
 22
0.0
 32
0.0
 14
1e+20
 24
1e+20
 34
1e+20
 15
-1e+20
 25
-1e+20
 35
-1e+20
146
0.0
 13
0.0
 23
0.0
 33
0.0
 16
1.0
 26
0.0
 36
0.0
 17
0.0
 27
1.0
 37
0.0
 76
1
330
17
  0
LAYOUT
  5
1E
330
D
100
AcDbPlotSettings
  1

  4
A3
  6

 40
7.5
 41
20.0
 42
7.5
 43
20.0
 44
420.0
 45
297.0
 46
0.0
 47
0.0
 48
0.0
 49
0.0
140
0.0
141
0.0
142
1.0
143
1.0
 70
0
 72
1
 73
0
 74
5
  7

 75
16
 76
0
 77
2
 78
300
147
1.0
148
0.0
149
0.0
100
AcDbLayout
  1
Layout1
 70
1
 71
1
 10
0.0
 20
0.0
 11
420.0
 21
297.0
 12
0.0
 22
0.0
 32
0.0
 14
1e+20
 24
1e+20
 34
1e+20
 15
-1e+20
 25
-1e+20
 35
-1e+20
146
0.0
 13
0.0
 23
0.0
 33
0.0
 16
1.0
 26
0.0
 36
0.0
 17
0.0
 27
1.0
 37
0.0
 76
1
330
1B
  0
MATERIAL
  5
1F
102
{ACAD_REACTORS
330
E
102
}
330
E
100
AcDbMaterial
  1
ByBlock
  2

 70
0
 40
1.0
 71
1
 41
1.0
 91
-1023410177
 42
1.0
 72
1
  3

 73
1
 74
1
 75
1
 44
0.5
 73
0
 45
1.0
 46
1.0
 77
1
  4

 78
1
 79
1
170
1
 48
1.0
171
1
  6

172
1
173
1
174
1
140
1.0
141
1.0
175
1
  7

176
1
177
1
178
1
143
1.0
179
1
  8

270
1
271
1
272
1
145
1.0
146
1.0
273
1
  9

274
1
275
1
276
1
 42
1.0
 72
1
  3

 73
1
 74
1
 75
1
 94
63
  0
MATERIAL
  5
20
102
{ACAD_REACTORS
330
E
102
}
330
E
100
AcDbMaterial
  1
ByLayer
  2

 70
0
 40
1.0
 71
1
 41
1.0
 91
-1023410177
 42
1.0
 72
1
  3

 73
1
 74
1
 75
1
 44
0.5
 73
0
 45
1.0
 46
1.0
 77
1
  4

 78
1
 79
1
170
1
 48
1.0
171
1
  6

172
1
173
1
174
1
140
1.0
141
1.0
175
1
  7

176
1
177
1
178
1
143
1.0
179
1
  8

270
1
271
1
272
1
145
1.0
146
1.0
273
1
  9

274
1
275
1
276
1
 42
1.0
 72
1
  3

 73
1
 74
1
 75
1
 94
63
  0
MATERIAL
  5
21
102
{ACAD_REACTORS
330
E
102
}
330
E
100
AcDbMaterial
  1
Global
  2

 70
0
 40
1.0
 71
1
 41
1.0
 91
-1023410177
 42
1.0
 72
1
  3

 73
1
 74
1
 75
1
 44
0.5
 73
0
 45
1.0
 46
1.0
 77
1
  4

 78
1
 79
1
170
1
 48
1.0
171
1
  6

172
1
173
1
174
1
140
1.0
141
1.0
175
1
  7

176
1
177
1
178
1
143
1.0
179
1
  8

270
1
271
1
272
1
145
1.0
146
1.0
273
1
  9

274
1
275
1
276
1
 42
1.0
 72
1
  3

 73
1
 74
1
 75
1
 94
63
  0
MLINESTYLE
  5
22
102
{ACAD_REACTORS
330
10
102
}
330
10
100
AcDbMlineStyle
  2
Standard
 70
0
  3

 62
256
 51
90.0
 52
90.0
 71
2
 49
0.5
 62
256
  6
BYLAYER
 49
-0.5
 62
256
  6
BYLAYER
  0
MLEADERSTYLE
  5
2C
102
{ACAD_REACTORS
330
F
102
}
330
F
100
AcDbMLeaderStyle
179
2
170
2
171
1
172
0
 90
2
 40
0.0
 41
0.0
173
1
 91
-1056964608
 92
-2
290
1
 42
2.0
291
1
 43
8.0
  3
Standard
 44
4.0
300

342
29
174
1
175
1
176
0
178
1
 93
-1056964608
 45
4.0
292
0
297
0
 46
4.0
 94
-1056964608
 47
1.0
 49
1.0
140
1.0
294
1
141
0.0
177
0
142
1.0
295
0
296
0
143
3.75
271
0
272
9
273
9
  0
DICTIONARY
  5
2D
330
A
100
AcDbDictionary
280
1
281
1
  3
CREATED_BY_EZDXF
350
2E
  3
WRITTEN_BY_EZDXF
350
5C
  0
DICTIONARYVAR
  5
2E
330
2D
100
DictionaryVariables
280
0
  1
1.4.4 @ 2026-09-14T08:32:43.397041+00:00
  0
DICTIONARYVAR
  5
5C
330
2D
100
DictionaryVariables
280
0
  1
1.4.4 @ 2026-09-14T08:32:43.415563+00:00
  0
ENDSEC
  0
EOF
