  0
SECTION
  2
HEADER
  9
$ACADVER
  1
AC1024
  9
$ACADMAINTVER
 70
6
  9
$DWGCODEPAGE
  3
ANSI_1252
  9
$LASTSAVEDBY
  1
ezdxf
  9
$INSBASE
 10
0.0
 20
0.0
 30
0.0
  9
$EXTMIN
 10
1e+20
 20
1e+20
 30
1e+20
  9
$EXTMAX
 10
-1e+20
 20
-1e+20
 30
-1e+20
  9
$LIMMIN
 10
0.0
 20
0.0
  9
$LIMMAX
 10
420.0
 20
297.0
  9
$ORTHOMODE
 70
0
  9
$REGENMODE
 70
1
  9
$FILLMODE
 70
1
  9
$QTEXTMODE
 70
0
  9
$MIRRTEXT
 70
1
  9
$LTSCALE
 40
1.0
  9
$ATTMODE
 70
1
  9
$TEXTSIZE
 40
2.5
  9
$TRACEWID
 40
1.0
  9
$TEXTSTYLE
  7
Standard
  9
$CLAYER
  8
0
  9
$CELTYPE
  6
ByLayer
  9
$CECOLOR
 62
256
  9
$CELTSCALE
 40
1.0
  9
$DISPSILH
 70
0
  9
$DIMSCALE
 40
1.0
  9
$DIMASZ
 40
2.5
  9
$DIMEXO
 40
0.625
  9
$DIMDLI
 40
3.75
  9
$DIMRND
 40
0.0
  9
$DIMDLE
 40
0.0
  9
$DIMEXE
 40
1.25
  9
$DIMTP
 40
0.0
  9
$DIMTM
 40
0.0
  9
$DIMTXT
 40
2.5
  9
$DIMCEN
 40
2.5
  9
$DIMTSZ
 40
0.0
  9
$DIMTOL
 70
0
  9
$DIMLIM
 70
0
  9
$DIMTIH
 70
0
  9
$DIMTOH
 70
0
  9
$DIMSE1
 70
0
  9
$DIMSE2
 70
0
  9
$DIMTAD
 70
1
  9
$DIMZIN
 70
8
  9
$DIMBLK
  1

  9
$DIMASO
 70
1
  9
$DIMSHO
 70
1
  9
$DIMPOST
  1

  9
$DIMAPOST
  1

  9
$DIMALT
 70
0
  9
$DIMALTD
 70
3
  9
$DIMALTF
 40
0.03937007874
  9
$DIMLFAC
 40
1.0
  9
$DIMTOFL
 70
1
  9
$DIMTVP
 40
0.0
  9
$DIMTIX
 70
0
  9
$DIMSOXD
 70
0
  9
$DIMSAH
 70
0
  9
$DIMBLK1
  1

  9
$DIMBLK2
  1

  9
$DIMSTYLE
  2
ISO-25
  9
$DIMCLRD
 70
0
  9
$DIMCLRE
 70
0
  9
$DIMCLRT
 70
0
  9
$DIMTFAC
 40
1.0
  9
$DIMGAP
 40
0.625
  9
$DIMJUST
 70
0
  9
$DIMSD1
 70
0
  9
$DIMSD2
 70
0
  9
$DIMTOLJ
 70
0
  9
$DIMTZIN
 70
8
  9
$DIMALTZ
 70
0
  9
$DIMALTTZ
 70
0
  9
$DIMUPT
 70
0
  9
$DIMDEC
 70
2
  9
$DIMTDEC
 70
2
  9
$DIMALTU
 70
2
  9
$DIMALTTD
 70
3
  9
$DIMTXSTY
  7
Standard
  9
$DIMAUNIT
 70
0
  9
$DIMADEC
 70
0
  9
$DIMALTRND
 40
0.0
  9
$DIMAZIN
 70
0
  9
$DIMDSEP
 70
44
  9
$DIMATFIT
 70
3
  9
$DIMFRAC
 70
0
  9
$DIMLDRBLK
  1

  9
$DIMLUNIT
 70
2
  9
$DIMLWD
 70
-2
  9
$DIMLWE
 70
-2
  9
$DIMTMOVE
 70
0
  9
$DIMFXL
 40
1.0
  9
$DIMFXLON
 70
0
  9
$DIMJOGANG
 40
0.785398163397
  9
$DIMTFILL
 70
0
  9
$DIMTFILLCLR
 70
0
  9
$DIMARCSYM
 70
0
  9
$DIMLTYPE
  6

  9
$DIMLTEX1
  6

  9
$DIMLTEX2
  6

  9
$DIMTXTDIRECTION
 70
0
  9
$LUNITS
 70
2
  9
$LUPREC
 70
4
  9
$SKETCHINC
 40
1.0
  9
$FILLETRAD
 40
10.0
  9
$AUNITS
 70
0
  9
$AUPREC
 70
2
  9
$MENU
  1
.
  9
$ELEVATION
 40
0.0
  9
$PELEVATION
 40
0.0
  9
$THICKNESS
 40
0.0
  9
$LIMCHECK
 70
0
  9
$CHAMFERA
 40
0.0
  9
$CHAMFERB
 40
0.0
  9
$CHAMFERC
 40
0.0
  9
$CHAMFERD
 40
0.0
  9
$SKPOLY
 70
0
  9
$TDCREATE
 40
2461298.4179976853
  9
$TDUCREATE
 40
2458532.153996898
  9
$TDUPDATE
 40
2461298.4179976853
  9
$TDUUPDATE
 40
2458532.1544311
  9
$TDINDWG
 40
0.0
  9
$TDUSRTIMER
 40
0.0
  9
$USRTIMER
 70
1
  9
$ANGBASE
 50
0.0
  9
$ANGDIR
 70
0
  9
$PDMODE
 70
0
  9
$PDSIZE
 40
0.0
  9
$PLINEWID
 40
0.0
  9
$SPLFRAME
 70
0
  9
$SPLINETYPE
 70
6
  9
$SPLINESEGS
 70
8
  9
$HANDSEED
  5
5C
  9
$SURFTAB1
 70
6
  9
$SURFTAB2
 70
6
  9
$SURFTYPE
 70
6
  9
$SURFU
 70
6
  9
$SURFV
 70
6
  9
$UCSBASE
  2

  9
$UCSNAME
  2

  9
$UCSORG
 10
0.0
 20
0.0
 30
0.0
  9
$UCSXDIR
 10
1.0
 20
0.0
 30
0.0
  9
$UCSYDIR
 10
0.0
 20
1.0
 30
0.0
  9
$UCSORTHOREF
  2

  9
$UCSORTHOVIEW
 70
0
  9
$UCSORGTOP
 10
0.0
 20
0.0
 30
0.0
  9
$UCSORGBOTTOM
 10
0.0
 20
0.0
 30
0.0
  9
$UCSORGLEFT
 10
0.0
 20
0.0
 30
0.0
  9
$UCSORGRIGHT
 10
0.0
 20
0.0
 30
0.0
  9
$UCSORGFRONT
 10
0.0
 20
0.0
 30
0.0
  9
$UCSORGBACK
 10
0.0
 20
0.0
 30
0.0
  9
$PUCSBASE
  2

  9
$PUCSNAME
  2

  9
$PUCSORG
 10
0.0
 20
0.0
 30
0.0
  9
$PUCSXDIR
 10
1.0
 20
0.0
 30
0.0
  9
$PUCSYDIR
 10
0.0
 20
1.0
 30
0.0
  9
$PUCSORTHOREF
  2

  9
$PUCSORTHOVIEW
 70
0
  9
$PUCSORGTOP
 10
0.0
 20
0.0
 30
0.0
  9
$PUCSORGBOTTOM
 10
0.0
 20
0.0
 30
0.0
  9
$PUCSORGLEFT
 10
0.0
 20
0.0
 30
0.0
  9
$PUCSORGRIGHT
 10
0.0
 20
0.0
 30
0.0
  9
$PUCSORGFRONT
 10
0.0
 20
0.0
 30
0.0
  9
$PUCSORGBACK
 10
0.0
 20
0.0
 30
0.0
  9
$USERI1
 70
0
  9
$USERI2
 70
0
  9
$USERI3
 70
0
  9
$USERI4
 70
0
  9
$USERI5
 70
0
  9
$USERR1
 40
0.0
  9
$USERR2
 40
0.0
  9
$USERR3
 40
0.0
  9
$USERR4
 40
0.0
  9
$USERR5
 40
0.0
  9
$WORLDVIEW
 70
1
  9
$SHADEDGE
 70
3
  9
$SHADEDIF
 70
70
  9
$TILEMODE
 70
1
  9
$MAXACTVP
 70
64
  9
$PINSBASE
 10
0.0
 20
0.0
 30
0.0
  9
$PLIMCHECK
 70
0
  9
$PEXTMIN
 10
1e+20
 20
1e+20
 30
1e+20
  9
$PEXTMAX
 10
-1e+20
 20
-1e+20
 30
-1e+20
  9
$PLIMMIN
 10
0.0
 20
0.0
  9
$PLIMMAX
 10
420.0
 20
297.0
  9
$UNITMODE
 70
0
  9
$VISRETAIN
 70
1
  9
$PLINEGEN
 70
0
  9
$PSLTSCALE
 70
1
  9
$TREEDEPTH
 70
3020
  9
$CMLSTYLE
  2
Standard
  9
$CMLJUST
 70
0
  9
$CMLSCALE
 40
20.0
  9
$PROXYGRAPHICS
 70
1
  9
$MEASUREMENT
 70
1
  9
$CELWEIGHT
370
-1
  9
$ENDCAPS
280
0
  9
$JOINSTYLE
280
0
  9
$LWDISPLAY
290
0
  9
$INSUNITS
 70
6
  9
$HYPERLINKBASE
  1

  9
$STYLESHEET
  1

  9
$XEDIT
290
1
  9
$CEPSNTYPE
380
0
  9
$PSTYLEMODE
290
1
  9
$FINGERPRINTGUID
  2
{CC25867D-D272-407C-A883-8EE5F06158DC}
  9
$VERSIONGUID
  2
{001D0CFE-FC7A-412F-9DE8-3325A5AF9574}
  9
$EXTNAMES
290
1
  9
$PSVPSCALE
 40
0.0
  9
$OLESTARTUP
290
0
  9
$SORTENTS
280
127
  9
$INDEXCTL
280
0
  9
$HIDETEXT
280
1
  9
$XCLIPFRAME
280
1
  9
$HALOGAP
280
0
  9
$OBSCOLOR
 70
257
  9
$OBSLTYPE
280
0
  9
$INTERSECTIONDISPLAY
280
0
  9
$INTERSECTIONCOLOR
 70
257
  9
$DIMASSOC
280
2
  9
$PROJECTNAME
  1

  9
$CAMERADISPLAY
290
0
  9
$LENSLENGTH
 40
50.0
  9
$CAMERAHEIGHT
 40
0.0
  9
$STEPSPERSEC
 40
24.0
  9
$STEPSIZE
 40
100.0
  9
$3DDWFPREC
 40
2.0
  9
$PSOLWIDTH
 40
0.005
  9
$PSOLHEIGHT
 40
0.08
  9
$LOFTANG1
 40
1.570796326795
  9
$LOFTANG2
 40
1.570796326795
  9
$LOFTMAG1
 40
0.0
  9
$LOFTMAG2
 40
0.0
  9
$LOFTPARAM
 70
7
  9
$LOFTNORMALS
280
1
  9
$LATITUDE
 40
37.795
  9
$LONGITUDE
 40
-122.394
  9
$NORTHDIRECTION
 40
0.0
  9
$TIMEZONE
 70
-8000
  9
$LIGHTGLYPHDISPLAY
280
1
  9
$TILEMODELIGHTSYNCH
280
1
  9
$CMATERIAL
347
20
  9
$SOLIDHIST
280
0
  9
$SHOWHIST
280
1
  9
$DWFFRAME
280
2
  9
$DGNFRAME
280
2
  9
$REALWORLDSCALE
290
1
  9
$INTERFERECOLOR
 62
256
  9
$CSHADOW
280
0
  9
$SHADOWPLANELOCATION
 40
0.0
  0
ENDSEC
  0
SECTION
  2
CLASSES
  0
CLASS
  1
ACDBDICTIONARYWDFLT
  2
AcDbDictionaryWithDefault
  3
ObjectDBX Classes
 90
0
 91
0
280
0
281
0
  0
CLASS
  1
SUN
  2
AcDbSun
  3
SCENEOE
 90
1153
 91
0
280
0
281
0
  0
CLASS
  1
VISUALSTYLE
  2
AcDbVisualStyle
  3
ObjectDBX Classes
 90
4095
 91
0
280
0
281
0
  0
CLASS
  1
MATERIAL
  2
AcDbMaterial
  3
ObjectDBX Classes
 90
1153
 91
0
280
0
281
0
  0
CLASS
  1
SCALE
  2
AcDbScale
  3
ObjectDBX Classes
 90
1153
 91
0
280
0
281
0
  0
CLASS
  1
TABLESTYLE
  2
AcDbTableStyle
  3
ObjectDBX Classes
 90
4095
 91
0
280
0
281
0
  0
CLASS
  1
MLEADERSTYLE
  2
AcDbMLeaderStyle
  3
ACDB_MLEADERSTYLE_CLASS
 90
4095
 91
0
280
0
281
0
  0
CLASS
  1
DICTIONARYVAR
  2
AcDbDictionaryVar
  3
ObjectDBX Classes
 90
0
 91
0
280
0
281
0
  0
CLASS
  1
CELLSTYLEMAP
  2
AcDbCellStyleMap
  3
ObjectDBX Classes
 90
1152
 91
0
280
0
281
0
  0
CLASS
  1
MENTALRAYRENDERSETTINGS
  2
AcDbMentalRayRenderSettings
  3
SCENEOE
 90
1024
 91
0
280
0
281
0
  0
CLASS
  1
ACDBDETAILVIEWSTYLE
  2
AcDbDetailViewStyle
  3
ObjectDBX Classes
 90
1025
 91
0
280
0
281
0
  0
CLASS
  1
ACDBSECTIONVIEWSTYLE
  2
AcDbSectionViewStyle
  3
ObjectDBX Classes
 90
1025
 91
0
280
0
281
0
  0
CLASS
  1
RASTERVARIABLES
  2
AcDbRasterVariables
  3
ISM
 90
0
 91
0
280
0
281
0
  0
CLASS
  1
ACDBPLACEHOLDER
  2
AcDbPlaceHolder
  3
ObjectDBX Classes
 90
0
 91
0
280
0
281
0
  0
CLASS
  1
LAYOUT
  2
AcDbLayout
  3
ObjectDBX Classes
 90
0
 91
0
280
0
281
0
  0
ENDSEC
  0
SECTION
  2
TABLES
  0
TABLE
  2
VPORT
  5
8
330
0
100
AcDbSymbolTable
 70
1
  0
VPORT
  5
23
330
8
100
AcDbSymbolTableRecord
100
AcDbViewportTableRecord
  2
*Active
 70
0
 10
0.0
 20
0.0
 11
1.0
 21
1.0
 12
0.0
 22
0.0
 13
0.0
 23
0.0
 14
0.5
 24
0.5
 15
0.5
 25
0.5
 16
0.0
 26
0.0
 36
1.0
 17
0.0
 27
0.0
 37
0.0
 40
1000.0
 41
1.34
 42
50.0
 43
0.0
 44
0.0
 50
0.0
 51
0.0
 71
0
 72
1000
 73
1
 74
3
 75
0
 76
0
 77
0
 78
0
281
0
 65
0
146
0.0
  0
ENDTAB
  0
TABLE
  2
LTYPE
  5
2
330
0
100
AcDbSymbolTable
 70
3
  0
LTYPE
  5
24
330
2
100
AcDbSymbolTableRecord
100
AcDbLinetypeTableRecord
  2
ByBlock
 70
0
  3

 72
65
 73
0
 40
0.0
  0
LTYPE
  5
25
330
2
100
AcDbSymbolTableRecord
100
AcDbLinetypeTableRecord
  2
ByLayer
 70
0
  3

 72
65
 73
0
 40
0.0
  0
LTYPE
  5
26
330
2
100
AcDbSymbolTableRecord
100
AcDbLinetypeTableRecord
  2
Continuous
 70
0
  3

 72
65
 73
0
 40
0.0
  0
ENDTAB
  0
TABLE
  2
LAYER
  5
1
330
0
100
AcDbSymbolTable
 70
4
  0
LAYER
  5
27
330
1
100
AcDbSymbolTableRecord
100
AcDbLayerTableRecord
  2
0
 70
0
 62
7
  6
Continuous
370
-3
390
13
347
21
  0
LAYER
  5
28
330
1
100
AcDbSymbolTableRecord
100
AcDbLayerTableRecord
  2
Defpoints
 70
0
 62
7
  6
Continuous
290
0
370
-3
390
13
347
21
  0
LAYER
  5
2F
330
1
100
AcDbSymbolTableRecord
100
AcDbLayerTableRecord
  2
FERO_OUTLINE
 70
0
 62
7
  6
Continuous
370
-3
390
13
347
21
  0
LAYER
  5
30
330
1
100
AcDbSymbolTableRecord
100
AcDbLayerTableRecord
  2
FERO_SUN
 70
0
 62
7
  6
Continuous
370
-3
390
13
347
21
  0
ENDTAB
  0
TABLE
  2
STYLE
  5
5
330
0
100
AcDbSymbolTable
 70
1
  0
STYLE
  5
29
330
5
100
AcDbSymbolTableRecord
100
AcDbTextStyleTableRecord
  2
Standard
 70
0
 40
0.0
 41
1.0
 50
0.0
 71
0
 42
2.5
  3
txt
  4

  0
ENDTAB
  0
TABLE
  2
VIEW
  5
7
330
0
100
AcDbSymbolTable
 70
0
  0
ENDTAB
  0
TABLE
  2
UCS
  5
6
330
0
100
AcDbSymbolTable
 70
0
  0
ENDTAB
  0
TABLE
  2
APPID
  5
3
330
0
100
AcDbSymbolTable
 70
3
  0
APPID
  5
2A
330
3
100
AcDbSymbolTableRecord
100
AcDbRegAppTableRecord
  2
ACAD
 70
0
  0
APPID
  5
59
330
3
100
AcDbSymbolTableRecord
100
AcDbRegAppTableRecord
  2
HATCHBACKGROUNDCOLOR
 70
0
  0
APPID
  5
5A
330
3
100
AcDbSymbolTableRecord
100
AcDbRegAppTableRecord
  2
EZDXF
 70
0
  0
ENDTAB
  0
TABLE
  2
DIMSTYLE
  5
4
330
0
100
AcDbSymbolTable
 70
1
100
AcDbDimStyleTable
  0
DIMSTYLE
105
2B
330
4
100
AcDbSymbolTableRecord
100
AcDbDimStyleTableRecord
  2
Standard
 70
0
 40
1.0
 41
2.5
 42
0.625
 43
3.75
 44
1.25
 45
0.0
 46
0.0
 47
0.0
 48
0.0
 49
2.5
140
2.5
141
2.5
142
0.0
143
0.03937007874
144
1.0
145
0.0
146
1.0
147
0.625
148
0.0
 69
0
 70
0
 71
0
 72
0
 73
0
 74
0
 75
0
 76
0
 77
1
 78
8
 79
3
170
0
171
3
172
1
173
0
174
0
175
0
176
0
177
0
178
0
179
2
271
2
272
2
273
2
274
3
275
0
276
0
277
2
278
44
279
0
280
0
281
0
282
0
283
0
284
8
285
0
286
0
288
0
289
3
290
0
371
-2
372
-2
  0
ENDTAB
  0
TABLE
  2
BLOCK_RECORD
  5
9
330
0
100
AcDbSymbolTable
 70
2
  0
BLOCK_RECORD
  5
17
330
9
100
AcDbSymbolTableRecord
100
AcDbBlockTableRecord
  2
*Model_Space
340
1A
 70
0
280
1
281
0
  0
BLOCK_RECORD
  5
1B
330
9
100
AcDbSymbolTableRecord
100
AcDbBlockTableRecord
  2
*Paper_Space
340
1E
 70
0
280
1
281
0
  0
ENDTAB
  0
ENDSEC
  0
SECTION
  2
BLOCKS
  0
BLOCK
  5
18
330
17
100
AcDbEntity
  8
0
100
AcDbBlockBegin
  2
*Model_Space
 70
0
 10
0.0
 20
0.0
 30
0.0
  3
*Model_Space
  1

  0
ENDBLK
  5
19
330
17
100
AcDbEntity
  8
0
100
AcDbBlockEnd
  0
BLOCK
  5
1C
330
1B
100
AcDbEntity
  8
0
100
AcDbBlockBegin
  2
*Paper_Space
 70
0
 10
0.0
 20
0.0
 30
0.0
  3
*Paper_Space
  1

  0
ENDBLK
  5
1D
330
1B
100
AcDbEntity
  8
0
100
AcDbBlockEnd
  0
ENDSEC
  0
SECTION
  2
ENTITIES
  0
LWPOLYLINE
  5
31
330
17
100
AcDbEntity
  8
FERO_OUTLINE
100
AcDbPolyline
 90
31
 70
1
 10
11.94
 20
17.0025
 10
11.94
 20
15.0
 10
8.5425
 20
15.0
 10
8.5425
 20
17.0025
 10
6.636796875
 20
17.1871875
 10
3.7324218749999996
 20
18.2034375
 10
2.7337499999999997
 20
19.035
 10
1.9938281249999998
 20
20.035078125
 10
1.148203125
 20
22.388203125
 10
1.0425
 20
23.74125
 10
1.153125
 20
25.156171875
 10
2.038125
 20
27.543046875
 10
2.8125
 20
28.515
 10
3.834375
 20
29.312109375
 10
6.699375
 20
30.288984375
 10
8.5425
 20
30.46875
 10
8.5425
 20
32.167500000000004
 10
11.94
 20
32.167500000000004
 10
11.94
 20
30.46875
 10
13.836328124999998
 20
30.285
 10
16.733203125000003
 20
29.27625
 10
17.73375
 20
28.45125
 10
18.480234375000002
 20
27.458671875
 10
19.333359374999997
 20
25.098046875
 10
19.439999999999998
 20
23.73
 10
19.333828124999997
 20
22.372734375
 10
18.484453124999998
 20
20.019609375
 10
17.74125
 20
19.02375
 10
16.741640625000002
 20
18.197109375
 10
13.841015625
 20
17.186484375
 10
11.94
 20
17.0025
  0
LWPOLYLINE
  5
32
330
17
100
AcDbEntity
  8
FERO_OUTLINE
100
AcDbPolyline
 90
13
 70
1
 10
11.94
 20
19.8975
 10
13.205625
 20
20.011875
 10
14.28
 20
20.355
 10
15.116249999999999
 20
20.89125
 10
15.667499999999999
 20
21.585
 10
15.976874999999998
 20
22.5384375
 10
16.08
 20
23.846249999999998
 10
16.0153125
 20
24.7198828125
 10
15.497812499999998
 20
26.1176953125
 10
14.462812499999998
 20
27.0495703125
 10
12.9103125
 20
27.515507812499997
 10
11.94
 20
27.573749999999997
 10
11.94
 20
19.8975
  0
LWPOLYLINE
  5
33
330
17
100
AcDbEntity
  8
FERO_OUTLINE
100
AcDbPolyline
 90
13
 70
1
 10
8.5425
 20
19.8975
 10
8.5425
 20
27.573749999999997
 10
7.5234375
 20
27.512578124999997
 10
5.9409375
 20
27.023203125
 10
5.3774999999999995
 20
26.595
 10
4.952578125
 20
26.043046874999998
 10
4.466953125
 20
24.563671875
 10
4.40625
 20
23.63625
 10
4.47087890625
 20
22.75998046875
 10
4.98791015625
 20
21.35794921875
 10
6.02197265625
 20
20.42326171875
 10
7.57306640625
 20
19.95591796875
 10
8.5425
 20
19.8975
  0
LWPOLYLINE
  5
34
330
17
100
AcDbEntity
  8
FERO_OUTLINE
100
AcDbPolyline
 90
13
 70
1
 10
22.231875
 20
15.0
 10
22.231875
 20
32.17875
 10
34.970625
 20
32.17875
 10
34.970625
 20
29.2725
 10
25.700625
 20
29.2725
 10
25.700625
 20
25.466250000000002
 10
34.325625
 20
25.466250000000002
 10
34.325625
 20
22.57125
 10
25.700625
 20
22.57125
 10
25.700625
 20
17.895
 10
35.296875
 20
17.895
 10
35.296875
 20
15.0
 10
22.231875
 20
15.0
  0
LWPOLYLINE
  5
35
330
17
100
AcDbEntity
  8
FERO_OUTLINE
100
AcDbPolyline
 90
22
 70
1
 10
38.239687499999995
 20
15.0
 10
38.239687499999995
 20
32.17875
 10
43.8046875
 20
32.17875
 10
46.418437499999996
 20
32.115
 10
47.9296875
 20
31.92375
 10
48.638203125
 20
31.672265624999998
 10
49.873828124999996
 20
30.830390625
 10
50.4009375
 20
30.240000000000002
 10
50.83734375
 20
29.54578125
 10
51.33609375
 20
27.873281249999998
 10
51.3984375
 20
26.895
 10
51.254999999999995
 20
25.438125
 10
50.824687499999996
 20
24.2325
 10
50.173125
 20
23.2715625
 10
49.3659375
 20
22.541249999999998
 10
48.4734375
 20
22.0303125
 10
47.5659375
 20
21.7275
 10
46.04625
 20
21.541874999999997
 10
43.9696875
 20
21.48
 10
41.708437499999995
 20
21.48
 10
41.708437499999995
 20
15.0
 10
38.239687499999995
 20
15.0
  0
LWPOLYLINE
  5
36
330
17
100
AcDbEntity
  8
FERO_OUTLINE
100
AcDbPolyline
 90
16
 70
1
 10
41.708437499999995
 20
29.2725
 10
41.708437499999995
 20
24.3975
 10
43.605937499999996
 20
24.3975
 10
45.316874999999996
 20
24.465
 10
46.3471875
 20
24.6675
 10
46.965
 20
25.013437500000002
 10
47.4309375
 20
25.51125
 10
47.72624999999999
 20
26.131875
 10
47.824687499999996
 20
26.846249999999998
 10
47.686875
 20
27.701249999999998
 10
47.2734375
 20
28.39125
 10
46.6490625
 20
28.888125
 10
45.8784375
 20
29.15625
 10
44.945625
 20
29.2434375
 10
43.3846875
 20
29.2725
 10
41.708437499999995
 20
29.2725
  0
LWPOLYLINE
  5
37
330
17
100
AcDbEntity
  8
FERO_OUTLINE
100
AcDbPolyline
 90
27
 70
1
 10
53.2125
 20
23.48625
 10
53.409375
 20
25.9003125
 10
54.0
 20
27.8925
 10
54.691875
 20
29.1375
 10
55.5975
 20
30.2475
 10
56.65875
 20
31.154999999999998
 10
57.817499999999995
 20
31.7925
 10
59.54625
 20
32.3015625
 10
61.5225
 20
32.47125
 10
63.325312499999995
 20
32.3240625
 10
66.3628125
 20
31.146562499999998
 10
67.5975
 20
30.11625
 10
68.595
 20
28.823671875
 10
69.735
 20
25.548046874999997
 10
69.8775
 20
23.564999999999998
 10
69.736171875
 20
21.59859375
 10
68.60554687499999
 20
18.34359375
 10
67.61625
 20
17.055
 10
66.390234375
 20
16.02796875
 10
63.365859375
 20
14.85421875
 10
61.567499999999995
 20
14.7075
 10
59.749453125
 20
14.853515625
 10
56.702578125
 20
16.021640625
 10
55.473749999999995
 20
17.04375
 10
54.484453125
 20
18.32390625
 10
53.35382812499999
 20
21.545156249999998
 10
53.2125
 20
23.48625
  0
LWPOLYLINE
  5
38
330
17
100
AcDbEntity
  8
FERO_OUTLINE
100
AcDbPolyline
 90
25
 70
1
 10
56.786249999999995
 20
23.6025
 10
56.870390625
 20
22.231875
 10
57.543515625
 20
20.019375
 10
58.1325
 20
19.177500000000002
 10
58.852734375
 20
18.519609375
 10
60.564609375
 20
17.767734375
 10
61.55625
 20
17.67375
 10
62.54671875
 20
17.76703125
 10
64.24921875
 20
18.51328125
 10
64.96124999999999
 20
19.166249999999998
 10
65.543671875
 20
20.006015625
 10
66.209296875
 20
22.246640624999998
 10
66.2925
 20
23.6475
 10
66.21140625000001
 20
25.031015625000002
 10
65.56265625
 20
27.234140625000002
 10
64.995
 20
28.05375
 10
64.294921875
 20
28.6903125
 10
62.575546875
 20
29.4178125
 10
61.55625
 20
29.50875
 10
60.53578125
 20
29.416640625
 10
58.807031249999994
 20
28.679765625
 10
58.098749999999995
 20
28.035
 10
57.524531249999995
 20
27.20671875
 10
56.868281249999995
 20
24.990468749999998
 10
56.786249999999995
 20
23.6025
  0
LWPOLYLINE
  5
39
330
17
100
AcDbEntity
  8
FERO_OUTLINE
100
AcDbPolyline
 90
23
 70
1
 10
3.73625
 20
3.45890625
 10
3.73625
 20
3.0
 10
2.9576562500000003
 20
3.0
 10
2.9576562500000003
 20
3.45890625
 10
2.1534960937500003
 20
3.59296875
 10
1.626484375
 20
3.9246875
 10
1.3358007812500001
 20
4.410019531250001
 10
1.23890625
 20
5.003203125000001
 10
1.3403125
 20
5.617871093750001
 10
1.64453125
 20
6.0971875
 10
2.175625
 20
6.41537109375
 10
2.9576562500000003
 20
6.544921875
 10
2.9576562500000003
 20
6.934218749999999
 10
3.73625
 20
6.934218749999999
 10
3.73625
 20
6.544921875
 10
4.536972656250001
 20
6.41171875
 10
5.063984375
 20
6.0825781249999995
 10
5.35724609375
 20
5.59896484375
 10
5.455
 20
5.000624999999999
 10
5.35767578125
 20
4.40615234375
 10
5.065703125
 20
3.922109375
 10
4.53869140625
 20
3.59232421875
 10
3.73625
 20
3.45890625
  0
LWPOLYLINE
  5
3A
330
17
100
AcDbEntity
  8
FERO_OUTLINE
100
AcDbPolyline
 90
11
 70
1
 10
3.73625
 20
4.12234375
 10
4.0262890625
 20
4.1485546875
 10
4.2725
 20
4.2271875
 10
4.464140625
 20
4.350078125
 10
4.590468749999999
 20
4.5090625
 10
4.6613671875
 20
4.72755859375
 10
4.6850000000000005
 20
5.027265625
 10
4.625703125
 20
5.400986328125
 10
4.151328125
 20
5.828095703125
 10
3.73625
 20
5.881484374999999
 10
3.73625
 20
4.12234375
  0
LWPOLYLINE
  5
3B
330
17
100
AcDbEntity
  8
FERO_OUTLINE
100
AcDbPolyline
 90
9
 70
1
 10
2.9576562500000003
 20
4.12234375
 10
2.9576562500000003
 20
5.881484374999999
 10
2.525390625
 20
5.82541015625
 10
2.23234375
 20
5.6571875
 10
2.06541015625
 20
5.37552734375
 10
2.009765625
 20
4.979140625
 10
2.0690087890625
 20
4.6042919921875
 10
2.5429541015625
 20
4.1758935546875
 10
2.9576562500000003
 20
4.12234375
  0
LWPOLYLINE
  5
3C
330
17
100
AcDbEntity
  8
FERO_OUTLINE
100
AcDbPolyline
 90
9
 70
1
 10
9.5073828125
 20
3.0
 10
8.642851562499999
 20
3.0
 10
8.299101562499999
 20
3.894609375
 10
6.7247265625
 20
3.894609375
 10
6.3998828125000005
 20
3.0
 10
5.5568359375
 20
3.0
 10
7.0899609375
 20
6.936796875000001
 10
7.9312890625
 20
6.936796875000001
 10
9.5073828125
 20
3.0
  0
LWPOLYLINE
  5
3D
330
17
100
AcDbEntity
  8
FERO_OUTLINE
100
AcDbPolyline
 90
4
 70
1
 10
8.0438671875
 20
4.5580468750000005
 10
7.5016015625
 20
6.0189843750000005
 10
6.9696484375
 20
4.5580468750000005
 10
8.0438671875
 20
4.5580468750000005
  0
LWPOLYLINE
  5
3E
330
17
100
AcDbEntity
  8
FERO_OUTLINE
100
AcDbPolyline
 90
35
 70
1
 10
12.310556640625
 20
4.4471875
 10
13.081416015625
 20
4.203125
 10
12.845517578125
 20
3.6415234375
 10
12.491884765625
 20
3.24578125
 10
12.024169921875
 20
3.011171875
 10
11.446025390625
 20
2.93296875
 10
10.731240234375
 20
3.06681640625
 10
10.156103515625
 20
3.468359375
 10
9.777763671875
 20
4.10279296875
 10
9.651650390625
 20
4.93359375
 10
9.778408203125
 20
5.80671875
 10
10.158681640625
 20
6.45984375
 10
10.746494140625
 20
6.86783203125
 10
11.494150390625
 20
7.003828125
 10
12.148994140625
 20
6.897265625
 10
12.668056640625
 20
6.5775781250000005
 10
12.902666015625
 20
6.269921875
 10
13.070244140625
 20
5.852265624999999
 10
12.283916015625
 20
5.6640625
 10
12.175634765624999
 20
5.937773437500001
 10
11.991728515625
 20
6.1470312499999995
 10
11.746806640625
 20
6.28044921875
 10
11.453759765625
 20
6.324921874999999
 10
11.057373046875
 20
6.2462890625
 10
10.743056640625
 20
6.010390624999999
 10
10.538740234375
 20
5.5991796874999995
 10
10.470634765625
 20
4.992890625
 10
10.537666015625
 20
4.353515625
 10
10.738759765625
 20
3.9289843749999998
 10
11.047919921875
 20
3.691796875
 10
11.437431640625
 20
3.612734375
 10
11.732197265625
 20
3.6630078125
 10
11.982275390625
 20
3.813828125
 10
12.178642578125
 20
4.07271484375
 10
12.310556640625
 20
4.4471875
  0
LWPOLYLINE
  5
3F
330
17
100
AcDbEntity
  8
FERO_OUTLINE
100
AcDbPolyline
 90
9
 70
1
 10
17.17623046875
 20
3.0
 10
16.31169921875
 20
3.0
 10
15.96794921875
 20
3.894609375
 10
14.39357421875
 20
3.894609375
 10
14.06873046875
 20
3.0
 10
13.22568359375
 20
3.0
 10
14.75880859375
 20
6.936796875000001
 10
15.60013671875
 20
6.936796875000001
 10
17.17623046875
 20
3.0
  0
LWPOLYLINE
  5
40
330
17
100
AcDbEntity
  8
FERO_OUTLINE
100
AcDbPolyline
 90
4
 70
1
 10
15.71271484375
 20
4.5580468750000005
 10
15.17044921875
 20
6.0189843750000005
 10
14.63849609375
 20
4.5580468750000005
 10
15.71271484375
 20
4.5580468750000005
  0
LWPOLYLINE
  5
41
330
17
100
AcDbEntity
  8
FERO_OUTLINE
100
AcDbPolyline
 90
17
 70
1
 10
18.120576171875
 20
6.936796875000001
 10
20.841357421875
 20
6.936796875000001
 10
20.841357421875
 20
3.6608593750000002
 10
21.187685546875
 20
3.6608593750000002
 10
21.187685546875
 20
2.140625
 10
20.526826171875
 20
2.140625
 10
20.526826171875
 20
3.0
 10
18.048388671875
 20
3.0
 10
18.048388671875
 20
2.140625
 10
17.387529296875
 20
2.140625
 10
17.387529296875
 20
3.6608593750000002
 10
17.720966796875
 20
3.6608593750000002
 10
17.923349609375002
 20
4.205917968750001
 10
18.042373046875
 20
4.8321875
 10
18.101025390625
 20
5.58822265625
 10
18.120576171875
 20
6.520859375000001
 10
18.120576171875
 20
6.936796875000001
  0
LWPOLYLINE
  5
42
330
17
100
AcDbEntity
  8
FERO_OUTLINE
100
AcDbPolyline
 90
6
 70
1
 10
18.878544921875
 20
6.2767968750000005
 10
18.797333984375
 20
4.725625
 10
18.553701171875
 20
3.6608593750000002
 10
20.049013671875
 20
3.6608593750000002
 10
20.049013671875
 20
6.2767968750000005
 10
18.878544921875
 20
6.2767968750000005
  0
LWPOLYLINE
  5
43
330
17
100
AcDbEntity
  8
FERO_OUTLINE
100
AcDbPolyline
 90
13
 70
1
 10
21.7251171875
 20
3.0
 10
21.7251171875
 20
6.936796875000001
 10
22.5200390625
 20
6.936796875000001
 10
22.5200390625
 20
5.387343749999999
 10
24.0772265625
 20
5.387343749999999
 10
24.0772265625
 20
6.936796875000001
 10
24.8721484375
 20
6.936796875000001
 10
24.8721484375
 20
3.0
 10
24.0772265625
 20
3.0
 10
24.0772265625
 20
4.721328125
 10
22.5200390625
 20
4.721328125
 10
22.5200390625
 20
3.0
 10
21.7251171875
 20
3.0
  0
LWPOLYLINE
  5
44
330
17
100
AcDbEntity
  8
FERO_OUTLINE
100
AcDbPolyline
 90
18
 70
1
 10
25.715947265625
 20
6.936796875000001
 10
26.510869140625
 20
6.936796875000001
 10
26.510869140625
 20
5.36328125
 10
27.573916015625
 20
5.36328125
 10
27.963857421874998
 20
5.33470703125
 10
28.294931640625
 20
5.248984375
 10
28.572080078124998
 20
5.0897851562500005
 10
28.798525390625
 20
4.84078125
 10
28.949990234375
 20
4.5249609374999995
 10
29.000478515625
 20
4.1653125
 10
28.948056640625
 20
3.79341796875
 10
28.790791015625
 20
3.476953125
 10
28.569287109374997
 20
3.2367578125
 10
28.324150390625
 20
3.093671875
 10
28.008544921875
 20
3.02341796875
 10
27.573916015625
 20
3.0
 10
25.715947265625
 20
3.0
 10
25.715947265625
 20
6.936796875000001
  0
LWPOLYLINE
  5
45
330
17
100
AcDbEntity
  8
FERO_OUTLINE
100
AcDbPolyline
 90
14
 70
1
 10
26.510869140625
 20
3.6608593750000002
 10
27.286884765625
 20
3.6608593750000002
 10
27.601201171874997
 20
3.6698828125
 10
27.803369140625
 20
3.696953125
 10
27.941943359375
 20
3.75625
 10
28.063759765625
 20
3.861953125
 10
28.149482421875
 20
4.0050390625
 10
28.178056640625
 20
4.176484375
 10
28.131435546875
 20
4.40658203125
 10
27.991572265625
 20
4.5709375
 10
27.730107421875
 20
4.66955078125
 10
27.318681640625
 20
4.702421875
 10
26.510869140625
 20
4.702421875
 10
26.510869140625
 20
3.6608593750000002
  0
LWPOLYLINE
  5
46
330
17
100
AcDbEntity
  8
FERO_OUTLINE
100
AcDbPolyline
 90
5
 70
1
 10
29.459384765625
 20
6.936796875000001
 10
30.254306640625
 20
6.936796875000001
 10
30.254306640625
 20
3.0
 10
29.459384765625
 20
3.0
 10
29.459384765625
 20
6.936796875000001
  0
LWPOLYLINE
  5
47
330
17
100
AcDbEntity
  8
FERO_OUTLINE
100
AcDbPolyline
 90
11
 70
1
 10
31.089296875
 20
6.936796875000001
 10
31.833515625
 20
6.936796875000001
 10
31.833515625
 20
4.315703125
 10
33.428515625
 20
6.936796875000001
 10
34.220859375
 20
6.936796875000001
 10
34.220859375
 20
3.0
 10
33.476640625
 20
3.0
 10
33.476640625
 20
5.570390625
 10
31.88421875
 20
3.0
 10
31.089296875
 20
3.0
 10
31.089296875
 20
6.936796875000001
  0
LWPOLYLINE
  5
48
330
17
100
AcDbEntity
  8
FERO_OUTLINE
100
AcDbPolyline
 90
19
 70
1
 10
33.12859375
 20
7.938828125
 10
33.49640625
 20
7.938828125
 10
33.416484374999996
 20
7.612910156249999
 10
33.2403125
 20
7.365625
 10
32.98271484375
 20
7.2096484375
 10
32.658515625
 20
7.15765625
 10
32.3349609375
 20
7.2096484375
 10
32.077578125
 20
7.365625
 10
31.90119140625
 20
7.612910156249999
 10
31.820625
 20
7.938828125
 10
32.1884375
 20
7.938828125
 10
32.23140625
 20
7.771679687500001
 10
32.322500000000005
 20
7.650078125
 10
32.46451171875
 20
7.5766015625000005
 10
32.658515625
 20
7.552109375
 10
32.85294921875
 20
7.5766015625000005
 10
32.99453125
 20
7.650078125
 10
33.085625
 20
7.771679687500001
 10
33.12859375
 20
7.938828125
  0
LWPOLYLINE
  5
49
330
17
100
AcDbEntity
  8
FERO_OUTLINE
100
AcDbPolyline
 90
11
 70
1
 10
36.570498046875
 20
6.936796875000001
 10
37.314716796875
 20
6.936796875000001
 10
37.314716796875
 20
4.315703125
 10
38.909716796875
 20
6.936796875000001
 10
39.702060546875
 20
6.936796875000001
 10
39.702060546875
 20
3.0
 10
38.957841796875
 20
3.0
 10
38.957841796875
 20
5.570390625
 10
37.365419921875
 20
3.0
 10
36.570498046875
 20
3.0
 10
36.570498046875
 20
6.936796875000001
  0
LWPOLYLINE
  5
4A
330
17
100
AcDbEntity
  8
FERO_OUTLINE
100
AcDbPolyline
 90
13
 70
1
 10
40.515888671875
 20
3.0
 10
40.515888671875
 20
6.936796875000001
 10
41.310810546875
 20
6.936796875000001
 10
41.310810546875
 20
5.387343749999999
 10
42.867998046875
 20
5.387343749999999
 10
42.867998046875
 20
6.936796875000001
 10
43.662919921875
 20
6.936796875000001
 10
43.662919921875
 20
3.0
 10
42.867998046875
 20
3.0
 10
42.867998046875
 20
4.721328125
 10
41.310810546875
 20
4.721328125
 10
41.310810546875
 20
3.0
 10
40.515888671875
 20
3.0
  0
LWPOLYLINE
  5
4B
330
17
100
AcDbEntity
  8
FERO_OUTLINE
100
AcDbPolyline
 90
82
 70
1
 10
46.958515625
 20
6.936796875000001
 10
46.958515625
 20
5.261015625000001
 10
47.13296875
 20
5.3061328125
 10
47.259296875
 20
5.408828124999999
 10
47.380898437499994
 20
5.6249609375
 10
47.541171875
 20
6.010390624999999
 10
47.780078125
 20
6.51419921875
 10
48.024140625
 20
6.795
 10
48.35005859375
 20
6.91939453125
 10
48.83796875
 20
6.960859375
 10
48.88072265625
 20
6.96171875
 10
48.953984375
 20
6.9642968750000005
 10
48.953984375
 20
6.375624999999999
 10
48.83796875
 20
6.378203125000001
 10
48.6287109375
 20
6.3631640625
 10
48.48390625
 20
6.318046875
 10
48.381855468750004
 20
6.2419921875
 10
48.300859375
 20
6.134140625000001
 10
48.2144921875
 20
5.94529296875
 10
48.094609375
 20
5.626250000000001
 10
48.0185546875
 20
5.43912109375
 10
47.936484375
 20
5.285078125
 10
47.819609375
 20
5.1523046875
 10
47.637421875
 20
5.027265625
 10
47.880410156249994
 20
4.9125390625000005
 10
48.0765625
 20
4.723046875
 10
48.25853515625
 20
4.44869140625
 10
48.457265625
 20
4.079375
 10
48.994375
 20
3.0
 10
48.059375
 20
3.0
 10
47.58671875
 20
4.0175
 10
47.57146484375
 20
4.04908203125
 10
47.541171875
 20
4.100859375
 10
47.50615234375
 20
4.1674609375
 10
47.4440625
 20
4.286484375
 10
47.3069921875
 20
4.517226562499999
 10
47.1965625
 20
4.645703125
 10
47.08892578125
 20
4.70435546875
 10
46.958515625
 20
4.72390625
 10
46.958515625
 20
3.0
 10
46.1825
 20
3.0
 10
46.1825
 20
4.72390625
 10
46.054453124999995
 20
4.705
 10
45.9453125
 20
4.64828125
 10
45.83423828125
 20
4.5204492187500005
 10
45.698671875
 20
4.286484375
 10
45.632285156250006
 20
4.159296875
 10
45.59984375
 20
4.100859375
 10
45.57578125
 20
4.05982421875
 10
45.5534375
 20
4.0175
 10
45.08078125
 20
3.0
 10
44.146640625
 20
3.0
 10
44.68375
 20
4.079375
 10
44.8766796875
 20
4.43837890625
 10
45.058437500000004
 20
4.714453125
 10
45.2582421875
 20
4.910390625
 10
45.5053125
 20
5.027265625
 10
45.32291015625
 20
5.15208984375
 10
45.205390625
 20
5.28421875
 10
45.12353515625
 20
5.4376171875
 10
45.04640625
 20
5.626250000000001
 10
44.928671875
 20
5.94013671875
 10
44.843593750000004
 20
6.128984375
 10
44.76345703125
 20
6.238984375
 10
44.660546875
 20
6.316328125
 10
44.511015625
 20
6.3627343750000005
 10
44.289296875
 20
6.378203125000001
 10
44.247402343750004
 20
6.37755859375
 10
44.18703125
 20
6.375624999999999
 10
44.18703125
 20
6.9642968750000005
 10
44.260078125
 20
6.96171875
 10
44.3021875
 20
6.960859375
 10
44.796328125
 20
6.91875
 10
45.12375
 20
6.7924218750000005
 10
45.3639453125
 20
6.5109765625
 10
45.59984375
 20
6.010390624999999
 10
45.76162109375
 20
5.6232421875
 10
45.882578125
 20
5.407109375
 10
46.007832031250004
 20
5.305703125
 10
46.1825
 20
5.261015625000001
 10
46.1825
 20
6.936796875000001
 10
46.958515625
 20
6.936796875000001
  0
LWPOLYLINE
  5
4C
330
17
100
AcDbEntity
  8
FERO_OUTLINE
100
AcDbPolyline
 90
11
 70
1
 10
49.466494140625
 20
6.936796875000001
 10
50.210712890625
 20
6.936796875000001
 10
50.210712890625
 20
4.315703125
 10
51.805712890625
 20
6.936796875000001
 10
52.598056640625
 20
6.936796875000001
 10
52.598056640625
 20
3.0
 10
51.853837890625
 20
3.0
 10
51.853837890625
 20
5.570390625
 10
50.261416015625
 20
3.0
 10
49.466494140625
 20
3.0
 10
49.466494140625
 20
6.936796875000001
  0
LWPOLYLINE
  5
4D
330
17
100
AcDbEntity
  8
FERO_OUTLINE
100
AcDbPolyline
 90
13
 70
1
 10
53.411884765625
 20
3.0
 10
53.411884765625
 20
6.936796875000001
 10
54.206806640625
 20
6.936796875000001
 10
54.206806640625
 20
5.387343749999999
 10
55.763994140625
 20
5.387343749999999
 10
55.763994140625
 20
6.936796875000001
 10
56.558916015625
 20
6.936796875000001
 10
56.558916015625
 20
3.0
 10
55.763994140625
 20
3.0
 10
55.763994140625
 20
4.721328125
 10
54.206806640625
 20
4.721328125
 10
54.206806640625
 20
3.0
 10
53.411884765625
 20
3.0
  0
LWPOLYLINE
  5
4E
330
17
100
AcDbEntity
  8
FERO_OUTLINE
100
AcDbPolyline
 90
11
 70
1
 10
57.39154296875
 20
6.936796875000001
 10
58.13576171875
 20
6.936796875000001
 10
58.13576171875
 20
4.315703125
 10
59.73076171875
 20
6.936796875000001
 10
60.52310546875
 20
6.936796875000001
 10
60.52310546875
 20
3.0
 10
59.77888671875
 20
3.0
 10
59.77888671875
 20
5.570390625
 10
58.18646484375
 20
3.0
 10
57.39154296875
 20
3.0
 10
57.39154296875
 20
6.936796875000001
  0
LWPOLYLINE
  5
4F
330
17
100
AcDbEntity
  8
FERO_OUTLINE
100
AcDbPolyline
 90
20
 70
1
 10
61.33435546875
 20
3.0
 10
61.33435546875
 20
6.936796875000001
 10
62.60966796875
 20
6.936796875000001
 10
63.20865234375
 20
6.9221875
 10
63.55498046875
 20
6.8783593750000005
 10
63.865859375
 20
6.73720703125
 10
64.12130859375
 20
6.4925
 10
64.29275390625
 20
6.1526171875
 10
64.34990234375
 20
5.725937500000001
 10
64.31703125
 20
5.3920703125
 10
64.21841796875
 20
5.1157812499999995
 10
64.0691015625
 20
4.8955664062499995
 10
63.884121093750004
 20
4.728203125
 10
63.67958984375
 20
4.61111328125
 10
63.47162109375
 20
4.54171875
 10
63.123359375
 20
4.4991796875
 10
62.64748046875
 20
4.485
 10
62.12927734375
 20
4.485
 10
62.12927734375
 20
3.0
 10
61.33435546875
 20
3.0
  0
LWPOLYLINE
  5
50
330
17
100
AcDbEntity
  8
FERO_OUTLINE
100
AcDbPolyline
 90
16
 70
1
 10
62.12927734375
 20
6.270781250000001
 10
62.12927734375
 20
5.153593750000001
 10
62.56412109375
 20
5.153593750000001
 10
62.956210937499996
 20
5.1690625
 10
63.19232421875
 20
5.215468749999999
 10
63.33390625
 20
5.29474609375
 10
63.44068359375
 20
5.408828124999999
 10
63.508359375000005
 20
5.551054687500001
 10
63.53091796875
 20
5.714765625
 10
63.49933593750001
 20
5.9107031249999995
 10
63.40458984375
 20
6.068828125
 10
63.26150390625
 20
6.1826953125
 10
63.08490234375
 20
6.244140625
 10
62.871132812499994
 20
6.26412109375
 10
62.51341796875
 20
6.270781250000001
 10
62.12927734375
 20
6.270781250000001
  0
LWPOLYLINE
  5
51
330
17
100
AcDbEntity
  8
FERO_OUTLINE
100
AcDbPolyline
 90
11
 70
1
 10
65.013125
 20
6.936796875000001
 10
65.75734375
 20
6.936796875000001
 10
65.75734375
 20
4.315703125
 10
67.35234375
 20
6.936796875000001
 10
68.1446875
 20
6.936796875000001
 10
68.1446875
 20
3.0
 10
67.40046875
 20
3.0
 10
67.40046875
 20
5.570390625
 10
65.808046875
 20
3.0
 10
65.013125
 20
3.0
 10
65.013125
 20
6.936796875000001
  0
LWPOLYLINE
  5
52
330
17
100
AcDbEntity
  8
FERO_OUTLINE
100
AcDbPolyline
 90
13
 70
1
 10
68.958515625
 20
3.0
 10
68.958515625
 20
6.936796875000001
 10
69.7534375
 20
6.936796875000001
 10
69.7534375
 20
5.387343749999999
 10
71.310625
 20
5.387343749999999
 10
71.310625
 20
6.936796875000001
 10
72.105546875
 20
6.936796875000001
 10
72.105546875
 20
3.0
 10
71.310625
 20
3.0
 10
71.310625
 20
4.721328125
 10
69.7534375
 20
4.721328125
 10
69.7534375
 20
3.0
 10
68.958515625
 20
3.0
  0
LWPOLYLINE
  5
53
330
17
100
AcDbEntity
  8
FERO_OUTLINE
100
AcDbPolyline
 90
7
 70
1
 10
72.968251953125
 20
6.936796875000001
 10
75.634892578125
 20
6.936796875000001
 10
75.634892578125
 20
6.2767968750000005
 10
73.763173828125
 20
6.2767968750000005
 10
73.763173828125
 20
3.0
 10
72.968251953125
 20
3.0
 10
72.968251953125
 20
6.936796875000001
  0
CIRCLE
  5
54
330
17
100
AcDbEntity
  8
FERO_SUN
100
AcDbCircle
 10
115.0
 20
32.0
 30
0.0
 40
4.5
  0
LINE
  5
55
330
17
100
AcDbEntity
  8
FERO_SUN
100
AcDbLine
 10
107.0
 20
32.0
 30
0.0
 11
123.0
 21
32.0
 31
0.0
  0
LINE
  5
56
330
17
100
AcDbEntity
  8
FERO_SUN
100
AcDbLine
 10
115.0
 20
24.0
 30
0.0
 11
115.0
 21
40.0
 31
0.0
  0
LINE
  5
57
330
17
100
AcDbEntity
  8
FERO_SUN
100
AcDbLine
 10
109.0
 20
26.0
 30
0.0
 11
121.0
 21
38.0
 31
0.0
  0
LINE
  5
58
330
17
100
AcDbEntity
  8
FERO_SUN
100
AcDbLine
 10
109.0
 20
38.0
 30
0.0
 11
121.0
 21
26.0
 31
0.0
  0
ENDSEC
  0
SECTION
  2
OBJECTS
  0
DICTIONARY
  5
A
330
0
100
AcDbDictionary
281
1
  3
ACAD_COLOR
350
B
  3
ACAD_GROUP
350
C
  3
ACAD_LAYOUT
350
D
  3
ACAD_MATERIAL
350
E
  3
ACAD_MLEADERSTYLE
350
F
  3
ACAD_MLINESTYLE
350
10
  3
ACAD_PLOTSETTINGS
350
11
  3
ACAD_PLOTSTYLENAME
350
12
  3
ACAD_SCALELIST
350
14
  3
ACAD_TABLESTYLE
350
15
  3
ACAD_VISUALSTYLE
350
16
  3
EZDXF_META
350
2D
  0
DICTIONARY
  5
B
330
A
100
AcDbDictionary
281
1
  0
DICTIONARY
  5
C
330
A
100
AcDbDictionary
281
1
  0
DICTIONARY
  5
D
330
A
100
AcDbDictionary
281
1
  3
Model
350
1A
  3
Layout1
350
1E
  0
DICTIONARY
  5
E
330
A
100
AcDbDictionary
281
1
  3
ByBlock
350
1F
  3
ByLayer
350
20
  3
Global
350
21
  0
DICTIONARY
  5
F
330
A
100
AcDbDictionary
281
1
  3
Standard
350
2C
  0
DICTIONARY
  5
10
330
A
100
AcDbDictionary
281
1
  3
Standard
350
22
  0
DICTIONARY
  5
11
330
A
100
AcDbDictionary
281
1
  0
ACDBDICTIONARYWDFLT
  5
12
330
A
100
AcDbDictionary
281
1
  3
Normal
350
13
100
AcDbDictionaryWithDefault
340
13
  0
ACDBPLACEHOLDER
  5
13
330
12
  0
DICTIONARY
  5
14
330
A
100
AcDbDictionary
281
1
  0
DICTIONARY
  5
15
330
A
100
AcDbDictionary
281
1
  0
DICTIONARY
  5
16
330
A
100
AcDbDictionary
281
1
  0
LAYOUT
  5
1A
330
D
100
AcDbPlotSettings
  1

  4
A3
  6

 40
7.5
 41
20.0
 42
7.5
 43
20.0
 44
420.0
 45
297.0
 46
0.0
 47
0.0
 48
0.0
 49
0.0
140
0.0
141
0.0
142
1.0
143
1.0
 70
1024
 72
1
 73
0
 74
5
  7

 75
16
 76
0
 77
2
 78
300
147
1.0
148
0.0
149
0.0
100
AcDbLayout
  1
Model
 70
1
 71
0
 10
0.0
 20
0.0
 11
420.0
 21
297.0
 12
0.0
 22
0.0
 32
0.0
 14
1e+20
 24
1e+20
 34
1e+20
 15
-1e+20
 25
-1e+20
 35
-1e+20
146
0.0
 13
0.0
 23
0.0
 33
0.0
 16
1.0
 26
0.0
 36
0.0
 17
0.0
 27
1.0
 37
0.0
 76
1
330
17
  0
LAYOUT
  5
1E
330
D
100
AcDbPlotSettings
  1

  4
A3
  6

 40
7.5
 41
20.0
 42
7.5
 43
20.0
 44
420.0
 45
297.0
 46
0.0
 47
0.0
 48
0.0
 49
0.0
140
0.0
141
0.0
142
1.0
143
1.0
 70
0
 72
1
 73
0
 74
5
  7

 75
16
 76
0
 77
2
 78
300
147
1.0
148
0.0
149
0.0
100
AcDbLayout
  1
Layout1
 70
1
 71
1
 10
0.0
 20
0.0
 11
420.0
 21
297.0
 12
0.0
 22
0.0
 32
0.0
 14
1e+20
 24
1e+20
 34
1e+20
 15
-1e+20
 25
-1e+20
 35
-1e+20
146
0.0
 13
0.0
 23
0.0
 33
0.0
 16
1.0
 26
0.0
 36
0.0
 17
0.0
 27
1.0
 37
0.0
 76
1
330
1B
  0
MATERIAL
  5
1F
102
{ACAD_REACTORS
330
E
102
}
330
E
100
AcDbMaterial
  1
ByBlock
  2

 70
0
 40
1.0
 71
1
 41
1.0
 91
-1023410177
 42
1.0
 72
1
  3

 73
1
 74
1
 75
1
 44
0.5
 73
0
 45
1.0
 46
1.0
 77
1
  4

 78
1
 79
1
170
1
 48
1.0
171
1
  6

172
1
173
1
174
1
140
1.0
141
1.0
175
1
  7

176
1
177
1
178
1
143
1.0
179
1
  8

270
1
271
1
272
1
145
1.0
146
1.0
273
1
  9

274
1
275
1
276
1
 42
1.0
 72
1
  3

 73
1
 74
1
 75
1
 94
63
  0
MATERIAL
  5
20
102
{ACAD_REACTORS
330
E
102
}
330
E
100
AcDbMaterial
  1
ByLayer
  2

 70
0
 40
1.0
 71
1
 41
1.0
 91
-1023410177
 42
1.0
 72
1
  3

 73
1
 74
1
 75
1
 44
0.5
 73
0
 45
1.0
 46
1.0
 77
1
  4

 78
1
 79
1
170
1
 48
1.0
171
1
  6

172
1
173
1
174
1
140
1.0
141
1.0
175
1
  7

176
1
177
1
178
1
143
1.0
179
1
  8

270
1
271
1
272
1
145
1.0
146
1.0
273
1
  9

274
1
275
1
276
1
 42
1.0
 72
1
  3

 73
1
 74
1
 75
1
 94
63
  0
MATERIAL
  5
21
102
{ACAD_REACTORS
330
E
102
}
330
E
100
AcDbMaterial
  1
Global
  2

 70
0
 40
1.0
 71
1
 41
1.0
 91
-1023410177
 42
1.0
 72
1
  3

 73
1
 74
1
 75
1
 44
0.5
 73
0
 45
1.0
 46
1.0
 77
1
  4

 78
1
 79
1
170
1
 48
1.0
171
1
  6

172
1
173
1
174
1
140
1.0
141
1.0
175
1
  7

176
1
177
1
178
1
143
1.0
179
1
  8

270
1
271
1
272
1
145
1.0
146
1.0
273
1
  9

274
1
275
1
276
1
 42
1.0
 72
1
  3

 73
1
 74
1
 75
1
 94
63
  0
MLINESTYLE
  5
22
102
{ACAD_REACTORS
330
10
102
}
330
10
100
AcDbMlineStyle
  2
Standard
 70
0
  3

 62
256
 51
90.0
 52
90.0
 71
2
 49
0.5
 62
256
  6
BYLAYER
 49
-0.5
 62
256
  6
BYLAYER
  0
MLEADERSTYLE
  5
2C
102
{ACAD_REACTORS
330
F
102
}
330
F
100
AcDbMLeaderStyle
179
2
170
2
171
1
172
0
 90
2
 40
0.0
 41
0.0
173
1
 91
-1056964608
 92
-2
290
1
 42
2.0
291
1
 43
8.0
  3
Standard
 44
4.0
300

342
29
174
1
175
1
176
0
178
1
 93
-1056964608
 45
4.0
292
0
297
0
 46
4.0
 94
-1056964608
 47
1.0
 49
1.0
140
1.0
294
1
141
0.0
177
0
142
1.0
295
0
296
0
143
3.75
271
0
272
9
273
9
  0
DICTIONARY
  5
2D
330
A
100
AcDbDictionary
280
1
281
1
  3
CREATED_BY_EZDXF
350
2E
  3
WRITTEN_BY_EZDXF
350
5B
  0
DICTIONARYVAR
  5
2E
330
2D
100
DictionaryVariables
280
0
  1
1.4.4 @ 2026-09-14T07:01:55.808697+00:00
  0
DICTIONARYVAR
  5
5B
330
2D
100
DictionaryVariables
280
0
  1
1.4.4 @ 2026-09-14T07:01:55.946914+00:00
  0
ENDSEC
  0
EOF
