  0
SECTION
  2
HEADER
  9
$ACADVER
  1
AC1024
  9
$ACADMAINTVER
 70
6
  9
$DWGCODEPAGE
  3
ANSI_1252
  9
$LASTSAVEDBY
  1
ezdxf
  9
$INSBASE
 10
0.0
 20
0.0
 30
0.0
  9
$EXTMIN
 10
1e+20
 20
1e+20
 30
1e+20
  9
$EXTMAX
 10
-1e+20
 20
-1e+20
 30
-1e+20
  9
$LIMMIN
 10
0.0
 20
0.0
  9
$LIMMAX
 10
420.0
 20
297.0
  9
$ORTHOMODE
 70
0
  9
$REGENMODE
 70
1
  9
$FILLMODE
 70
1
  9
$QTEXTMODE
 70
0
  9
$MIRRTEXT
 70
1
  9
$LTSCALE
 40
1.0
  9
$ATTMODE
 70
1
  9
$TEXTSIZE
 40
2.5
  9
$TRACEWID
 40
1.0
  9
$TEXTSTYLE
  7
Standard
  9
$CLAYER
  8
0
  9
$CELTYPE
  6
ByLayer
  9
$CECOLOR
 62
256
  9
$CELTSCALE
 40
1.0
  9
$DISPSILH
 70
0
  9
$DIMSCALE
 40
1.0
  9
$DIMASZ
 40
2.5
  9
$DIMEXO
 40
0.625
  9
$DIMDLI
 40
3.75
  9
$DIMRND
 40
0.0
  9
$DIMDLE
 40
0.0
  9
$DIMEXE
 40
1.25
  9
$DIMTP
 40
0.0
  9
$DIMTM
 40
0.0
  9
$DIMTXT
 40
2.5
  9
$DIMCEN
 40
2.5
  9
$DIMTSZ
 40
0.0
  9
$DIMTOL
 70
0
  9
$DIMLIM
 70
0
  9
$DIMTIH
 70
0
  9
$DIMTOH
 70
0
  9
$DIMSE1
 70
0
  9
$DIMSE2
 70
0
  9
$DIMTAD
 70
1
  9
$DIMZIN
 70
8
  9
$DIMBLK
  1

  9
$DIMASO
 70
1
  9
$DIMSHO
 70
1
  9
$DIMPOST
  1

  9
$DIMAPOST
  1

  9
$DIMALT
 70
0
  9
$DIMALTD
 70
3
  9
$DIMALTF
 40
0.03937007874
  9
$DIMLFAC
 40
1.0
  9
$DIMTOFL
 70
1
  9
$DIMTVP
 40
0.0
  9
$DIMTIX
 70
0
  9
$DIMSOXD
 70
0
  9
$DIMSAH
 70
0
  9
$DIMBLK1
  1

  9
$DIMBLK2
  1

  9
$DIMSTYLE
  2
ISO-25
  9
$DIMCLRD
 70
0
  9
$DIMCLRE
 70
0
  9
$DIMCLRT
 70
0
  9
$DIMTFAC
 40
1.0
  9
$DIMGAP
 40
0.625
  9
$DIMJUST
 70
0
  9
$DIMSD1
 70
0
  9
$DIMSD2
 70
0
  9
$DIMTOLJ
 70
0
  9
$DIMTZIN
 70
8
  9
$DIMALTZ
 70
0
  9
$DIMALTTZ
 70
0
  9
$DIMUPT
 70
0
  9
$DIMDEC
 70
2
  9
$DIMTDEC
 70
2
  9
$DIMALTU
 70
2
  9
$DIMALTTD
 70
3
  9
$DIMTXSTY
  7
Standard
  9
$DIMAUNIT
 70
0
  9
$DIMADEC
 70
0
  9
$DIMALTRND
 40
0.0
  9
$DIMAZIN
 70
0
  9
$DIMDSEP
 70
44
  9
$DIMATFIT
 70
3
  9
$DIMFRAC
 70
0
  9
$DIMLDRBLK
  1

  9
$DIMLUNIT
 70
2
  9
$DIMLWD
 70
-2
  9
$DIMLWE
 70
-2
  9
$DIMTMOVE
 70
0
  9
$DIMFXL
 40
1.0
  9
$DIMFXLON
 70
0
  9
$DIMJOGANG
 40
0.785398163397
  9
$DIMTFILL
 70
0
  9
$DIMTFILLCLR
 70
0
  9
$DIMARCSYM
 70
0
  9
$DIMLTYPE
  6

  9
$DIMLTEX1
  6

  9
$DIMLTEX2
  6

  9
$DIMTXTDIRECTION
 70
0
  9
$LUNITS
 70
2
  9
$LUPREC
 70
4
  9
$SKETCHINC
 40
1.0
  9
$FILLETRAD
 40
10.0
  9
$AUNITS
 70
0
  9
$AUPREC
 70
2
  9
$MENU
  1
.
  9
$ELEVATION
 40
0.0
  9
$PELEVATION
 40
0.0
  9
$THICKNESS
 40
0.0
  9
$LIMCHECK
 70
0
  9
$CHAMFERA
 40
0.0
  9
$CHAMFERB
 40
0.0
  9
$CHAMFERC
 40
0.0
  9
$CHAMFERD
 40
0.0
  9
$SKPOLY
 70
0
  9
$TDCREATE
 40
2461298.417800926
  9
$TDUCREATE
 40
2458532.153996898
  9
$TDUPDATE
 40
2461298.417800926
  9
$TDUUPDATE
 40
2458532.1544311
  9
$TDINDWG
 40
0.0
  9
$TDUSRTIMER
 40
0.0
  9
$USRTIMER
 70
1
  9
$ANGBASE
 50
0.0
  9
$ANGDIR
 70
0
  9
$PDMODE
 70
0
  9
$PDSIZE
 40
0.0
  9
$PLINEWID
 40
0.0
  9
$SPLFRAME
 70
0
  9
$SPLINETYPE
 70
6
  9
$SPLINESEGS
 70
8
  9
$HANDSEED
  5
5B
  9
$SURFTAB1
 70
6
  9
$SURFTAB2
 70
6
  9
$SURFTYPE
 70
6
  9
$SURFU
 70
6
  9
$SURFV
 70
6
  9
$UCSBASE
  2

  9
$UCSNAME
  2

  9
$UCSORG
 10
0.0
 20
0.0
 30
0.0
  9
$UCSXDIR
 10
1.0
 20
0.0
 30
0.0
  9
$UCSYDIR
 10
0.0
 20
1.0
 30
0.0
  9
$UCSORTHOREF
  2

  9
$UCSORTHOVIEW
 70
0
  9
$UCSORGTOP
 10
0.0
 20
0.0
 30
0.0
  9
$UCSORGBOTTOM
 10
0.0
 20
0.0
 30
0.0
  9
$UCSORGLEFT
 10
0.0
 20
0.0
 30
0.0
  9
$UCSORGRIGHT
 10
0.0
 20
0.0
 30
0.0
  9
$UCSORGFRONT
 10
0.0
 20
0.0
 30
0.0
  9
$UCSORGBACK
 10
0.0
 20
0.0
 30
0.0
  9
$PUCSBASE
  2

  9
$PUCSNAME
  2

  9
$PUCSORG
 10
0.0
 20
0.0
 30
0.0
  9
$PUCSXDIR
 10
1.0
 20
0.0
 30
0.0
  9
$PUCSYDIR
 10
0.0
 20
1.0
 30
0.0
  9
$PUCSORTHOREF
  2

  9
$PUCSORTHOVIEW
 70
0
  9
$PUCSORGTOP
 10
0.0
 20
0.0
 30
0.0
  9
$PUCSORGBOTTOM
 10
0.0
 20
0.0
 30
0.0
  9
$PUCSORGLEFT
 10
0.0
 20
0.0
 30
0.0
  9
$PUCSORGRIGHT
 10
0.0
 20
0.0
 30
0.0
  9
$PUCSORGFRONT
 10
0.0
 20
0.0
 30
0.0
  9
$PUCSORGBACK
 10
0.0
 20
0.0
 30
0.0
  9
$USERI1
 70
0
  9
$USERI2
 70
0
  9
$USERI3
 70
0
  9
$USERI4
 70
0
  9
$USERI5
 70
0
  9
$USERR1
 40
0.0
  9
$USERR2
 40
0.0
  9
$USERR3
 40
0.0
  9
$USERR4
 40
0.0
  9
$USERR5
 40
0.0
  9
$WORLDVIEW
 70
1
  9
$SHADEDGE
 70
3
  9
$SHADEDIF
 70
70
  9
$TILEMODE
 70
1
  9
$MAXACTVP
 70
64
  9
$PINSBASE
 10
0.0
 20
0.0
 30
0.0
  9
$PLIMCHECK
 70
0
  9
$PEXTMIN
 10
1e+20
 20
1e+20
 30
1e+20
  9
$PEXTMAX
 10
-1e+20
 20
-1e+20
 30
-1e+20
  9
$PLIMMIN
 10
0.0
 20
0.0
  9
$PLIMMAX
 10
420.0
 20
297.0
  9
$UNITMODE
 70
0
  9
$VISRETAIN
 70
1
  9
$PLINEGEN
 70
0
  9
$PSLTSCALE
 70
1
  9
$TREEDEPTH
 70
3020
  9
$CMLSTYLE
  2
Standard
  9
$CMLJUST
 70
0
  9
$CMLSCALE
 40
20.0
  9
$PROXYGRAPHICS
 70
1
  9
$MEASUREMENT
 70
1
  9
$CELWEIGHT
370
-1
  9
$ENDCAPS
280
0
  9
$JOINSTYLE
280
0
  9
$LWDISPLAY
290
0
  9
$INSUNITS
 70
6
  9
$HYPERLINKBASE
  1

  9
$STYLESHEET
  1

  9
$XEDIT
290
1
  9
$CEPSNTYPE
380
0
  9
$PSTYLEMODE
290
1
  9
$FINGERPRINTGUID
  2
{FDC55969-486C-45C8-85F1-8F4B35E14E3F}
  9
$VERSIONGUID
  2
{DBDC4DC3-C587-4E2A-8C29-59B0243D2ED0}
  9
$EXTNAMES
290
1
  9
$PSVPSCALE
 40
0.0
  9
$OLESTARTUP
290
0
  9
$SORTENTS
280
127
  9
$INDEXCTL
280
0
  9
$HIDETEXT
280
1
  9
$XCLIPFRAME
280
1
  9
$HALOGAP
280
0
  9
$OBSCOLOR
 70
257
  9
$OBSLTYPE
280
0
  9
$INTERSECTIONDISPLAY
280
0
  9
$INTERSECTIONCOLOR
 70
257
  9
$DIMASSOC
280
2
  9
$PROJECTNAME
  1

  9
$CAMERADISPLAY
290
0
  9
$LENSLENGTH
 40
50.0
  9
$CAMERAHEIGHT
 40
0.0
  9
$STEPSPERSEC
 40
24.0
  9
$STEPSIZE
 40
100.0
  9
$3DDWFPREC
 40
2.0
  9
$PSOLWIDTH
 40
0.005
  9
$PSOLHEIGHT
 40
0.08
  9
$LOFTANG1
 40
1.570796326795
  9
$LOFTANG2
 40
1.570796326795
  9
$LOFTMAG1
 40
0.0
  9
$LOFTMAG2
 40
0.0
  9
$LOFTPARAM
 70
7
  9
$LOFTNORMALS
280
1
  9
$LATITUDE
 40
37.795
  9
$LONGITUDE
 40
-122.394
  9
$NORTHDIRECTION
 40
0.0
  9
$TIMEZONE
 70
-8000
  9
$LIGHTGLYPHDISPLAY
280
1
  9
$TILEMODELIGHTSYNCH
280
1
  9
$CMATERIAL
347
20
  9
$SOLIDHIST
280
0
  9
$SHOWHIST
280
1
  9
$DWFFRAME
280
2
  9
$DGNFRAME
280
2
  9
$REALWORLDSCALE
290
1
  9
$INTERFERECOLOR
 62
256
  9
$CSHADOW
280
0
  9
$SHADOWPLANELOCATION
 40
0.0
  0
ENDSEC
  0
SECTION
  2
CLASSES
  0
CLASS
  1
ACDBDICTIONARYWDFLT
  2
AcDbDictionaryWithDefault
  3
ObjectDBX Classes
 90
0
 91
0
280
0
281
0
  0
CLASS
  1
SUN
  2
AcDbSun
  3
SCENEOE
 90
1153
 91
0
280
0
281
0
  0
CLASS
  1
VISUALSTYLE
  2
AcDbVisualStyle
  3
ObjectDBX Classes
 90
4095
 91
0
280
0
281
0
  0
CLASS
  1
MATERIAL
  2
AcDbMaterial
  3
ObjectDBX Classes
 90
1153
 91
0
280
0
281
0
  0
CLASS
  1
SCALE
  2
AcDbScale
  3
ObjectDBX Classes
 90
1153
 91
0
280
0
281
0
  0
CLASS
  1
TABLESTYLE
  2
AcDbTableStyle
  3
ObjectDBX Classes
 90
4095
 91
0
280
0
281
0
  0
CLASS
  1
MLEADERSTYLE
  2
AcDbMLeaderStyle
  3
ACDB_MLEADERSTYLE_CLASS
 90
4095
 91
0
280
0
281
0
  0
CLASS
  1
DICTIONARYVAR
  2
AcDbDictionaryVar
  3
ObjectDBX Classes
 90
0
 91
0
280
0
281
0
  0
CLASS
  1
CELLSTYLEMAP
  2
AcDbCellStyleMap
  3
ObjectDBX Classes
 90
1152
 91
0
280
0
281
0
  0
CLASS
  1
MENTALRAYRENDERSETTINGS
  2
AcDbMentalRayRenderSettings
  3
SCENEOE
 90
1024
 91
0
280
0
281
0
  0
CLASS
  1
ACDBDETAILVIEWSTYLE
  2
AcDbDetailViewStyle
  3
ObjectDBX Classes
 90
1025
 91
0
280
0
281
0
  0
CLASS
  1
ACDBSECTIONVIEWSTYLE
  2
AcDbSectionViewStyle
  3
ObjectDBX Classes
 90
1025
 91
0
280
0
281
0
  0
CLASS
  1
RASTERVARIABLES
  2
AcDbRasterVariables
  3
ISM
 90
0
 91
0
280
0
281
0
  0
CLASS
  1
LAYOUT
  2
AcDbLayout
  3
ObjectDBX Classes
 90
0
 91
0
280
0
281
0
  0
CLASS
  1
ACDBPLACEHOLDER
  2
AcDbPlaceHolder
  3
ObjectDBX Classes
 90
0
 91
0
280
0
281
0
  0
ENDSEC
  0
SECTION
  2
TABLES
  0
TABLE
  2
VPORT
  5
8
330
0
100
AcDbSymbolTable
 70
1
  0
VPORT
  5
23
330
8
100
AcDbSymbolTableRecord
100
AcDbViewportTableRecord
  2
*Active
 70
0
 10
0.0
 20
0.0
 11
1.0
 21
1.0
 12
0.0
 22
0.0
 13
0.0
 23
0.0
 14
0.5
 24
0.5
 15
0.5
 25
0.5
 16
0.0
 26
0.0
 36
1.0
 17
0.0
 27
0.0
 37
0.0
 40
1000.0
 41
1.34
 42
50.0
 43
0.0
 44
0.0
 50
0.0
 51
0.0
 71
0
 72
1000
 73
1
 74
3
 75
0
 76
0
 77
0
 78
0
281
0
 65
0
146
0.0
  0
ENDTAB
  0
TABLE
  2
LTYPE
  5
2
330
0
100
AcDbSymbolTable
 70
3
  0
LTYPE
  5
24
330
2
100
AcDbSymbolTableRecord
100
AcDbLinetypeTableRecord
  2
ByBlock
 70
0
  3

 72
65
 73
0
 40
0.0
  0
LTYPE
  5
25
330
2
100
AcDbSymbolTableRecord
100
AcDbLinetypeTableRecord
  2
ByLayer
 70
0
  3

 72
65
 73
0
 40
0.0
  0
LTYPE
  5
26
330
2
100
AcDbSymbolTableRecord
100
AcDbLinetypeTableRecord
  2
Continuous
 70
0
  3

 72
65
 73
0
 40
0.0
  0
ENDTAB
  0
TABLE
  2
LAYER
  5
1
330
0
100
AcDbSymbolTable
 70
5
  0
LAYER
  5
27
330
1
100
AcDbSymbolTableRecord
100
AcDbLayerTableRecord
  2
0
 70
0
 62
7
  6
Continuous
370
-3
390
13
347
21
  0
LAYER
  5
28
330
1
100
AcDbSymbolTableRecord
100
AcDbLayerTableRecord
  2
Defpoints
 70
0
 62
7
  6
Continuous
290
0
370
-3
390
13
347
21
  0
LAYER
  5
2F
330
1
100
AcDbSymbolTableRecord
100
AcDbLayerTableRecord
  2
FERO_OUTLINE
 70
0
 62
7
  6
Continuous
370
-3
390
13
347
21
  0
LAYER
  5
30
330
1
100
AcDbSymbolTableRecord
100
AcDbLayerTableRecord
  2
FERO_TEXT
 70
0
 62
7
  6
Continuous
370
-3
390
13
347
21
  0
LAYER
  5
31
330
1
100
AcDbSymbolTableRecord
100
AcDbLayerTableRecord
  2
GOST_FRAME
 70
0
 62
8
  6
Continuous
370
-3
390
13
347
21
  0
ENDTAB
  0
TABLE
  2
STYLE
  5
5
330
0
100
AcDbSymbolTable
 70
1
  0
STYLE
  5
29
330
5
100
AcDbSymbolTableRecord
100
AcDbTextStyleTableRecord
  2
Standard
 70
0
 40
0.0
 41
1.0
 50
0.0
 71
0
 42
2.5
  3
txt
  4

  0
ENDTAB
  0
TABLE
  2
VIEW
  5
7
330
0
100
AcDbSymbolTable
 70
0
  0
ENDTAB
  0
TABLE
  2
UCS
  5
6
330
0
100
AcDbSymbolTable
 70
0
  0
ENDTAB
  0
TABLE
  2
APPID
  5
3
330
0
100
AcDbSymbolTable
 70
3
  0
APPID
  5
2A
330
3
100
AcDbSymbolTableRecord
100
AcDbRegAppTableRecord
  2
ACAD
 70
0
  0
APPID
  5
58
330
3
100
AcDbSymbolTableRecord
100
AcDbRegAppTableRecord
  2
HATCHBACKGROUNDCOLOR
 70
0
  0
APPID
  5
59
330
3
100
AcDbSymbolTableRecord
100
AcDbRegAppTableRecord
  2
EZDXF
 70
0
  0
ENDTAB
  0
TABLE
  2
DIMSTYLE
  5
4
330
0
100
AcDbSymbolTable
 70
1
100
AcDbDimStyleTable
  0
DIMSTYLE
105
2B
330
4
100
AcDbSymbolTableRecord
100
AcDbDimStyleTableRecord
  2
Standard
 70
0
 40
1.0
 41
2.5
 42
0.625
 43
3.75
 44
1.25
 45
0.0
 46
0.0
 47
0.0
 48
0.0
 49
2.5
140
2.5
141
2.5
142
0.0
143
0.03937007874
144
1.0
145
0.0
146
1.0
147
0.625
148
0.0
 69
0
 70
0
 71
0
 72
0
 73
0
 74
0
 75
0
 76
0
 77
1
 78
8
 79
3
170
0
171
3
172
1
173
0
174
0
175
0
176
0
177
0
178
0
179
2
271
2
272
2
273
2
274
3
275
0
276
0
277
2
278
44
279
0
280
0
281
0
282
0
283
0
284
8
285
0
286
0
288
0
289
3
290
0
371
-2
372
-2
  0
ENDTAB
  0
TABLE
  2
BLOCK_RECORD
  5
9
330
0
100
AcDbSymbolTable
 70
2
  0
BLOCK_RECORD
  5
17
330
9
100
AcDbSymbolTableRecord
100
AcDbBlockTableRecord
  2
*Model_Space
340
1A
 70
0
280
1
281
0
  0
BLOCK_RECORD
  5
1B
330
9
100
AcDbSymbolTableRecord
100
AcDbBlockTableRecord
  2
*Paper_Space
340
1E
 70
0
280
1
281
0
  0
ENDTAB
  0
ENDSEC
  0
SECTION
  2
BLOCKS
  0
BLOCK
  5
18
330
17
100
AcDbEntity
  8
0
100
AcDbBlockBegin
  2
*Model_Space
 70
0
 10
0.0
 20
0.0
 30
0.0
  3
*Model_Space
  1

  0
ENDBLK
  5
19
330
17
100
AcDbEntity
  8
0
100
AcDbBlockEnd
  0
BLOCK
  5
1C
330
1B
100
AcDbEntity
  8
0
100
AcDbBlockBegin
  2
*Paper_Space
 70
0
 10
0.0
 20
0.0
 30
0.0
  3
*Paper_Space
  1

  0
ENDBLK
  5
1D
330
1B
100
AcDbEntity
  8
0
100
AcDbBlockEnd
  0
ENDSEC
  0
SECTION
  2
ENTITIES
  0
LWPOLYLINE
  5
32
330
17
100
AcDbEntity
  8
GOST_FRAME
100
AcDbPolyline
 90
5
 70
0
 10
0.0
 20
0.0
 10
70.0
 20
0.0
 10
70.0
 20
15.0
 10
0.0
 20
15.0
 10
0.0
 20
0.0
  0
LWPOLYLINE
  5
33
330
17
100
AcDbEntity
  8
FERO_OUTLINE
100
AcDbPolyline
 90
23
 70
1
 10
28.14
 20
6.7840625
 10
28.14
 20
6.2
 10
27.1490625
 20
6.2
 10
27.1490625
 20
6.7840625
 10
26.1255859375
 20
6.9546875
 10
25.45484375
 20
7.376875
 10
25.0848828125
 20
7.9945703125000005
 10
24.9615625
 20
8.74953125
 10
25.090625
 20
9.5318359375
 10
25.4778125
 20
10.141875
 10
26.15375
 20
10.546835937500001
 10
27.1490625
 20
10.71171875
 10
27.1490625
 20
11.2071875
 10
28.14
 20
11.2071875
 10
28.14
 20
10.71171875
 10
29.1591015625
 20
10.5421875
 10
29.82984375
 20
10.123281250000002
 10
30.2030859375
 20
9.507773437500001
 10
30.3275
 20
8.74625
 10
30.2036328125
 20
7.9896484375000005
 10
29.83203125
 20
7.37359375
 10
29.1612890625
 20
6.9538671875
 10
28.14
 20
6.7840625
  0
LWPOLYLINE
  5
34
330
17
100
AcDbEntity
  8
FERO_OUTLINE
100
AcDbPolyline
 90
11
 70
1
 10
28.14
 20
7.6284375
 10
28.509140625
 20
7.661796875
 10
28.822499999999998
 20
7.761875
 10
29.06640625
 20
7.918281250000001
 10
29.2271875
 20
8.120625
 10
29.317421875
 20
8.3987109375
 10
29.3475
 20
8.780156250000001
 10
29.272031249999998
 20
9.25580078125
 10
28.66828125
 20
9.799394531250002
 10
28.14
 20
9.86734375
 10
28.14
 20
7.6284375
  0
LWPOLYLINE
  5
35
330
17
100
AcDbEntity
  8
FERO_OUTLINE
100
AcDbPolyline
 90
9
 70
1
 10
27.1490625
 20
7.6284375
 10
27.1490625
 20
9.86734375
 10
26.59890625
 20
9.795976562500002
 10
26.2259375
 20
9.581875
 10
26.0134765625
 20
9.2233984375
 10
25.94265625
 20
8.71890625
 10
26.018056640624998
 20
8.241826171875001
 10
26.621259765625
 20
7.696591796875
 10
27.1490625
 20
7.6284375
  0
LWPOLYLINE
  5
36
330
17
100
AcDbEntity
  8
FERO_OUTLINE
100
AcDbPolyline
 90
13
 70
1
 10
31.141796875
 20
6.2
 10
31.141796875
 20
11.21046875
 10
34.857265625
 20
11.21046875
 10
34.857265625
 20
10.3628125
 10
32.153515625
 20
10.3628125
 10
32.153515625
 20
9.252656250000001
 10
34.669140625
 20
9.252656250000001
 10
34.669140625
 20
8.40828125
 10
32.153515625
 20
8.40828125
 10
32.153515625
 20
7.0443750000000005
 10
34.952421875
 20
7.0443750000000005
 10
34.952421875
 20
6.2
 10
31.141796875
 20
6.2
  0
LWPOLYLINE
  5
37
330
17
100
AcDbEntity
  8
FERO_OUTLINE
100
AcDbPolyline
 90
20
 70
1
 10
35.8107421875
 20
6.2
 10
35.8107421875
 20
11.21046875
 10
37.4338671875
 20
11.21046875
 10
38.1962109375
 20
11.191875
 10
38.6369921875
 20
11.13609375
 10
39.03265625
 20
10.956445312500001
 10
39.3577734375
 20
10.645
 10
39.5759765625
 20
10.212421875
 10
39.6487109375
 20
9.669375
 10
39.606875
 20
9.244453125
 10
39.4813671875
 20
8.8928125
 10
39.291328125
 20
8.612539062500002
 10
39.0558984375
 20
8.39953125
 10
38.7955859375
 20
8.2505078125
 10
38.5308984375
 20
8.1621875
 10
38.087656249999995
 20
8.108046875
 10
37.4819921875
 20
8.09
 10
36.8224609375
 20
8.09
 10
36.8224609375
 20
6.2
 10
35.8107421875
 20
6.2
  0
LWPOLYLINE
  5
38
330
17
100
AcDbEntity
  8
FERO_OUTLINE
100
AcDbPolyline
 90
16
 70
1
 10
36.8224609375
 20
10.3628125
 10
36.8224609375
 20
8.9409375
 10
37.3758984375
 20
8.9409375
 10
37.874921875
 20
8.960625
 10
38.1754296875
 20
9.0196875
 10
38.355625
 20
9.1205859375
 10
38.4915234375
 20
9.26578125
 10
38.577656250000004
 20
9.446796875
 10
38.6063671875
 20
9.655156250000001
 10
38.566171875
 20
9.904531250000002
 10
38.4455859375
 20
10.10578125
 10
38.2634765625
 20
10.250703125000001
 10
38.0387109375
 20
10.32890625
 10
37.766640625
 20
10.3543359375
 10
37.3113671875
 20
10.3628125
 10
36.8224609375
 20
10.3628125
  0
LWPOLYLINE
  5
39
330
17
100
AcDbEntity
  8
FERO_OUTLINE
100
AcDbPolyline
 90
21
 70
1
 10
40.1778125
 20
8.67515625
 10
40.235234375000005
 20
9.3792578125
 10
40.4075
 20
9.9603125
 10
40.609296875
 20
10.3234375
 10
40.8734375
 20
10.647187500000001
 10
41.18296875
 20
10.911875000000002
 10
41.5209375
 20
11.0978125
 10
42.02515625
 20
11.2462890625
 10
42.6015625
 20
11.295781250000001
 10
43.59796875
 20
11.1240625
 10
44.3734375
 20
10.60890625
 10
44.8721875
 20
9.7877734375
 10
45.0384375
 20
8.698125000000001
 10
44.873554687500004
 20
7.616953125
 10
44.37890625
 20
6.799375
 10
43.6080859375
 20
6.285859375
 10
42.6146875
 20
6.1146875000000005
 10
41.6114453125
 20
6.2850390625
 10
40.83734375
 20
6.796093750000001
 10
40.3426953125
 20
7.607109375
 10
40.1778125
 20
8.67515625
  0
LWPOLYLINE
  5
3A
330
17
100
AcDbEntity
  8
FERO_OUTLINE
100
AcDbPolyline
 90
17
 70
1
 10
41.22015625
 20
8.7090625
 10
41.3183203125
 20
7.9609375
 10
41.612812500000004
 20
7.4184375000000005
 10
42.0593359375
 20
7.0894921875
 10
42.61140625
 20
6.979843750000001
 10
43.162109375
 20
7.088671875
 10
43.60453125
 20
7.415156250000001
 10
43.8957421875
 20
7.9595703125
 10
43.9928125
 20
8.7221875
 10
43.898203124999995
 20
9.4744140625
 10
43.614374999999995
 20
10.00734375
 10
43.1749609375
 20
10.325625
 10
42.61140625
 20
10.431718750000002
 10
42.046484375000006
 20
10.3242578125
 10
41.60296875
 20
10.001875
 10
41.315859375
 20
9.464296875
 10
41.22015625
 20
8.7090625
  0
LWPOLYLINE
  5
3B
330
17
100
AcDbEntity
  8
FERO_OUTLINE
100
AcDbPolyline
 90
23
 70
1
 10
23.643423828124998
 20
2.5501875
 10
23.643423828124998
 20
2.4
 10
23.388611328125
 20
2.4
 10
23.388611328125
 20
2.5501875
 10
23.125431640625
 20
2.5940624999999997
 10
22.952955078125
 20
2.702625
 10
22.857822265625
 20
2.8614609375
 10
22.826111328125
 20
3.05559375
 10
22.859298828125
 20
3.2567578125
 10
22.958861328125
 20
3.413625
 10
23.132673828125
 20
3.5177578125
 10
23.388611328125
 20
3.5601562500000004
 10
23.388611328125
 20
3.6875625000000003
 10
23.643423828124998
 20
3.6875625000000003
 10
23.643423828124998
 20
3.5601562500000004
 10
23.905478515625
 20
3.5165625
 10
24.077955078125
 20
3.40884375
 10
24.173931640625
 20
3.2505703125
 10
24.205923828125
 20
3.05475
 10
24.174072265625
 20
2.8601953125
 10
24.078517578125002
 20
2.70178125
 10
23.906041015625
 20
2.5938515625
 10
23.643423828124998
 20
2.5501875
  0
LWPOLYLINE
  5
3C
330
17
100
AcDbEntity
  8
FERO_OUTLINE
100
AcDbPolyline
 90
10
 70
1
 10
23.643423828124998
 20
2.7673125
 10
23.738345703125
 20
2.7758906249999997
 10
23.818923828125
 20
2.801625
 10
23.881642578125
 20
2.84184375
 10
23.922986328125
 20
2.893875
 10
23.946189453125
 20
2.9653828124999997
 10
23.953923828125
 20
3.06346875
 10
23.876298828125
 20
3.273140625
 10
23.643423828124998
 20
3.34303125
 10
23.643423828124998
 20
2.7673125
  0
LWPOLYLINE
  5
3D
330
17
100
AcDbEntity
  8
FERO_OUTLINE
100
AcDbPolyline
 90
8
 70
1
 10
23.388611328125
 20
2.7673125
 10
23.388611328125
 20
3.34303125
 10
23.247142578125
 20
3.3246796874999998
 10
23.151236328124998
 20
3.269625
 10
23.096603515625
 20
3.1774453124999997
 10
23.078392578125
 20
3.04771875
 10
23.155947265625
 20
2.8374140625
 10
23.388611328125
 20
2.7673125
  0
LWPOLYLINE
  5
3E
330
17
100
AcDbEntity
  8
FERO_OUTLINE
100
AcDbPolyline
 90
9
 70
1
 10
25.532158203125
 20
2.4
 10
25.249220703125
 20
2.4
 10
25.136720703125
 20
2.69278125
 10
24.621470703125
 20
2.69278125
 10
24.515158203125
 20
2.4
 10
24.239251953125
 20
2.4
 10
24.741001953125
 20
3.68840625
 10
25.016345703125
 20
3.68840625
 10
25.532158203125
 20
2.4
  0
LWPOLYLINE
  5
3F
330
17
100
AcDbEntity
  8
FERO_OUTLINE
100
AcDbPolyline
 90
4
 70
1
 10
25.053189453125
 20
2.9099062499999997
 10
24.875720703125
 20
3.38803125
 10
24.701626953125
 20
2.9099062499999997
 10
25.053189453125
 20
2.9099062499999997
  0
LWPOLYLINE
  5
40
330
17
100
AcDbEntity
  8
FERO_OUTLINE
100
AcDbPolyline
 90
35
 70
1
 10
26.449560546875
 20
2.873625
 10
26.701841796875
 20
2.79375
 10
26.624638671875
 20
2.609953125
 10
26.508904296875002
 20
2.4804375
 10
26.355833984375
 20
2.40365625
 10
26.166623046875
 20
2.3780625
 10
25.932693359375
 20
2.4218671874999997
 10
25.744466796875
 20
2.55328125
 10
25.620646484375
 20
2.7609140625
 10
25.579373046875
 20
3.0328125
 10
25.620857421875
 20
3.3185625
 10
25.745310546875
 20
3.5323124999999997
 10
25.937685546875
 20
3.6658359375
 10
26.182373046875
 20
3.71034375
 10
26.396685546875
 20
3.6754687500000003
 10
26.566560546875
 20
3.57084375
 10
26.643341796875
 20
3.47015625
 10
26.698185546875
 20
3.3334687499999998
 10
26.440841796875
 20
3.271875
 10
26.405404296875
 20
3.361453125
 10
26.345216796875
 20
3.4299375000000003
 10
26.265060546875
 20
3.4736015625
 10
26.169154296875
 20
3.4881562500000003
 10
26.039427734375
 20
3.462421875
 10
25.936560546875
 20
3.38521875
 10
25.869693359375
 20
3.250640625
 10
25.847404296875
 20
3.0522187499999998
 10
25.869341796875
 20
2.84296875
 10
25.935154296874998
 20
2.70403125
 10
26.036333984375
 20
2.62640625
 10
26.163810546875
 20
2.60053125
 10
26.260279296874998
 20
2.616984375
 10
26.342123046875
 20
2.66634375
 10
26.406388671875
 20
2.7510703125
 10
26.449560546875
 20
2.873625
  0
LWPOLYLINE
  5
41
330
17
100
AcDbEntity
  8
FERO_OUTLINE
100
AcDbPolyline
 90
9
 70
1
 10
28.041962890625
 20
2.4
 10
27.759025390625
 20
2.4
 10
27.646525390625
 20
2.69278125
 10
27.131275390625
 20
2.69278125
 10
27.024962890624998
 20
2.4
 10
26.749056640625
 20
2.4
 10
27.250806640625
 20
3.68840625
 10
27.526150390625
 20
3.68840625
 10
28.041962890625
 20
2.4
  0
LWPOLYLINE
  5
42
330
17
100
AcDbEntity
  8
FERO_OUTLINE
100
AcDbPolyline
 90
4
 70
1
 10
27.562994140625
 20
2.9099062499999997
 10
27.385525390625
 20
3.38803125
 10
27.211431640625
 20
2.9099062499999997
 10
27.562994140625
 20
2.9099062499999997
  0
LWPOLYLINE
  5
43
330
17
100
AcDbEntity
  8
FERO_OUTLINE
100
AcDbPolyline
 90
17
 70
1
 10
28.351021484375
 20
3.68840625
 10
29.241458984375
 20
3.68840625
 10
29.241458984375
 20
2.61628125
 10
29.354802734375
 20
2.61628125
 10
29.354802734375
 20
2.11875
 10
29.138521484375
 20
2.11875
 10
29.138521484375
 20
2.4
 10
28.327396484375
 20
2.4
 10
28.327396484375
 20
2.11875
 10
28.111115234375
 20
2.11875
 10
28.111115234375
 20
2.61628125
 10
28.220240234375
 20
2.61628125
 10
28.286474609375
 20
2.7946640625
 10
28.325427734375
 20
2.999625
 10
28.344623046875
 20
3.2470546875
 10
28.351021484375
 20
3.55228125
 10
28.351021484375
 20
3.68840625
  0
LWPOLYLINE
  5
44
330
17
100
AcDbEntity
  8
FERO_OUTLINE
100
AcDbPolyline
 90
6
 70
1
 10
28.599083984375
 20
3.47240625
 10
28.572505859375
 20
2.96475
 10
28.492771484375
 20
2.61628125
 10
28.982146484375
 20
2.61628125
 10
28.982146484375
 20
3.47240625
 10
28.599083984375
 20
3.47240625
  0
LWPOLYLINE
  5
45
330
17
100
AcDbEntity
  8
FERO_OUTLINE
100
AcDbPolyline
 90
13
 70
1
 10
29.530689453125
 20
2.4
 10
29.530689453125
 20
3.68840625
 10
29.790845703125
 20
3.68840625
 10
29.790845703125
 20
3.1813124999999998
 10
30.300470703125
 20
3.1813124999999998
 10
30.300470703125
 20
3.68840625
 10
30.560626953125002
 20
3.68840625
 10
30.560626953125002
 20
2.4
 10
30.300470703125
 20
2.4
 10
30.300470703125
 20
2.96334375
 10
29.790845703125
 20
2.96334375
 10
29.790845703125
 20
2.4
 10
29.530689453125
 20
2.4
  0
LWPOLYLINE
  5
46
330
17
100
AcDbEntity
  8
FERO_OUTLINE
100
AcDbPolyline
 90
18
 70
1
 10
30.836779296875
 20
3.68840625
 10
31.096935546875002
 20
3.68840625
 10
31.096935546875002
 20
3.1734375
 10
31.444841796875
 20
3.1734375
 10
31.572458984375
 20
3.1640859375000003
 10
31.680810546875
 20
3.1360312500000003
 10
31.771513671875002
 20
3.0839296875
 10
31.845623046875
 20
3.0024375
 10
31.895193359375
 20
2.899078125
 10
31.911716796875
 20
2.7813749999999997
 10
31.894560546875002
 20
2.6596640625
 10
31.843091796875
 20
2.55609375
 10
31.770599609375
 20
2.477484375
 10
31.690373046875003
 20
2.4306562499999997
 10
31.587083984375
 20
2.4076640625
 10
31.444841796875
 20
2.4
 10
30.836779296875
 20
2.4
 10
30.836779296875
 20
3.68840625
  0
LWPOLYLINE
  5
47
330
17
100
AcDbEntity
  8
FERO_OUTLINE
100
AcDbPolyline
 90
14
 70
1
 10
31.096935546875002
 20
2.61628125
 10
31.350904296875
 20
2.61628125
 10
31.453771484375
 20
2.619234375
 10
31.519935546875
 20
2.62809375
 10
31.565287109375
 20
2.6475
 10
31.605154296875
 20
2.68209375
 10
31.633208984375003
 20
2.728921875
 10
31.642560546875
 20
2.78503125
 10
31.627302734375
 20
2.8603359375
 10
31.581529296875
 20
2.914125
 10
31.495958984375
 20
2.9463984375
 10
31.361310546875
 20
2.9571562499999997
 10
31.096935546875002
 20
2.9571562499999997
 10
31.096935546875002
 20
2.61628125
  0
LWPOLYLINE
  5
48
330
17
100
AcDbEntity
  8
FERO_OUTLINE
100
AcDbPolyline
 90
5
 70
1
 10
32.061904296875
 20
3.68840625
 10
32.322060546875
 20
3.68840625
 10
32.322060546875
 20
2.4
 10
32.061904296875
 20
2.4
 10
32.061904296875
 20
3.68840625
  0
LWPOLYLINE
  5
49
330
17
100
AcDbEntity
  8
FERO_OUTLINE
100
AcDbPolyline
 90
11
 70
1
 10
32.595330078125
 20
3.68840625
 10
32.838892578125
 20
3.68840625
 10
32.838892578125
 20
2.83059375
 10
33.360892578125004
 20
3.68840625
 10
33.620205078125004
 20
3.68840625
 10
33.620205078125004
 20
2.4
 10
33.376642578125
 20
2.4
 10
33.376642578125
 20
3.24121875
 10
32.855486328125004
 20
2.4
 10
32.595330078125
 20
2.4
 10
32.595330078125
 20
3.68840625
  0
LWPOLYLINE
  5
4A
330
17
100
AcDbEntity
  8
FERO_OUTLINE
100
AcDbPolyline
 90
19
 70
1
 10
33.262736328125
 20
4.01634375
 10
33.383111328125
 20
4.01634375
 10
33.356955078125
 20
3.9096796875
 10
33.299298828125
 20
3.8287500000000003
 10
33.214994140625
 20
3.777703125
 10
33.108892578125
 20
3.7606875
 10
33.003001953125
 20
3.777703125
 10
32.918767578125
 20
3.8287500000000003
 10
32.861041015625
 20
3.9096796875
 10
32.834673828125
 20
4.01634375
 10
32.955048828125
 20
4.01634375
 10
32.969111328125
 20
3.9616406250000002
 10
32.998923828125
 20
3.92184375
 10
33.045400390625
 20
3.897796875
 10
33.108892578125
 20
3.8897812500000004
 10
33.172525390625
 20
3.897796875
 10
33.218861328125
 20
3.92184375
 10
33.248673828125
 20
3.9616406250000002
 10
33.262736328125
 20
4.01634375
  0
LWPOLYLINE
  5
4B
330
17
100
AcDbEntity
  8
FERO_OUTLINE
100
AcDbPolyline
 90
11
 70
1
 10
34.389177734375004
 20
3.68840625
 10
34.632740234375
 20
3.68840625
 10
34.632740234375
 20
2.83059375
 10
35.154740234375
 20
3.68840625
 10
35.414052734375005
 20
3.68840625
 10
35.414052734375005
 20
2.4
 10
35.170490234375
 20
2.4
 10
35.170490234375
 20
3.24121875
 10
34.649333984375005
 20
2.4
 10
34.389177734375004
 20
2.4
 10
34.389177734375004
 20
3.68840625
  0
LWPOLYLINE
  5
4C
330
17
100
AcDbEntity
  8
FERO_OUTLINE
100
AcDbPolyline
 90
13
 70
1
 10
35.680396484375
 20
2.4
 10
35.680396484375
 20
3.68840625
 10
35.940552734375004
 20
3.68840625
 10
35.940552734375004
 20
3.1813124999999998
 10
36.450177734375
 20
3.1813124999999998
 10
36.450177734375
 20
3.68840625
 10
36.710333984375
 20
3.68840625
 10
36.710333984375
 20
2.4
 10
36.450177734375
 20
2.4
 10
36.450177734375
 20
2.96334375
 10
35.940552734375004
 20
2.96334375
 10
35.940552734375004
 20
2.4
 10
35.680396484375
 20
2.4
  0
LWPOLYLINE
  5
4D
330
17
100
AcDbEntity
  8
FERO_OUTLINE
100
AcDbPolyline
 90
82
 70
1
 10
37.788892578125
 20
3.68840625
 10
37.788892578125
 20
3.13996875
 10
37.845986328125
 20
3.154734375
 10
37.887330078125004
 20
3.18834375
 10
37.927126953125004
 20
3.2590781250000003
 10
37.979580078125004
 20
3.38521875
 10
38.057767578125
 20
3.5501015625
 10
38.137642578125
 20
3.6420000000000003
 10
38.244306640625
 20
3.6827109375
 10
38.403986328125
 20
3.69628125
 10
38.417978515625
 20
3.6965624999999998
 10
38.441955078125005
 20
3.6974062500000002
 10
38.441955078125005
 20
3.50475
 10
38.403986328125
 20
3.50559375
 10
38.335501953125004
 20
3.500671875
 10
38.288111328125
 20
3.48590625
 10
38.254712890625
 20
3.461015625
 10
38.228205078125
 20
3.4257187499999997
 10
38.199939453125
 20
3.3639140625
 10
38.160705078125005
 20
3.2595
 10
38.135814453125
 20
3.1982578125
 10
38.108955078125
 20
3.14784375
 10
38.070705078125
 20
3.104390625
 10
38.011080078125005
 20
3.06346875
 10
38.090603515625006
 20
3.025921875
 10
38.154798828125
 20
2.96390625
 10
38.21435351562501
 20
2.8741171875
 10
38.279392578125
 20
2.75325
 10
38.455173828125
 20
2.4
 10
38.149173828125
 20
2.4
 10
37.994486328125
 20
2.733
 10
37.989494140625
 20
2.7433359375
 10
37.979580078125004
 20
2.76028125
 10
37.968119140625
 20
2.782078125
 10
37.947798828125
 20
2.82103125
 10
37.902939453125
 20
2.896546875
 10
37.866798828125
 20
2.93859375
 10
37.831572265625
 20
2.9577890625
 10
37.788892578125
 20
2.9641875
 10
37.788892578125
 20
2.4
 10
37.534923828125
 20
2.4
 10
37.534923828125
 20
2.9641875
 10
37.493017578125006
 20
2.958
 10
37.457298828125005
 20
2.9394375
 10
37.420947265625
 20
2.8976015625
 10
37.376580078125
 20
2.82103125
 10
37.354853515625
 20
2.77940625
 10
37.344236328125
 20
2.76028125
 10
37.336361328125
 20
2.7468515625
 10
37.329048828125
 20
2.733
 10
37.174361328125
 20
2.4
 10
36.868642578125005
 20
2.4
 10
37.044423828125005
 20
2.75325
 10
37.107564453125
 20
2.8707421875
 10
37.167048828125004
 20
2.96109375
 10
37.232439453125004
 20
3.02521875
 10
37.313298828125
 20
3.06346875
 10
37.253603515625
 20
3.1043203125
 10
37.215142578125004
 20
3.1475625000000003
 10
37.188353515625
 20
3.1977656249999997
 10
37.163111328125
 20
3.2595
 10
37.124580078125
 20
3.3622265625
 10
37.096736328125004
 20
3.42403125
 10
37.070509765625005
 20
3.46003125
 10
37.036830078125
 20
3.48534375
 10
36.987892578125
 20
3.50053125
 10
36.915330078125
 20
3.50559375
 10
36.901619140625
 20
3.5053828125
 10
36.881861328125
 20
3.50475
 10
36.881861328125
 20
3.6974062500000002
 10
36.905767578125
 20
3.6965624999999998
 10
36.919548828125
 20
3.69628125
 10
37.081267578125
 20
3.6825
 10
37.188423828125
 20
3.64115625
 10
37.267033203125
 20
3.549046875
 10
37.344236328125
 20
3.38521875
 10
37.397181640625
 20
3.2585156250000002
 10
37.436767578125
 20
3.18778125
 10
37.477759765625
 20
3.15459375
 10
37.534923828125
 20
3.13996875
 10
37.534923828125
 20
3.68840625
 10
37.788892578125
 20
3.68840625
  0
LWPOLYLINE
  5
4E
330
17
100
AcDbEntity
  8
FERO_OUTLINE
100
AcDbPolyline
 90
11
 70
1
 10
38.609685546875
 20
3.68840625
 10
38.853248046875
 20
3.68840625
 10
38.853248046875
 20
2.83059375
 10
39.375248046875
 20
3.68840625
 10
39.634560546875
 20
3.68840625
 10
39.634560546875
 20
2.4
 10
39.390998046875
 20
2.4
 10
39.390998046875
 20
3.24121875
 10
38.869841796875
 20
2.4
 10
38.609685546875
 20
2.4
 10
38.609685546875
 20
3.68840625
  0
LWPOLYLINE
  5
4F
330
17
100
AcDbEntity
  8
FERO_OUTLINE
100
AcDbPolyline
 90
13
 70
1
 10
39.900904296875
 20
2.4
 10
39.900904296875
 20
3.68840625
 10
40.16106054687501
 20
3.68840625
 10
40.16106054687501
 20
3.1813124999999998
 10
40.670685546875006
 20
3.1813124999999998
 10
40.670685546875006
 20
3.68840625
 10
40.930841796875
 20
3.68840625
 10
40.930841796875
 20
2.4
 10
40.670685546875006
 20
2.4
 10
40.670685546875006
 20
2.96334375
 10
40.16106054687501
 20
2.96334375
 10
40.16106054687501
 20
2.4
 10
39.900904296875
 20
2.4
  0
LWPOLYLINE
  5
50
330
17
100
AcDbEntity
  8
FERO_OUTLINE
100
AcDbPolyline
 90
11
 70
1
 10
41.203337890625
 20
3.68840625
 10
41.446900390625004
 20
3.68840625
 10
41.446900390625004
 20
2.83059375
 10
41.968900390625
 20
3.68840625
 10
42.228212890625
 20
3.68840625
 10
42.228212890625
 20
2.4
 10
41.984650390625006
 20
2.4
 10
41.984650390625006
 20
3.24121875
 10
41.463494140625
 20
2.4
 10
41.203337890625
 20
2.4
 10
41.203337890625
 20
3.68840625
  0
LWPOLYLINE
  5
51
330
17
100
AcDbEntity
  8
FERO_OUTLINE
100
AcDbPolyline
 90
20
 70
1
 10
42.493712890625005
 20
2.4
 10
42.493712890625005
 20
3.68840625
 10
42.911087890625
 20
3.68840625
 10
43.107119140625
 20
3.683625
 10
43.220462890625
 20
3.66928125
 10
43.322205078125
 20
3.6230859375
 10
43.405806640625
 20
3.543
 10
43.46191601562501
 20
3.431765625
 10
43.480619140625
 20
3.292125
 10
43.469861328125006
 20
3.182859375
 10
43.437587890625004
 20
3.0924375
 10
43.388720703125
 20
3.0203671874999998
 10
43.328181640625004
 20
2.96559375
 10
43.261244140625
 20
2.9272734375000002
 10
43.193181640625
 20
2.9045625
 10
43.079205078125
 20
2.890640625
 10
42.923462890625004
 20
2.886
 10
42.753869140625
 20
2.886
 10
42.753869140625
 20
2.4
 10
42.493712890625005
 20
2.4
  0
LWPOLYLINE
  5
52
330
17
100
AcDbEntity
  8
FERO_OUTLINE
100
AcDbPolyline
 90
16
 70
1
 10
42.753869140625
 20
3.4704375
 10
42.753869140625
 20
3.1048125
 10
42.896181640625
 20
3.1048125
 10
43.024501953125
 20
3.1098749999999997
 10
43.101775390625
 20
3.1250625
 10
43.148111328125
 20
3.1510078125
 10
43.183056640625
 20
3.18834375
 10
43.205205078125005
 20
3.2348906250000002
 10
43.212587890625
 20
3.28846875
 10
43.202251953125
 20
3.35259375
 10
43.17124414062501
 20
3.40434375
 10
43.124416015625
 20
3.441609375
 10
43.066619140625
 20
3.46171875
 10
42.99665820312501
 20
3.4682578125
 10
42.879587890625004
 20
3.4704375
 10
42.753869140625
 20
3.4704375
  0
LWPOLYLINE
  5
53
330
17
100
AcDbEntity
  8
FERO_OUTLINE
100
AcDbPolyline
 90
11
 70
1
 10
43.697673828125005
 20
3.68840625
 10
43.941236328125
 20
3.68840625
 10
43.941236328125
 20
2.83059375
 10
44.46323632812501
 20
3.68840625
 10
44.722548828125
 20
3.68840625
 10
44.722548828125
 20
2.4
 10
44.478986328125
 20
2.4
 10
44.478986328125
 20
3.24121875
 10
43.957830078125
 20
2.4
 10
43.697673828125005
 20
2.4
 10
43.697673828125005
 20
3.68840625
  0
LWPOLYLINE
  5
54
330
17
100
AcDbEntity
  8
FERO_OUTLINE
100
AcDbPolyline
 90
13
 70
1
 10
44.988892578125004
 20
2.4
 10
44.988892578125004
 20
3.68840625
 10
45.249048828125
 20
3.68840625
 10
45.249048828125
 20
3.1813124999999998
 10
45.758673828125
 20
3.1813124999999998
 10
45.758673828125
 20
3.68840625
 10
46.018830078125006
 20
3.68840625
 10
46.018830078125006
 20
2.4
 10
45.758673828125
 20
2.4
 10
45.758673828125
 20
2.96334375
 10
45.249048828125
 20
2.96334375
 10
45.249048828125
 20
2.4
 10
44.988892578125004
 20
2.4
  0
LWPOLYLINE
  5
55
330
17
100
AcDbEntity
  8
FERO_OUTLINE
100
AcDbPolyline
 90
7
 70
1
 10
46.301169921875
 20
3.68840625
 10
47.173888671875005
 20
3.68840625
 10
47.173888671875005
 20
3.47240625
 10
46.561326171875
 20
3.47240625
 10
46.561326171875
 20
2.4
 10
46.301169921875
 20
2.4
 10
46.301169921875
 20
3.68840625
  0
TEXT
  5
56
330
17
100
AcDbEntity
  8
FERO_TEXT
100
AcDbText
 10
35.0
 20
6.5
 30
0.0
 40
6.5
  1
ФЕРО
 72
1
 11
35.0
 21
6.5
 31
0.0
100
AcDbText
  0
TEXT
  5
57
330
17
100
AcDbEntity
  8
FERO_TEXT
100
AcDbText
 10
35.0
 20
2.5
 30
0.0
 40
1.8
  1
ФАСАДНЫЙ ИНЖИНИРИНГ
 72
1
 11
35.0
 21
2.5
 31
0.0
100
AcDbText
  0
ENDSEC
  0
SECTION
  2
OBJECTS
  0
DICTIONARY
  5
A
330
0
100
AcDbDictionary
281
1
  3
ACAD_COLOR
350
B
  3
ACAD_GROUP
350
C
  3
ACAD_LAYOUT
350
D
  3
ACAD_MATERIAL
350
E
  3
ACAD_MLEADERSTYLE
350
F
  3
ACAD_MLINESTYLE
350
10
  3
ACAD_PLOTSETTINGS
350
11
  3
ACAD_PLOTSTYLENAME
350
12
  3
ACAD_SCALELIST
350
14
  3
ACAD_TABLESTYLE
350
15
  3
ACAD_VISUALSTYLE
350
16
  3
EZDXF_META
350
2D
  0
DICTIONARY
  5
B
330
A
100
AcDbDictionary
281
1
  0
DICTIONARY
  5
C
330
A
100
AcDbDictionary
281
1
  0
DICTIONARY
  5
D
330
A
100
AcDbDictionary
281
1
  3
Model
350
1A
  3
Layout1
350
1E
  0
DICTIONARY
  5
E
330
A
100
AcDbDictionary
281
1
  3
ByBlock
350
1F
  3
ByLayer
350
20
  3
Global
350
21
  0
DICTIONARY
  5
F
330
A
100
AcDbDictionary
281
1
  3
Standard
350
2C
  0
DICTIONARY
  5
10
330
A
100
AcDbDictionary
281
1
  3
Standard
350
22
  0
DICTIONARY
  5
11
330
A
100
AcDbDictionary
281
1
  0
ACDBDICTIONARYWDFLT
  5
12
330
A
100
AcDbDictionary
281
1
  3
Normal
350
13
100
AcDbDictionaryWithDefault
340
13
  0
ACDBPLACEHOLDER
  5
13
330
12
  0
DICTIONARY
  5
14
330
A
100
AcDbDictionary
281
1
  0
DICTIONARY
  5
15
330
A
100
AcDbDictionary
281
1
  0
DICTIONARY
  5
16
330
A
100
AcDbDictionary
281
1
  0
LAYOUT
  5
1A
330
D
100
AcDbPlotSettings
  1

  4
A3
  6

 40
7.5
 41
20.0
 42
7.5
 43
20.0
 44
420.0
 45
297.0
 46
0.0
 47
0.0
 48
0.0
 49
0.0
140
0.0
141
0.0
142
1.0
143
1.0
 70
1024
 72
1
 73
0
 74
5
  7

 75
16
 76
0
 77
2
 78
300
147
1.0
148
0.0
149
0.0
100
AcDbLayout
  1
Model
 70
1
 71
0
 10
0.0
 20
0.0
 11
420.0
 21
297.0
 12
0.0
 22
0.0
 32
0.0
 14
1e+20
 24
1e+20
 34
1e+20
 15
-1e+20
 25
-1e+20
 35
-1e+20
146
0.0
 13
0.0
 23
0.0
 33
0.0
 16
1.0
 26
0.0
 36
0.0
 17
0.0
 27
1.0
 37
0.0
 76
1
330
17
  0
LAYOUT
  5
1E
330
D
100
AcDbPlotSettings
  1

  4
A3
  6

 40
7.5
 41
20.0
 42
7.5
 43
20.0
 44
420.0
 45
297.0
 46
0.0
 47
0.0
 48
0.0
 49
0.0
140
0.0
141
0.0
142
1.0
143
1.0
 70
0
 72
1
 73
0
 74
5
  7

 75
16
 76
0
 77
2
 78
300
147
1.0
148
0.0
149
0.0
100
AcDbLayout
  1
Layout1
 70
1
 71
1
 10
0.0
 20
0.0
 11
420.0
 21
297.0
 12
0.0
 22
0.0
 32
0.0
 14
1e+20
 24
1e+20
 34
1e+20
 15
-1e+20
 25
-1e+20
 35
-1e+20
146
0.0
 13
0.0
 23
0.0
 33
0.0
 16
1.0
 26
0.0
 36
0.0
 17
0.0
 27
1.0
 37
0.0
 76
1
330
1B
  0
MATERIAL
  5
1F
102
{ACAD_REACTORS
330
E
102
}
330
E
100
AcDbMaterial
  1
ByBlock
  2

 70
0
 40
1.0
 71
1
 41
1.0
 91
-1023410177
 42
1.0
 72
1
  3

 73
1
 74
1
 75
1
 44
0.5
 73
0
 45
1.0
 46
1.0
 77
1
  4

 78
1
 79
1
170
1
 48
1.0
171
1
  6

172
1
173
1
174
1
140
1.0
141
1.0
175
1
  7

176
1
177
1
178
1
143
1.0
179
1
  8

270
1
271
1
272
1
145
1.0
146
1.0
273
1
  9

274
1
275
1
276
1
 42
1.0
 72
1
  3

 73
1
 74
1
 75
1
 94
63
  0
MATERIAL
  5
20
102
{ACAD_REACTORS
330
E
102
}
330
E
100
AcDbMaterial
  1
ByLayer
  2

 70
0
 40
1.0
 71
1
 41
1.0
 91
-1023410177
 42
1.0
 72
1
  3

 73
1
 74
1
 75
1
 44
0.5
 73
0
 45
1.0
 46
1.0
 77
1
  4

 78
1
 79
1
170
1
 48
1.0
171
1
  6

172
1
173
1
174
1
140
1.0
141
1.0
175
1
  7

176
1
177
1
178
1
143
1.0
179
1
  8

270
1
271
1
272
1
145
1.0
146
1.0
273
1
  9

274
1
275
1
276
1
 42
1.0
 72
1
  3

 73
1
 74
1
 75
1
 94
63
  0
MATERIAL
  5
21
102
{ACAD_REACTORS
330
E
102
}
330
E
100
AcDbMaterial
  1
Global
  2

 70
0
 40
1.0
 71
1
 41
1.0
 91
-1023410177
 42
1.0
 72
1
  3

 73
1
 74
1
 75
1
 44
0.5
 73
0
 45
1.0
 46
1.0
 77
1
  4

 78
1
 79
1
170
1
 48
1.0
171
1
  6

172
1
173
1
174
1
140
1.0
141
1.0
175
1
  7

176
1
177
1
178
1
143
1.0
179
1
  8

270
1
271
1
272
1
145
1.0
146
1.0
273
1
  9

274
1
275
1
276
1
 42
1.0
 72
1
  3

 73
1
 74
1
 75
1
 94
63
  0
MLINESTYLE
  5
22
102
{ACAD_REACTORS
330
10
102
}
330
10
100
AcDbMlineStyle
  2
Standard
 70
0
  3

 62
256
 51
90.0
 52
90.0
 71
2
 49
0.5
 62
256
  6
BYLAYER
 49
-0.5
 62
256
  6
BYLAYER
  0
MLEADERSTYLE
  5
2C
102
{ACAD_REACTORS
330
F
102
}
330
F
100
AcDbMLeaderStyle
179
2
170
2
171
1
172
0
 90
2
 40
0.0
 41
0.0
173
1
 91
-1056964608
 92
-2
290
1
 42
2.0
291
1
 43
8.0
  3
Standard
 44
4.0
300

342
29
174
1
175
1
176
0
178
1
 93
-1056964608
 45
4.0
292
0
297
0
 46
4.0
 94
-1056964608
 47
1.0
 49
1.0
140
1.0
294
1
141
0.0
177
0
142
1.0
295
0
296
0
143
3.75
271
0
272
9
273
9
  0
DICTIONARY
  5
2D
330
A
100
AcDbDictionary
280
1
281
1
  3
CREATED_BY_EZDXF
350
2E
  3
WRITTEN_BY_EZDXF
350
5A
  0
DICTIONARYVAR
  5
2E
330
2D
100
DictionaryVariables
280
0
  1
1.4.4 @ 2026-09-14T07:01:38.167281+00:00
  0
DICTIONARYVAR
  5
5A
330
2D
100
DictionaryVariables
280
0
  1
1.4.4 @ 2026-09-14T07:01:38.297458+00:00
  0
ENDSEC
  0
EOF
